<?xml version="1.0" encoding="UTF-8"?>
<svg width="1700px" height="1200px" viewBox="0 0 1700 1200" version="1.1" xmlns="http://www.w3.org/2000/svg" xmlns:xlink="http://www.w3.org/1999/xlink">
    <!-- Generator: Sketch 56.1 (81669) - https://sketch.com -->
    <title>Chat</title>
    <desc>Created with Sketch.</desc>
    <g id="Chat" stroke="none" stroke-width="1" fill="none" fill-rule="evenodd">
        <g id="Group" transform="translate(150.000000, 175.000000)">
            <g id="UI-/-Social-/-Chat-2" transform="translate(423.000000, 0.000000)">
                <g id="Chat-2" transform="translate(120.000000, 180.000000)">
                    <rect id="Background-Copy-2" fill="#D8DEED" fill-rule="nonzero" x="0" y="0" width="413" height="125" rx="20"></rect>
                    <g id="Userpic" transform="translate(36.359091, 26.096970)">
                        <g>
                            <path d="M314.090909,73.1454545 C294.15845,73.1454545 278,56.973437 278,37.0242424 C278,17.0750478 294.15845,0.903030303 314.090909,0.903030303 C334.023368,0.903030303 350.181818,17.0750478 350.181818,37.0242424 C350.181818,56.973437 334.023368,73.1454545 314.090909,73.1454545 Z M314.072369,36.5361179 C318.987222,36.5361179 322.971498,32.6023839 322.971498,27.7498771 C322.971498,22.8973704 318.987222,18.9636364 314.072369,18.9636364 C309.157516,18.9636364 305.173241,22.8973704 305.173241,27.7498771 C305.173241,32.6023839 309.157516,36.5361179 314.072369,36.5361179 Z M314.072369,40.9292383 C305.164194,40.9292383 297.942699,48.0591263 297.942699,56.8542998 L330.202039,56.8542998 C330.202039,48.0591263 322.980545,40.9292383 314.072369,40.9292383 Z M2.1,33.4121212 L211.036364,33.4121212 C212.140933,33.4121212 213.036364,34.3075517 213.036364,35.4121212 L213.036364,45.8606061 C213.036364,46.9651756 212.140933,47.8606061 211.036364,47.8606061 L2.1,47.8606061 C0.9954305,47.8606061 0.1,46.9651756 0.1,45.8606061 L0.1,35.4121212 C0.1,34.3075517 0.9954305,33.4121212 2.1,33.4121212 Z M2.1,56.8909091 L229.081818,56.8909091 C230.186388,56.8909091 231.081818,57.7863396 231.081818,58.8909091 L231.081818,69.3393939 C231.081818,70.4439634 230.186388,71.3393939 229.081818,71.3393939 L2.1,71.3393939 C0.9954305,71.3393939 0.1,70.4439634 0.1,69.3393939 L0.1,58.8909091 C0.1,57.7863396 0.9954305,56.8909091 2.1,56.8909091 Z" id="Combined-Shape" fill="#F2F6FB" fill-rule="nonzero"></path>
                            <g id="Icons-/-User" transform="translate(297.850000, 18.060606)"></g>
                        </g>
                    </g>
                    <g id="Text" transform="translate(36.459091, 35.127273)" fill="#E1E5F0" fill-rule="nonzero">
                        <rect id="Title" x="2.84217094e-13" y="0.903030303" width="234.590909" height="14.4484848" rx="2"></rect>
                    </g>
                </g>
                <g id="Chat-1" transform="translate(0.000000, 71.000000)">
                    <rect id="Background-Copy" fill="#F2F6FB" fill-rule="nonzero" x="0" y="0" width="413" height="125" rx="20"></rect>
                    <g id="Userpic" transform="translate(36.459091, 26.406061)">
                        <g>
                            <path d="M36.0909091,72.2424242 C16.1584504,72.2424242 1.5063506e-12,56.0704067 1.5063506e-12,36.1212121 C1.5063506e-12,16.1720175 16.1584504,-4.61852778e-14 36.0909091,-4.61852778e-14 C56.0233678,-4.61852778e-14 72.1818182,16.1720175 72.1818182,36.1212121 C72.1818182,56.0704067 56.0233678,72.2424242 36.0909091,72.2424242 Z M36.0723692,35.6330876 C40.9872221,35.6330876 44.9714975,31.6993536 44.9714975,26.8468468 C44.9714975,21.9943401 40.9872221,18.0606061 36.0723692,18.0606061 C31.1575164,18.0606061 27.173241,21.9943401 27.173241,26.8468468 C27.173241,31.6993536 31.1575164,35.6330876 36.0723692,35.6330876 Z M36.0723692,40.026208 C27.1641935,40.026208 19.9426993,47.156096 19.9426993,55.9512695 L52.2020392,55.9512695 C52.2020392,47.156096 44.980545,40.026208 36.0723692,40.026208 Z M92.2272727,28.8969697 L301.163636,28.8969697 C302.268206,28.8969697 303.163636,29.7924002 303.163636,30.8969697 L303.163636,41.3454545 C303.163636,42.450024 302.268206,43.3454545 301.163636,43.3454545 L92.2272727,43.3454545 C91.1227032,43.3454545 90.2272727,42.450024 90.2272727,41.3454545 L90.2272727,30.8969697 C90.2272727,29.7924002 91.1227032,28.8969697 92.2272727,28.8969697 Z M92.2272727,52.3757576 L337.254545,52.3757576 C338.359115,52.3757576 339.254545,53.2711881 339.254545,54.3757576 L339.254545,64.8242424 C339.254545,65.9288119 338.359115,66.8242424 337.254545,66.8242424 L92.2272727,66.8242424 C91.1227032,66.8242424 90.2272727,65.9288119 90.2272727,64.8242424 L90.2272727,54.3757576 C90.2272727,53.2711881 91.1227032,52.3757576 92.2272727,52.3757576 Z" id="Combined-Shape" fill="#D8DEED" fill-rule="nonzero"></path>
                            <g id="Icons-/-User" transform="translate(19.850000, 18.060606)"></g>
                        </g>
                    </g>
                    <g id="Text" transform="translate(126.686364, 31.824242)" fill="#E1E5F0" fill-rule="nonzero">
                        <rect id="Title" x="0" y="0" width="162.409091" height="14.4484848" rx="2"></rect>
                    </g>
                </g>
            </g>
            <g id="Interior-/-Window-/-Window-2" transform="translate(951.000000, 305.000000)">
                <g id="Window-2">
                    <rect id="Rectangle" fill="#F2F6FB" fill-rule="nonzero" x="14" y="302" width="379" height="149"></rect>
                    <path d="M83,14 L83,52 C83,90.1076477 52.1076477,121 14,121 L14,83 C14,44.8923523 44.8923523,14 83,14 Z M317,14 C355.107648,14 386,44.8923523 386,83 L386,121 C347.892352,121 317,90.1076477 317,52 L317,14 Z M0,439 L400,439 L400,458 L0,458 L0,439 Z" id="Combined-Shape" fill="#E1E5F0" fill-rule="nonzero"></path>
                    <path d="M41.1916572,115.435435 C32.8477364,119.016767 23.6554727,121 14,121 L14,242 L75,242 L41.1916572,115.435435 Z M386,121 C376.344527,121 367.152264,119.016767 358.808343,115.435435 L325,242 L386,242 L386,121 Z M400,458 L400,492 L0,492 L0,458 L400,458 Z M0,439 L0,100 C0,44.771525 44.771525,0 100,0 L300,0 C355.228475,0 400,44.771525 400,100 L400,439 L0,439 Z M386,439 L386,100 C386,52.5035115 347.496488,14 300,14 L100,14 C52.5035115,14 14,52.5035115 14,100 L14,439 L386,439 Z" id="Combined-Shape" fill="#D8DEED" fill-rule="nonzero"></path>
                </g>
            </g>
            <g id="Woman" transform="translate(1020.000000, 460.000000)">
                <path d="M104.707753,103.680211 L126.507753,97.1802107 C158.207753,92.4802107 186.107753,105.980211 194.107753,135.180211 L229.01904,282.779366 L229.307753,284 L181.791992,284 L98.8191085,284 L68.1077534,180.280211 C60.0077534,150.980211 75.9077534,111.880211 104.707753,103.680211 Z" id="Path" fill="#FF5645" fill-rule="nonzero"></path>
                <path d="M189.007753,190.380211 L133.707753,178.080211 C131.907753,177.680211 130.807753,175.880211 131.207753,174.080211 L132.907753,166.580211 C133.307753,164.780211 135.107753,163.680211 136.907753,164.080211 L192.207753,176.380211 C194.007753,176.780211 195.107753,178.580211 194.707753,180.380211 L193.007753,187.880211 C192.607753,189.580211 190.807753,190.780211 189.007753,190.380211 Z" id="Path" fill="#FF4B38" fill-rule="nonzero"></path>
                <path d="" id="Path-2"></path>
                <path d="M87.6077534,114.114144 C87.6077534,114.114144 85.7077534,121.714144 95.8077534,119.614144 C105.907753,117.514144 108.807753,116.514144 108.807753,116.514144 L106.207753,109.614144 L87.6077534,114.114144 Z" id="Path" fill="#482D1F" fill-rule="nonzero"></path>
                <path d="M201.607753,270.114144 C209.407753,255.114144 217.641087,218.655869 226.307753,160.739317 L172.012947,164.428771 C166.209484,186.21902 163.307753,197.114144 163.307753,197.114144 L142.907753,100.214144 C137.907753,91.2141443 127.707753,96.4141443 116.907753,106.014144 C116.307753,106.614144 103.607753,100.014144 103.407753,100.214144 C110.807753,142.814144 107.607753,187.914144 115.007753,230.514144 C119.507886,254.457159 127.730703,273.115839 139.676203,286.490184 L139.676203,286.490184 C143.490543,290.760771 148.483766,293.8066 154.026483,295.243747 C174.302013,300.500904 190.162436,292.12437 201.607753,270.114144 Z" id="Path" fill="#DB9E75" fill-rule="nonzero"></path>
                <path d="M163.707753,197.214144 L173.607753,230.614144" id="Path" stroke="#482D1F" stroke-width="3" stroke-linecap="round" stroke-linejoin="round"></path>
                <path d="M140.807753,111.814144 C140.407753,112.014144 139.807753,112.214144 139.307753,112.114144 L113.207753,112.814144 L94.9077534,113.214144 C88.7077534,115.714144 75.7077534,119.914144 74.3077534,111.014144 C74.3077534,111.014144 91.5077534,103.914144 103.607753,98.7141443 L104.507753,97.9141443 C105.307753,97.2141443 106.007753,96.8141443 107.007753,96.5141443 C107.207753,96.4141443 107.407753,96.4141443 107.607753,96.4141443 L112.407753,95.7141443 L122.807753,94.2141443 L129.607753,93.2141443 C129.607753,93.2141443 129.607753,93.2141443 129.607753,93.2141443 L134.607753,92.5141443 C139.207753,91.8141443 143.307753,95.5141443 143.207753,100.114144 L143.107753,106.214144 C143.807753,108.414144 142.807753,111.014144 140.807753,111.814144 Z" id="Path" fill="#DB9E75" fill-rule="nonzero"></path>
                <path d="M229.981629,145.251201 C228.901631,168.103919 224.567927,176.159003 202.635669,174.858442 C191.337233,174.208162 170.235344,180.143889 163.339975,171.876036 C160.183059,168.06725 140.217734,98.0474739 162.149992,99.348035 C184.248404,100.555699 231.061627,122.305586 229.981629,145.251201 Z" id="Path" fill="#FF5645" fill-rule="nonzero"></path>
                <path d="M95.1329142,111.019242 C95.1329142,111.019242 93.2329142,118.619242 103.332914,116.519242 C113.432914,114.419242 116.332914,113.419242 116.332914,113.419242 L113.732914,106.519242 L95.1329142,111.019242 Z" id="Path" fill="#482D1F" fill-rule="nonzero" transform="translate(105.661914, 111.702691) scale(-1, 1) rotate(10.000000) translate(-105.661914, -111.702691) "></path>
                <path d="M114.879906,272.952907 C124.492636,263.185361 116.439869,229.632399 90.7216059,172.294022 C84.833316,157.440775 80.8558377,157.014152 78.789171,171.014152 C75.689171,192.014152 85.0842285,196.294283 85.0842285,196.294283 L60.3083038,101.381375 C55.3083038,92.3813753 49.4842285,95.5942832 38.6842285,105.194283 C38.0842285,105.794283 25.3842285,99.1942832 25.1842285,99.3942832 C32.5842285,141.994283 29.3842285,187.094283 36.7842285,229.694283 C40.2129714,247.936954 43.7524191,262.703821 47.4025717,273.994886 L47.4025724,273.994886 C50.7813465,284.446492 60.3636881,291.647233 71.3426756,291.984901 C87.3947357,292.478596 101.907146,286.134598 114.879906,272.952907 Z" id="Path" fill="#DB9E75" fill-rule="nonzero" transform="translate(71.993615, 194.040182) scale(-1, 1) rotate(10.000000) translate(-71.993615, -194.040182) "></path>
                <path d="M52.1918658,199.306988 L62.0918658,232.706988" id="Path" stroke="#482D1F" stroke-width="3" stroke-linecap="round" stroke-linejoin="round" transform="translate(57.141866, 216.006988) scale(-1, 1) rotate(10.000000) translate(-57.141866, -216.006988) "></path>
                <path d="M130.807753,110.814144 C130.407753,111.014144 129.807753,111.214144 129.307753,111.114144 L103.207753,111.814144 L84.9077534,112.214144 C78.7077534,114.714144 65.7077534,118.914144 64.3077534,110.014144 C64.3077534,110.014144 81.5077534,102.914144 93.6077534,97.7141443 L94.5077534,96.9141443 C95.3077534,96.2141443 96.0077534,95.8141443 97.0077534,95.5141443 C97.2077534,95.4141443 97.4077534,95.4141443 97.6077534,95.4141443 L102.407753,94.7141443 L112.807753,93.2141443 L119.607753,92.2141443 C119.607753,92.2141443 119.607753,92.2141443 119.607753,92.2141443 L124.607753,91.5141443 C129.207753,90.8141443 133.307753,94.5141443 133.207753,99.1141443 L133.107753,105.214144 C133.807753,107.414144 132.807753,110.014144 130.807753,110.814144 Z" id="Path" fill="#DB9E75" fill-rule="nonzero" transform="translate(98.819109, 103.424828) scale(-1, 1) rotate(10.000000) translate(-98.819109, -103.424828) "></path>
                <path d="M99.2858015,100.266749 C109.385802,98.1667493 113.198216,92.411082 112.401655,93.0420935 L84.0135374,98.0476845 C87.4617135,100.927061 92.5524682,101.666749 99.2858015,100.266749 Z" id="Path-Copy" fill="#482D1F" fill-rule="nonzero" transform="translate(98.258693, 96.973906) scale(-1, 1) rotate(10.000000) translate(-98.258693, -96.973906) "></path>
                <path d="M60.6530555,178.428771 C54.6018552,178.323147 44.0491678,175.879949 40.4491678,172.527996 C36.6491678,169.004147 41.5672085,119.273202 66.9672085,113.428771 L60.6530555,178.428771 Z" id="Path" fill="#FF5645" fill-rule="nonzero" transform="translate(53.137481, 145.928771) rotate(-1.000000) translate(-53.137481, -145.928771) "></path>
                <path d="M161.047046,45.3385757 C175.147046,53.6385757 190.247046,67.7385757 187.847046,76.7385757 C186.147046,83.2385757 179.847046,86.8385757 173.247046,90.4385757 C167.047046,93.8385757 154.647046,99.4385757 136.347046,98.8385757 C131.047046,98.3385757 125.547046,97.7385757 120.247046,97.1385757" id="Path" fill="#482D1F" fill-rule="nonzero" transform="translate(154.173632, 72.110851) rotate(15.000000) translate(-154.173632, -72.110851) "></path>
                <path d="M71.5372088,47.059732 C63.3372088,55.059732 55.2372088,67.059732 58.3372088,72.859732 C60.5372088,76.959732 65.4372088,78.359732 70.4372088,79.759732 C75.1372088,81.059732 84.5372088,82.959732 96.9372088,79.659732 C100.537209,78.459732 104.037209,77.159732 107.637209,75.859732" id="Path" fill="#482D1F" fill-rule="nonzero" transform="translate(82.648973, 64.277939) rotate(15.000000) translate(-82.648973, -64.277939) "></path>
                <path d="M145.732172,64.65144 C143.532172,67.05144 140.932172,68.25144 139.132172,68.85144 C138.032172,69.25144 137.232172,70.15144 137.032172,71.15144 L136.930254,88.7605421 C136.930254,88.7605421 133.832172,89.45144 133.232172,89.75144 C131.632172,90.65144 127.732172,92.75144 118.932172,96.15144 C110.532172,99.55144 111.032172,99.25144 110.432172,99.45144 C104.132172,101.15144 98.7321722,101.05144 97.7321722,100.95144 C89.3321722,100.35144 79.5321722,85.05144 75.1321722,62.95144 C74.7321722,61.15144 74.6321722,59.35144 74.4321722,57.55144 L73.6321722,39.65144 C73.4321722,35.65144 74.2321722,31.65144 76.1321722,28.15144 C76.9321722,26.65144 77.7321722,25.25144 78.6321722,24.15144 C88.9321722,10.35144 107.932172,11.85144 111.332172,12.25144 C111.732172,12.25144 112.132172,12.35144 112.532172,12.35144 C116.332172,13.25144 119.732172,13.55144 123.332172,13.45144 C124.932172,13.45144 126.232172,14.75144 126.332172,16.35144 L126.832172,41.95144 C126.932172,44.35144 129.732172,45.65144 131.632172,44.15144 C131.632172,44.15144 131.732172,44.15144 131.732172,44.05144 C132.032172,43.85144 134.132172,42.35144 136.832172,42.15144 C141.632172,41.75144 146.632172,45.55144 148.432172,50.45144 C150.432172,55.75144 148.832172,61.15144 145.732172,64.65144 Z" id="Path" fill="#DB9E75" fill-rule="nonzero" transform="translate(111.459678, 56.499290) rotate(15.000000) translate(-111.459678, -56.499290) "></path>
                <path d="M78.5779909,49.3347696 C78.3779909,48.1347696 77.3779909,47.2347696 76.1779909,47.2347696 C75.3779909,47.2347696 74.6779909,47.6347696 74.3779909,49.0347696 C73.6779909,52.2347696 76.7779909,56.8347696 78.0779909,55.0347696 C79.0779909,53.8347696 78.7779909,51.0347696 78.5779909,49.3347696 Z" id="Path" fill="#482D1F" fill-rule="nonzero" transform="translate(76.528806, 51.337154) rotate(15.000000) translate(-76.528806, -51.337154) "></path>
                <path d="M95.9260638,53.3674969 C95.7260638,52.1674969 94.7260638,51.2674969 93.5260638,51.2674969 C92.7260638,51.2674969 92.0260638,51.6674969 91.7260638,53.0674969 C91.0260638,56.2674969 94.1260638,60.8674969 95.4260638,59.0674969 C96.4260638,57.7674969 96.2260638,54.9674969 95.9260638,53.3674969 Z" id="Path" fill="#482D1F" fill-rule="nonzero" transform="translate(93.897371, 55.369881) rotate(15.000000) translate(-93.897371, -55.369881) "></path>
                <path d="M86.6815854,71.7187471 C87.3815854,71.5187471 89.0815854,70.9187471 89.3815854,69.8187471 C89.3815854,69.6187471 89.4815854,69.3187471 89.3815854,69.1187471 C88.9815854,68.5187471 87.6815854,68.8187471 85.8815854,69.0187471 C82.6815854,69.3187471 80.0815854,69.0187471 80.0815854,69.0187471 C80.0815854,69.0187471 80.8815854,71.0187471 81.3815854,71.5187471 C82.3815854,73.1187471 85.5815854,72.0187471 86.6815854,71.7187471 Z" id="Path" fill="#482D1F" fill-rule="nonzero" transform="translate(84.753808, 70.565513) rotate(15.000000) translate(-84.753808, -70.565513) "></path>
                <path d="M74.1092512,41.7383507 C73.1092512,41.5383507 72.7092512,40.3383507 73.4092512,39.6383507 C74.3092512,38.8383507 75.8092512,37.8383507 77.8092512,37.7383507 C81.9092512,37.5383507 86.4092512,39.9383507 82.0092512,41.3383507 C79.2092512,42.3383507 76.0092512,42.0383507 74.1092512,41.7383507 Z" id="Path" fill="#482D1F" fill-rule="nonzero" transform="translate(78.437825, 39.876590) rotate(15.000000) translate(-78.437825, -39.876590) "></path>
                <path d="M163.260147,24.2417329 C160.360147,20.8417329 157.060147,19.0417329 155.660147,18.3417329 C147.960147,14.5417329 142.060147,16.5417329 126.860147,16.2417329 C123.760147,16.2417329 119.060147,16.0417329 113.360147,15.4417329 C112.960147,15.5417329 112.560147,15.4417329 112.160147,15.4417329 C108.760147,15.0417329 90.4601471,14.0417329 80.7601471,27.4417329 C80.7601471,27.6417329 79.0601471,29.2417329 79.2601471,29.4417329 C79.2601471,29.4417329 79.3601471,29.7417329 79.6601471,30.1417329 C79.5601471,29.9417329 79.4601471,29.6417329 79.3601471,29.4417329 C81.3601471,30.2417329 83.7601471,31.6417329 86.4601471,32.1417329 C94.0601471,33.5417329 100.560147,32.3417329 104.460147,31.1417329 C105.660147,33.5417329 107.260147,36.2417329 109.360147,38.8417329 C115.460147,46.6417329 122.860147,50.5417329 127.560147,52.3417329 C127.160147,55.3417329 126.760147,58.3417329 126.360147,61.2417329 C126.860147,61.2417329 127.260147,61.2417329 127.760147,61.1417329 C127.760147,61.1417329 135.260147,58.9417329 137.860147,62.1417329 C138.460147,62.9417329 138.660147,63.8417329 138.660147,64.4417329 C139.460147,72.3417329 134.360147,82.7417329 136.560147,84.9417329 C138.860147,87.4417329 151.060147,81.8417329 159.560147,72.0417329 C161.860147,69.3417329 168.060147,62.0417329 169.660147,50.5417329 C169.860147,46.7417329 171.560147,33.8417329 163.260147,24.2417329 Z" id="Path" fill="#482D1F" fill-rule="nonzero" transform="translate(124.590006, 50.392437) rotate(15.000000) translate(-124.590006, -50.392437) "></path>
                <path d="M92.8442942,46.7887662 C91.8442942,46.5887662 91.4442942,45.3887662 92.2442942,44.6887662 C93.1442942,43.8887662 94.6442942,42.8887662 96.7442942,42.7887662 C100.844294,42.5887662 105.344294,45.0887662 100.944294,46.3887662 C98.0442942,47.3887662 94.8442942,47.0887662 92.8442942,46.7887662 Z" id="Path" fill="#482D1F" fill-rule="nonzero" transform="translate(97.286204, 44.927223) rotate(15.000000) translate(-97.286204, -44.927223) "></path>
                <path d="M120.734091,67.0593591 L125.034091,55.5593591 C125.034091,55.5593591 126.434091,52.3593591 129.734091,49.8593591 C130.034091,49.6593591 132.134091,48.1593591 134.834091,47.9593591 C139.634091,47.5593591 144.634091,51.3593591 146.434091,56.2593591 C148.434091,61.3593591 146.834091,66.6593591 143.834091,70.1593591 C140.834091,73.6593591 136.834091,74.5593591 135.534091,74.8593591 L130.334091,74.7593591" id="Path" fill="#DB9E75" fill-rule="nonzero" transform="translate(134.027975, 61.394901) rotate(15.000000) translate(-134.027975, -61.394901) "></path>
                <path d="M83.7478415,46.7451484 L83.9478415,52.6451484 L82.7478415,63.3451484 C82.7478415,63.9451484 83.1478415,64.5451484 83.7478415,64.6451484 C85.0478415,64.7451484 86.2478415,64.7451484 88.5478415,64.7451484" id="Path" stroke="#482D1F" stroke-width="2" stroke-linecap="round" stroke-linejoin="round" transform="translate(85.647841, 55.745148) rotate(15.000000) translate(-85.647841, -55.745148) "></path>
                <path d="M140.197018,85.6986645 L141.497018,93.7986645 L129.497018,95.5986645 C127.797018,95.8986645 126.297018,94.5986645 126.097018,92.8986645 L125.797018,89.2986645 L126.797018,82.1986645 L140.197018,85.6986645 Z" id="Path" fill="#482D1F" fill-rule="nonzero" transform="translate(133.647018, 88.920281) rotate(15.000000) translate(-133.647018, -88.920281) "></path>
                <g id="Group-3" transform="translate(65.307753, 95.428771)">
                    <g></g>
                </g>
                <g id="Group-6" transform="translate(74.307753, 92.428771)"></g>
                <g id="Group-6-Copy" transform="translate(83.000000, 191.481081) scale(-1, 1) rotate(10.000000) translate(-83.000000, -191.481081) translate(17.000000, 93.481081)"></g>
                <g id="Group-4" transform="translate(125.654763, 60.303587) rotate(15.000000) translate(-125.654763, -60.303587) translate(60.154763, 15.803587)"></g>
            </g>
            <g id="-" transform="translate(0.000000, 110.000000)">
                <g id="Interior-/-Window-/-Window-1">
                    <rect id="Rectangle-Copy-16" fill="#F2F6FB" fill-rule="nonzero" x="12" y="295" width="379" height="149"></rect>
                    <path d="M0,454 L0,101 C0,45.771525 44.771525,1 100,1 L300,1 C355.228475,1 400,45.771525 400,101 L400,454 L400,493 L0,493 L0,454 Z M75,18.6901402 L75,234 L14,234 L14,167.5 L14,440 L386,440 L386,234 L327,234 L327,19.3237617 C318.508663,16.5182791 309.431638,15 300,15 L100,15 C91.304926,15 82.9112407,16.2903987 75,18.6901402 L75,18.6901402 Z" id="Shape" fill="#D8DEED" fill-rule="nonzero"></path>
                    <path d="M109,15 L109,217 L75,217 L75,18.6901402 C82.9112407,16.2903987 91.304926,15 100,15 L109,15 Z M327,217 L297,217 L297,15 L300,15 C309.431638,15 318.508663,16.5182791 327,19.3237617 L327,217 Z M0,440 L400,440 L400,460 L0,460 L0,440 Z" id="Shape" fill="#E1E5F0" fill-rule="nonzero"></path>
                </g>
            </g>
            <g id="Man" transform="translate(64.397471, 268.000000)">
                <path d="M219.164177,239.688806 C219.239884,244.633538 219.302529,249.735817 219.302529,254.899091 C219.302529,254.899091 221.502529,277.00122 211.502529,286.251009 C210.402529,287.322037 209.102529,288.100967 208.002529,288.782531 C205.702529,290.145657 203.702529,290.729855 203.702529,290.729855 C203.702529,290.729855 203.602529,290.827221 203.502529,290.827221 C187.502529,295.111334 174.402529,293.845573 167.502529,294.040306 C145.302529,294.527137 127.302529,294.42977 111.702529,293.942939 C102.202529,293.650841 61.902529,296.279728 56.802529,288.879897 C56.702529,288.685164 56.602529,288.490432 56.502529,288.2957 C55.602529,286.251009 54.902529,283.719488 54.402529,280.701136 C54.302529,280.409037 54.202529,280.019572 54.202529,279.727473 C52.5500771,269.899957 52.3935696,255.625125 54.0715114,238.524905 L6.05028052,234.584586 C2.90687994,234.326659 0.499792917,231.679069 0.541476273,228.525379 C0.755577331,212.329774 1.63287257,201.235413 3.17336198,195.242298 C10.2954796,167.534433 23.9056989,155.549553 25.1077387,151.258033 C31.9413288,126.473521 38.7341414,117.67836 41.4808517,115.025893 C44.6362272,111.880483 47.6741656,109.733175 49.6982944,108.368293 C63.3585456,99.3053168 77.6808011,98.1550994 84.9831797,98.0825324 C85.1848945,97.9860381 85.384864,97.9895286 85.5848336,97.9930191 L121.088153,98.1126557 C123.977285,98.0401977 124.564497,97.9275596 123.995193,98.5832033 C128.336368,97.9869504 133.299578,97.3883691 138.702529,96.8737405 C146.740494,96.9953557 154.034438,97.432869 160.584359,98.1862804 L190.442119,98.6068124 C190.642119,98.6068124 190.842119,98.6068124 191.042119,98.7068124 C198.342119,98.9068124 212.642119,100.306812 226.142119,109.606812 C228.142119,111.006812 231.142119,113.206812 234.242119,116.406812 C236.942119,119.106812 243.5804,128.019185 249.9804,152.919185 C251.107359,157.23103 264.506341,169.451615 271.143805,197.279558 C272.579465,203.298646 273.263003,214.406628 273.19442,230.603503 C273.181057,233.75744 270.72813,236.362618 267.580707,236.565645 L219.164176,239.688806 Z" id="Combined-Shape" fill="#DE3190" fill-rule="nonzero"></path>
                <path d="M252.995744,288.087627 L251.095744,287.087627 L217.895744,269.387627 C217.895744,269.387627 137.395744,250.606812 91.095744,242.006812 C83.095744,236.306812 35.495744,237.587627 34.195744,236.287627 C30.895744,268.087627 26.698273,299.835938 66.8789472,299.835938 L268.495744,296.387627 L252.995744,288.087627 Z" id="Path" fill="#F2A98A" fill-rule="nonzero" transform="translate(150.349136, 268.061782) scale(-1, 1) translate(-150.349136, -268.061782) "></path>
                <path d="M93.302529,207.787627 C91.302529,201.287627 81.702529,171.387627 79.402529,165.187627" id="Path" stroke="#482D1F" stroke-width="3" stroke-linecap="round" stroke-linejoin="round" transform="translate(86.352529, 186.487627) scale(-1, 1) translate(-86.352529, -186.487627) "></path>
                <polyline id="Path" stroke="#482D1F" stroke-width="3" stroke-linecap="round" stroke-linejoin="round" transform="translate(203.421377, 202.071940) scale(-1, 1) translate(-203.421377, -202.071940) " points="210.311513 165.187627 196.53124 238.956252 196.53124 238.956252"></polyline>
                <path d="M130.167274,62.0569094 L153.502529,71.2876273 L153.702529,76.1876273 C153.702529,76.1876273 153.702529,76.2876273 153.702529,76.2876273 L153.102529,103.487627 C153.102529,104.287627 152.502529,105.087627 151.702529,105.287627 C147.702529,106.487627 140.602529,107.887627 132.302529,105.987627 C127.702529,104.987627 124.002529,103.187627 121.402529,101.587627 C120.802529,101.287627 120.502529,100.587627 120.502529,99.8876273 L121.568055,68.6068409 C118.710243,65.7080214 114.688226,61.4065303 112.302529,57.8876273 C110.302529,54.9876273 103.702529,47.9876273 101.902529,36.5876273 C101.402529,32.7876273 99.502529,19.9876273 107.402529,10.0876273 C110.202529,6.5876273 113.402529,4.7876273 114.802529,4.0876273 C122.302529,0.0876272983 128.202529,1.8876273 143.102529,1.2876273 C144.302529,1.1876273 146.302529,1.1876273 148.802529,0.987627298 C153.402529,0.687627298 156.602529,0.287627298 157.502529,0.187627298 C164.902529,-0.612372702 181.002529,0.787627298 188.702529,11.4876273 C189.102529,12.1876273 189.602529,12.8876273 190.102529,13.4876273 C188.102529,14.3876273 185.802529,15.7876273 183.202529,16.3876273 C175.802529,17.9876273 169.402529,16.8876273 165.402529,15.7876273 C158.302529,23.3876273 151.202529,30.9876273 144.102529,38.4876273 C140.316007,43.7887574 134.425486,54.2480822 130.167274,62.0569094 Z" id="Combined-Shape" fill="#F2A98A" fill-rule="nonzero"></path>
                <polygon id="Path" fill="#482D1F" fill-rule="nonzero" transform="translate(147.252529, 88.087627) scale(-1, 1) translate(-147.252529, -88.087627) " points="139.402529 82.6876273 155.102529 79.7876273 141.502529 96.3876273"></polygon>
                <path d="M119.606288,27.3876273 L120.006288,45.2876273 C120.106288,47.0876273 120.206288,48.8876273 120.606288,50.6876273 C122.806288,63.3876273 126.906288,73.9876273 131.506288,80.7876273 C134.906288,85.8876273 138.706288,88.8876273 142.306288,89.1876273 C143.306288,89.3876273 148.706288,89.5876273 155.006288,87.9876273 C155.606288,87.7876273 155.106288,88.0876273 163.606288,84.8876273 C166.906288,83.6876273 169.506288,82.6876273 171.506288,81.7876273 C175.106288,80.2876273 177.006288,79.2876273 178.006288,78.6876273 C178.706288,78.3876273 178.906288,78.1876273 178.906288,78.1876273 C183.606288,69.1876273 187.606288,60.9876273 191.006288,53.7876273 C193.006288,49.4876273 195.106288,45.1876273 194.006288,39.8876273 C193.606288,37.7876273 192.506288,32.5876273 187.906288,29.8876273 C183.406288,27.2876273 178.406288,28.5876273 177.006288,28.9876273 C175.106288,29.4876273 173.606288,30.2876273 172.706288,30.8876273 L172.806288,5.2876273 C172.806288,3.6876273 171.506288,2.2876273 169.906288,2.2876273 C166.406288,2.1876273 162.906288,1.8876273 159.206288,0.887627298 C158.806288,0.787627298 158.406288,0.787627298 158.006288,0.687627298 C154.606288,0.187627298 135.606288,-1.8123727 125.006288,11.7876273 C124.006288,12.8876273 123.206288,14.1876273 122.406288,15.7876273 C120.506288,19.4876273 119.506288,23.3876273 119.606288,27.3876273 Z" id="Path" fill="#F2A98A" fill-rule="nonzero" transform="translate(156.954409, 44.805584) scale(-1, 1) translate(-156.954409, -44.805584) "></path>
                <path d="M99.5360105,13.4876273 C101.536011,14.3876273 103.836011,15.7876273 106.536011,16.3876273 C114.036011,17.9876273 120.636011,16.8876273 124.636011,15.7876273 C131.836011,23.3876273 141.636011,33.4876273 148.936011,41.0876273 C162.536011,41.6876273 173.536011,39.6876273 187.136011,40.2876273 C187.136011,40.2876273 188.436011,38.8876273 189.136011,36.7876273 C190.136011,33.7876273 192.236011,20.8876273 183.536011,10.2876273 C180.736011,6.7876273 177.436011,4.9876273 176.036011,4.2876273 C168.436011,0.287627298 162.436011,2.0876273 147.236011,1.4876273 C146.036011,1.3876273 144.036011,1.3876273 141.436011,1.1876273 C136.736011,0.887627298 133.536011,0.487627298 132.536011,0.387627298 C125.036011,-0.412372702 108.636011,0.987627298 100.836011,11.6876273 C100.536011,12.1876273 100.036011,12.8876273 99.5360105,13.4876273 Z" id="Path" fill="#482D1F" fill-rule="nonzero" transform="translate(144.819270, 20.700643) scale(-1, 1) translate(-144.819270, -20.700643) "></path>
                <path d="M117.535747,51.0876273 L118.835747,38.2876273 C118.835747,38.2876273 119.435747,34.6876273 122.135747,31.2876273 C122.335747,31.0876273 124.135747,28.9876273 126.835747,28.0876273 C131.635747,26.4876273 137.635747,28.9876273 140.835747,33.4876273 C144.135747,38.0876273 143.835747,43.9876273 141.635747,48.3876273 C139.435747,52.7876273 135.635747,54.5876273 134.335747,55.1876273 L129.035747,56.2876273 L117.535747,51.0876273 Z" id="Path" fill="#F2A98A" fill-rule="nonzero" transform="translate(130.419138, 41.945030) scale(-1, 1) translate(-130.419138, -41.945030) "></path>
                <path d="M187.395535,46.6876273 C187.395535,45.4876273 186.595535,44.3876273 185.395535,44.1876273 C184.595535,44.0876273 183.895535,44.2876273 183.395535,45.5876273 C182.095535,48.6876273 184.295535,53.6876273 185.995535,52.1876273 C186.995535,51.1876273 187.295535,48.3876273 187.395535,46.6876273 Z" id="Path" fill="#482D1F" fill-rule="nonzero" transform="translate(185.199032, 48.313657) scale(-1, 1) translate(-185.199032, -48.313657) "></path>
                <path d="M169.47112,46.4876273 C169.37112,45.2876273 168.37112,44.2876273 167.17112,44.2876273 C166.37112,44.2876273 165.67112,44.5876273 165.27112,45.8876273 C164.27112,49.0876273 167.07112,53.8876273 168.57112,52.1876273 C169.57112,50.9876273 169.57112,48.1876273 169.47112,46.4876273 Z" id="Path" fill="#482D1F" fill-rule="nonzero" transform="translate(167.286825, 48.414746) scale(-1, 1) translate(-167.286825, -48.414746) "></path>
                <path d="M177.058085,67.0876273 C177.758085,66.8876273 179.458085,66.3876273 179.758085,65.2876273 C179.758085,65.0876273 179.858085,64.7876273 179.758085,64.5876273 C179.358085,63.8876273 178.158085,64.2876273 176.358085,64.3876273 C173.158085,64.5876273 170.558085,64.2876273 170.558085,64.2876273 C170.558085,64.2876273 171.258085,66.2876273 171.758085,66.8876273 C172.858085,68.3876273 176.058085,67.3876273 177.058085,67.0876273 Z" id="Path" fill="#482D1F" fill-rule="nonzero" transform="translate(175.180307, 65.937876) scale(-1, 1) translate(-175.180307, -65.937876) "></path>
                <path d="M182.02276,39.6876273 C181.02276,39.4876273 180.72276,38.1876273 181.42276,37.4876273 C182.32276,36.6876273 183.92276,35.8876273 185.92276,35.8876273 C190.02276,35.8876273 194.42276,38.5876273 189.82276,39.7876273 C187.12276,40.5876273 183.92276,40.0876273 182.02276,39.6876273 Z" id="Path" fill="#482D1F" fill-rule="nonzero" transform="translate(186.412645, 38.050556) scale(-1, 1) translate(-186.412645, -38.050556) "></path>
                <path d="M161.199067,40.3876273 C160.199067,40.1876273 159.899067,38.8876273 160.699067,38.1876273 C161.599067,37.3876273 163.199067,36.5876273 165.299067,36.5876273 C169.399067,36.5876273 173.799067,39.3876273 169.199067,40.4876273 C166.299067,41.2876273 163.199067,40.7876273 161.199067,40.3876273 Z" id="Path" fill="#482D1F" fill-rule="nonzero" transform="translate(165.700798, 38.750556) scale(-1, 1) translate(-165.700798, -38.750556) "></path>
                <path d="M176.315335,40.9876273 L176.315335,46.8876273 L174.815335,57.5876273 C174.715335,58.1876273 175.215335,58.7876273 175.815335,58.8876273 C177.115335,58.9876273 178.315335,59.0876273 180.615335,59.0876273" id="Path" stroke="#482D1F" stroke-width="2" stroke-linecap="round" stroke-linejoin="round" transform="translate(177.708932, 50.037627) scale(-1, 1) translate(-177.708932, -50.037627) "></path>
                <path d="M125.528378,38.7876273 C126.028378,41.9876273 125.428378,45.3876273 124.028378,48.0876273 C121.828378,52.4876273 118.028378,54.2876273 116.728378,54.8876273" id="Path" stroke="#482D1F" stroke-width="2" stroke-linecap="round" stroke-linejoin="round" transform="translate(121.215453, 46.837627) scale(-1, 1) translate(-121.215453, -46.837627) "></path>
                <path d="M106.242611,184.639391 C114.874306,149.006745 120.683192,127.887142 123.669269,121.280581 C126.619648,114.752999 127.04605,119.528071 129.116912,122.241147 C130.189927,123.646925 129.755589,120.176864 131.424003,120.47105 C134.682913,121.045684 136.601811,123.248733 137.180695,127.080197 C140.067738,128.753537 141.284004,130.879041 140.829491,133.45671 C140.5001,135.324783 143.108994,139.194976 137.612517,162.162512 C135.659904,170.321686 140.842305,181.478377 138.835537,190.218945 L138.918569,190.233154 C133.970896,208.825156 117.76555,237.389024 90.302529,275.924759 C49.1079977,333.728362 14.102529,303.447817 4.70084299,296.947817 C-1.56694766,292.614483 -1.56694766,271.727754 4.70084299,234.287627 L50.2099508,238.087627 L106.242611,184.639391 Z" id="Combined-Shape" fill="#F2A98A" fill-rule="nonzero"></path>
                <path d="M49.502529,238.087627 L39.6529706,243.921366" id="Shape" stroke="#482D1F" stroke-width="3" stroke-linecap="round" stroke-linejoin="round"></path>
                <polyline id="Shape-Copy" stroke="#482D1F" stroke-width="3" stroke-linecap="round" stroke-linejoin="round" points="98.602529 264 73.602529 295 73.602529 295"></polyline>
            </g>
            <g id="UI-/-Social-/-Chat-5" transform="translate(282.000000, 486.000000)">
                <g id="Input" transform="translate(28.000000, 208.000000)">
                    <rect id="Background" fill="#D8DEED" fill-rule="nonzero" x="11" y="0" width="467" height="97" rx="20"></rect>
                    <path d="M372,35 L432,35 C435.194757,35 438.037454,35.7128588 440.407824,37.0183101 C442.778195,38.3237614 444.676239,40.2218054 445.98169,42.5921757 C447.287141,44.9625461 448,47.8052429 448,51 C448,54.1947571 447.287141,57.0374539 445.98169,59.4078243 C444.676239,61.7781946 442.778195,63.6762386 440.407824,64.9816899 C438.037454,66.2871412 435.194757,67 432,67 L372,67 C368.805243,67 365.962546,66.2871412 363.592176,64.9816899 C361.221805,63.6762386 359.323761,61.7781946 358.01831,59.4078243 C356.712859,57.0374539 356,54.1947571 356,51 C356,47.8052429 356.712859,44.9625461 358.01831,42.5921757 C359.323761,40.2218054 361.221805,38.3237614 363.592176,37.0183101 C365.962546,35.7128588 368.805243,35 372,35 Z" id="Button" fill="#474BFF" fill-rule="nonzero"></path>
                    <rect id="Input-Field" fill="#FFFFFF" x="49" y="35" width="274" height="32" rx="4"></rect>
                    <g id="Send-Message" transform="translate(0.459091, 34.236364)">
                        <g id="Button" transform="translate(354.900000, 0.000000)">
                            <g></g>
                        </g>
                    </g>
                </g>
            </g>
            <g id="UI-/-Social-/-Chat-3" transform="translate(418.000000, 340.000000)">
                <g id="UI-/-Chat-/-4" transform="translate(67.000000, 7.000000)">
                    <g id="Socials-/-Social-7">
                        <g>
                            <g id="Browser" fill="#F2F6FB" fill-rule="nonzero">
                                <g id="Background">
                                    <rect x="0" y="0" width="400" height="298" rx="20"></rect>
                                </g>
                            </g>
                            <g id="Userpic" transform="translate(27.459091, 47.630303)">
                                <g>
                                    <path d="M36.0909091,72.2424242 C16.1584504,72.2424242 2.2595259e-12,56.0704067 2.2595259e-12,36.1212121 C2.2595259e-12,16.1720175 16.1584504,4.26325641e-14 36.0909091,4.26325641e-14 C56.0233678,4.26325641e-14 72.1818182,16.1720175 72.1818182,36.1212121 C72.1818182,56.0704067 56.0233678,72.2424242 36.0909091,72.2424242 Z M36.0723692,35.6330876 C40.9872221,35.6330876 44.9714975,31.6993536 44.9714975,26.8468468 C44.9714975,21.9943401 40.9872221,18.0606061 36.0723692,18.0606061 C31.1575164,18.0606061 27.173241,21.9943401 27.173241,26.8468468 C27.173241,31.6993536 31.1575164,35.6330876 36.0723692,35.6330876 Z M36.0723692,40.026208 C27.1641935,40.026208 19.9426993,47.156096 19.9426993,55.9512695 L52.2020392,55.9512695 C52.2020392,47.156096 44.980545,40.026208 36.0723692,40.026208 Z M36.0909091,205.890909 C16.1584504,205.890909 2.2595259e-12,189.718892 2.2595259e-12,169.769697 C2.2595259e-12,149.820502 16.1584504,133.648485 36.0909091,133.648485 C56.0233678,133.648485 72.1818182,149.820502 72.1818182,169.769697 C72.1818182,189.718892 56.0233678,205.890909 36.0909091,205.890909 Z M36.0723692,169.281572 C40.9872221,169.281572 44.9714975,165.347838 44.9714975,160.495332 C44.9714975,155.642825 40.9872221,151.709091 36.0723692,151.709091 C31.1575164,151.709091 27.173241,155.642825 27.173241,160.495332 C27.173241,165.347838 31.1575164,169.281572 36.0723692,169.281572 Z M36.0723692,173.674693 C27.1641935,173.674693 19.9426993,180.804581 19.9426993,189.599754 L52.2020392,189.599754 C52.2020392,180.804581 44.980545,173.674693 36.0723692,173.674693 Z M92.2272727,162.545455 L283.118182,162.545455 C284.222751,162.545455 285.118182,163.440885 285.118182,164.545455 L285.118182,174.993939 C285.118182,176.098509 284.222751,176.993939 283.118182,176.993939 L92.2272727,176.993939 C91.1227032,176.993939 90.2272727,176.098509 90.2272727,174.993939 L90.2272727,164.545455 C90.2272727,163.440885 91.1227032,162.545455 92.2272727,162.545455 Z M92.2272727,186.024242 L265.072727,186.024242 C266.177297,186.024242 267.072727,186.919673 267.072727,188.024242 L267.072727,198.472727 C267.072727,199.577297 266.177297,200.472727 265.072727,200.472727 L92.2272727,200.472727 C91.1227032,200.472727 90.2272727,199.577297 90.2272727,198.472727 L90.2272727,188.024242 C90.2272727,186.919673 91.1227032,186.024242 92.2272727,186.024242 Z" id="Combined-Shape" fill="#D8DEED" fill-rule="nonzero"></path>
                                    <g id="Icons-/-User" transform="translate(19.850000, 18.060606)"></g>
                                </g>
                            </g>
                            <g id="Userpic" transform="translate(27.459091, 181.278788)">
                                <g id="Icons-/-User">
                                    <g transform="translate(19.850000, 18.060606)"></g>
                                </g>
                            </g>
                            <g id="Image" transform="translate(117.686364, 47.630303)">
                                <g id="Image-1">
                                    <g>
                                        <rect id="Placeholder" fill="#3ABF7C" fill-rule="nonzero" x="0" y="0" width="202" height="108.363636" rx="4"></rect>
                                        <g id="Icons-/-Mountains" transform="translate(75.313636, 37.927273)" fill="#FFFFFF">
                                            <path d="M27.308419,34.2226037 L25.4128746,34.2477114 L25.4284674,34.2226037 L0.603608282,34.2226037 C-0.504442886,34.2226037 -0.933801245,33.4691104 -0.348242982,32.5281436 L16.8996666,4.81149908 C17.4820249,3.8756746 18.4507611,3.86957057 19.0569021,4.78874502 L31.6983513,24.1267274 L36.2448315,16.8059057 C36.8274241,15.8678049 37.8019407,15.8373227 38.4366574,16.7598893 L48.9744122,32.0766126 C49.6023316,32.9892992 49.2240968,33.7566782 48.1090262,33.7912392 L39.3283329,34.0633922 L37.8794068,34.0825841 L37.9636542,34.2226037 C37.9636542,34.2226037 37.0674682,34.2226037 35.95735,34.2226037 L27.308419,34.2226037 Z M37.7160267,8.49672512 C35.391659,8.49672512 33.5073867,6.59466842 33.5073867,4.24836256 C33.5073867,1.90205671 35.391659,6.28830321e-13 37.7160267,6.28830321e-13 C40.0403943,6.28830321e-13 41.9246666,1.90205671 41.9246666,4.24836256 C41.9246666,6.59466842 40.0403943,8.49672512 37.7160267,8.49672512 Z" id="Mountains"></path>
                                        </g>
                                    </g>
                                </g>
                            </g>
                            <g id="Text" transform="translate(117.686364, 186.696970)" fill="#E1E5F0" fill-rule="nonzero">
                                <rect id="Title" x="0" y="0" width="216.545455" height="14.4484848" rx="2"></rect>
                            </g>
                        </g>
                    </g>
                </g>
            </g>
        </g>
    </g>
</svg>