<?xml version="1.0" encoding="UTF-8"?>
<svg width="1695px" height="1200px" viewBox="0 0 1695 1200" version="1.1" xmlns="http://www.w3.org/2000/svg" xmlns:xlink="http://www.w3.org/1999/xlink">
    <!-- Generator: Sketch 56.1 (81669) - https://sketch.com -->
    <title>Data analyse</title>
    <desc>Created with Sketch.</desc>
    <g id="Data-analyse" stroke="none" stroke-width="1" fill="none" fill-rule="evenodd">
        <g id="UI-/-Charts-/-Chart-1-/-3" transform="translate(1001.000000, 85.000000)">
            <rect id="Rectangle" fill="#F2F6FB" fill-rule="nonzero" x="0" y="0" width="338" height="260" rx="20"></rect>
            <g id="Chart" stroke-width="1" fill-rule="evenodd" transform="translate(49.333333, 55.475578)">
                <path d="M3.06172923,151.071518 L53.5181608,74.3022637 C58.3072018,67.0134804 68.8042805,66.262338 74.5615312,72.7945217 L94.9194376,95.8290633 C104.207196,106.321545 121.048894,104.712726 128.15056,92.6711767 L176.696933,10.2382048 C181.556175,1.98043991 193.161614,1.41195041 198.883799,9.1238828 L250.379081,79.3510407 C251.578549,80.9868234 253.873573,81.3380269 255.505162,80.1354757 C257.13675,78.9329245 257.487053,76.6320003 256.287585,74.9962176 L204.779978,4.75235019 C195.92596,-7.18053078 177.913283,-6.29818435 170.381499,6.50128212 L121.836953,88.9311522 C117.268911,96.6766996 106.394009,97.7155349 100.406223,90.9510698 L80.0535285,67.9224286 C71.0995331,57.7632092 54.839095,58.9267621 47.3944127,70.2573553 L-3.06172923,147.026169 C-4.17595719,148.721462 -3.70843454,151.001351 -2.01748818,152.118443 C-0.326541815,153.235535 1.94750128,152.766811 3.06172923,151.071518 Z" id="Path" fill="#E1E5F0" fill-rule="nonzero"></path>
                <ellipse id="Oval" fill="#3ABF7C" fill-rule="nonzero" cx="23.6666667" cy="113.290488" rx="11" ry="11.0282776"></ellipse>
                <ellipse id="Oval" fill="#FFCB3D" fill-rule="nonzero" cx="146.333333" cy="53.8046272" rx="11" ry="11.0282776"></ellipse>
            </g>
        </g>
        <g id="UI-/-Charts-/-Chart-3-/-3" transform="translate(356.000000, 85.000000)">
            <g id="Chart">
                <g id="Browser" fill="#F2F6FB" fill-rule="nonzero">
                    <g id="Background">
                        <rect x="0" y="0" width="339" height="260" rx="6"></rect>
                    </g>
                </g>
                <g id="Graphic" transform="translate(44.798817, 78.868895)" fill-rule="nonzero">
                    <path d="M225.446645,60.8226221 L237.25158,60.8226221 C241.709174,60.8226221 243.325605,61.2867502 244.955234,62.1582856 C246.584864,63.0298211 247.863807,64.308764 248.735342,65.9383936 C249.606878,67.5680232 250.071006,69.1844544 250.071006,73.6420481 L250.071006,181.131105 L212.627219,181.131105 L212.627219,73.6420481 C212.627219,69.1844544 213.091347,67.5680232 213.962882,65.9383936 C214.834418,64.308764 216.113361,63.0298211 217.74299,62.1582856 C219.37262,61.2867502 220.989051,60.8226221 225.446645,60.8226221 Z" id="Rectangle" fill="#D8DEED"></path>
                    <path d="M182.653746,89.562982 L195.12732,89.562982 C199.584913,89.562982 201.201344,90.0271101 202.830974,90.8986455 C204.460604,91.770181 205.739547,93.0491239 206.611082,94.6787535 C207.482618,96.3083831 207.946746,97.9248143 207.946746,102.382408 L207.946746,181.131105 L169.83432,181.131105 L169.83432,102.382408 C169.83432,97.9248143 170.298448,96.3083831 171.169983,94.6787535 C172.041519,93.0491239 173.320461,91.770181 174.950091,90.8986455 C176.579721,90.0271101 178.196152,89.562982 182.653746,89.562982 Z" id="Rectangle" fill="#D8DEED"></path>
                    <path d="M140.529485,-5.17920154e-16 L152.33442,5.17920154e-16 C156.792014,-3.00926524e-16 158.408445,0.464128056 160.038075,1.33566352 C161.667704,2.20719898 162.946647,3.48614185 163.818183,5.11577148 C164.689718,6.74540111 165.153846,8.3618323 165.153846,12.819426 L165.153846,181.131105 L127.710059,181.131105 L127.710059,12.819426 C127.710059,8.3618323 128.174187,6.74540111 129.045723,5.11577148 C129.917258,3.48614185 131.196201,2.20719898 132.825831,1.33566352 C134.45546,0.464128056 136.071891,3.00926524e-16 140.529485,-5.17920154e-16 Z" id="Rectangle" fill="#E1E5F0"></path>
                    <path d="M97.7365858,23.3933162 L109.541521,23.3933162 C113.999114,23.3933162 115.615546,23.8574443 117.245175,24.7289797 C118.874805,25.6005152 120.153748,26.879458 121.025283,28.5090877 C121.896819,30.1387173 122.360947,31.7551485 122.360947,36.2127422 L122.360947,181.131105 L84.9171598,181.131105 L84.9171598,36.2127422 C84.9171598,31.7551485 85.3812878,30.1387173 86.2528233,28.5090877 C87.1243587,26.879458 88.4033016,25.6005152 90.0329312,24.7289797 C91.6625609,23.8574443 93.2789921,23.3933162 97.7365858,23.3933162 Z" id="Rectangle" fill="#D8DEED"></path>
                    <path d="M55.6123254,78.2005141 L67.4172604,78.2005141 C71.8748541,78.2005141 73.4912853,78.6646422 75.1209149,79.5361777 C76.7505445,80.4077131 78.0294874,81.686656 78.9010229,83.3162856 C79.7725583,84.9459153 80.2366864,86.5623464 80.2366864,91.0199401 L80.2366864,181.131105 L42.7928994,181.131105 L42.7928994,91.0199401 C42.7928994,86.5623464 43.2570275,84.9459153 44.1285629,83.3162856 C45.0000984,81.686656 46.2790413,80.4077131 47.9086709,79.5361777 C49.5383005,78.6646422 51.1547317,78.2005141 55.6123254,78.2005141 Z" id="Rectangle" fill="#D8DEED"></path>
                    <path d="M12.819426,50.7969152 L24.624361,50.7969152 C29.0819547,50.7969152 30.6983859,51.2610432 32.3280155,52.1325787 C33.9576451,53.0041141 35.236588,54.283057 36.1081235,55.9126866 C36.9796589,57.5423163 37.443787,59.1587475 37.443787,63.6163412 L37.443787,181.131105 L0,181.131105 L3.45280103e-16,63.6163412 C-2.00617683e-16,59.1587475 0.464128056,57.5423163 1.33566352,55.9126866 C2.20719898,54.283057 3.48614185,53.0041141 5.11577148,52.1325787 C6.74540111,51.2610432 8.3618323,50.7969152 12.819426,50.7969152 Z" id="Rectangle" fill="#D8DEED"></path>
                </g>
            </g>
        </g>
        <g id="Group" transform="translate(137.000000, 339.000000)">
            <g id="Interior-/-Chair-/-Chair-1" transform="translate(1115.000000, 241.000000)" fill="#D8DEED">
                <g id="Chair-">
                    <path d="M294.7,293.613218 L294.7,293.8 C294.7,296.2 292.6,298.2 290.2,298.2 L214.698496,298.2 L241.3,347 C260.3,381.8 279.2,416.5 298.1,451.3 L329.4,508.7 C330.5,510.7 329.6,513.3 327.5,514.5 L327.1,514.7 C325,515.9 322.3,515.2 321.3,513.3 L204.2,298.2 L126.2,298.2 L9.1,513.3 C8.1,515.2 5.4,515.8 3.3,514.7 L2.9,514.5 C0.8,513.3 -0.1,510.7 1,508.7 L32.3,451.3 C51.3,416.5 70.2,381.8 89.1,347 L115.701504,298.2 L15.6,298.2 C13.1,298.2 11.1,296.2 11.1,293.8 L11.1,293.3 C11.1,290.9 13.2,288.9 15.6,288.9 L83.6,288.9 C127.9,288.9 172.3,288.9 216.7,288.9 L285.870787,288.9 L294.3,220.7 C300.1,174.3 305.8,127.8 311.6,81.3 L321.1,4.5 C321.4,1.8 323.7,-0.2 326.2,0.1 L326.7,0.2 C329.1,0.5 330.8,3 330.5,5.5 L294.8,293.1 C294.77408,293.274961 294.740601,293.446142 294.7,293.613218 Z" id="Combined-Shape" fill-rule="nonzero"></path>
                </g>
            </g>
            <g id="Active-objects-/-Devices-/-Laptop" transform="translate(390.000000, 239.000000) scale(-1, 1) translate(-390.000000, -239.000000) translate(213.000000, 106.000000)" fill="#474961">
                <g id="Laptop-2" transform="translate(177.000000, 192.500000) scale(-1, 1) translate(-177.000000, -192.500000) translate(74.000000, 119.000000)">
                    <path d="M154.451704,143.509238 C153.455365,145.2701 151.565004,146.46022 149.4,146.46022 L5.7,146.46022 C2.5,146.46022 -5.68434189e-14,143.86022 -5.68434189e-14,140.66022 C-5.68434189e-14,137.46022 2.6,134.86022 5.7,134.86022 L145.475148,134.86022 L194.2,3.76021996 C195.3,0.760219964 198.6,-0.739780036 201.6,0.360219964 C204.6,1.46021996 206.1,4.76021996 205,7.76021996 L154.9,142.56022 C154.776937,142.895847 154.626338,143.2127 154.451704,143.509238 Z" id="Laptop" fill-rule="nonzero"></path>
                </g>
            </g>
            <g id="Interior-/-Chair-/-Chair-1" transform="translate(165.500000, 498.000000) scale(-1, 1) translate(-165.500000, -498.000000) translate(0.000000, 240.000000)" fill="#D8DEED">
                <g id="Chair-">
                    <path d="M294.7,293.613218 L294.7,293.8 C294.7,296.2 292.6,298.2 290.2,298.2 L214.698496,298.2 L241.3,347 C260.3,381.8 279.2,416.5 298.1,451.3 L329.4,508.7 C330.5,510.7 329.6,513.3 327.5,514.5 L327.1,514.7 C325,515.9 322.3,515.2 321.3,513.3 L204.2,298.2 L126.2,298.2 L9.1,513.3 C8.1,515.2 5.4,515.8 3.3,514.7 L2.9,514.5 C0.8,513.3 -0.1,510.7 1,508.7 L32.3,451.3 C51.3,416.5 70.2,381.8 89.1,347 L115.701504,298.2 L15.6,298.2 C13.1,298.2 11.1,296.2 11.1,293.8 L11.1,293.3 C11.1,290.9 13.2,288.9 15.6,288.9 L83.6,288.9 C127.9,288.9 172.3,288.9 216.7,288.9 L285.870787,288.9 L294.3,220.7 C300.1,174.3 305.8,127.8 311.6,81.3 L321.1,4.5 C321.4,1.8 323.7,-0.2 326.2,0.1 L326.7,0.2 C329.1,0.5 330.8,3 330.5,5.5 L294.8,293.1 C294.77408,293.274961 294.740601,293.446142 294.7,293.613218 Z" id="Combined-Shape" fill-rule="nonzero"></path>
                </g>
            </g>
            <g id="Interior-/-Chair-/--Chair-2" transform="translate(527.000000, 236.000000)" fill="#D8DEED">
                <g id="Chair-" transform="translate(0.000000, 4.000000)">
                    <path d="M115.401504,298.8 L36.3,298.8 C33.9,298.8 31.8,296.8 31.8,294.4 L31.8,293.9 C31.8,291.5 33.9,289.5 36.5,289.5 L109.8,289.5 C154.2,289.5 198.6,289.5 242.9,289.5 L310.9,289.5 C313.3,289.5 315.4,291.5 315.4,293.9 L315.4,294.4 C315.4,296.8 313.4,298.8 310.9,298.8 L214.398496,298.8 L241,347.6 C259.9,382.4 278.8,417.1 297.8,451.9 L329.1,509.3 C330.2,511.3 329.3,513.9 327.2,515.1 L326.8,515.3 C324.7,516.4 322,515.8 321,513.9 L203.9,298.8 L125.9,298.8 L8.8,513.9 C7.8,515.8 5.1,516.5 3,515.3 L2.6,515.1 C0.5,513.9 -0.4,511.3 0.7,509.3 L32,451.9 C50.9,417.1 69.8,382.4 88.8,347.6 L115.401504,298.8 Z M32.1,259.61237 L32.1,201.468894 C32.1,157.124425 32.1,112.881663 32.1,68.6389013 L32.1,15.8 C32.1,7.51572875 38.8157288,0.8 47.1,0.8 L210.3,0.8 C218.584271,0.8 225.3,7.51572875 225.3,15.8 L225.3,259.784199 C225.3,268.06847 218.584271,274.784199 210.3,274.784199 C210.294736,274.784199 210.289471,274.784196 210.284207,274.78419 L47.0842069,274.612361 C38.8061072,274.603646 32.1,267.890474 32.1,259.61237 Z" id="Combined-Shape" fill-rule="nonzero"></path>
                </g>
            </g>
            <g id="Characters-sitting-/-Man-sitting-/-1" transform="translate(446.000000, 0.000000)">
                <g id="Man-" transform="translate(80.000000, 74.000000)">
                    <g id="Legs" transform="translate(36.525879, 307.000000)" fill-rule="nonzero">
                        <path d="M318.174121,375 L159.274121,375 C156.774121,375 154.774121,373 154.774121,370.5 C154.774121,368 156.774121,366 159.274121,366 L318.174121,366 C320.674121,366 322.674121,368 322.674121,370.5 C322.674121,373 320.674121,375 318.174121,375 Z M26.9741207,375 C24.4741207,375 22.4741207,373.269231 22.4741207,371.192308 L22.4741207,369.807692 C22.4741207,367.730769 24.5741207,366 26.9741207,366 L129.474121,366 C131.974121,366 133.974121,367.730769 133.974121,369.807692 L133.974121,371.192308 C133.974121,373.269231 131.874121,375 129.474121,375 L26.9741207,375 Z" id="Base" fill="#A339FF"></path>
                        <path d="M319.747652,366.278875 C319.258661,366.098416 318.728693,366 318.174121,366 L159.274121,366 C158.550102,366 157.86802,366.167745 157.26431,366.466799 C157.140456,366.033729 157.074121,365.575517 157.074121,365.1 L160.574121,309.8 C160.374121,306.8 162.674121,304.5 165.574121,304.4 L229.274121,304 C230.374121,304 231.374121,304.3 232.274121,305 C243.674121,317.2 254.574121,324 262.474121,328 C268.574121,331.1 288.974121,339.7 298.174121,343.9 C302.874121,346 307.374121,348.5 311.774121,351.2 C312.074121,351.4 312.274121,351.5 312.574121,351.8 C314.874121,353.9 318.374121,357.7 319.674121,362.2 C319.874121,362.8 319.874121,363.3 319.974121,363.9 C320.074121,364.4 319.974121,364.9 319.974121,365.4 C319.974121,365.4 319.974121,365.5 319.974121,365.5 C319.918104,365.76888 319.842005,366.028973 319.747652,366.278875 Z M130.050164,366.031029 C129.861678,366.010563 129.669425,366 129.474121,366 L26.9741207,366 C26.9699512,366 26.9657825,366.000005 26.9616148,366.000016 L50.1741207,304.1 L121.774121,313.8 L130.050164,366.031029 Z" id="Shoes" fill="#474961"></path>
                        <path d="M155.506274,131.518847 C152.048216,134.028647 149.032532,136.212208 146.459222,138.06953 L145.174121,159.301963 C144.574121,170.530405 143.874121,180.391907 143.074121,189.081745 C142.474121,195.916449 134.774121,273.343882 131.974121,301.756723 C131.374121,308.200872 127.074121,313.668635 121.174121,315.426131 C112.274121,318.160012 45.4741207,315.035576 42.9741207,313.863913 C39.7741207,312.399333 38.0741207,311.715863 36.3741207,310.056006 C30.3741207,304.392966 30.7741207,295.410212 30.6741207,292.090498 C30.0741207,266.997371 28.2741207,191.52271 28.2741207,138.700212 C28.2741207,138.526739 28.2741134,138.353472 28.2740988,138.180415 C21.6806254,132.52136 15.8528017,124.008935 11.2892239,113.4396 C4.35105504,97.4724803 0.117596082,76.7047891 -1.13686838e-13,54.1629736 C-1.13686838e-13,53.8846795 -1.13686838e-13,40.3178461 -1.13686838e-13,13.4624732 C-1.13686838e-13,13.3581129 -1.13686838e-13,13.3581129 -1.13686838e-13,13.2537527 C0.117596082,5.84417441 7.17336102,-2.84217094e-14 15.5226829,-2.84217094e-14 L107.835607,-2.84217094e-14 C120.65358,0.417441029 133.353957,0.834882059 146.17193,1.25232309 C166.122626,1.7799609 194.506928,2.55460779 231.324834,3.57626376 C245.721311,3.97575 258.725838,12.2767963 265.14922,25.167037 C268.209326,31.3079637 270.069048,36.3559215 270.728384,40.3109105 C274.686911,47.3037068 276.876104,55.4745582 276.674121,64.1759894 C276.674121,64.3710683 276.674121,64.4686077 276.674121,64.6636866 C275.074121,144.841094 256.374121,259.05976 255.074121,297.685372 C254.974121,299.148463 254.574121,302.367264 252.474121,305.781144 C245.974121,316.217863 230.774121,313.876917 195.274121,314.754771 C165.074121,315.535087 152.874121,317.876033 146.674121,309.292564 C143.274121,304.610671 143.374121,299.246003 143.474121,296.807517 C146.279259,241.284393 150.535514,185.167709 155.506274,131.518847 Z" fill="#474BFF"></path>
                        <path d="M155.472112,131.887712 C152.004279,134.404089 148.992765,136.583942 146.43757,138.427273 L150.274121,75.0398259 C150.374121,70.6460876 150.874121,44.0883804 130.974121,27.1968976 C116.474121,14.992069 98.8741207,14.2109599 87.1741207,13.7227668 C69.1741207,12.9416577 55.1741207,18.0188665 52.4741207,18.9952527 C49.0741207,20.2645549 47.3741207,20.9480253 45.6741207,21.826773 C26.2741207,31.9811904 27.7741207,80.800505 27.9741207,89.6856202 C28.1710519,100.741772 28.2710283,117.856502 28.2740501,137.767363 C21.8752853,132.110909 16.217218,123.754857 11.7633446,113.4396 C4.82517575,97.4724803 0.59171679,76.7047891 0.474120708,54.1629736 C0.474120708,53.8846795 0.474120708,40.3178461 0.474120708,13.4624732 C0.474120708,13.3581129 0.474120708,13.3581129 0.474120708,13.2537527 C0.59171679,5.84417441 7.64748173,0 15.9968036,0 L108.309728,0 C121.127701,0.417441029 133.828078,0.834882059 146.646051,1.25232309 C166.596747,1.7799609 194.981048,2.55460779 231.798955,3.57626376 C246.195432,3.97575 259.199958,12.2767963 265.62334,25.167037 C268.992448,31.928057 270.906508,37.364234 271.36552,41.4755681 C263.745445,27.052722 248.725688,17.3171329 231.474121,17.6496839 C223.074121,17.8447627 214.774121,18.0398416 206.374121,18.2349204 C183.874121,18.820157 165.174121,36.279714 162.774121,59.1039394 C160.235018,82.6318897 157.776503,106.995019 155.472112,131.887712 Z" id="Shadow-Legs" fill="#444444" opacity="0.176985679"></path>
                    </g>
                    <g id="Body" transform="translate(0.872044, 0.002112)" fill-rule="nonzero">
                        <path d="M165.800828,99.9687 C173.625006,100.112445 185.936699,101.594789 198.099329,108.66267 C200.195852,109.859765 203.290717,111.854922 206.685087,114.7479 C209.580284,117.241846 218.066206,125.521748 226.152792,148.865087 C229.047989,157.045231 237.533912,173.006488 242.425796,181.78518 C244.023147,184.678158 242.126293,188.269441 238.731924,188.568714 C228.0321,189.337393 214.833885,193.728409 202.362972,193.752289 C203.389652,212.413311 204.11372,234.671155 204.388896,259.496551 C204.388896,259.496551 205.986246,289.042934 196.801482,298.619689 C195.211732,300.304496 165.386246,298.550892 133.706151,299.557047 C99.7337099,300.636006 63.5431345,304.13673 55.1225352,295.309622 C41.5050086,281.034701 49.289803,277.168429 61.7874601,195.849522 C59.8302314,196.050616 58.0070955,196.228967 56.3840638,196.377395 C43.7610528,197.577231 17.3223052,196.77734 4.59990036,196.277408 C1.22051157,196.177422 -0.966151758,192.377941 0.425361271,189.178378 C4.59990036,179.479702 11.9550407,161.982092 14.141704,153.083308 C20.4035126,127.686776 28.2556219,118.388046 30.9392541,115.588428 C34.0204616,112.388865 37.1124852,110.212249 38.9901509,108.689371 C45.2829066,103.58564 65.1283525,99.9036034 98.5264887,97.6432619 C112.920624,92.7399108 129.356209,94.147583 139.995717,95.0956017 C147.434976,95.7713796 156.814948,96.6061103 165.800828,99.9687 Z" id="T-shirt" fill="#A339FF"></path>
                        <path d="M166.127956,99.9978894 C173.989841,100.255062 185.779398,101.909303 197.432351,108.686197 C199.532351,109.886197 202.632351,111.886197 206.032351,114.786197 C208.932351,117.286197 217.432351,125.586197 225.532351,148.986197 C228.432351,157.186197 237.531924,172.968714 242.431924,181.768714 C244.031924,184.668714 242.131924,188.268714 238.731924,188.568714 C235.607458,188.793349 232.088548,189.445279 228.743504,189.997888 C227.418414,190.216797 223.759793,190.642466 222.130031,190.986197 C214.248683,192.64844 209.656524,193.752387 202.30984,193.752387 C202.272212,193.752387 202.23459,193.752365 202.196976,193.752321 C200.613742,164.976741 198.313075,144.740576 195.828845,136.803157 C194.128845,131.403157 191.664001,125.203547 191.664001,125.203547 C190.464001,121.703547 188.528845,118.103157 184.628845,113.203157 C179.371855,106.674314 172.874698,102.607832 166.127956,99.9978885 Z M142.590224,110.660497 C140.790224,121.260497 137.490224,124.390379 137.490224,124.390379 C129.890224,119.990379 102.790224,106.260497 105.290224,98.7604965 C105.490224,98.2604965 105.890224,97.2604965 108.490224,95.6604965 C118.290224,89.6604965 130.290224,92.5604965 134.490224,93.7604965 C134.490224,93.7604965 153.790224,91.5604965 157.490224,102.860497 C161.190224,114.160497 156.790224,122.160497 156.790224,122.160497 C153.590224,120.227163 148.856891,116.39383 142.590224,110.660497 Z" id="T-shirt-shadow" fill="#444444" opacity="0.176985679"></path>
                        <path d="M204.264511,274.350737 L202.30984,193.752387 L228.805789,189.997888 L236.902737,288.828809 C237.59691,289.190005 238.271091,289.545978 238.924831,289.896326 C244.655206,292.96731 249.404551,298.558494 253.172866,306.669879 C253.363002,307.07915 253.458354,307.526043 253.451823,307.977277 C253.427843,309.633966 252.065392,310.957538 250.408703,310.933543 L39.8232681,307.885428 C-10.449606,297.917547 3.22483707,229.727628 13.069081,196.594616 C26.8843934,197.027046 46.4012965,197.373636 56.7279556,196.397888 C66.4854643,195.510842 83.4314886,193.555233 93.3959268,192.062963 L75.5279556,245.597888 C123.510984,247.978923 170.630506,261.344659 204.264511,274.350737 Z M148.179423,87.2522032 L147.727956,105.697888 C128.598659,112.752967 115.027956,101.897888 115.027956,101.897888 C115.027956,101.897888 115.745933,88.1500873 117.181887,60.654485 C116.949822,60.1564783 116.724216,59.6313607 116.50556,59.0734093 C114.70556,54.5734093 108.227088,39.7987015 109.627088,34.6987015 C109.883541,33.6215953 104.540208,17.5941332 112.36538,9.50960725 C119.796701,1.83198713 140.399899,2.04917927 141.227956,2.0978885 C144.727956,2.1978885 148.227956,2.0978885 152.027956,1.2978885 C152.427956,1.2978885 152.827956,1.1978885 153.227956,1.1978885 C156.627956,0.897888496 175.727956,-0.00211150407 185.527956,14.1978885 C186.427956,15.3978885 187.227956,16.6978885 187.927956,18.2978885 C189.427956,21.9978885 190.127956,25.9978885 189.827956,29.9978885 L188.427956,47.7978885 C188.227956,49.5978885 187.927956,51.3978885 187.527956,53.0978885 C184.627956,65.6978885 179.927956,75.9978885 174.927956,82.4978885 C171.227956,87.3978885 167.227956,90.1978885 163.727956,90.2978885 C162.727956,90.3978885 157.327956,90.2978885 151.027956,88.3978885 C150.617925,88.2612116 150.72161,88.3580419 148.179423,87.2522032 Z" id="Skin" fill="#F2A98A"></path>
                        <path d="M95.9035607,191.895978 C95.5732451,192.655703 94.6895921,193.003809 93.9298664,192.673494 C93.1701407,192.343178 92.822035,191.459525 93.1523505,190.699799 C95.0882235,186.247291 95.8666512,183.759375 97.3663688,177.260599 C97.5526485,176.453387 98.3580328,175.950022 99.1652448,176.136302 C99.9724569,176.322581 100.475822,177.127966 100.289542,177.935178 C98.7513289,184.600769 97.9195476,187.259208 95.9035607,191.895978 Z M76.5870717,243.504519 C77.4118368,243.426711 78.1435168,244.03224 78.2213248,244.857005 C78.2991329,245.68177 77.6936045,246.41345 76.8688395,246.491258 C76.6740329,246.509636 76.2927848,246.552622 75.7520193,246.624971 C74.8420394,246.746718 73.8258894,246.907339 72.7306281,247.111487 C69.604505,247.694172 66.480421,248.506541 63.5781017,249.581843 C61.8648267,250.216607 60.2803175,250.925996 58.8508337,251.712212 C58.1249527,252.111447 57.2128663,251.846648 56.8136317,251.120767 C56.4143972,250.394886 56.6791964,249.482799 57.4050775,249.083565 C58.9719205,248.221801 60.690235,247.452507 62.5358444,246.768713 C65.61458,245.62805 68.898769,244.774048 72.1809189,244.162281 C73.3285532,243.94837 74.395092,243.779784 75.3541918,243.651466 C75.6917278,243.606307 75.9923768,243.569354 76.2528322,243.539988 C76.4122222,243.522017 76.5247396,243.5104 76.5870717,243.504519 Z" id="Combined-Shape" fill="#482D1F"></path>
                        <path d="M236.729278,288.931651 C228.475788,284.617899 217.334808,279.543563 204.084006,274.407593 L202.127956,193.752387 L228.623904,189.997888 L236.729278,288.931651 Z" id="Arm-Shadow" fill="#8C2A00" opacity="0.2"></path>
                        <path d="M148.207892,87.2802147 L147.927956,97.4978885 L134.121678,80.9303551 C134.31822,81.027026 134.520271,81.1257887 134.727956,81.2266641 C136.727956,82.2266641 139.227956,83.3266641 142.427956,84.7266641 C145.231366,85.976377 147.030854,86.769762 148.207892,87.2802147 Z" id="Shadow" fill="#482D1F"></path>
                        <path d="M137.117381,39.7205376 L137.027956,37.7978885 C137.027956,37.7978885 136.627956,34.1978885 134.127956,30.5978885 C133.927956,30.3978885 132.227956,28.1978885 129.627956,27.0978885 C124.927956,25.2978885 118.727956,27.3978885 115.327956,31.6978885 C111.727956,36.0978885 111.727956,41.9978885 113.627956,46.4978885 C115.527956,50.9978885 119.227956,53.0978885 120.527956,53.6978885 L126.327956,55.4978885 L126.353051,55.4872285 C121.28469,62.9189362 116.871202,69.397403 116.871202,69.397403 C116.871202,69.397403 108.527956,61.6978885 104.827956,55.5978885 C103.027956,52.5978885 96.6279556,45.2978885 95.5279556,33.7978885 C95.2279556,29.9978885 94.0279556,17.0978885 102.627956,7.5978885 C105.627956,4.2978885 109.027956,2.6978885 110.427956,1.9978885 C118.327956,-1.5021115 124.127956,0.597888496 139.327956,0.897888496 C140.527956,0.897888496 142.527956,0.997888496 145.127956,0.897888496 C149.827956,0.797888496 153.127956,0.597888496 154.027956,0.597888496 C161.527956,0.297888496 177.827956,2.5978885 185.027956,13.6978885 C185.427956,14.4978885 185.927956,15.1978885 186.327956,15.7978885 C184.227956,16.4978885 181.927956,17.7978885 179.127956,18.2978885 C171.527956,19.4978885 165.027956,17.9978885 161.127956,16.5978885 C153.527956,23.7978885 145.827956,30.8978885 138.227956,38.0978885 C137.880465,38.6053097 137.509092,39.1479307 137.117381,39.7205376 Z" id="Hair" fill="#DE6903"></path>
                        <path d="M182.654003,50.9257942 C182.954003,49.7257942 184.154003,48.8257942 185.354003,49.0257942 C186.154003,49.1257942 186.754003,49.7257942 187.054003,51.1257942 C187.354003,54.6257942 183.554003,59.0257942 182.454003,56.9257942 C181.754003,55.5257942 182.354003,52.6257942 182.654003,50.9257942 Z M161.527956,48.1978885 C161.827956,46.9978885 163.027956,46.0978885 164.227956,46.2978885 C165.027956,46.3978885 165.627956,46.9978885 165.927956,48.3978885 C166.227956,51.8978885 162.427956,56.2978885 161.327956,54.1978885 C160.527956,52.7978885 161.127956,49.8978885 161.527956,48.1978885 Z" id="Eyes" fill="#482D1F"></path>
                        <path d="M175.828006,51.607888 L175.928006,61.607888 C175.927956,61.6456037 175.775671,61.7978885 175.727956,61.7978885 C175.181024,61.7978885 174.621772,61.7619732 173.74928,61.6775385 C173.579851,61.6611422 173.402664,61.6434148 173.147457,61.6174696 C172.825933,61.5846928 172.64984,61.5667652 172.481245,61.5497926 C171.903879,61.4916685 171.425637,61.4460872 170.914585,61.4016479 C170.364377,61.3538037 169.879559,61.7610504 169.831715,62.3112589 C169.783871,62.8614674 170.191117,63.3462849 170.741326,63.3941291 C171.242184,63.4376819 171.711857,63.4824465 172.280916,63.5397344 C172.448202,63.5565752 172.622947,63.5743655 172.945173,63.6072136 C173.203325,63.6334583 173.383307,63.6514652 173.556631,63.6682385 C174.487776,63.7583493 175.103458,63.7978885 175.727956,63.7978885 C176.88024,63.7978885 177.927956,62.7501732 177.927956,61.5978874 L177.827896,51.587889 C177.822383,51.0356319 177.370213,50.5924159 176.817956,50.5978874 C176.265699,50.6034611 175.822483,51.0556309 175.828006,51.607888 Z" id="Nose" fill="#482D1F"></path>
                        <path d="M168.827956,69.0978885 C168.127956,68.7978885 166.427956,67.9978885 166.327956,66.9978885 C166.327956,66.7978885 166.227956,66.4978885 166.427956,66.3978885 C166.927956,65.8978885 168.127956,66.3978885 169.927956,66.8978885 C173.127956,67.6978885 175.727956,67.8978885 175.727956,67.8978885 C175.727956,67.8978885 174.727956,69.4978885 174.127956,69.8978885 C172.927956,70.9978885 169.827956,69.5978885 168.827956,69.0978885 Z" id="Mouth" fill="#482D1F"></path>
                        <path d="M173.2663,52.7029634 C171.670876,58.7995556 166.124737,63.2978885 159.527956,63.2978885 C151.685512,63.2978885 145.327956,56.9403319 145.327956,49.0978885 C145.327956,47.3592088 145.640439,45.6935135 146.212308,44.1538997 L138.285197,40.7396559 C137.4941,40.4937745 137.052116,39.6531377 137.297997,38.8620411 C137.543878,38.0709445 138.384515,37.6289602 139.175612,37.8748416 L147.543003,41.4787162 C150.063477,37.522274 154.489237,34.8978885 159.527956,34.8978885 C167.370399,34.8978885 173.727956,41.255445 173.727956,49.0978885 C173.727956,49.3108084 173.723269,49.5226337 173.713995,49.733267 L176.833095,50.0559326 C178.187898,43.6252347 183.894183,38.7978885 190.727956,38.7978885 C198.570399,38.7978885 204.927956,45.155445 204.927956,52.9978885 C204.927956,60.8403319 198.570399,67.1978885 190.727956,67.1978885 C182.899682,67.1978885 176.550934,60.8632845 176.528018,53.0403825 L173.2663,52.7029634 Z M149.373039,44.3673961 C148.702465,45.8044595 148.327956,47.4074384 148.327956,49.0978885 C148.327956,55.2834777 153.342366,60.2978885 159.527956,60.2978885 C165.713545,60.2978885 170.727956,55.2834777 170.727956,49.0978885 C170.727956,42.9122993 165.713545,37.8978885 159.527956,37.8978885 C155.280883,37.8978885 151.58594,40.2618319 149.68713,43.7457128 C149.679345,43.7782275 149.670431,43.8107033 149.660363,43.8430961 C149.598654,44.0416367 149.499485,44.2181883 149.373039,44.3673961 Z M179.559903,52.1455551 C179.538732,52.426894 179.527956,52.7111327 179.527956,52.9978885 C179.527956,59.1834777 184.542366,64.1978885 190.727956,64.1978885 C196.913545,64.1978885 201.927956,59.1834777 201.927956,52.9978885 C201.927956,46.8122993 196.913545,41.7978885 190.727956,41.7978885 C185.0334,41.7978885 180.331458,46.0477764 179.620831,51.5488523 C179.630615,51.6478943 179.630633,51.7493888 179.619993,51.8522372 C179.609496,51.9537093 179.589114,52.0517677 179.559903,52.1455551 Z" id="Glasses" fill="#482D1F"></path>
                    </g>
                </g>
            </g>
            <g id="Characters-sitting-/-Woman-sitting/-3" transform="translate(28.000000, 0.000000)">
                <g id="Woman" transform="translate(26.000000, 75.000000)">
                    <g id="Legs" transform="translate(12.650995, 296.212736)" fill-rule="nonzero">
                        <path d="M132.340413,383.888542 C132.241404,383.825731 132.144185,383.758649 132.049005,383.687264 L31.6490047,308.887264 C29.6490047,307.387264 29.2490047,304.487264 30.7490047,302.487264 C32.2490047,300.487264 35.1490047,300.087264 37.1490047,301.587264 L136.475208,375.587264 L190.549005,375.587264 C193.049005,375.587264 195.149005,377.687264 195.149005,380.187264 C195.149005,382.687264 193.049005,384.787264 190.549005,384.787264 L135.049005,384.787264 C134.031974,384.787264 133.097691,384.456271 132.340413,383.888542 Z M452.049005,384.787264 L293.149005,384.787264 C290.649005,384.787264 288.649005,382.787264 288.649005,380.287264 C288.649005,377.787264 290.649005,375.787264 293.149005,375.787264 L452.049005,375.787264 C454.549005,375.787264 456.549005,377.787264 456.549005,380.287264 C456.549005,382.787264 454.549005,384.787264 452.049005,384.787264 Z" id="Base" fill="#DE3190"></path>
                        <path d="M453.059776,376.148394 C452.590434,375.98404 452.08464,375.894794 451.556535,375.894794 L292.656535,375.894794 C292.237027,375.894794 291.831598,375.95111 291.447335,376.056654 C291.128158,375.403448 290.949005,374.668724 290.949005,373.887264 L289.449005,318.587264 C289.249005,315.587264 291.549005,313.287264 294.449005,313.187264 L363.149005,312.787264 C364.249005,312.787264 365.249005,313.087264 366.149005,313.787264 C377.549005,325.987264 388.449005,332.787264 396.349005,336.787264 C402.449005,339.887264 422.849005,348.487264 432.049005,352.687264 C436.749005,354.787264 441.249005,357.287264 445.649005,359.987264 C445.949005,360.187264 446.149005,360.287264 446.449005,360.587264 C448.749005,362.687264 452.249005,366.487264 453.549005,370.987264 C453.749005,371.587264 453.749005,372.087264 453.849005,372.687264 C453.949005,373.187264 453.849005,373.687264 453.849005,374.187264 C453.849005,374.187264 453.849005,374.287264 453.849005,374.287264 C453.706257,374.972452 453.433097,375.600586 453.059776,376.148394 Z M192.079733,376.17841 C191.465852,375.86961 190.777843,375.694794 190.056535,375.694794 L135.982738,375.694794 L37.0333798,301.975551 L74.3490047,249.087264 L134.549005,292.787264 C137.849005,303.987264 141.249005,315.187264 144.649005,326.487264 C146.449005,332.387264 148.249005,338.187264 150.049005,343.987264 C155.649005,346.187264 160.449005,348.187264 163.849005,349.687264 C170.349005,352.487264 175.849005,355.087264 181.849005,358.987264 C181.849005,358.987264 187.049005,362.187264 189.949005,366.787264 C190.849005,368.287264 191.649005,369.987264 192.149005,371.787264 C192.349005,372.587264 192.349005,373.387264 192.449005,374.087264 C192.417741,374.743806 192.269185,375.478544 192.079733,376.17841 Z" id="Shoes" fill="#474961"></path>
                        <path d="M318.69663,13.1793815 L346.008357,12.8211949 C354.208357,12.3211949 364.508357,17.4211949 372.208357,23.2211949 C373.808357,24.4211949 375.208357,25.7211949 376.508357,27.1211949 C377.708357,28.4211949 378.908357,29.8211949 379.908357,31.3211949 C384.308357,37.6211949 386.608357,45.1211949 386.508357,52.8211949 C386.308357,69.5211949 384.308357,82.5211949 383.008357,86.8211949 C374.508357,113.121195 352.708357,211.821195 374.608357,254.521195 C374.608357,254.521195 385.708357,276.021195 383.308357,292.121195 C382.384068,298.591221 378.828599,306.160614 377.716305,308.413748 C377.741917,308.44796 377.767327,308.481821 377.792531,308.515331 C369.435351,320.57246 265.61463,338.287264 185.849005,312.087264 C174.954068,308.508688 159.049005,304.387264 140.849005,296.287264 C140.049005,295.987264 139.249005,295.587264 138.549005,295.087264 C126.249005,287.187264 113.949005,279.387264 101.649005,271.487264 L70.7490047,251.687264 C64.8490047,247.887264 63.1490047,240.287264 66.9490047,234.787264 L92.0490047,198.187264 L107.049005,176.287264 C111.249005,170.087264 115.649005,163.687264 120.149005,157.187264 C122.290299,157.255513 118.423632,157.088846 108.549005,156.687264 C74.1240047,155.287264 29.2490047,148.687264 12.2490047,121.387264 C3.64900473,107.487264 2.14900473,92.8872635 1.44900473,86.1872635 C-2.45099527,47.0872635 17.0565352,26.9460844 23.4490047,20.5872635 C27.7106511,16.3480496 38.4403386,9.54614113 55.6380672,0.181538099 L167.602399,6.78726354 L275.649005,10.7872635 C275.832003,10.6957643 298.265745,9.04536267 318.69663,13.1793815 Z" id="Skirt" fill="#FFCB3D"></path>
                        <path d="M318.349005,13.1839406 L346.008357,12.8211949 C354.208357,12.3211949 364.508357,17.4211949 372.208357,23.2211949 C373.808357,24.4211949 375.208357,25.7211949 376.508357,27.1211949 C377.708357,28.4211949 378.908357,29.8211949 379.908357,31.3211949 C384.308357,37.6211949 386.608357,45.1211949 386.508357,52.8211949 C386.308357,69.5211949 384.308357,82.5211949 383.008357,86.8211949 C374.508357,113.121195 352.708357,211.821195 374.608357,254.521195 C374.608357,254.521195 385.708357,276.021195 383.308357,292.121195 C382.369643,298.692196 378.716981,306.397148 377.666031,308.515331 C368.652917,296.462757 332.986255,241.446683 347.119191,147.392989 C347.519191,144.992989 356.291066,93.1483085 356.291066,78.8480671 C356.291066,27.2035359 343.783394,19.855006 322.089894,14.092989 C320.857405,13.7656272 319.608506,13.463197 318.349005,13.1839406 Z" id="Shadow-Skirt" fill="#8C2A00" opacity="0.2"></path>
                        <path d="M166.080639,90.3842882 C161.146733,97.8473389 155.950701,105.098487 143.334415,122.356967 C130.675701,139.673487 125.4634,146.947339 120.480639,154.484288 C119.871482,155.405701 120.124616,156.646473 121.046029,157.25563 C121.967443,157.864786 123.208214,157.611652 123.817371,156.690239 C128.751277,149.227188 133.947309,141.97604 146.563594,124.71756 C159.222309,107.40104 164.43461,100.127188 169.417371,92.5902389 C170.026527,91.6688258 169.773393,90.4280539 168.85198,89.8188975 C167.930567,89.209741 166.689795,89.462875 166.080639,90.3842882 Z" id="Shadow" fill="#482D1F"></path>
                    </g>
                    <g id="Body" fill-rule="nonzero">
                        <path d="M128.157557,114.096516 C135.958794,113.568413 145.973536,115.013324 154.6,123.315485 C163,131.315485 159,138.315485 171.6,159.715485 C177.9,170.315485 183.9,177.315485 181.7,183.915485 C180.9,186.382152 178.533333,188.682152 174.6,190.815485 C165.866667,191.948818 160.5,192.615485 158.5,192.815485 C157.96138,192.86445 157.344839,192.925404 156.710542,192.98954 L155.1,221.2 L155,222.2 L152.2,271.9 L151.6,281.6 C151.6,282.4 151.5,283.1 151.4,283.9 C151.3,284.8 151.2,285.6 151.1,286.5 C150.8,288.8 150.3,291 149.7,293.2 C149.4,294.1 149.2,295 148.8,295.9 L46.6,295.1 L35.6531166,192.990415 C27.5497691,192.712222 18.9320636,192.415417 9.8,192.1 C4.93333333,190.3 2,188.2 1,185.8 C-1.7,179.3 5.9,171.7 13.8,160.3 C29.7,137.5 24.8,130.8 35.2,121.9 C48.9833961,110.09853 63.0407786,108.338659 72.5648271,108.983079 C72.7760226,108.920627 72.9877489,108.859598 73.2,108.8 C78.2,107.4 83.6,106.8 89.1,107.1 L111.1,108.5 C117.165815,108.82351 122.90457,110.847726 128.157557,114.096516 Z" id="T-shirt" fill="#DE3190"></path>
                        <path d="M127.794986,114.122585 C135.646772,113.525104 145.839296,114.884131 154.6,123.315485 C163,131.315485 159,138.315485 171.6,159.715485 C177.9,170.315485 183.9,177.315485 181.7,183.915485 C180.9,186.382152 178.533333,188.682152 174.6,190.815485 C165.866667,191.948818 160.5,192.615485 158.5,192.815485 C157.835129,192.875928 157.051524,192.954637 156.262355,193.035052 L157.755812,166.87547 C156.055812,147.97547 145.955812,127.67547 131.355812,116.57547 C130.196201,115.696409 129.008605,114.876818 127.794986,114.122585 Z" id="Shadow-T-shirt" fill="#444444" opacity="0.176985679"></path>
                        <path d="M152.921041,251.192655 L154.555812,222.17547 L154.655812,221.17547 L156.27197,192.866639 L172.873535,190.833496 L178.039802,253.343607 C189.059194,254.245062 200.146714,255.097193 211.3,255.9 C223.4,256.8 235.5,257.6 247.4,258.3 C249.042653,257.341786 262.747074,256.079665 278.537109,258.3 C283.390452,258.982459 290.511416,260.975037 299.9,264.277734 C317.700391,269.489323 329.644531,273.189844 335.732422,275.379297 C344.864258,278.663477 335.732422,284.8 323,284.8 C320.439798,284.8 283.946916,286.143024 273.342456,287.634285 C273.522394,287.609062 273.709725,287.583964 273.904194,287.55901 L280.154131,289.257211 C283.37205,290.045388 286.444603,291.238884 289.454943,292.934858 C292.139653,294.442081 294.824362,295.949304 297.509072,297.456527 C298.243486,297.931186 298.908708,298.708443 299.262258,299.696707 C300.402572,302.658715 300.061769,308.010919 297.509072,308 L142.466586,303.235592 C145.068253,303.043038 147.665297,302.841819 150.26175,302.632967 C126.435449,304.385733 102.5577,305.469818 75.5,305.3 C59.7,305.2 55.7,304.7 50.9,302.2 C30.3,291.5 26.3,260.5 23,233.4 C21.6398172,222.896366 20.622245,209.080829 21.2849135,192.64378 C53.0769938,193.739091 77.95701,194.584295 95.9249622,195.179391 C95.9190879,195.988816 95.9106858,196.762678 95.9,197.5 C95.8,207.9 95.5,217.5 96.4,231.7 C96.8,237.6 96.9,242.5 97.1,245.7 C115.491065,247.677534 134.102104,249.508419 152.921033,251.192655 Z M120.006395,103.03772 L118.645344,108.311793 C123.325199,110.069633 127.385132,113.353245 131.8,116.7 C131.2,119.3 130.1,121.1 128.8,122.4 C120.9,130.3 95.6331826,123.6 71.1331826,108.6 C73.151037,108.035001 78.5946699,105.815841 88.3,105.55 C89.0823463,105.528571 89.9982353,105.528024 91.0476672,105.548361 C93.3842082,100.716877 95.6278491,96.3498931 98.0786601,90.9470586 C98.0413639,90.9257213 98.0147552,90.9098368 98,90.9 L100.5,72.7 C100.4,71.6 100.7,72.5 99.7,72.1 C97.2,71.2 95,69.5 93.3,67.3 C90.4,63.3 89.8,57.7 91.8,52.7 C94.1,48 99.6,44.6 104.4,45.4 C106.2,45.7 107.8,46.5 109.3,47.7 L109.4,47.8 C109.9,48.3 110.6,48.5 111.2,48.6 C112.9,48.7 114.4,47.6 114.6,45.9 L117.4,19.9 C117.5,18.2 116.499381,17.4672185 118.199381,17.5672185 C120.666048,17.7672185 124.744319,17.7672185 130.434196,17.5672185 C130.934196,17.5672185 134.791516,17.5672185 135.191516,17.5672185 C137.581128,17.966837 155.9,17 165.2,32 C166,33.5 166.8,34.9 167.4,36.4 C168.9,40.1 169.4,44.2 168.9,48.3 L166.5,66.4 C166.2,68.2 165.8,70 165.3,71.8 C158.9,93.9 147.6,108.7 139,108.6 C134.6,108.4 130.2,107.6 126.1,106 C125.562133,105.731066 125.908242,105.944302 120.006395,103.03772 Z" id="Skin" fill="#DB9E75"></path>
                        <path d="M152.4341,251.720464 L154.089226,222.341973 L154.189226,221.341973 L155.808039,192.986645 L172.873535,190.833496 L177.657754,253.879558 C169.209483,253.188849 160.801242,252.469152 152.434092,251.720466 Z M273.870621,287.671605 L279.545313,289.20332 C282.763232,289.991497 285.943371,291.031956 288.953711,292.72793 C291.63842,294.235153 294.824362,295.949304 297.509072,297.456527 C298.243486,297.931186 298.908708,298.708443 299.262258,299.696707 C300.402572,302.658715 300.061769,308.010919 297.509072,308 L142.081968,303.396027 C162.941487,301.850664 183.506443,299.748919 205.85621,297.622724 C212.75621,297.022724 269.521835,289.122724 272.721835,287.822724 C273.075133,287.771767 273.458853,287.721388 273.870621,287.671605 Z" id="Combined-Shape" fill="#8C2A00" opacity="0.2"></path>
                        <path d="M84.4515641,248.192323 C83.6273768,248.27603 82.8913834,247.675751 82.8076769,246.851564 C82.7239703,246.027377 83.3242486,245.291383 84.1484359,245.207677 L96.9484359,243.907677 C97.7726232,243.82397 98.5086166,244.424249 98.5923231,245.248436 C98.6760297,246.072623 98.0757514,246.808617 97.2515641,246.892323 L84.4515641,248.192323 Z M95.5461398,195.778362 C94.7296629,195.638159 94.1814346,194.862617 94.3216377,194.04614 C94.4618408,193.229663 95.2373833,192.681435 96.0538602,192.821638 C96.0867817,192.827291 96.1788598,192.839864 96.3219316,192.853724 C97.6152974,192.979014 99.1132132,192.849323 100.493073,192.281133 C103.004938,191.246812 104.577611,188.973691 104.802187,184.819037 C105.091787,179.461423 104.872101,175.200008 104.334388,171.961868 C104.207158,171.195685 104.072212,170.55568 103.939156,170.038132 C103.863829,169.745132 103.809606,169.567255 103.786059,169.500771 C103.509491,168.719873 103.918331,167.862627 104.699229,167.586059 C105.480127,167.309491 106.337373,167.718331 106.613941,168.499229 C106.796981,169.016048 107.049222,169.997192 107.293862,171.470429 C107.868055,174.928253 108.099025,179.408546 107.797813,184.980963 C107.511525,190.277298 105.230011,193.574968 101.635345,195.055158 C99.733569,195.83826 97.7712189,196.008162 96.0326702,195.839746 C95.8139119,195.818554 95.6492992,195.796077 95.5461398,195.778362 Z" id="Shadow" fill="#482D1F"></path>
                        <polygon id="Shadow" fill="#482D1F" points="120.4 102.6 110.1 98.1 117.4 113"></polygon>
                        <path d="M116.559734,64.0214079 L113.8,54.2 C112.9,51.8 111.4,49.7 109.5,48 C108,46.8 106.4,46 104.6,45.7 C99.8,44.9 94.3,48.3 92,53 C89.8,57.7 90.3,63.3 93.5,67.3 C95.4633001,69.9504552 98.1975097,71.8300009 101.418843,72.6548508 C100.026605,80.4040265 98,91.1 98,91.1 C98,91.1 95.5428301,89.9592593 90.6284904,87.6777778 C78.7274376,81.0251872 72.2609665,68.6132399 71.2290772,50.441936 C51.8579301,57.9055759 33.3445774,52.6961248 26.1,41.6 C20.6,33.1 21.8099197,21.7739372 22.2,20.2 C26.1,4.46386719 39.5,2.1 39.5,2.1 C39.5,2.1 58.8,-7.8 79.4,22.4 C79.4777183,22.5145322 79.5556039,22.6300684 79.6335542,22.7466221 C81.8774214,20.4292307 84.6480332,18.7379216 87.6,17.5 C95.9,14.1 101.8,16.5 117.6,17.2 C120.8,17.4 125.6,17.5 131.6,17.3 C132.1,17.3 132.5,17.3 132.9,17.3 C136.5,17.2 155.965579,17.098999 165.265579,32.098999 C165.165579,32.398999 165.025436,32.6780548 164.8,33.1 C164.8,33.1 145.489637,66.4457008 116.559734,64.0214079 Z M154.8,61 C152.8,61.2 149.5,61.3 146.9,60.2 C142.4,58.5 147.2,56.4 151.4,56.8 C153.4,56.9 154.8,58 155.7,58.9 C156.3,59.7 155.8,60.9 154.8,61 Z M171.7,63.1 C169.6,63.5 166.5,63.9 163.7,63 C159,61.7 163.5,59.1 167.8,59.2 C170,59.3 171.4,60.1 172.4,61 C173.1,61.7 172.7,62.9 171.7,63.1 Z" id="Hair" fill="#482D1F"></path>
                        <path d="M162.7,73.5 C162,72.2 162.7,69.5 163.2,67.8 C163.5,66.6 164.8,65.9 165.9,66.1 C166.6,66.3 167.4,66.8 167.4,68.2 C167.6,71.6 163.6,75.7 162.7,73.5 Z M146.3,71.2 C145.5,69.9 146.3,67.2 146.8,65.5 C147.1,64.3 148.4,63.6 149.5,63.8 C150.2,64 151,64.5 151,65.9 C151.2,69.3 147.3,73.4 146.3,71.2 Z" id="Eyes" fill="#482D1F"></path>
                        <path d="M162.758288,65.7858051 C162.916134,65.2565574 162.615053,64.699558 162.085805,64.5417122 C161.556557,64.3838664 160.999558,64.6849472 160.841712,65.2141949 L159.141712,70.9141949 L159.112618,71.0416462 L157.412618,81.6416462 C157.406272,81.6796052 157.320152,81.7355834 157.141421,81.7100505 C156.102934,81.4616169 154.897457,81.1633304 153.612706,80.8317318 C153.077947,80.6937084 152.532548,81.0153268 152.394525,81.5500866 C152.256501,82.0848463 152.57812,82.6302448 153.11288,82.7682682 C154.411072,83.1033362 155.630399,83.4050498 156.770961,83.6734172 C158.067236,83.8626148 159.191859,83.1316097 159.386394,81.964399 L161.077009,71.4230332 L162.758288,65.7858051 Z" id="Nose" fill="#482D1F"></path>
                        <polygon id="Shadow" fill="#482D1F" points="120.4 103.1 112.6 99.2 116 117.6"></polygon>
                        <path d="M150.2,90.6 C149.5,90.4 147.8,89.8 147.6,88.6 C147.6,88.4 147.5,88.1 147.6,87.9 C147.9,87.4 151.1,87.9 151.1,87.9 C155.1,88.6 156.2,88.5 156.4,89.1 C156.5,89.4 156.4,89.8 155.5,90.6 C154.4,92.1 151.2,91 150.2,90.6 Z" id="Mouth" fill="#482D1F"></path>
                    </g>
                </g>
            </g>
            <path d="" id="Path-2" stroke="#979797"></path>
            <g id="Characters-sitting-/-Woman-sitting/-2" transform="translate(913.000000, 1.000000)">
                <g id="Woman" transform="translate(36.000000, 84.948560)">
                    <g id="Legs" transform="translate(0.000000, 297.551440)" fill-rule="nonzero">
                        <path d="M142.45,364.5 L280.4,364.5 C282.9,364.5 284.9,366.5 284.9,369 C284.9,371.5 282.9,373.5 280.4,373.5 L121.5,373.5 L4.5,373.5 C2,373.5 0,371.5 0,369 C0,366.5 2,364.5 4.5,364.5 L142.45,364.5 Z" id="Base" fill="#FF5645"></path>
                        <path d="M5.5,364.5 L4.5,364.5 C4.21052299,364.5 3.92774974,364.526815 3.65400894,364.578116 C3.37218452,364.10049 3.16319162,363.569986 3.04444444,363 C3.04444444,363 3.04444444,362.9 3.04444444,362.9 C3.04444444,362.4 2.94444444,361.9 3.04444444,361.4 C3.14444444,360.8 3.14444444,360.3 3.34444444,359.7 C4.01458161,357.380294 5.7409958,354.661994 8.52368702,351.545098 C10.1034419,349.775613 11.9589703,348.273259 14.0184082,347.09622 C18.6101445,344.47189 22.2188233,342.57315 24.8444444,341.4 C34.0444444,337.2 54.4444444,328.6 60.5444444,325.5 C68.4444444,321.5 79.3444444,314.7 90.7444444,302.5 C91.6444444,301.8 92.6444444,301.5 93.7444444,301.5 L151.099609,301.9 C153.999609,301.9 156.299609,304.3 156.099609,307.3 L160.921528,334.38548 C165.997434,332.190087 170.565253,330.074895 176.2,326.8 C180.9,324.1 187.5,319.7 194.9,313.1 C199,309.5 203.2,305.9 207.3,302.3 L269.2,301.5 L281.934913,364.595706 C282.153611,364.641253 282.366295,364.702495 282.571751,364.778218 L282.633834,365.08581 C281.997421,364.724185 281.262298,364.513355 280.47576,364.500613 C280.450559,364.500205 280.425305,364.5 280.4,364.5 L142.45,364.5 L119.510995,364.5 L5.5,364.5 Z" id="Shoes" fill="#474961"></path>
                        <path d="M142.75,364.5 L142.45,364.5 L4.5,364.5 C4.21052299,364.5 3.92774974,364.526815 3.65400894,364.578116 C3.37218452,364.10049 3.16319162,363.569986 3.04444444,363 C3.04444444,363 3.04444444,362.9 3.04444444,362.9 C3.04444444,362.4 2.94444444,361.9 3.04444444,361.4 C3.14444444,360.8 3.14444444,360.3 3.34444444,359.7 C4.01458161,357.380294 5.7409958,354.661994 8.52368702,351.545098 C10.1034419,349.775613 11.9589703,348.273259 14.0184082,347.09622 C18.6101445,344.47189 22.2188233,342.57315 24.8444444,341.4 C34.0444444,337.2 54.4444444,328.6 60.5444444,325.5 C68.4444444,321.5 79.3444444,314.7 90.7444444,302.5 C91.6444444,301.8 92.6444444,301.5 93.7444444,301.5 L151.099609,301.9 C153.999609,301.9 156.299609,304.3 156.099609,307.3 L160.964336,334.625943 C155.644951,336.916836 149.713979,339.343347 141.4,343.3 C136.6,345.6 132,348.2 127.5,351.1 C125.3,353.1 121.5,357.2 120.3,362 C120.1,362.8 120.1,363.6 120,364.3 C120,364.367847 120.036998,364.434514 120.110995,364.5 L143.05,364.5 L142.75,364.5 Z M282.633834,365.08581 C281.997421,364.724185 281.262298,364.513355 280.47576,364.500613 L281,364.5 C281.5539,364.5 282.083255,364.598178 282.571751,364.778218 L282.633834,365.08581 Z" id="Shadow-Shoes" fill="#444444" opacity="0.176985679"></path>
                        <path d="M138.610538,1.66575002 C140.332697,1.39249067 141.962517,1.30390734 143.5,1.4 L326.4,0.7 L410.2,0.5 C413.6,0.7 427.943436,5.088566 431.242757,8.84513727 C434.442757,10.5451373 454.9,31.7 451.5,71 C450.9,77.6 449.6,92.3 441.2,106.3 C432.4,120.9 417.6,131.6 399.5,137.7 C383.5,143.1 364.8,145 345.4,142.9 C304.4,135.5 263.5,128.2 222.5,120.8 L222.5,122.3 L222.7,123 C222.7,123 227.7,132.4 232,142.1 C236.3,151.7 242.3,197.1 242.3,197.4 C252.1,213 262,234.1 269.6,260.7 C272.6,271.4 274.2,279.8 274.8,283 C276.007898,289.863055 276.967099,298.15046 277.677605,307.862215 C277.688263,308.0079 277.693598,308.153925 277.693598,308.3 C277.693598,311.613704 275.007309,314.299993 271.693605,314.3 C270.721999,314.3 269.957464,314.3 269.4,314.3 L180.5,314.2 L153.15835,314.064309 C152.245613,314.305778 151.288256,314.434536 150.303128,314.434536 L77.3031277,314.134536 L71.4031277,314.134536 C65.6031277,314.134536 60.7031277,309.534536 60.4031277,303.734536 C59.7031277,292.034536 58.8031277,276.634536 57.7031277,258.834536 C54.7031277,213.934536 53.1031277,199.634536 51.3031277,165.034536 C51.0031277,159.234536 50.7031277,154.034536 50.5031277,149.134536 C49.7031277,125.834536 47.6031277,104.034536 43.5031277,75.5345357 C41.2031277,59.7345357 40.1031277,49.9345357 40.0031277,41.6345357 C39.9031277,33.9345357 42.2031277,26.3345357 46.6031277,20.0345357 C48.8031277,16.9345357 51.3031277,14.2345357 54.3031277,11.9345357 C62.0031277,6.03453572 67.5181754,2.02051149 86.8367244,1.73453572 C102.122736,1.50825429 119.806252,1.57745877 138.610538,1.66575002 Z" fill="#3ABF7C"></path>
                        <path d="M139.147671,1.58609737 C138.900394,1.62017067 138.651171,1.65813821 138.4,1.7 C131.4,2.9 123.5,7 117.4,11.7 C114.4,14 111.8,16.7 109.7,19.8 C105.3,26 103,33.4 103,41 L103,41.5 C103.1,49.8 104.2,59.6 106.4,75.4 C110.5,103.9 112.6,125.6 113.4,149 C113.6,153.8 113.9,159.1 114.2,164.9 C115.9,199.4 117.6,213.7 120.6,258.7 C121.8,276.5 122.7,291.8 123.3,303.6 C123.6,309.4 128.5,314 134.3,314 L140.2,314 L152.834163,314.062701 C152.019815,314.252132 151.17228,314.352358 150.303128,314.352358 L77.3031277,314.052358 L71.4031277,314.052358 C65.6031277,314.052358 60.7031277,309.452358 60.4031277,303.652358 C59.7031277,291.952358 58.8031277,276.552358 57.7031277,258.752358 C54.7031277,213.852358 53.1031277,199.552358 51.3031277,164.952358 C51.0031277,159.152358 50.7031277,153.952358 50.5031277,149.052358 C49.7031277,125.752358 47.6031277,103.952358 43.5031277,75.4523577 C41.2031277,59.6523577 40.1031277,49.8523577 40.0031277,41.5523577 C39.9031277,33.8523577 42.2031277,26.2523577 46.6031277,19.9523577 C48.8031277,16.8523577 51.3031277,14.1523577 54.3031277,11.8523577 C62.0031277,5.95235766 67.5181754,1.93833343 86.8367244,1.65235766 C102.268198,1.42392294 120.143021,1.49662456 139.147666,1.58609744 Z" id="Shadow-Leg" fill="#444444" opacity="0.176985679"></path>
                        <path d="M222.002478,118.574147 C220.762572,117.354568 219.469379,116.078172 218.118944,114.741348 C217.753132,114.379161 217.753132,114.379161 217.387422,114.016837 C213.577374,110.241461 210.458984,107.130557 204.414214,101.085786 C203.633165,100.304738 202.366835,100.304738 201.585786,101.085786 C200.804738,101.866835 200.804738,103.133165 201.585786,103.914214 C207.634766,109.963193 210.756219,113.077153 214.571953,116.858163 C214.93835,117.221168 214.93835,117.221168 215.304878,117.584064 C216.658234,118.92378 217.954445,120.203154 219.197522,121.425853 C219.984999,122.20042 221.251285,122.189955 222.025853,121.402478 C222.80042,120.615001 222.789955,119.348715 222.002478,118.574147 Z" id="Shadow" fill="#482D1F"></path>
                    </g>
                    <g id="Body" transform="translate(101.786806, 0.000000)" fill-rule="nonzero">
                        <path d="M251.492036,91.710435 C257.381229,89.7113247 263.797297,88.7710374 270.461912,89.1244639 C296.961912,90.4244639 317.361912,111.524464 316.061912,136.224464 C315.423767,148.300133 309.677185,159.002306 300.86849,166.60403 L323.013194,247.55144 C326.413194,260.35144 325.213194,273.35144 320.213194,284.55144 C319.513194,286.15144 318.713194,287.75144 317.913194,289.25144 C317.013194,290.85144 316.013194,292.45144 315.013194,293.95144 C313.913194,295.55144 312.713194,297.15144 311.413194,298.65144 L202.513194,298.65144 C201.613194,297.15144 200.713194,295.65144 199.913194,293.95144 C199.113194,292.45144 198.413194,290.85144 197.813194,289.25144 C197.213194,287.75144 196.713194,286.15144 196.213194,284.55144 C196.113194,284.25144 196.013194,283.95144 195.913194,283.65144 L167.602563,184.96867 L146.943084,187.243782 C145.143084,187.443782 143.443084,186.243782 143.243084,184.543782 L142.343084,177.543782 C142.306236,177.230581 142.320304,176.924169 142.379031,176.631424 C138.983351,174.568459 135.873053,172.092915 133.243084,169.243782 C129.443084,165.143782 126.543084,160.343782 124.843084,154.843782 C118.043084,133.043782 133.143084,109.743782 158.543084,102.943782 C168.766478,100.20681 179.119475,100.531693 188.284924,103.318541 C192.170939,100.618347 196.428621,98.5408511 201.013194,97.25144 L222.913194,90.75144 C232.996691,89.2564105 242.695696,89.6028958 251.492028,91.7104331 Z" id="T-shirt" fill="#FF5645"></path>
                        <path d="M167.452451,184.985201 L146.943084,187.243782 C145.143084,187.443782 143.443084,186.243782 143.243084,184.543782 L142.343084,177.543782 C142.306236,177.230581 142.320304,176.924169 142.379031,176.631424 C138.983351,174.568459 135.873053,172.092915 133.243084,169.243782 C129.443084,165.143782 126.543084,160.343782 124.843084,154.843782 C118.043084,133.043782 133.143084,109.743782 158.543084,102.943782 C168.823123,100.191645 179.234204,100.535387 188.437162,103.36509 C167.747265,117.545012 157.482583,149.333461 164.320237,174.067197 L167.452451,184.985201 Z" id="Shadow-T-shirt" fill="#444444" opacity="0.176985679"></path>
                        <path d="M150.113194,107.35144 C150.113194,107.35144 148.213194,114.95144 158.313194,112.85144 C168.413194,110.75144 171.313194,109.75144 171.313194,109.75144 L168.713194,102.85144 L150.113194,107.35144 Z" id="Finger" fill="#482D1F"></path>
                        <path d="M184.934287,87.498421 C184.604836,87.5863013 184.277963,87.6692236 183.954179,87.7474518 L184.979688,87.5995418 L184.934287,87.498421 Z M211.698849,71.36516 L214.213194,70.35144 L226.313194,91.25144 L206.365407,97.4994537 L225.913194,190.35144 C225.913194,190.35144 227.574675,183.650131 229.702387,171.566411 C229.803448,171.599426 229.907105,171.627865 230.013194,171.65144 L285.313194,183.95144 C285.546191,184.003217 285.779188,184.029861 286.009149,184.033107 C284.073636,191.756022 282.011958,201.043797 279.813194,210.65144 C274.113194,235.45144 273.213194,246.95144 264.113194,263.35144 C253.713194,282.05144 244.113194,282.55144 240.313194,283.95144 C231.813194,287.25144 223.313194,286.75144 218.013194,285.45144 C211.653634,283.911757 200.006104,281.430995 190.120429,263.459517 L195.913194,283.65144 C196.013194,283.95144 196.113194,284.25144 196.213194,284.55144 C196.713194,286.15144 197.213194,287.75144 197.813194,289.25144 C198.413194,290.85144 199.113194,292.45144 199.913194,293.95144 C200.713194,295.65144 201.613194,297.15144 202.513194,298.65144 L215.322569,298.65144 L49.3520261,298.861001 C48.8871321,298.861588 48.4590852,298.70351 48.1191172,298.437869 C20.5926506,281.804505 6.95927727,269.107349 7.21899731,260.346401 C15.5448193,259.079235 27.4280108,257.339878 42.8685718,255.128331 C52.4626073,253.754179 62.2054538,253.782061 71.7914673,255.211101 L101.931763,259.704281 C124.482682,252.476509 154.575649,242.983582 162.089129,241.347582 L149.186024,186.996779 L167.602563,184.96867 L176.261302,215.15056 C171.202974,179.412891 172.510484,142.173845 167.938936,106.321369 L157.413194,106.55144 C151.213194,109.05144 138.213194,113.25144 136.813194,104.35144 C136.813194,104.35144 154.013194,97.25144 166.113194,92.05144 L167.013194,91.25144 C167.813194,90.55144 168.513194,90.15144 169.513194,89.85144 C169.713194,89.75144 169.913194,89.75144 170.113194,89.75144 L174.913194,89.05144 L175.584791,88.954575 C173.991074,89.0320239 172.880037,88.991732 172.479353,88.95144 C164.125945,88.35144 154.380302,73.05144 150.004708,50.95144 C149.606927,49.15144 149.507481,47.35144 149.308591,45.55144 L148.513028,27.65144 C148.314137,23.65144 149.1097,19.65144 150.999161,16.15144 C151.794724,14.65144 152.590286,13.25144 153.485294,12.15144 C163.728163,-1.64855996 182.622776,-0.148559955 186.003917,0.251440045 C186.401699,0.251440045 186.79948,0.351440045 187.197261,0.351440045 C190.976184,1.25144004 194.357325,1.55144004 197.937357,1.45144004 C199.528482,1.45144004 200.821272,2.75144004 200.920717,4.35144004 L201.417944,29.95144 C201.517389,32.35144 213.649719,27.75144 213.649719,27.65144 C219.472467,23.25144 226.776503,46.95144 223.793143,50.45144 C221.605346,52.85144 215.439735,56.25144 213.649719,56.85144 C212.555821,57.25144 211.760258,58.15144 211.561367,59.15144 C212.243161,64.2159714 212.288988,68.2872114 211.698849,71.36516 Z" id="Skin" fill="#DB9E75"></path>
                        <path d="M149.183862,187.079549 L167.600401,185.05144 L195.911032,283.73421 C196.011032,284.03421 196.111032,284.33421 196.211032,284.63421 C196.711032,286.23421 197.211032,287.83421 197.811032,289.33421 C198.411032,290.93421 199.111032,292.53421 199.911032,294.03421 C200.711032,295.73421 201.611032,297.23421 202.511032,298.73421 L215.320407,298.73421 L49.349864,298.943771 C48.88497,298.944358 48.4569231,298.78628 48.1169551,298.520639 C20.5904885,281.887275 6.9571152,269.190119 7.21683523,260.429171 C15.5426572,259.162005 27.4258487,257.422648 42.8664097,255.2111 C52.4604452,253.836949 62.2032918,253.864831 71.7893052,255.293871 L101.929601,259.787051 C124.48052,252.559279 154.573487,243.066352 162.086967,241.430352 L149.183862,187.079549 Z" id="Shadow-Arm" fill="#8C2A00" opacity="0.2"></path>
                        <path d="M2.66327559,274.635293 C13.1632756,261.240825 35.0632756,250.159946 72.4632756,274.148222 C78.1632756,277.679491 76.4632756,289.612744 70.2632756,289.85628 L6.36327559,292.048102 C1.56327559,292.291638 -0.836724409,279.140705 2.66327559,274.635293 Z" id="Mouse" fill="#474961" transform="translate(38.472027, 276.051440) rotate(1.000000) translate(-38.472027, -276.051440) "></path>
                        <path d="M242.420489,24.2841174 C255.246471,32.7057022 267.492127,45.0804399 265.313194,53.25144 C263.613194,59.85144 257.213194,63.35144 250.713194,66.95144 C245.463497,69.8303062 235.768748,74.2864487 221.811064,75.2206099 C221.811775,75.2308879 221.812485,75.2411646 221.813194,75.25144 C218.513194,75.75144 215.313194,76.25144 212.013194,76.75144 C210.313194,76.95144 208.713194,75.75144 208.613194,74.05144 C209.113194,70.45144 209.613194,66.85144 210.113194,63.25144 C210.562193,61.4554449 211.03608,59.186561 211.323772,56.7552073 C212.920139,56.3698158 216.481293,55.3386573 219.213194,52.15144 C222.213194,48.65144 223.813194,43.35144 221.813194,38.25144 C220.013194,33.35144 215.013194,29.55144 210.213194,29.95144 C207.513194,30.15144 205.413194,31.65144 205.113194,31.85144 C202.944222,33.4946006 201.138186,35.7425559 200.154984,37.0904469 C195.448342,35.2639888 188.145182,31.3644736 182.113194,23.65144 C180.713194,21.9181067 179.07986,19.35144 177.213194,15.95144 C167.252582,18.2106197 158.885915,17.6439531 152.113194,14.25144 C153.592311,11.4350621 155.897975,8.88792666 159.030186,6.61003379 C163.728503,3.1931945 164.24694,2.78009977 170.175869,1.11540489 C173.886822,0.0734619136 180.905359,-0.259004748 185.928156,0.251440045 L186.113194,0.251440045 C191.813194,0.851440045 196.513194,1.05144004 199.613194,1.05144004 C214.813194,1.35144004 220.713194,-0.648559955 228.413194,3.15144004 C229.813194,3.85144004 233.113194,5.65144004 236.013194,9.05144004 C240.123071,13.8545499 241.805574,19.4177466 242.420489,24.2841174 Z M151.837299,58.6710127 C155.621859,72.178454 159.646773,77.1508608 159.13429,77.1508608 C158.621807,77.1508608 157.289665,77.85144 146.989665,74.95144 C141.889665,73.55144 137.089665,72.15144 134.889665,68.05144 C131.789665,62.25144 141.027505,50.2685655 149.227505,42.2685655 C149.227505,48.1904587 150.20787,52.6562079 151.837299,58.6710127 Z M145.813194,38.85144 C144.813194,38.65144 144.413194,37.45144 145.113194,36.75144 C146.013194,35.95144 147.513194,34.95144 149.513194,34.85144 C153.613194,34.65144 158.113194,37.05144 153.713194,38.45144 C150.913194,39.45144 147.713194,39.15144 145.813194,38.85144 Z M165.213194,38.85144 C164.213194,38.65144 163.813194,37.45144 164.613194,36.75144 C165.513194,35.95144 167.013194,34.95144 169.113194,34.85144 C173.213194,34.65144 177.713194,37.15144 173.313194,38.45144 C170.313194,39.45144 167.213194,39.15144 165.213194,38.85144 Z" id="Hair" fill="#482D1F"></path>
                        <path d="M153.313194,46.55144 C153.513194,48.25144 153.713194,51.05144 152.813194,52.25144 C151.513194,54.05144 148.413194,49.45144 149.113194,46.25144 C149.413194,44.85144 150.113194,44.45144 150.913194,44.45144 C152.113194,44.45144 153.113194,45.35144 153.313194,46.55144 Z M171.113194,45.95144 C171.413194,47.65144 171.613194,50.45144 170.613194,51.65144 C169.313194,53.45144 166.213194,48.85144 166.913194,45.65144 C167.213194,44.25144 167.913194,43.85144 168.713194,43.85144 C169.913194,43.85144 170.913194,44.75144 171.113194,45.95144 Z" id="Eyes" fill="#482D1F"></path>
                        <path d="M224.774694,190.876549 C224.539913,190.082087 224.993623,189.247721 225.788085,189.01294 C226.582546,188.778159 227.416913,189.231869 227.651694,190.026331 L237.551694,223.526331 C237.786475,224.320793 237.332764,225.155159 236.538303,225.38994 C235.743841,225.624721 234.909475,225.171011 234.674694,224.376549 L224.774694,190.876549 Z M292.498396,173.638393 C292.523743,173.814837 292.517839,173.998816 292.476084,174.183029 L290.777474,181.676836 C290.198329,184.282992 287.599452,185.896088 284.987798,185.315721 C284.179098,185.13601 283.669202,184.334744 283.848913,183.526044 C284.028624,182.717345 284.82989,182.207448 285.638589,182.387159 C286.64739,182.611337 287.632504,181.999888 287.850303,181.019851 L289.310704,174.576905 C289.043814,174.435744 288.816872,174.212898 288.671553,173.92226 C288.301069,173.181293 288.601406,172.280283 289.342373,171.909799 C293.612672,169.77465 297.584745,166.962126 300.968015,163.675521 C301.562229,163.098285 302.511877,163.112048 303.089113,163.706262 C303.666349,164.300475 303.652586,165.250123 303.058372,165.827359 C299.937951,168.858625 296.353099,171.507418 292.498396,173.638393 Z M230.707739,160.281335 C230.701834,160.348296 230.691358,160.415647 230.676084,160.483029 L228.977474,167.976836 C228.753296,168.985637 229.364746,169.97075 230.338589,170.187159 C231.147289,170.366871 231.657185,171.168136 231.477474,171.976836 C231.297763,172.785536 230.496498,173.295432 229.687798,173.115721 C227.081642,172.536575 225.468546,169.937698 226.050303,167.319851 L227.750303,159.819851 C227.816185,159.529196 227.962345,159.277552 228.160114,159.082995 C226.981992,157.6576 226.093277,156.406343 225.352354,155.136637 C224.687113,153.996625 224.130548,152.828185 223.540666,151.367282 C223.138783,150.371978 222.890598,149.703563 222.003504,147.264055 C221.720394,146.485504 222.122029,145.624859 222.900579,145.34175 C223.67913,145.058641 224.539775,145.460275 224.822884,146.238825 C225.695857,148.639502 225.939225,149.294941 226.322456,150.244053 C226.861717,151.579588 227.357645,152.620726 227.94346,153.624627 C228.72714,154.967607 229.715138,156.311411 231.148428,157.97101 C231.689905,158.597983 231.620596,159.545198 230.993624,160.086675 C230.904148,160.163949 230.808149,160.228785 230.707739,160.281335 Z M191.899392,85.7660664 C188.199392,87.4660664 185.68585,90.4735321 179.913194,91.05144 C175.313194,92.15144 171.413194,90.85144 169.413194,89.85144 C169.613194,89.75144 169.813194,89.75144 170.013194,89.75144 L174.813194,89.05144 C177.113194,89.05144 180.808909,88.65144 185.108909,87.45144 L191.899392,85.7660664 Z" id="Shadow" fill="#482D1F"></path>
                        <path d="M166.013194,66.15144 C166.713194,65.95144 168.413194,65.35144 168.713194,64.25144 C168.713194,64.05144 168.813194,63.75144 168.713194,63.55144 C168.313194,62.95144 167.013194,63.25144 165.213194,63.45144 C162.013194,63.75144 159.413194,63.45144 159.413194,63.45144 C159.413194,63.45144 160.213194,65.45144 160.713194,65.95144 C161.813194,67.55144 165.013194,66.55144 166.013194,66.15144 Z" id="Mouth" fill="#482D1F"></path>
                        <path d="M158.513768,47.3853189 L158.519424,47.2399892 L158.511298,47.3124479 L158.513768,47.3853189 Z M157.319424,57.9399892 L157.313194,58.05144 C157.313194,59.1427934 158.060044,60.1563755 159.148795,60.337834 C159.348574,60.3571159 159.46014,60.3650356 159.571888,60.3723053 C160.629526,60.4411086 161.38876,60.45144 164.113194,60.45144 C164.665479,60.45144 165.113194,60.0037248 165.113194,59.45144 C165.113194,58.8991553 164.665479,58.45144 164.113194,58.45144 C161.436933,58.45144 160.698958,58.4413979 159.701721,58.3765239 C159.597831,58.3697654 159.494119,58.3624031 159.38989,58.3543856 C159.412376,58.3544951 159.328664,58.2384385 159.315042,58.0908634 L160.506964,47.4628909 L160.51262,47.3175612 L160.31262,41.4175612 C160.293909,40.8655935 159.831283,40.4333033 159.279315,40.4520141 C158.727347,40.4707249 158.295057,40.9333512 158.313768,41.4853189 L158.511298,47.3124479 L157.319424,57.9399892 Z" id="Nose" fill="#482D1F"></path>
                    </g>
                </g>
            </g>
            <g id="Interior-/-Table-/-Table-1" transform="translate(89.000000, 371.000000)" fill="#D8DEED">
                <g id="Table">
                    <rect id="Rectangle" fill-rule="nonzero" x="0" y="0" width="1291" height="14" rx="7"></rect>
                </g>
            </g>
            <g id="Active-objects-/-Devices-/-Imac" transform="translate(761.000000, 105.000000)">
                <g id="IMac" transform="translate(52.000000, 77.000000)">
                    <path d="M77.2741822,174.002112 L86.8908439,135.2 L14.7012122,135.2 C7.20121215,135.2 1,129.5 1,122.6 L1,12.7 C0.901212154,5.7 7.00121215,0 14.6012122,0 L234.301212,0 C241.801212,0 248.001212,5.7 248.001212,12.6 L248.001212,122.6 C248.001212,129.5 241.801212,135.2 234.301212,135.2 L146.325551,135.2 L142.355883,174.002112 L168.402424,174.002112 C172.402424,174.002112 175.502424,177.202112 175.502424,181.102112 C175.502424,185.102112 172.302424,188.202112 168.402424,188.202112 L56.9024243,188.202112 C52.9024243,188.202112 49.8024243,185.002112 49.8024243,181.102112 C49.6024243,177.202112 52.9024243,174.002112 56.9024243,174.002112 L77.2741822,174.002112 Z" fill="#474961" fill-rule="nonzero"></path>
                    <path d="M149.306026,106.91856 L149.602424,174.102112 L142.432781,174.102112 L149.306026,106.91856 Z" id="Shadow" fill="#FFFFFF"></path>
                </g>
            </g>
        </g>
        <g id="UI-/-Charts-/-Chart-5-/-1" transform="translate(651.000000, 102.000000)">
            <g id="Chart" stroke-width="1" fill-rule="evenodd">
                <rect id="Background" fill="#F2F6FB" fill-rule="nonzero" x="0" y="0" width="369" height="283" rx="20"></rect>
                <g id="Graphic" transform="translate(180.993276, 148.132360) rotate(-30.000000) translate(-180.993276, -148.132360) translate(93.655998, 59.012823)" fill-rule="nonzero">
                    <path d="M87.9165943,164.657311 C129.185755,164.657311 162.64102,131.302751 162.64102,90.1578155 C162.64102,49.0128805 129.185755,15.6583204 87.9165943,15.6583204 C46.6474334,15.6583204 13.1921684,49.0128805 13.1921684,90.1578155 C13.1921684,131.302751 46.6474334,164.657311 87.9165943,164.657311 Z M87.9165943,140.780102 C59.839413,140.780102 37.0965365,118.105684 37.0965365,90.1578155 C37.0965365,62.2099466 59.839413,39.5355293 87.9165943,39.5355293 C115.993776,39.5355293 138.736652,62.2099466 138.736652,90.1578155 C138.736652,118.105684 115.993776,140.780102 87.9165943,140.780102 Z" id="Oval-8" fill="#E1E5F0"></path>
                    <path d="M87.9165943,3.71971594 C40.0514436,3.71971594 1.23998434,42.4143474 1.23998434,90.1578155 C1.23998434,137.901284 40.0514436,176.595915 87.9165943,176.595915 C135.781745,176.595915 174.593204,137.901284 174.593204,90.1578155 L150.688836,90.1578155 C150.688836,124.704218 122.589765,152.718706 87.9165943,152.718706 C53.2434232,152.718706 25.1443525,124.704218 25.1443525,90.1578155 C25.1443525,55.6114136 53.2434232,27.5969248 87.9165943,27.5969248 L87.9165943,3.71971594 Z" id="Oval-8" fill="#474BFF"></path>
                    <path d="M89.0657127,0.491268671 C39.8918337,0.491268671 0.0176373323,40.2454383 0.0176373323,89.2981393 C0.0176373323,138.35084 39.8918337,178.10501 89.0657127,178.10501 L89.0657127,149.490259 C55.7012699,149.490259 28.6649362,122.535308 28.6649362,89.2981393 C28.6649362,56.0609702 55.7012699,29.1060196 89.0657127,29.1060196 L89.0657127,0.491268671 Z" id="Oval-8" fill="#D8DEED"></path>
                </g>
            </g>
            <path d="M0,16.0051414 C0,7.16574588 7.16437217,0 16.0035783,0 L352.996422,0 C361.834954,0 369,7.16380234 369,16.0051414 L369,32.0102828 L0,32.0102828 L0,16.0051414 Z" id="Top-bar" fill="#E1E5F0" fill-rule="nonzero"></path>
            <ellipse id="Burron" fill="#FF5645" fill-rule="nonzero" cx="21.4704142" cy="16.3688946" rx="6.91420118" ry="6.91131105"></ellipse>
            <ellipse id="Burron" fill="#FFCB3D" fill-rule="nonzero" cx="44.0325444" cy="16.3688946" rx="6.91420118" ry="6.91131105"></ellipse>
            <ellipse id="Burron" fill="#3ABF7C" fill-rule="nonzero" cx="67.3224852" cy="16.3688946" rx="6.91420118" ry="6.91131105"></ellipse>
        </g>
    </g>
</svg>