<?xml version="1.0" encoding="UTF-8"?>
<svg width="1700px" height="1200px" viewBox="0 0 1700 1200" version="1.1" xmlns="http://www.w3.org/2000/svg" xmlns:xlink="http://www.w3.org/1999/xlink">
    <!-- Generator: Sketch 56.1 (81669) - https://sketch.com -->
    <title>Hirerring</title>
    <desc>Created with Sketch.</desc>
    <defs>
        <path d="M103.737624,78.100579 C103.556907,77.9335053 103.378165,77.7591507 103.202044,77.5772069 C100.034803,74.2393013 98.1810453,68.9346628 99.9284724,63.8068127 C101.555542,58.8667666 106.401816,54.8651417 111.20688,55.0678229 C113.912995,55.1508591 121.178381,56.8137056 121.130893,54.4038043 L120.603446,28.8964116 C120.571787,27.2898107 121.822554,25.9177404 123.434694,25.8861903 C126.967785,25.7552306 130.432782,25.3165226 134.159401,24.3039858 C134.567663,24.2465431 134.975924,24.1891004 135.384186,24.1316576 C138.760184,23.5834223 157.707763,21.2592218 168.565683,34.6215602 C169.555129,35.7272508 170.424217,37.0207453 171.272399,38.5124607 C173.225308,41.923584 174.22043,45.8356176 174.200125,49.8417028 L174.129658,67.6708653 C174.040959,69.4652701 173.95226,71.2596749 173.664657,73.0332458 C170.218792,95.218508 161.024705,110.889571 152.681475,111.819371 C151.655594,112.012533 146.290552,112.35243 139.909783,110.882446 C139.328238,110.722134 139.792284,110.96714 131.471726,108.044841 L130.097189,121.57429 C126.126722,120.538843 121.96502,119.949368 117.667515,119.864417 L100.487476,119.42109 L102.65803,98.840612 L103.598786,89.9206727 L103.737624,78.100579 Z M167.01295,270.917134 L167.854603,235.044595 L167.943101,231.67749 L167.993287,230.90629 L168.395942,214.448109 L168.708951,202.538932 L176.8403,201.757069 L204.902847,278.122333 C207.524477,278.618498 210.55977,279.23692 214.115326,279.99377 C219.837368,279.962597 224.573971,280.093645 228.325136,280.386912 C243.516271,281.574558 256.56854,282.069787 271.850527,291.151294 C299.708759,307.706387 301.880731,315.328778 278.366442,314.018465 L230.403144,313.740156 C229.805956,313.958325 229.208386,314.098966 228.61341,314.151447 C228.61341,314.151447 158.521874,313.534458 18.3388012,312.300479 C12.700387,312.250853 7.40532977,309.58333 4.00966851,305.081813 C2.37638043,302.916616 1.19042807,298.955229 0.451811426,293.197651 C-1.83789946,281.048664 4.70487733,263.650198 17.1365558,229.853118 C21.0900818,219.138402 24.834397,209.396649 28.3582939,200.739548 L105.845109,203.672042 C99.8683245,218.519895 89.3240735,253.838561 86.3365558,259.251746 C86.3294946,259.255156 86.3224353,259.258562 86.3153781,259.261966 C108.629264,262.268141 135.3648,265.994532 167.01295,270.917134 Z" id="path-1"></path>
    </defs>
    <g id="Hirerring" stroke="none" stroke-width="1" fill="none" fill-rule="evenodd">
        <g id="UI-/-Users-/-User-2-/-1" transform="translate(360.000000, 85.000000)">
            <g id="Users" stroke-width="1" fill-rule="evenodd">
                <g id="Browser" fill="#F2F6FB" fill-rule="nonzero">
                    <g id="Background">
                        <rect x="0" y="0" width="398" height="305" rx="6"></rect>
                    </g>
                </g>
                <g id="User-1" transform="translate(51.025641, 87.030848)" fill-rule="nonzero">
                    <ellipse id="Oval" fill="#D8DEED" cx="37.1911166" cy="35.1178051" rx="35.3315607" ry="35.1178051"></ellipse>
                    <g id="Icons-/-User" transform="translate(20.455114, 16.634750)" fill="#F2F6FB">
                        <path d="M16.7168974,17.9835133 C11.6522186,17.9835133 7.54648513,13.9577667 7.54648513,8.99175664 C7.54648513,4.02574657 11.6522186,2.84217094e-13 16.7168974,2.84217094e-13 C21.7815763,2.84217094e-13 25.8873097,4.02574657 25.8873097,8.99175664 C25.8873097,13.9577667 21.7815763,17.9835133 16.7168974,17.9835133 Z M16.7168974,22.4793916 C25.896633,22.4793916 33.3382697,29.7760523 33.3382697,38.7769505 L0.0955251282,38.7769505 C0.0955251282,29.7760523 7.53716187,22.4793916 16.7168974,22.4793916 Z" id="Combined-Shape"></path>
                    </g>
                    <g id="Text" transform="translate(0.000000, 79.477138)" fill="#E1E5F0">
                        <path d="M7.39322213,3.23296945e-13 L66.989011,3.23296945e-13 C71.0721749,3.18994166e-13 74.3822332,3.31005829 74.3822332,7.39322213 C74.3822332,11.476386 71.0721749,14.7864443 66.989011,14.7864443 L7.39322213,14.7864443 C3.31005829,14.7864443 -1.59111568e-12,11.476386 -1.59161573e-12,7.39322213 C-1.59211577e-12,3.31005829 3.31005829,3.23158831e-13 7.39322213,3.23296945e-13 Z M16.6910013,24.0279719 L57.6912319,24.0279719 C61.7743957,24.0279719 65.084454,27.3380302 65.084454,31.421194 C65.084454,35.5043579 61.7743957,38.8144162 57.6912319,38.8144162 L16.6910013,38.8144162 C12.6078374,38.8144162 9.29777914,35.5043579 9.29777914,31.421194 C9.29777914,27.3380302 12.6078374,24.0279719 16.6910013,24.0279719 Z"></path>
                    </g>
                    <g id="Button" transform="translate(0.000000, 142.361128)" fill="#474BFF">
                        <g id="Buttons">
                            <path d="M12.9381387,0.421960427 L61.4440944,0.421960427 C68.5896311,0.421960427 74.3822332,6.21456244 74.3822332,13.3600992 C74.3822332,20.5056359 68.5896311,26.2982379 61.4440944,26.2982379 L12.9381387,26.2982379 C5.79260202,26.2982379 -2.71339817e-12,20.5056359 -2.71427325e-12,13.3600992 C-2.71514833e-12,6.21456244 5.79260202,0.421960427 12.9381387,0.421960427 Z M123.624529,0.421960427 L172.130485,0.421960427 C179.276022,0.421960427 185.068624,6.21456244 185.068624,13.3600992 C185.068624,20.5056359 179.276022,26.2982379 172.130485,26.2982379 L123.624529,26.2982379 C116.478993,26.2982379 110.686391,20.5056359 110.686391,13.3600992 C110.686391,6.21456244 116.478993,0.421960427 123.624529,0.421960427 Z M235.09593,0.421960427 L283.601885,0.421960427 C290.747422,0.421960427 296.540024,6.21456244 296.540024,13.3600992 C296.540024,20.5056359 290.747422,26.2982379 283.601885,26.2982379 L235.09593,26.2982379 C227.950393,26.2982379 222.157791,20.5056359 222.157791,13.3600992 C222.157791,6.21456244 227.950393,0.421960427 235.09593,0.421960427 Z"></path>
                        </g>
                    </g>
                </g>
                <g id="User-2" transform="translate(161.712032, 87.030848)">
                    <ellipse id="Oval" fill="#D8DEED" fill-rule="nonzero" cx="37.1911166" cy="35.1178051" rx="35.3315607" ry="35.1178051"></ellipse>
                    <g id="Icons-/-User" transform="translate(20.455114, 16.634750)" fill="#F2F6FB" fill-rule="nonzero">
                        <path d="M16.7168974,17.9835133 C11.6522186,17.9835133 7.54648513,13.9577667 7.54648513,8.99175664 C7.54648513,4.02574657 11.6522186,2.84217094e-13 16.7168974,2.84217094e-13 C21.7815763,2.84217094e-13 25.8873097,4.02574657 25.8873097,8.99175664 C25.8873097,13.9577667 21.7815763,17.9835133 16.7168974,17.9835133 Z M16.7168974,22.4793916 C25.896633,22.4793916 33.3382697,29.7760523 33.3382697,38.7769505 L0.0955251282,38.7769505 C0.0955251282,29.7760523 7.53716187,22.4793916 16.7168974,22.4793916 Z" id="Combined-Shape"></path>
                    </g>
                    <g id="Text" transform="translate(0.000000, 79.477138)" fill="#E1E5F0" fill-rule="nonzero">
                        <path d="M7.39322213,3.23296945e-13 L66.989011,3.23296945e-13 C71.0721749,3.20770523e-13 74.3822332,3.31005829 74.3822332,7.39322213 C74.3822332,11.476386 71.0721749,14.7864443 66.989011,14.7864443 L7.39322213,14.7864443 C3.31005829,14.7864443 -1.50585056e-12,11.476386 -1.5063506e-12,7.39322213 C-1.50685064e-12,3.31005829 3.31005829,3.24935188e-13 7.39322213,3.23296945e-13 Z M7.39322213,24.0279719 L66.989011,24.0279719 C71.0721749,24.0279719 74.3822332,27.3380302 74.3822332,31.421194 C74.3822332,35.5043579 71.0721749,38.8144162 66.989011,38.8144162 L7.39322213,38.8144162 C3.31005829,38.8144162 -1.50585056e-12,35.5043579 -1.5063506e-12,31.421194 C-1.50685064e-12,27.3380302 3.31005829,24.0279719 7.39322213,24.0279719 Z"></path>
                    </g>
                    <g id="Button" transform="translate(0.000000, 142.361128)">
                        <g></g>
                    </g>
                </g>
                <g id="User-3" transform="translate(273.183432, 87.030848)">
                    <ellipse id="Oval" fill="#D8DEED" fill-rule="nonzero" cx="37.1911166" cy="35.1178051" rx="35.3315607" ry="35.1178051"></ellipse>
                    <g id="Icons-/-User" transform="translate(20.455114, 16.634750)" fill="#F2F6FB" fill-rule="nonzero">
                        <path d="M16.7168974,17.9835133 C11.6522186,17.9835133 7.54648513,13.9577667 7.54648513,8.99175664 C7.54648513,4.02574657 11.6522186,2.84217094e-13 16.7168974,2.84217094e-13 C21.7815763,2.84217094e-13 25.8873097,4.02574657 25.8873097,8.99175664 C25.8873097,13.9577667 21.7815763,17.9835133 16.7168974,17.9835133 Z M16.7168974,22.4793916 C25.896633,22.4793916 33.3382697,29.7760523 33.3382697,38.7769505 L0.0955251282,38.7769505 C0.0955251282,29.7760523 7.53716187,22.4793916 16.7168974,22.4793916 Z" id="Combined-Shape"></path>
                    </g>
                    <g id="Text" transform="translate(0.000000, 79.477138)" fill="#E1E5F0" fill-rule="nonzero">
                        <path d="M16.6910013,3.23296945e-13 L57.6912319,3.23296945e-13 C61.7743957,3.15515317e-13 65.084454,3.31005829 65.084454,7.39322213 C65.084454,11.476386 61.7743957,14.7864443 57.6912319,14.7864443 L16.6910013,14.7864443 C12.6078374,14.7864443 9.29777914,11.476386 9.29777914,7.39322213 C9.29777914,3.31005829 12.6078374,3.22270653e-13 16.6910013,3.23296945e-13 Z M7.39322213,24.0279719 L66.989011,24.0279719 C71.0721749,24.0279719 74.3822332,27.3380302 74.3822332,31.421194 C74.3822332,35.5043579 71.0721749,38.8144162 66.989011,38.8144162 L7.39322213,38.8144162 C3.31005829,38.8144162 -1.51295598e-12,35.5043579 -1.51345603e-12,31.421194 C-1.51395607e-12,27.3380302 3.31005829,24.0279719 7.39322213,24.0279719 Z"></path>
                    </g>
                    <g id="Button" transform="translate(0.000000, 142.361128)">
                        <g></g>
                    </g>
                </g>
            </g>
            <path d="M0,17.2493573 C0,7.72280033 7.72742581,0 17.2453072,0 L380.754693,0 C390.279013,0 398,7.7207057 398,17.2493573 L398,34.4987147 L0,34.4987147 L0,17.2493573 Z" id="Top-bar" fill="#D8DEED" fill-rule="nonzero"></path>
            <ellipse id="Burron" fill="#FF5645" fill-rule="nonzero" cx="23.1577909" cy="17.6413882" rx="7.45759369" ry="7.44858612"></ellipse>
            <ellipse id="Burron" fill="#FFCB3D" fill-rule="nonzero" cx="47.4930966" cy="17.6413882" rx="7.45759369" ry="7.44858612"></ellipse>
            <ellipse id="Burron" fill="#3ABF7C" fill-rule="nonzero" cx="72.6134122" cy="17.6413882" rx="7.45759369" ry="7.44858612"></ellipse>
        </g>
        <g id="UI-/-Users-/-User-5" transform="translate(599.000000, 280.000000)">
            <g id="User-info" transform="translate(124.000000, 0.000000)">
                <rect id="Background" fill="#E1E5F0" fill-rule="nonzero" x="0" y="0" width="285" height="309" rx="20"></rect>
                <g id="Text-" transform="translate(37.000000, 203.843844)" fill="#F2F6FB" fill-rule="nonzero">
                    <path d="M5.17717718,2.55795385e-13 L205.981914,2.55795385e-13 C208.84119,2.55270144e-13 211.159091,2.31790118 211.159091,5.17717718 C211.159091,8.03645318 208.84119,10.3543544 205.981914,10.3543544 L5.17717718,10.3543544 C2.31790118,10.3543544 1.23833874e-15,8.03645318 0,5.17717718 C-3.5016032e-16,2.31790118 2.31790118,2.56320625e-13 5.17717718,2.55795385e-13 Z M5.17717718,33.6516517 L205.981914,33.6516517 C208.84119,33.6516517 211.159091,35.9695528 211.159091,38.8288288 C211.159091,41.6881048 208.84119,44.006006 205.981914,44.006006 L5.17717718,44.006006 C2.31790118,44.006006 3.5016032e-16,41.6881048 0,38.8288288 C-3.5016032e-16,35.9695528 2.31790118,33.6516517 5.17717718,33.6516517 Z M32.3817226,16.8258258 L178.777368,16.8258258 C181.636644,16.8258258 183.954545,19.143727 183.954545,22.003003 C183.954545,24.862279 181.636644,27.1801802 178.777368,27.1801802 L32.3817226,27.1801802 C29.5224466,27.1801802 27.2045455,24.862279 27.2045455,22.003003 C27.2045455,19.143727 29.5224466,16.8258258 32.3817226,16.8258258 Z M45.3362681,50.4774775 L165.822823,50.4774775 C168.682099,50.4774775 171,52.7953787 171,55.6546547 C171,58.5139307 168.682099,60.8318318 165.822823,60.8318318 L45.3362681,60.8318318 C42.4769921,60.8318318 40.1590909,58.5139307 40.1590909,55.6546547 C40.1590909,52.7953787 42.4769921,50.4774775 45.3362681,50.4774775 Z" id="Text"></path>
                </g>
                <g id="ElUserpic" transform="translate(106.954545, 38.000000)" fill-rule="nonzero">
                    <g id="Userpic">
                        <ellipse id="Oval" fill="#474BFF" cx="34.9772727" cy="34.9459459" rx="34.9772727" ry="34.9459459"></ellipse>
                        <g id="Icons-/-User" transform="translate(23.318182, 22.003003)" fill="#F2F6FB">
                            <path d="M11.6457814,12.5931337 C8.11748659,12.5931337 5.25723848,9.77406468 5.25723848,6.29656684 C5.25723848,2.819069 8.11748659,0 11.6457814,0 C15.1740763,0 18.0343244,2.819069 18.0343244,6.29656684 C18.0343244,9.77406468 15.1740763,12.5931337 11.6457814,12.5931337 Z M11.6457814,15.7414171 C18.0408194,15.7414171 23.2250156,20.8509761 23.2250156,27.1539445 L0.0665473225,27.1539445 C0.0665473225,20.8509761 5.25074346,15.7414171 11.6457814,15.7414171 Z" id="Color"></path>
                        </g>
                    </g>
                </g>
                <rect id="Text" fill="#F2F6FB" fill-rule="nonzero" x="98.9318182" y="137.660661" width="86" height="10.3543544" rx="5.17717718"></rect>
                <rect id="Title" fill="#F2F6FB" fill-rule="nonzero" x="83.9318182" y="120.834835" width="116" height="10.3543544" rx="5.17717718"></rect>
            </g>
        </g>
        <g id="Group" transform="translate(390.000000, 357.000000)">
            <g id="Chair-3" transform="translate(166.000000, 499.845258) scale(-1, 1) translate(-166.000000, -499.845258) translate(0.000000, 241.345258)" fill="#D8DEED" fill-rule="nonzero">
                <g id="Chair" transform="translate(0.528066, 0.070193)">
                    <path d="M2.37193369,514.429807 L2.77193369,514.629807 C4.87193369,515.729807 7.57193369,515.129807 8.57193369,513.229807 L125.671934,298.129807 C126.771934,296.129807 125.871934,293.629807 123.771934,292.529807 L123.371934,292.329807 C121.271934,291.229807 118.571934,291.829807 117.571934,293.729807 L88.5719337,346.929807 C69.6719337,381.729807 50.7719337,416.429807 31.7719337,451.229807 L0.471933689,508.629807 C-0.628066311,510.629807 0.271933689,513.229807 2.37193369,514.429807 Z" id="Path"></path>
                    <path d="M289.471934,288.829807 L216.171934,288.829807 C171.771934,288.829807 127.371934,288.829807 83.0719337,288.829807 L15.0719337,288.829807 C12.6719337,288.829807 10.5719337,290.829807 10.5719337,293.229807 L10.5719337,293.729807 C10.5719337,296.129807 12.5719337,298.129807 15.0719337,298.129807 L289.671934,298.129807 C292.071934,298.129807 294.171934,296.129807 294.171934,293.729807 L294.171934,293.229807 C294.171934,290.829807 292.071934,288.829807 289.471934,288.829807 Z" id="Path"></path>
                    <path d="M328.871934,508.629807 L297.571934,451.229807 C278.671934,416.429807 259.771934,381.729807 240.771934,346.929807 L211.771934,293.729807 C210.771934,291.829807 208.071934,291.129807 205.971934,292.329807 L205.571934,292.529807 C203.471934,293.629807 202.571934,296.229807 203.671934,298.129807 L320.771934,513.229807 C321.771934,515.129807 324.471934,515.829807 326.571934,514.629807 L326.971934,514.429807 C329.071934,513.229807 329.971934,510.629807 328.871934,508.629807 Z" id="Path"></path>
                    <path d="M320.571934,4.42980747 L311.071934,81.2298075 C305.271934,127.729807 299.571934,174.229807 293.771934,220.629807 L284.971934,291.829807 C284.671934,294.329807 286.371934,296.829807 288.771934,297.129807 L289.271934,297.229807 C291.671934,297.529807 293.871934,295.729807 294.271934,293.029807 L329.971934,5.42980747 C330.271934,2.92980747 328.571934,0.429807475 326.171934,0.129807475 L325.671934,0.029807475 C323.171934,-0.270192525 320.871934,1.72980747 320.571934,4.42980747 Z" id="Path"></path>
                </g>
            </g>
            <g id="Chair-2" transform="translate(786.000000, 496.345258) scale(-1, 1) translate(-786.000000, -496.345258) translate(621.000000, 236.345258)" fill="#D8DEED" fill-rule="nonzero">
                <path d="M327.2,519.1 L326.8,519.3 C324.7,520.4 322,519.8 321,517.9 L203.9,302.8 C202.8,300.8 203.7,298.3 205.8,297.2 L206.2,297 C208.3,295.9 211,296.5 212,298.4 L241,351.6 C259.9,386.4 278.8,421.1 297.8,455.9 L329.1,513.3 C330.2,515.3 329.3,517.9 327.2,519.1 Z" id="Path"></path>
                <path d="M36.5,293.5 L109.8,293.5 C154.2,293.5 198.6,293.5 242.9,293.5 L310.9,293.5 C313.3,293.5 315.4,295.5 315.4,297.9 L315.4,298.4 C315.4,300.8 313.4,302.8 310.9,302.8 L36.3,302.8 C33.9,302.8 31.8,300.8 31.8,298.4 L31.8,297.9 C31.8,295.5 33.9,293.5 36.5,293.5 Z" id="Path"></path>
                <path d="M32.1,274 L32.1,202.1 C32.1,158.5 32.1,115 32.1,71.5 L32.1,4.8 C32.1,2.4 73.6,0.4 123.5,0.4 L133.9,0.4 C183.7,0.4 225.3,2.4 225.3,4.8 L225.3,274.2 C225.3,276.6 183.8,278.6 133.9,278.6 L123.5,278.6 C73.7,278.6 32.1,276.5 32.1,274 Z" id="Path"></path>
                <path d="M0.7,513.3 L32,455.9 C50.9,421.1 69.8,386.4 88.8,351.6 L117.8,298.4 C118.8,296.5 121.5,295.8 123.6,297 L124,297.2 C126.1,298.3 127,300.9 125.9,302.8 L8.8,517.9 C7.8,519.8 5.1,520.5 3,519.3 L2.6,519.1 C0.5,517.9 -0.4,515.3 0.7,513.3 Z" id="Path"></path>
            </g>
            <g id="Characters-sitting-/-Woman-sitting/-7" transform="translate(429.000000, 0.000000)">
                <g id="Woman" transform="translate(71.000000, 91.000000)">
                    <g id="Legs" transform="translate(207.500000, 477.000000) scale(-1, 1) translate(-207.500000, -477.000000) translate(35.000000, 288.000000)" fill-rule="nonzero">
                        <path d="M339.7,377 L180.8,377 C178.3,377 176.3,375 176.3,372.5 C176.3,370 178.3,368 180.8,368 L339.7,368 C342.2,368 344.2,370 344.2,372.5 C344.2,375 342.2,377 339.7,377 Z M47.2,377 C44.7,377 42.7,375.269231 42.7,373.192308 L42.7,371.807692 C42.7,369.730769 44.8,368 47.2,368 L149.7,368 C152.2,368 154.2,369.730769 154.2,371.807692 L154.2,373.192308 C154.2,375.269231 152.1,377 149.7,377 L47.2,377 Z" id="Base" fill="#A339FF"></path>
                        <path d="M341.194858,368.325666 C340.672656,368.115494 340.100765,368 339.5,368 L180.6,368 C179.960454,368 179.35363,368.130886 178.80464,368.367545 C178.671502,367.913837 178.6,367.432333 178.6,366.931921 L181.929688,306.013616 L250.8,305 C251.9,305 252.9,305.304085 253.8,306.013616 C265.2,318.379728 276.1,325.272315 284,329.326778 C290.1,332.468986 310.5,341.186082 319.7,345.443268 C322.529157,346.724571 326.717095,349.025062 332.263815,352.344743 C333.581528,353.13339 334.770321,354.119711 335.78863,355.269223 C338.66377,358.514808 340.46756,361.422545 341.2,363.992436 C341.4,364.600605 341.4,365.107413 341.5,365.715582 C341.6,366.22239 341.5,366.729198 341.5,367.236006 C341.5,367.236006 341.5,367.337368 341.5,367.337368 C341.429166,367.682001 341.32622,368.012395 341.194858,368.325666 Z M151.644244,368.461454 C151.008128,368.167744 150.278294,368 149.5,368 L48.4875,368 L71.7,306.1 L143.3,315.8 L151.644244,368.461454 Z" id="Shoes" fill="#474961"></path>
                        <path d="M175.29444,131.035392 C172.411022,132.469032 169.718732,133.808537 167.21757,135.053908 L166.7,142.96455 C166.1,153.351773 165.4,162.474465 164.6,170.513273 C164,176.835931 156.3,248.462611 153.5,274.746803 C152.9,280.708166 148.6,285.766292 142.7,287.392119 C133.8,289.921182 128.1,291.366361 105,292.179274 C103.5,292.269598 102,292.179274 100.6,292.08895 C78.2,290.282477 67,287.030824 64.5,285.94694 C61.3,284.592085 59.6,283.959819 57.9,282.424316 C51.9,277.185543 52.3,268.875764 52.2,265.804759 C51.6941416,246.233784 50.3353077,193.533934 49.9213516,148.194136 C49.317166,148.196097 48.7100289,148.198052 48.0999404,148.2 C42.4102163,148.2 36.9351988,145.8 31.8895944,141.6 C25.4483973,136.2 2.80046191,118.341797 1.3965592,80.7680232 C0.419889191,54.6286207 4.97146052,34.7726129 15.0512732,21.2 C15.0512732,21.1 27.5998236,1.3 35.2219068,1.3 L147.494235,1.3 C155.295241,1.56666667 190.130496,2.46936819 252,4.00810456 L251.963623,4.2475103 C252.308922,4.23986074 252.654376,4.23221118 253,4.22456161 C278.3,3.75977644 298.8,23.9314532 298.2,48.5650676 C298.2,48.7509817 298.2,48.8439387 298.2,49.0298528 C296.6,125.440536 277.9,234.293225 276.6,271.104211 C276.5,272.498566 276.1,275.566148 274,278.819645 C267.5,288.766048 252.3,286.535079 216.8,287.371692 C186.6,288.115348 174.4,290.346317 168.2,282.166098 C164.8,277.70416 164.9,272.591523 165,270.267597 C167.472352,223.630446 171.071939,176.553877 175.29444,131.035392 Z" fill="#474BFF"></path>
                        <path d="M175.079407,130.842309 C172.194778,132.276595 169.502707,133.616043 167.003194,134.860653 L171.587157,64.798524 C171.687157,60.7339583 172.187157,36.1659165 152.287157,20.5399194 C137.787157,9.24945901 120.187157,8.52686955 108.487157,8.07525114 C90.4871566,7.35266167 76.4871566,12.0494932 73.7871566,12.95273 C70.3871566,14.1269379 68.6871566,14.7592037 66.9871566,15.5721168 C47.5871566,24.9657799 49.0871566,70.1276213 49.2871566,78.3470765 C49.4871566,88.7343 49.5871566,104.902239 49.5871566,123.689565 C49.5871566,131.331608 49.631181,139.486171 49.7077548,147.894828 C49.1741139,147.896557 48.6381757,147.898281 48.0999404,147.9 C42.4102163,147.9 36.9351988,145.5 31.8895944,141.3 C25.4483973,135.9 2.80046191,118.041797 1.3965592,80.4680232 C0.419889191,54.3286207 4.97146052,34.4726129 15.0512732,20.9 C15.0512732,20.8 27.5998236,1 35.2219068,1 L147.494235,1 C155.095143,1.2598266 189.201485,2.2844199 249.813261,4.07377988 C242.424224,4.23772544 235.094572,4.401671 227.687157,4.56561657 C205.187157,5.12335878 186.487157,21.7626682 184.087157,43.5146145 C180.910424,71.5680814 177.859837,100.867446 175.079407,130.842309 Z" id="Shadow-Legs" fill="#444444" opacity="0.176985679"></path>
                    </g>
                    <g id="Body" transform="translate(189.500000, 303.000000) scale(-1, 1) translate(-189.500000, -303.000000) " fill-rule="nonzero">
                        <path d="M174.739557,173.806969 C189.439557,162.806969 227.439557,132.906969 227.439557,132.906969 C239.839557,144.106969 210.039557,164.206969 210.039557,164.206969" id="Finger" fill="#482D1F"></path>
                        <path d="M245,135.074539 C230.750585,132.280043 220,119.722859 220,104.654742 C220,87.5339147 233.879173,73.654742 251,73.654742 C268.120827,73.654742 282,87.5339147 282,104.654742 C282,119.368292 271.749405,131.687688 258,134.861146 L258,182.654742 C258,183.759311 257.104569,184.654742 256,184.654742 L247,184.654742 C245.895431,184.654742 245,183.759311 245,182.654742 L245,135.074539 Z M251,125.654742 C262.59798,125.654742 272,116.252722 272,104.654742 C272,93.0567622 262.59798,83.654742 251,83.654742 C239.40202,83.654742 230,93.0567622 230,104.654742 C230,116.252722 239.40202,125.654742 251,125.654742 Z" id="Loupe" fill="#474961" transform="translate(251.000000, 129.154742) rotate(48.000000) translate(-251.000000, -129.154742) "></path>
                        <path d="M152.824354,141.008596 C154.324703,144.939497 155.539964,148.976036 156.470137,153.118215 C162.001168,177.748606 171.04198,192.252437 164.816369,204.04318 C161.140372,210.997666 154.079204,213.084349 148.604432,213.669544 L144.843026,260.673513 C143.351605,273.400479 142.355226,280.481558 141.853891,281.916749 C141.947352,293.681626 127.16808,290.688477 99.6508789,290.688477 C67.6328125,290.688477 24.9224753,294.998406 22.3764648,283.149902 C20.0819168,272.471642 20.6320364,250.074064 24.0268235,215.957168 C12.9010578,213.04554 4.71593672,208.013924 2.62881369,203.940564 C-3.24404852,192.62904 3.49530156,174.346459 11.0048631,153.827879 C20.0548475,129.231889 24.9649454,117.131188 36.0367348,107.134957 C45.206714,98.8749401 55.2271145,96.0230643 63.669252,97.6168975 C70.4836462,94.8756721 77.9686558,93.6611494 85.7016014,94.3428428 L107.620108,96.2765108 C130.965446,98.1614182 149.050756,117.690555 152.824353,141.008588 Z" id="T-shirt" fill="#A339FF"></path>
                        <path d="M153.511172,142.468934 C154.799164,146.004556 155.859117,149.624677 156.691031,153.329297 C162.222062,177.959689 171.262874,192.463519 165.037263,204.254263 C161.405957,211.124199 154.471289,213.243975 149.025698,213.858612 L149.264627,210.872866 L149.334383,209.875302 L153.678845,156.347966 L153.804406,154.552351 C154.146484,150.470314 154.034366,146.420509 153.511172,142.468934 Z" id="Shadow-T-shirt" fill="#444444" opacity="0.176985679"></path>
                        <path d="M76.0692089,94.4677744 C77.8000958,88.6589476 80.2893319,79.0583748 83.5369173,65.6660561 L83.8236491,60.0304362 C83.6236491,58.9304362 83.4377441,58.8948893 82.4377441,58.5948893 C79.8377441,57.8948893 78.4395573,56.2069694 76.6395573,54.2069694 C73.3395573,50.4069694 72.4395573,44.8069694 74.0395573,39.7069694 C76.0395573,34.8069694 81.2395573,31.1069694 86.0395573,31.5069694 C87.8395573,31.7069694 89.5395573,32.4069694 91.1395573,33.4069694 L91.2395573,33.5069694 C91.7395573,34.0069694 92.4395573,34.1069694 93.1395573,34.2069694 C94.8395573,34.2069694 96.2395573,33.0069694 96.3395573,31.3069694 L97.2395573,5.20696943 C97.2395573,3.50696943 98.5395573,2.30696943 100.239557,2.30696943 C103.939557,2.30696943 107.539557,2.10696943 111.239557,1.30696943 C111.739557,1.30696943 112.139557,1.20696943 112.539557,1.20696943 C116.139557,0.806969432 135.439557,-0.393030568 145.839557,13.9069694 C146.739557,15.3069694 147.639557,16.7069694 148.339557,18.1069694 C150.139557,21.7069694 150.939557,25.7069694 150.639557,29.9069694 L149.539557,48.1069694 C149.339557,49.9069694 149.139557,51.7069694 148.739557,53.6069694 C143.939557,76.1069694 133.739557,91.7069694 125.139557,92.2069694 C120.739557,92.3069694 116.339557,91.8069694 112.039557,90.5069694 C111.50475,90.239566 111.843889,90.4488599 105.833643,88.0189054 L104.608131,94.636672 C116.547612,96.5805946 123.189972,100.379554 123.919285,100.752267 C121.791662,103.099171 121.494934,103.891174 119.658525,105.375079 C99.1171359,121.973484 65.776103,100.117797 61.5696888,97.3180584 C66.6971282,95.9986648 71.5334087,95.0752126 76.0692089,94.4677744 Z M163.792275,232.261138 L165.396245,243.752733 L244.798986,258.738728 C247.143879,258.333936 249.409562,258.111618 251.596037,258.047428 C259.114329,257.73474 265.588415,259.193951 269.974085,260.340474 C280.938262,259.819327 291.798018,259.193951 302.657774,258.672804 C311.533537,256.588217 331.373476,253.461337 332,265.968859 C332,265.968859 323.4375,268.261905 311.846799,271.284557 C309.13551,271.991303 306.255713,272.740811 303.279679,273.514694 C287.908134,278.821179 267.796988,289.765044 256.215591,293.47689 L137.579731,289.337359 C139.371282,287.137947 140.707061,284.644614 141.502838,281.835315 C142.004173,280.400124 143.000551,273.319045 144.491973,260.592079 L145.926469,242.666063 C124.259222,254.985297 104.138225,265.292899 85.5634766,273.588867 C74.3059778,278.616761 60.5468854,282.55932 49.5070813,286.330311 C23.7812995,291.567798 18.9223983,282.302887 15.9852028,279.265145 C12.5664102,275.729319 1.17716301,265.689435 6.30756815,208.042025 C15.6268176,215.046352 37.8981186,221.866528 60.1203879,215.827222 C65.8649725,214.266026 70.9975039,212.79126 75.5179821,211.402924 L75.1569811,214.880883 L193.943343,165.023538 C194.22828,164.8024 194.538534,164.606201 194.871788,164.439574 L229.171788,148.139574 C231.771788,146.939574 234.971788,148.039574 236.271788,150.639574 L237.471788,152.939574 C238.690279,155.470286 237.712438,158.352411 235.44406,159.774361 C237.858673,159.265771 240.25171,160.404769 241.271788,162.699944 L242.471788,164.999944 C243.493445,167.121848 242.971044,169.4908 241.438508,171.038957 C242.746623,171.434126 243.917927,172.323409 244.63686,173.636026 L245.955588,175.870071 C247.395114,178.498334 246.359,181.656889 243.8306,183.091181 L225.924443,192.78025 C204.04717,207.4582 183.336447,220.618496 163.792275,232.261138 Z M250.095197,574.526773 L251,594.311523 L180.929688,599.723145 L181.233119,575.755232 C188.898651,576.258051 199.77597,575.461033 215.587157,575.071692 C230.302443,574.724903 241.529727,574.905195 250.095197,574.526773 Z M140.345004,575.415251 L142.263184,605.714355 L70.2226562,597.156738 L73.5879582,576.389718 C79.5144822,577.579926 88.0048792,578.871013 99.3871566,579.78895 C100.787157,579.879274 102.287157,579.969598 103.787157,579.879274 C125.88482,579.101634 132.059736,577.745408 140.345004,575.415251 Z" id="Skin" fill="#BF865F"></path>
                        <path d="M80.9943764,76.7267584 C79.8359606,81.8793579 78.8104312,86.1430843 78.0988281,88.3069694 C76.5186936,88.3069694 74.93227,88.3069694 73.3395573,88.3069694 C70.9504883,88.3069694 62.310202,87.3990819 54.2395573,86.9069694 C54.2395573,86.9069694 53.6395573,86.9069694 53.1395573,86.8069694 C50.5395573,86.4069694 48.0395573,86.0069694 45.5395573,84.7069694 C45.5395573,84.7069694 44.7395573,84.4069694 44.0395573,83.8069694 C29.9395573,72.2069694 26.8395573,55.6069694 32.8395573,46.3069694 C37.1395573,39.8069694 45.5395573,37.3069694 46.7395573,36.9069694 C48.3395573,36.4069694 49.9395573,36.2069694 51.3395573,36.1069694 C51.885986,34.4676834 52.4324147,32.7454573 52.9788433,31.0158258 C53.1226764,25.1787155 54.4211315,17.4211993 59.5395573,11.0069694 C61.6395573,8.30696943 64.4395573,6.30696943 67.4395573,4.80696943 C75.4395573,0.806969432 81.5395573,2.80696943 97.3395573,2.40696943 C100.539557,2.40696943 111.584713,1 111.984713,1 C128.275607,-0.03125 139.666689,4.47107314 146.157959,14.5069694 C141.345691,13.7736361 137.439557,13.7736361 134.439557,14.5069694 C115.039557,19.3069694 109.339557,52.9069694 100.439557,51.5069694 C100.354959,51.4963946 100.264768,51.4813467 100.169578,51.4605248 L100.239557,51.4069694 L95.9395573,39.6069694 C94.9395573,37.2069694 93.2395573,35.3069694 91.2395573,33.7069694 C89.6395573,32.7069694 87.9395573,32.0069694 86.1395573,31.8069694 C81.3395573,31.4069694 76.1395573,35.1069694 74.1395573,40.0069694 C73.8141202,40.8462545 73.5708289,41.7031423 73.4086782,42.5660751 C72.8532921,46.8118543 73.9483313,51.1079819 76.6395573,54.2069694 C76.7903264,54.3744906 76.9446033,54.5392054 77.1022707,54.7008201 C77.1092903,54.7107876 77.1163355,54.720747 77.1234062,54.7306984 C79.2188744,56.8916873 81.9422528,58.3777838 84.9211887,58.9655763 C83.6848369,65.6013764 81.722947,74.2607793 80.9943764,76.7267584 Z M135.439557,42.8069694 C133.439557,43.3069694 130.139557,43.8069694 127.439557,43.1069694 C122.739557,42.1069694 127.139557,39.3069694 131.439557,39.1069694 C133.439557,39.0069694 135.039557,39.8069694 136.039557,40.6069694 C136.739557,41.3069694 136.439557,42.6069694 135.439557,42.8069694 Z M152.329133,42.8095888 C150.275735,43.3326136 147.109091,43.9590061 144.263704,43.2081571 C139.443359,42.0837576 143.906275,39.2619887 148.133871,39.1299455 C150.351646,39.0228297 151.784929,39.8508996 152.819734,40.6441072 C153.664016,41.3202642 153.351474,42.5978862 152.329133,42.8095888 Z" id="Hair" fill="#482D1F"></path>
                        <path d="M162.252675,232.879916 C162.741985,232.593958 163.232071,232.307082 163.722932,232.019287 L165.401076,243.850748 L244.79007,258.740267 C247.138136,258.3345 249.406791,258.1117 251.596037,258.047428 C259.114329,257.73474 265.588415,259.193951 269.974085,260.340474 C280.938262,259.819327 291.798018,259.193951 302.657774,258.672804 C311.533537,256.588217 331.373476,253.461337 332,265.968859 C332,265.968859 323.4375,268.261905 311.846799,271.284557 C309.13551,271.991303 306.255713,272.740811 303.279679,273.514694 C287.908134,278.821179 267.796988,289.765044 256.215591,293.47689 L137.579731,289.337359 C139.371282,287.137947 140.707061,284.644614 141.502838,281.835315 C142.004173,280.400124 143.000551,273.319045 144.491973,260.592079 L145.836553,243.789691 L145.9305,243.408838 L145.868116,243.395263 L145.92637,242.667305 L162.252675,232.879916 Z" id="Shadow-Arm" fill="#8C2A00" opacity="0.2"></path>
                        <path d="M377.810355,231.944387 L377.810355,231.944387 C378.610355,235.044387 376.810355,238.144387 373.710355,238.944387 L234.910355,276.344387 C231.810355,277.144387 228.710355,275.344387 227.910355,272.244387 L227.910355,272.244387 C227.110355,269.144387 228.910355,266.044387 232.010355,265.244387 L370.810355,227.844387 C373.810355,227.044387 377.010355,228.844387 377.810355,231.944387 Z" id="Notepad" fill="#474961" transform="translate(302.860355, 252.094387) rotate(-2.000000) translate(-302.860355, -252.094387) "></path>
                        <polygon id="Shadow" fill="#482D1F" points="105.793701 87.8952637 97.9555664 84.3901367 104.321045 96.0717773"></polygon>
                        <path d="M145.039557,55.0069694 C144.139557,53.8069694 144.439557,51.1069694 144.739557,49.3069694 C144.839557,48.0069694 146.039557,47.2069694 147.139557,47.2069694 C147.839557,47.3069694 148.739557,47.7069694 148.939557,49.1069694 C149.639557,52.4069694 146.239557,57.0069694 145.039557,55.0069694 Z M128.539557,55.1069694 C127.539557,53.9069694 127.939557,51.1069694 128.239557,49.4069694 C128.339557,48.1069694 129.539557,47.3069694 130.639557,47.3069694 C131.339557,47.4069694 132.239557,47.8069694 132.439557,49.2069694 C133.139557,52.5069694 129.839557,57.1069694 128.539557,55.1069694 Z" id="Eyes" fill="#482D1F"></path>
                        <path d="M143.24851,53.2809406 L144.040073,47.4431664 C144.11428,46.8958897 143.730781,46.3920776 143.183505,46.3178706 C142.636228,46.2436636 142.132416,46.6271624 142.058209,47.174439 L141.258209,53.074439 L141.249185,53.1994573 L141.150143,63.796902 C141.112239,63.9155815 141.017858,63.9941831 140.887407,64.0069642 C139.676217,63.87451 138.116099,63.7564106 136.204107,63.6520962 C135.652643,63.6220094 135.181202,64.0446696 135.151115,64.5961342 C135.121028,65.1475988 135.543689,65.6190394 136.095153,65.6491262 C138.010983,65.7536501 139.559877,65.8717051 140.738709,66.0026864 L140.849141,66.0088027 C142.0171,66.0088027 142.951341,65.1783661 143.135535,64.0732017 L143.149097,63.9181481 L143.24851,53.2809406 Z" id="Nose" fill="#482D1F" transform="translate(139.599431, 56.158744) rotate(1.000000) translate(-139.599431, -56.158744) "></path>
                        <path d="M135.239557,73.7069694 C134.539557,73.6069694 132.739557,73.2069694 132.339557,72.1069694 C132.339557,71.9069694 132.139557,71.6069694 132.239557,71.4069694 C132.539557,70.9069694 135.639557,70.9069694 135.639557,70.9069694 C139.739557,71.0069694 140.739557,70.8069694 141.039557,71.3069694 C141.139557,71.6069694 141.139557,72.0069694 140.439557,72.9069694 C139.539557,74.6069694 136.239557,74.0069694 135.239557,73.7069694 Z" id="Mouth" fill="#482D1F"></path>
                        <path d="M74.6559157,210.368478 L80.1308369,159.816251 C80.2200359,158.99264 79.6246773,158.252661 78.8010663,158.163462 C77.9774553,158.074263 77.2374767,158.669622 77.1482777,159.493233 L71.6733565,210.04546 C71.5841576,210.869071 72.1795162,211.60905 73.0031272,211.698249 C73.8267382,211.787448 74.5667168,211.192089 74.6559157,210.368478 Z" id="Shadow" fill="#482D1F"></path>
                    </g>
                </g>
            </g>
            <g id="Characters-sitting-/-Woman-sitting/-6" transform="translate(10.000000, 0.000000)">
                <g id="Woman" stroke-width="1" fill-rule="evenodd" transform="translate(34.000000, 65.000000)">
                    <g id="Legs" transform="translate(229.000000, 490.000000) scale(-1, 1) translate(-229.000000, -490.000000) translate(4.000000, 288.500000)" fill-rule="nonzero">
                        <path d="M142.128142,393.5 L280.843716,393.5 C283.374985,393.5 285.4,395.5 285.4,398 C285.4,400.5 283.374985,402.5 280.843716,402.5 L119.956284,402.5 L5.4,402.5 C2.9,402.5 0.9,400.5 0.9,398 C0.9,395.5 2.9,393.5 5.4,393.5 L142.128142,393.5 Z" id="Base" fill="#DE3190"></path>
                        <path d="M4.05563289,393.597686 C3.85092535,393.195635 3.69598233,392.760715 3.6,392.3 C3.6,392.3 3.6,392.2 3.6,392.2 C3.6,391.7 3.5,391.2 3.6,390.7 C3.7,390.1 3.7,389.6 3.9,389 C5.2,384.5 8.7,380.7 11,378.6 C11.3,378.3 11.5,378.2 11.8,378 C16.2,375.3 20.7,372.8 25.4,370.7 C34.6,366.5 55,357.9 61.1,354.8 C69,350.8 79.9,344 91.3,331.8 C92.2,331.1 93.2,330.8 94.3,330.8 L163,331.2 C165.9,331.2 168.2,333.6 168,336.6 L167.353912,360.419095 C170.262558,359.045138 173.220568,357.522369 176.548466,355.6 C181.277301,352.9 187.917791,348.5 195.36319,341.9 C199.488344,338.3 203.71411,334.7 207.839264,331.1 L270.119018,330.3 L283.126584,394.353606 C282.375831,393.815926 281.449758,393.5 280.443716,393.5 L141.728142,393.5 L5,393.5 C4.6757063,393.5 4.35982591,393.533653 4.05563289,393.597686 Z" id="Shoes" fill="#474961"></path>
                        <path d="M121.001569,393.5 L5.15226539,393.5 C4.89322857,393.042875 4.7001874,392.539097 4.58787554,392 C4.58787554,392 4.58787554,391.9 4.58787554,391.9 C4.58787554,391.4 4.48787554,390.9 4.58787554,390.4 C4.68787554,389.8 4.68787554,389.3 4.88787554,388.7 C6.18787554,384.2 9.68787554,380.4 11.9878755,378.3 C12.2878755,378 12.4878755,377.9 12.7878755,377.7 C17.1878755,375 21.6878755,372.5 26.3878755,370.4 C35.5878755,366.2 55.9878755,357.6 62.0878755,354.5 C69.9878755,350.5 80.8878755,343.7 92.2878755,331.5 C93.1878755,330.8 94.1878755,330.5 95.2878755,330.5 L163.987876,330.9 C166.887876,330.9 168.212124,333.006836 168.012124,336.006836 L167.337744,360.934181 C160.458628,364.118327 153.584071,366.67169 142.387876,372 C137.587876,374.3 132.987876,376.9 128.487876,379.8 C126.287876,381.8 122.487876,385.9 121.287876,390.7 C121.087876,391.5 121.087876,392.3 120.987876,393 C120.987876,393.168553 120.992545,393.335239 121.001578,393.5 Z" id="Shadow-Shoes" fill="#444444" opacity="0.176985679"></path>
                        <path d="M154.16271,344.725852 C153.820049,344.7646 153.472444,344.784422 153.120862,344.784422 L88.1832391,344.089278 L82.9348559,344.089278 C77.7754283,344.089278 73.4166015,340.109962 73.1497345,334.216077 C72.527045,322.326689 71.7264442,306.67741 70.747932,288.589278 C68.0792626,242.962486 66.6559722,228.431013 65.0547705,193.270943 C64.7879036,187.377059 64.5210367,182.092887 64.3431254,177.11357 C63.6314802,153.436414 61.7634116,131.283538 58.11623,102.322209 C56.0702501,86.2664545 55.0917379,76.3078222 55.0027823,67.8734703 C54.9138266,60.0488305 56.9598065,52.3258095 60.8738551,45.9238315 C62.8308793,42.7736519 65.0547705,40.0299471 67.72344,37.692717 C74.5730249,31.6972139 83.7354567,26.616279 91.0298199,27.1243725 C109.936044,27.2128871 128.842268,27.2243013 147.748493,27.2929313 C151.708724,26.3535586 156.126364,25.8892482 161.001412,25.9 L170.482318,26 C170.428288,25.8860249 210.347382,25.6746224 290.239599,25.3657925 C314.988224,5.93843534 342.333355,-2.20761049 372.274989,0.92765501 C384.225493,2.17902294 395.053649,5.58969324 404.759459,11.1596659 C415.473981,17.2246829 424.829297,25.9046876 432.825412,37.1996824 C437.755617,42.3548752 452.556905,65.8860889 449.617216,101.725852 C449.048362,108.325852 447.815844,123.025852 439.851883,137.025852 C431.508686,151.625852 421.269307,162.325852 404.108867,168.425852 C388.939417,173.825852 371.210123,175.725852 352.817165,173.625852 C326.902688,168.692519 296.930926,164.592519 262.90188,161.325852 C272.090952,186.474192 278.044418,202.281696 280.762278,208.748363 C284.839068,218.348363 295.906427,259.796209 300.063364,291.548363 C302.096413,307.077511 301.386553,320.807898 297.933784,332.739526 C295.828026,340.016327 289.161537,345.021789 281.586184,345.013947 L196.477023,344.925852 L158.268971,344.725852 L154.16271,344.725852 Z" fill="#3ABF7C"></path>
                        <path d="M149.127707,27.2973848 C140.693569,29.0980387 134.257696,32.9740824 129.820086,38.925516 C120.240008,51.773695 123,64.1258521 123,71.7258521 L123,72.2258521 C123.094809,80.5258521 124.137709,90.3258521 126.223508,106.125852 C130.11068,134.625852 132.10167,156.325852 132.860142,179.725852 C133.049761,184.525852 133.334188,189.825852 133.618615,195.625852 C135.230369,230.125852 136.842123,244.425852 139.686395,289.425852 C140.824104,307.225852 141.677385,322.525852 142.246239,334.325852 C142.530667,340.125852 147.176311,344.725852 152.675236,344.725852 L154.191288,344.725852 C153.83938,344.774771 153.482222,344.8 153.120862,344.8 L88.1832391,344.089278 L82.9348559,344.089278 C77.7754283,344.089278 73.1497345,339.816406 73.1497345,333.25027 C72.527045,321.39827 71.7264442,305.798202 70.747932,287.766955 C68.0792626,242.28364 66.6559722,227.797863 65.0547705,192.748359 C64.7879036,186.873009 64.5210367,181.605454 64.3431254,176.641796 C63.6314802,153.039096 61.7634116,130.955883 58.11623,102.085627 C56.0702501,86.0803628 55.0917379,76.1530469 55.0027823,67.7452181 C54.9138266,59.9451841 56.9598065,52.2464493 60.8738551,45.8646034 C62.8308793,42.72433 65.0547705,39.9892531 67.72344,37.6593729 C74.5730249,31.6827235 83.7354567,26.6177664 91.0298199,27.1242621 C110.395782,27.214644 129.761745,27.2243847 149.127707,27.2973848 Z" id="Shadow-Legs" fill="#444444" opacity="0.176985679"></path>
                    </g>
                    <g id="Body" transform="translate(-0.000000, 0.263725)">
                        <path d="M142.558293,127.448887 C151.816521,133.451858 159.726651,143.242169 161.372387,146.943067 C175.018487,177.630143 188.010788,175.230376 189.656306,181.99268 C192.118052,192.109293 180.223693,194.406548 180.223693,194.406548 C174.695943,195.428628 170.493399,196.206936 167.616063,196.741474 L169.401957,225.101097 L169.424571,226.10583 L172.603094,275.788795 L173.189699,285.489615 C173.287194,286.283651 173.273248,286.990621 173.271489,287.796845 C173.281917,288.702323 173.280158,289.508547 173.290585,290.414025 C173.273121,292.733442 173.044961,294.977978 172.618291,297.246889 C172.430209,298.176741 172.341383,299.094406 172.054047,300.036446 C89.408037,310.1841 47.1994483,308.045425 45.4282805,293.62042 L39.938158,207.075911 L27.3283158,207.750562 C27.3283158,207.750562 13.5830554,208.025025 14.2409789,197.575516 C14.6807584,190.590692 29.7159033,189.840435 38.6254026,156.674001 C39.8486423,152.120378 48.5208486,137.940796 59.5456245,130.069117 C59.8945187,129.820007 60.2458035,129.577377 60.599094,129.341086 C68.1412858,124.164979 77.1329655,120.893728 86.9117254,120.272753 L109.910904,118.859323 C121.958784,118.045661 133.287195,121.305696 142.558293,127.448887 Z" id="T-shirt" fill="#DE3190" fill-rule="nonzero" transform="translate(102.104932, 212.529305) rotate(5.000000) translate(-102.104932, -212.529305) "></path>
                        <path d="M158.000168,143.732422 C161.657323,147.642589 164.287312,151.312228 165.15917,153.272846 C178.805271,183.959922 191.706873,181.508189 193.352391,188.270493 C195.814138,198.387107 184.059556,200.640558 184.059556,200.640558 L171.633891,202.949736 L169.90586,175.508956 L169.78575,173.710186 C169.099221,162.275979 164.778559,151.934432 158.000168,143.732422 Z" id="Combined-Shape" fill="#444444" fill-rule="nonzero" opacity="0.176985679" transform="translate(175.845759, 173.341079) rotate(5.000000) translate(-175.845759, -173.341079) "></path>
                        <mask id="mask-2" fill="white">
                            <use xlink:href="#path-1"></use>
                        </mask>
                        <use id="Skin" fill="#F2A98A" fill-rule="nonzero" xlink:href="#path-1"></use>
                        <polygon id="Shadow" fill="#482D1F" fill-rule="nonzero" transform="translate(126.084377, 109.562478) rotate(6.000000) translate(-126.084377, -109.562478) " points="131.320506 114.935732 120.848248 104.189223 131.315901 107.482113"></polygon>
                        <path d="M122.72246,62.4022719 C122.313188,61.6623132 120.745149,59.0669401 117.884396,57.0597529 C117.606945,56.82949 115.434526,55.4951005 112.728411,55.411778 C107.923347,55.2083979 103.077073,59.2238212 101.450004,64.1809016 C99.7025764,69.3264335 101.456882,74.6389106 104.624123,77.9883259 C107.069658,80.5745244 110.039211,81.5972157 111.855901,82.0373416 C111.838088,85.4341111 111.908517,89.1242831 112.067187,93.1078575 C104.311919,92.6005008 97.4781923,89.2207015 91.5660086,82.9684596 C89.121215,80.3988324 82.6296395,73.2812873 80.6074354,61.9076032 C80.3751255,60.4611252 79.9139505,57.697796 79.8735306,54.2755074 C64.4860534,54.5284294 52.0417406,47.655121 47.4653363,37.9033701 C43.2018332,28.7206395 46.1608646,17.7254526 46.5815952,16.1688584 C50.8028182,0.503888646 65.0161096,0.683746846 66.2322659,0.652700953 C66.2322659,0.652700953 86.7222533,-6.46491208 102.918748,26.3081495 C102.929034,26.3290907 102.939321,26.3500607 102.949608,26.3710597 C107.592748,26.0077516 113.224775,26.3354496 121.805694,25.8162818 C124.940976,25.6430591 129.514304,24.8769992 135.130515,24.0595751 C135.528323,24.1013865 140.32979,23.6133097 140.738051,23.5556689 C142.766629,23.5556689 149.564505,22.9148141 158.35455,26.8511652 C167.144595,30.7875163 170.388713,36.7069721 170.258042,36.9547957 C170.006874,37.431151 165.518971,39.4603069 162.839138,40.0836026 C155.317808,41.8068495 148.785322,40.8186051 144.770499,39.7933253 C143.71356,42.1960072 142.217001,44.9546866 140.223182,47.6611017 C134.45108,55.7018005 127.176141,59.8641643 122.638376,61.9009966 C122.6661,62.0680624 122.694139,62.2351613 122.72246,62.4022719 Z" id="Hair" fill="#482D1F" fill-rule="nonzero"></path>
                        <path d="M167.590788,66.7123732 C167.706259,65.3438539 168.796487,64.3257714 170.169677,64.3343982 C171.010236,64.2756206 171.789418,64.8490325 172.206578,66.2849561 C173.084592,69.7816455 169.756694,75.0375352 168.23786,72.946101 C167.302633,71.6510537 167.511728,68.6015942 167.590788,66.7123732 Z M145.504866,66.2518875 C145.620337,64.8833683 146.710565,63.8652858 148.083755,63.8739126 C148.924314,63.815135 149.703496,64.3885468 150.120656,65.8244704 C150.99867,69.3211598 147.670772,74.5770495 146.151938,72.4856153 C145.216711,71.1905681 145.425806,68.1411085 145.504866,66.2518875 Z" id="Eyes" fill="#482D1F" fill-rule="nonzero"></path>
                        <path d="M156.661292,67.9829289 L155.761278,77.679305 C155.757012,78.9042465 156.687676,80.0322548 157.857012,80.0322548 C158.548566,80.0866138 158.991666,80.0866138 160.771834,80.0536307 C161.567783,80.0388833 162.113146,80.0322548 162.757012,80.0322548 C163.309297,80.0322548 163.757012,79.5845395 163.757012,79.0322548 C163.757012,78.47997 163.309297,78.0322548 162.757012,78.0322548 C162.09841,78.0322548 161.542029,78.0390172 160.734784,78.0539739 C159.026062,78.0856333 158.609903,78.0856333 157.931393,78.0350249 C157.886349,78.0322548 157.757012,77.8754932 157.757012,77.7717259 L158.652732,68.1677707 C158.703775,67.6178497 158.299354,67.1306724 157.749433,67.0796298 C157.199512,67.0285871 156.712335,67.4330079 156.661292,67.9829289 Z" id="Nose" fill="#482D1F" fill-rule="nonzero" transform="translate(159.759145, 73.575737) scale(-1, 1) rotate(4.000000) translate(-159.759145, -73.575737) "></path>
                        <path d="M160.045302,86.2158087 C160.71236,85.9970391 162.33236,85.2313458 162.522949,84.1374983 C162.522949,83.9187288 162.618243,83.5905745 162.522949,83.4811897 C162.141772,82.9342659 160.902949,83.371805 159.187655,83.6999592 C156.138243,84.246883 153.565302,84.246883 153.565302,84.246883 C153.565302,84.246883 154.422949,86.1064239 154.899419,86.6533477 C155.947655,87.9659648 158.997066,86.6533477 160.045302,86.2158087 Z" id="Mouth" fill="#482D1F" fill-rule="nonzero" transform="translate(158.065302, 85.221728) scale(-1, 1) rotate(4.000000) translate(-158.065302, -85.221728) "></path>
                        <path d="M130.509492,62.0781203 C132.295434,56.9481854 136.998314,53.1130713 142.760127,52.710166 C150.473279,52.1708099 157.163258,57.9863203 157.702614,65.6994721 C157.710415,65.8110256 157.716886,65.9223652 157.722042,66.0334751 C157.847954,66.0090692 157.979092,66.0005337 158.113114,66.0099054 L160.928772,66.2067954 C161.546212,59.4943523 166.951348,54.0258768 173.893882,53.5404075 C181.607034,53.0010514 188.297013,58.8165618 188.836369,66.5297136 C189.375726,74.2428653 183.560215,80.9328448 175.847063,81.4722009 C168.380725,81.9942982 161.873125,76.5617207 160.975078,69.2173591 L157.903844,69.0025975 C157.783122,68.9941558 157.666738,68.9716513 157.556182,68.9367967 C156.536521,75.2034373 151.32132,80.1798823 144.713308,80.6419594 C137.000157,81.1813156 130.310177,75.3658051 129.770821,67.6526534 C129.707861,66.7522841 129.731494,65.8658569 129.834631,65.0015276 L122.553664,63.2135502 C121.74914,63.0159842 121.257103,62.2036297 121.454669,61.3991055 C121.652235,60.5945813 122.464589,60.1025444 123.269114,60.3001103 L130.509492,62.0781203 Z M163.880084,67.9680148 C163.884406,68.069644 163.890128,68.1715206 163.897268,68.2736254 C164.321048,74.3339589 169.57746,78.9032886 175.637794,78.4795088 C181.698127,78.055729 186.267457,72.7993165 185.843677,66.738983 C185.419897,60.6786495 180.163485,56.1093198 174.103152,56.5330997 C168.275308,56.9406221 163.826266,61.8171043 163.870343,67.579931 C163.887392,67.6892238 163.892539,67.8021214 163.884496,67.9171426 C163.883304,67.9341879 163.881832,67.9511467 163.880084,67.9680148 Z M144.504039,77.6492673 C150.564372,77.2254875 155.133702,71.9690751 154.709922,65.9087415 C154.286142,59.848408 149.02973,55.2790784 142.969397,55.7028582 C136.909063,56.126638 132.339733,61.3830504 132.763513,67.443384 C133.187293,73.5037175 138.443705,78.0730471 144.504039,77.6492673 Z" id="Glass" fill="#482D1F" fill-rule="nonzero"></path>
                        <path d="M75.0685834,267.785865 C74.3414029,268.182728 73.4301858,267.914952 73.0333232,267.187772 C72.6364605,266.460591 72.904236,265.549374 73.6314166,265.152512 L86.1314166,258.33057 C86.8585971,257.933707 87.7698142,258.201482 88.1666768,258.928663 C88.5635395,259.655844 88.295764,260.567061 87.5685834,260.963923 L75.0685834,267.785865 Z M106.829305,204.74276 C106.505753,205.505391 105.625228,205.861334 104.862597,205.537782 C104.099966,205.214229 103.744023,204.333704 104.067575,203.571074 L117.460312,172.003651 C117.783864,171.241021 118.664389,170.885077 119.42702,171.20863 C120.18965,171.532182 120.545594,172.412707 120.222042,173.175338 L106.829305,204.74276 Z" id="Shadow" fill="#482D1F" fill-rule="nonzero"></path>
                        <path d="M167,271.206487 L167.91642,232.012588 L167.981459,231.009707 L168.675962,202.524548 L176.813207,201.737048 L204.817145,278.308053 L167,271.206487 Z" id="Shadow-Arms" fill="#8C2A00" fill-rule="nonzero" opacity="0.2"></path>
                    </g>
                </g>
                <path d="M226.580278,515.634804 L255.586877,485.195937 C256.158384,484.596211 256.135507,483.646739 255.535781,483.075232 C254.936055,482.503726 253.986583,482.526602 253.415076,483.126328 L224.408477,513.565196 C223.836971,514.164922 223.859847,515.114394 224.459573,515.6859 C225.0593,516.257407 226.008772,516.234531 226.580278,515.634804 Z" id="Shadow" fill="#482D1F" fill-rule="nonzero"></path>
            </g>
            <rect id="Rectangle" fill="#D8DEED" fill-rule="nonzero" x="55" y="378" width="814" height="14" rx="7"></rect>
        </g>
        <g id="UI-/-Content-/-Text-2-/-2" transform="translate(948.000000, 107.000000)">
            <g id="Content" stroke-width="1" fill-rule="evenodd">
                <g id="Browser" fill="#F2F6FB" fill-rule="nonzero">
                    <g id="Background">
                        <rect x="0" y="0" width="369" height="283" rx="20"></rect>
                    </g>
                </g>
                <g id="Text" transform="translate(21.834320, 73.478149)" fill-rule="nonzero">
                    <path d="M5,21.6665636 L132.70622,21.6665636 C135.467644,21.6665636 137.70622,23.9051398 137.70622,26.6665636 L137.70622,30.3642603 C137.70622,33.1256841 135.467644,35.3642603 132.70622,35.3642603 L5,35.3642603 C2.23857625,35.3642603 1.59284208e-12,33.1256841 1.59161573e-12,30.3642603 L1.59161573e-12,26.6665636 C1.59216573e-12,23.9051398 2.23857625,21.6665636 5,21.6665636 Z M5,43.9253208 L149.919497,43.9253208 C152.680921,43.9253208 154.919497,46.1638971 154.919497,48.9253208 L154.919497,52.6230176 C154.919497,55.3844413 152.680921,57.6230176 149.919497,57.6230176 L5,57.6230176 C2.23857625,57.6230176 1.5919539e-12,55.3844413 1.59161573e-12,52.6230176 L1.59161573e-12,48.9253208 C1.59127755e-12,46.1638971 2.23857625,43.9253208 5,43.9253208 Z M5,88.4428353 L167.132775,88.4428353 C169.894198,88.4428353 172.132775,90.6814115 172.132775,93.4428353 L172.132775,97.1405321 C172.132775,99.9019558 169.894198,102.140532 167.132775,102.140532 L5,102.140532 C2.23857625,102.140532 1.5919539e-12,99.9019558 1.59161573e-12,97.1405321 L1.59161573e-12,93.4428353 C1.59127755e-12,90.6814115 2.23857625,88.4428353 5,88.4428353 Z M5,110.701593 L115.492942,110.701593 C118.254366,110.701593 120.492942,112.940169 120.492942,115.701593 L120.492942,119.399289 C120.492942,122.160713 118.254366,124.399289 115.492942,124.399289 L5,124.399289 C2.23857625,124.399289 1.5919539e-12,122.160713 1.59161573e-12,119.399289 L1.59161573e-12,115.701593 C1.59127755e-12,112.940169 2.23857625,110.701593 5,110.701593 Z M5,132.96035 L149.919497,132.96035 C152.680921,132.96035 154.919497,135.198926 154.919497,137.96035 L154.919497,141.658047 C154.919497,144.41947 152.680921,146.658047 149.919497,146.658047 L5,146.658047 C2.23857625,146.658047 1.5919539e-12,144.41947 1.59161573e-12,141.658047 L1.59161573e-12,137.96035 C1.59127755e-12,135.198926 2.23857625,132.96035 5,132.96035 Z M5,155.219107 L167.132775,155.219107 C169.894198,155.219107 172.132775,157.457683 172.132775,160.219107 L172.132775,163.916804 C172.132775,166.678228 169.894198,168.916804 167.132775,168.916804 L5,168.916804 C2.23857625,168.916804 1.5919539e-12,166.678228 1.59161573e-12,163.916804 L1.59161573e-12,160.219107 C1.59127755e-12,157.457683 2.23857625,155.219107 5,155.219107 Z" fill="#E1E5F0"></path>
                    <rect id="Title" fill="#D8DEED" x="1.59161573e-12" y="-1.3500312e-13" width="172.132775" height="12.7450374" rx="5"></rect>
                    <path d="M217.934618,21.6665636 L329.065089,21.6665636 C331.826513,21.6665636 334.065089,23.9051398 334.065089,26.6665636 L334.065089,30.5505192 C334.065089,33.311943 331.826513,35.5505192 329.065089,35.5505192 L217.934618,35.5505192 C215.173194,35.5505192 212.934618,33.311943 212.934618,30.5505192 L212.934618,26.6665636 C212.934618,23.9051398 215.173194,21.6665636 217.934618,21.6665636 Z M217.934618,44.2279915 L294.456383,44.2279915 C297.217806,44.2279915 299.456383,46.4665677 299.456383,49.2279915 L299.456383,53.1119471 C299.456383,55.8733709 297.217806,58.1119471 294.456383,58.1119471 L217.934618,58.1119471 C215.173194,58.1119471 212.934618,55.8733709 212.934618,53.1119471 L212.934618,49.2279915 C212.934618,46.4665677 215.173194,44.2279915 217.934618,44.2279915 Z M217.934618,66.7894194 L311.760736,66.7894194 C314.522159,66.7894194 316.760736,69.0279957 316.760736,71.7894194 L316.760736,75.673375 C316.760736,78.4347988 314.522159,80.673375 311.760736,80.673375 L217.934618,80.673375 C215.173194,80.673375 212.934618,78.4347988 212.934618,75.673375 L212.934618,71.7894194 C212.934618,69.0279957 215.173194,66.7894194 217.934618,66.7894194 Z M217.934618,89.3508473 L277.15203,89.3508473 C279.913453,89.3508473 282.15203,91.5894236 282.15203,94.3508473 L282.15203,98.2348029 C282.15203,100.996227 279.913453,103.234803 277.15203,103.234803 L217.934618,103.234803 C215.173194,103.234803 212.934618,100.996227 212.934618,98.2348029 L212.934618,94.3508473 C212.934618,91.5894236 215.173194,89.3508473 217.934618,89.3508473 Z" id="Menu" fill="#E1E5F0"></path>
                </g>
            </g>
            <path d="M0,16.0051414 C0,7.16574588 7.16437217,0 16.0035783,0 L352.996422,0 C361.834954,0 369,7.16380234 369,16.0051414 L369,32.0102828 L0,32.0102828 L0,16.0051414 Z" id="Top-bar-Copy" fill="#E1E5F0" fill-rule="nonzero"></path>
        </g>
    </g>
</svg>