<?xml version="1.0" encoding="UTF-8"?>
<svg width="1700px" height="1200px" viewBox="0 0 1700 1200" version="1.1" xmlns="http://www.w3.org/2000/svg" xmlns:xlink="http://www.w3.org/1999/xlink">
    <!-- Generator: Sketch 56.1 (81669) - https://sketch.com -->
    <title>New business</title>
    <desc>Created with Sketch.</desc>
    <g id="New-business" stroke="none" stroke-width="1" fill="none" fill-rule="evenodd">
        <g id="Group" transform="translate(42.000000, 132.000000)">
            <g id="Interior-/-Shelf-/-Shelf-3" transform="translate(768.000000, 20.719005)">
                <g id="Shelf-3" transform="translate(0.000000, 5.000000)">
                    <path d="M615,28.2809952 L695,28.2809952 L695,120.280995 L615,120.280995 L615,28.2809952 Z M487,15.2809952 L567,15.2809952 L567,110.280995 L487,110.280995 L487,15.2809952 Z M46,15.2809952 L126,15.2809952 L126,110.280995 L46,110.280995 L46,15.2809952 Z M214,148 L275,148 L275,218 L214,218 L214,148 Z M316,148 L377,148 L377,218 L316,218 L316,148 Z" id="Combined-Shape" fill="#D8DEED" fill-rule="nonzero"></path>
                    <path d="M590.897436,159.374468 L640.346154,159.374468 L633.58116,218.374468 L598.705086,218.374468 L590.897436,159.374468 Z M36.8974359,159.346572 L86.3461538,159.346572 L79.5811604,218.280995 L44.7050858,218.280995 L36.8974359,159.346572 Z M652.897436,159.374468 L702.346154,159.374468 L695.58116,218.374468 L660.705086,218.374468 L652.897436,159.374468 Z M98.8974359,159.346572 L148.346154,159.346572 L141.58116,218.280995 L106.705086,218.280995 L98.8974359,159.346572 Z M605,31.2809952 L681,31.2809952 C682.104569,31.2809952 683,32.1764257 683,33.2809952 L683,118.280995 C683,119.385565 682.104569,120.280995 681,120.280995 L605,120.280995 C603.895431,120.280995 603,119.385565 603,118.280995 L603,33.2809952 C603,32.1764257 603.895431,31.2809952 605,31.2809952 Z M477,18.2809952 L553,18.2809952 C554.104569,18.2809952 555,19.1764257 555,20.2809952 L555,108.280995 C555,109.385565 554.104569,110.280995 553,110.280995 L477,110.280995 C475.895431,110.280995 475,109.385565 475,108.280995 L475,20.2809952 C475,19.1764257 475.895431,18.2809952 477,18.2809952 Z M181,52.2809952 L237,52.2809952 L237,110.280995 L181,110.280995 L181,52.2809952 Z M317,21.1071671 C317,21.1071671 310,7.73509675 317,4.10814363 C321.666667,1.69017488 324.333333,6.74779206 325,19.2809952 C319.666667,20.4984431 317,21.1071671 317,21.1071671 Z M331.470764,23.9427607 C331.470764,23.9427607 341.446091,12.6155763 347.340719,17.8508555 C351.270471,21.3410417 347.504427,25.6430774 336.042586,30.7569626 C332.994704,26.2141613 331.470764,23.9427607 331.470764,23.9427607 Z M333.131689,36.7341566 C333.131689,36.7341566 347.978654,39.4507498 346.527102,47.1998004 C345.559401,52.3658341 339.93218,51.3534161 329.64544,44.1625463 C331.969606,39.2102865 333.131689,36.7341566 333.131689,36.7341566 Z M327.183664,87.2964644 C300.458409,68.4267693 286.995576,55.670314 286.795164,49.0270984 C286.494546,39.062275 297.413007,40.6350409 303.82818,46.4197027 C310.243354,52.2043646 278.935749,20.9343692 292.642415,22.7916438 C306.349082,24.6489184 271.832696,-1.04854968 284.511362,0.669429304 C290.253703,1.44752547 310.738592,9.14894293 320.773506,34.5993912 C323.93083,42.6069654 326.06755,60.1726565 327.183664,87.2964644 Z M36,18.2809952 L112,18.2809952 C113.104569,18.2809952 114,19.1764257 114,20.2809952 L114,108.280995 C114,109.385565 113.104569,110.280995 112,110.280995 L36,110.280995 C34.8954305,110.280995 34,109.385565 34,108.280995 L34,20.2809952 C34,19.1764257 34.8954305,18.2809952 36,18.2809952 Z M78.3917368,75.35959 C79.6424438,76.3181118 81.2493122,77.193565 83.0112099,77.2788209 C84.8609406,77.3683269 88.189201,76.1378341 92.9959912,73.5873424 C90.7437708,71.9010345 88.8522966,70.627497 87.3215687,69.7667299 C88.9132847,67.8248879 90.2794323,63.3488228 91.4200114,56.3385345 C86.6944646,57.6483338 83.1839727,58.8762262 80.8885359,60.0222116 C78.931526,53.6350796 73.9833927,48.9140692 68.8011153,48.96107 C62.7473159,49.015975 58.6664472,55.556657 59.6862398,63.5700921 C60.7060325,71.5835272 66.4403118,78.0351905 72.4941112,77.9802854 C74.805683,77.9593205 76.8296007,76.9927268 78.3917368,75.35959 Z M207,147.719005 L264,147.719005 C265.104569,147.719005 266,148.614435 266,149.719005 L266,216 C266,217.104569 265.104569,218 264,218 L207,218 C205.895431,218 205,217.104569 205,216 L205,149.719005 C205,148.614435 205.895431,147.719005 207,147.719005 Z M238.022265,191.395641 C239.05376,192.185008 240.403642,192.926583 241.8892,192.996408 C243.391766,193.067033 246.095366,192.096114 250,190.083651 C247.973954,188.610138 246.307288,187.536054 245.000002,186.861397 C246.162808,185.387186 247.162808,182.100053 248,177 C244.643822,177.922012 242.108709,178.789166 240.394659,179.601462 C238.945419,174.650329 235.109011,170.964105 231.08825,171.000264 C226.459783,171.041887 223.339732,176.000379 224.11942,182.075366 C224.899109,188.150353 229.283284,193.04136 233.91175,192.999736 C235.488485,192.985557 236.890169,192.400778 238.022265,191.395641 Z M309,147.719005 L366,147.719005 C367.104569,147.719005 368,148.614435 368,149.719005 L368,216 C368,217.104569 367.104569,218 366,218 L309,218 C307.895431,218 307,217.104569 307,216 L307,149.719005 C307,148.614435 307.895431,147.719005 309,147.719005 Z M340.022265,191.395641 C341.05376,192.185008 342.403642,192.926583 343.8892,192.996408 C345.391766,193.067033 348.095366,192.096114 352,190.083651 C349.973954,188.610138 348.307288,187.536054 347.000002,186.861397 C348.162808,185.387186 349.162808,182.100053 350,177 C346.643822,177.922012 344.108709,178.789166 342.394659,179.601462 C340.945419,174.650329 337.109011,170.964105 333.08825,171.000264 C328.459783,171.041887 325.339732,176.000379 326.11942,182.075366 C326.899109,188.150353 331.283284,193.04136 335.91175,192.999736 C337.488485,192.985557 338.890169,192.400778 340.022265,191.395641 Z" id="Combined-Shape" fill="#F2F6FB" fill-rule="nonzero"></path>
                    <path d="M0,218 L731,218 L731,228 L0,228 L0,218 Z M0,110.280995 L731,110.280995 L731,120.280995 L0,120.280995 L0,110.280995 Z" id="Combined-Shape" fill="#E1E5F0" fill-rule="nonzero"></path>
                    <path d="M205,43.2809952 L205,34.2809952 C205,33.1764257 205.895431,32.2809952 207,32.2809952 L212,32.2809952 C213.104569,32.2809952 214,33.1764257 214,34.2809952 L214,43.2809952 L239,43.2809952 C240.104569,43.2809952 241,44.1764257 241,45.2809952 L241,50.2809952 C241,51.3855647 240.104569,52.2809952 239,52.2809952 L180,52.2809952 C178.895431,52.2809952 178,51.3855647 178,50.2809952 L178,45.2809952 C178,44.1764257 178.895431,43.2809952 180,43.2809952 L205,43.2809952 Z M599,22.2809952 L700,22.2809952 C701.104569,22.2809952 702,23.1764257 702,24.2809952 L702,29.2809952 C702,30.3855647 701.104569,31.2809952 700,31.2809952 L599,31.2809952 C597.895431,31.2809952 597,30.3855647 597,29.2809952 L597,24.2809952 C597,23.1764257 597.895431,22.2809952 599,22.2809952 Z M592.242676,153.182585 L592.899017,147.759691 C593.020569,146.755393 593.872901,146 594.884527,146 L637.151778,146 C638.17699,146 639.036183,146.775224 639.141248,147.795039 L639.696289,153.182585 L642,153.182585 C643.104569,153.182585 644,154.078015 644,155.182585 L644,157.374468 C644,158.479037 643.104569,159.374468 642,159.374468 L589,159.374468 C587.895431,159.374468 587,158.479037 587,157.374468 L587,155.182585 C587,154.078015 587.895431,153.182585 589,153.182585 L592.242676,153.182585 Z M594.291948,170.767533 L638.15675,170.767533 C639.813604,170.767533 641.15675,172.110679 641.15675,173.767533 C641.15675,173.894556 641.148683,174.021451 641.132597,174.147452 L637.345307,203.812699 C637.154085,205.310511 635.87943,206.43278 634.36946,206.43278 L597.966355,206.43278 C596.452104,206.43278 595.175242,205.304316 594.989106,203.801549 L591.314699,174.136302 C591.111034,172.492013 592.27889,170.99395 593.923179,170.790284 C594.045518,170.775131 594.168674,170.767533 594.291948,170.767533 Z M38.2426758,153.154688 L38.899017,147.731795 C39.0205687,146.727497 39.8729007,145.972104 40.8845274,145.972104 L83.1517778,145.972104 C84.1769904,145.972104 85.0361834,146.747328 85.1412478,147.767143 L85.6962891,153.154688 L88,153.154688 C89.1045695,153.154688 90,154.050119 90,155.154688 L90,157.346572 C90,158.451141 89.1045695,159.346572 88,159.346572 L35,159.346572 C33.8954305,159.346572 33,158.451141 33,157.346572 L33,155.154688 C33,154.050119 33.8954305,153.154688 35,153.154688 L38.2426758,153.154688 Z M40.2919481,170.739637 L84.1567502,170.739637 C85.8136044,170.739637 87.1567502,172.082782 87.1567502,173.739637 C87.1567502,173.86666 87.1486827,173.993555 87.1325965,174.119556 L83.3453068,203.784803 C83.1540848,205.282615 81.8794297,206.404884 80.3694605,206.404884 L43.9663549,206.404884 C42.4521044,206.404884 41.1752425,205.27642 40.9891063,203.773653 L37.3146995,174.108406 C37.111034,172.464117 38.2788901,170.966054 39.9231792,170.762388 C40.045518,170.747235 40.1686744,170.739637 40.2919481,170.739637 Z M654.358974,153.182585 L654.924178,147.791463 C655.030932,146.773207 655.889439,146 656.913277,146 L699.191932,146 C700.200073,146 701.050615,146.750342 701.176323,147.750616 L701.858974,153.182585 L704,153.182585 C705.104569,153.182585 706,154.078015 706,155.182585 L706,157.374468 C706,158.479037 705.104569,159.374468 704,159.374468 L651,159.374468 C649.895431,159.374468 649,158.479037 649,157.374468 L649,155.182585 C649,154.078015 649.895431,153.182585 651,153.182585 L654.358974,153.182585 Z M656.291948,172.048528 L700.15675,172.048528 C701.813604,172.048528 703.15675,173.391674 703.15675,175.048528 C703.15675,175.175551 703.148683,175.302446 703.132597,175.428447 L699.345307,205.093694 C699.154085,206.591506 697.87943,207.713775 696.36946,207.713775 L659.966355,207.713775 C658.452104,207.713775 657.175242,206.585311 656.989106,205.082544 L653.314699,175.417297 C653.111034,173.773008 654.27889,172.274945 655.923179,172.071279 C656.045518,172.056126 656.168674,172.048528 656.291948,172.048528 Z M100.358974,153.154688 L100.924178,147.763567 C101.030932,146.74531 101.889439,145.972104 102.913277,145.972104 L145.191932,145.972104 C146.200073,145.972104 147.050615,146.722446 147.176323,147.72272 L147.858974,153.154688 L150,153.154688 C151.104569,153.154688 152,154.050119 152,155.154688 L152,157.346572 C152,158.451141 151.104569,159.346572 150,159.346572 L97,159.346572 C95.8954305,159.346572 95,158.451141 95,157.346572 L95,155.154688 C95,154.050119 95.8954305,153.154688 97,153.154688 L100.358974,153.154688 Z M102.291948,172.020632 L146.15675,172.020632 C147.813604,172.020632 149.15675,173.363778 149.15675,175.020632 C149.15675,175.147655 149.148683,175.27455 149.132597,175.400551 L145.345307,205.065798 C145.154085,206.56361 143.87943,207.685879 142.36946,207.685879 L105.966355,207.685879 C104.452104,207.685879 103.175242,206.557415 102.989106,205.054648 L99.3146995,175.389401 C99.111034,173.745112 100.27889,172.247049 101.923179,172.043383 C102.045518,172.02823 102.168674,172.020632 102.291948,172.020632 Z M471,9.28099519 L572,9.28099519 C573.104569,9.28099519 574,10.1764257 574,11.2809952 L574,16.2809952 C574,17.3855647 573.104569,18.2809952 572,18.2809952 L471,18.2809952 C469.895431,18.2809952 469,17.3855647 469,16.2809952 L469,11.2809952 C469,10.1764257 469.895431,9.28099519 471,9.28099519 Z M202,141 L278,141 C279.104569,141 280,141.895431 280,143 L280,146 C280,147.104569 279.104569,148 278,148 L202,148 C200.895431,148 200,147.104569 200,146 L200,143 C200,141.895431 200.895431,141 202,141 Z M304,141 L380,141 C381.104569,141 382,141.895431 382,143 L382,146 C382,147.104569 381.104569,148 380,148 L304,148 C302.895431,148 302,147.104569 302,146 L302,143 C302,141.895431 302.895431,141 304,141 Z M30,9.28099519 L131,9.28099519 C132.104569,9.28099519 133,10.1764257 133,11.2809952 L133,16.2809952 C133,17.3855647 132.104569,18.2809952 131,18.2809952 L30,18.2809952 C28.8954305,18.2809952 28,17.3855647 28,16.2809952 L28,11.2809952 C28,10.1764257 28.8954305,9.28099519 30,9.28099519 Z M181,83.2809952 L237,83.2809952 L237,110.280995 L181,110.280995 L181,83.2809952 Z M305,69.2809952 L328,69.2809952 C339.59798,69.2809952 349,78.6830154 349,90.2809952 L349,109.280995 C349,110.385565 348.104569,111.280995 347,111.280995 L286,111.280995 C284.895431,111.280995 284,110.385565 284,109.280995 L284,90.2809952 C284,78.6830154 293.40202,69.2809952 305,69.2809952 Z M321.5,49.2809952 C312.939586,49.2809952 306,42.5652664 306,34.2809952 C306,25.9967239 312.939586,19.2809952 321.5,19.2809952 C330.060414,19.2809952 337,25.9967239 337,34.2809952 C337,42.5652664 330.060414,49.2809952 321.5,49.2809952 Z" id="Combined-Shape" fill="#E1E5F0" fill-rule="nonzero"></path>
                </g>
            </g>
            <g id="Characters-standing-/-Man-standing-/-2" transform="translate(723.000000, 14.000000)">
                <path d="M675,947 L572.5,947 C570.1,947 568,945.269231 568,943.192308 L568,941.807692 C568,939.730769 570,938 572.5,938 L675,938 C677.4,938 679.5,939.730769 679.5,941.807692 L679.5,943.192308 C679.5,945.269231 677.5,947 675,947 Z M464.5,938 C466.985281,938 469,940.014719 469,942.5 C469,944.985281 466.985281,947 464.5,947 L301.5,947 C299.014719,947 297,944.985281 297,942.5 C297,940.014719 299.014719,938 301.5,938 L464.5,938 Z" id="Base" fill="#FF5645" fill-rule="nonzero"></path>
                <path d="M464.737633,938.006167 C464.65894,938.002073 464.579712,938 464.5,938 L302.208237,938 C302.100702,937.452403 302.046164,936.762354 302.06176,935.868834 C302.173961,935.170686 302.187923,934.370808 302.401855,933.57442 C303.685444,928.796094 305.241063,925.62276 309.790989,922.801737 C314.340916,919.980715 318.985592,917.461392 323.825001,915.245514 C341.674141,906.855746 347.773212,906.962206 359.50932,899.265857 C364.366181,896.050131 368.83183,892.327501 373.002761,888.29968 C375.783381,885.614466 381.460432,881.252031 390.033912,875.212374 L459.474609,876.938923 L464.737633,938.006167 Z M675.378677,938.014369 C675.253472,938.004858 675.127157,938 675,938 L572.843878,938 L580.926963,886.986751 L649.109404,873.695757 L675.378677,938.014369 Z" id="Shoes" fill="#474961" fill-rule="nonzero"></path>
                <g id="Man" stroke-width="1" fill-rule="evenodd" transform="translate(334.000000, 52.000000)">
                    <path d="M94.9706161,208.656949 C92.7553368,208.915971 90.7651314,209.024648 89,208.982981 C82.750296,208.835454 72.5735395,210.212792 64,208.982981 C34.7733624,204.790637 31.0649139,197.773007 30.4593055,194.705458 C29.626594,190.429479 31.5948212,187.640798 42.7985761,168.120028 C52.336908,151.573851 81.6200769,119.423743 90.5098529,113.461871 C96.4363702,109.48729 106.266419,106.023861 120,103.071584 C119.971053,103.134597 119.941973,103.202578 119.912761,103.275527 C134.217248,97.9486725 151.698012,97.5678556 161.093604,97.15 C166.008985,96.95 192.991294,96.95 197.906676,97.15 C205.438975,97.4849883 215.905265,98.6616056 226.02937,102.298373 C226.613203,101.089366 227.632431,100.563578 229.2,100.917969 C238.7,102.217969 257,108.387627 258.3,108.987627 C278.193359,117.154688 329.688867,154.5 333.088867,157 C336.488867,159.5 326.997113,173.668108 318.358974,181.797949 C309.99292,189.671716 299.38038,191.322054 281,202.420599 C278.620749,203.857252 272.94703,204.785719 263.978846,205.206 C264.417063,235.295591 264.709765,250.779338 264.944117,257.95 C264.944117,257.95 264.839534,258.95 264.944117,260.45 C265.153282,264.85 265.257864,282.95 255.845431,290.95 C254.59044,291.95 253.230866,292.85 252.080458,293.45 C249.570476,294.85 247.478824,295.35 247.478824,295.35 C247.478824,295.35 247.269659,295.45 247.269659,295.45 C179.395557,311.85 111.626038,295.45 111.626038,295.45 C111.521455,295.35 111.416873,295.35 111.416873,295.35 C111.416873,295.35 109.325221,294.85 106.815239,293.45 C105.560248,292.85 104.305257,292.05 103.050265,290.95 C93.7424149,282.95 93.8469975,264.85 94.0561627,260.45 C94.0561627,259.05 94.0561627,257.95 94.0561627,257.95 C94.2813374,250.988372 94.560381,236.455007 94.9706161,208.656949 Z" id="T-shirt" fill="#FF5645" fill-rule="nonzero"></path>
                    <path d="M138.000005,232.261313 C154.341849,229.35924 169.902199,227.908203 184.681057,227.908203 C194.129903,227.908203 203.56955,228.501339 213,229.687611 L213,101 C213,98.790861 214.790861,97 217,97 L226,97 C228.209139,97 230,98.790861 230,101 L230,232.477558 C251.202168,237.089458 266.491094,255.636859 266.987546,277.313169 C271.281664,296.806564 282.095379,349.601379 295.1,440.787627 C301,482.587627 305.5,518.487627 308.8,546.087627 L308.5,546.187627 C310.4,562.787627 312.3,580.987627 312.7,585.887627 C313.6,597.887627 315.3,616.487627 317.4,638.187627 C322.8,694.487627 328.8,775.287627 330.7,802.087627 C330.9,805.587627 332.2,815.087627 326.9,821.787627 C325.3,823.687627 323.8,824.687627 320.7,826.487627 C318.2,827.987627 307.5,832.887627 285.4,837.187627 C284,837.387627 282.5,837.587627 281,837.687627 C257.9,838.987627 252,837.887627 242.9,835.887627 C236.8,834.587627 232,829.287627 230.7,822.387627 C225.1,792.387627 209.5,710.587627 208.2,703.287627 C206.4,694.087627 204.7,683.687627 203,671.787627 C190.518176,598.403921 180.777617,534.541847 173.778323,480.201407 C172.168537,506.76348 170.57142,533.325554 169,559.887627 C165.9,583.187627 164.3,601.787627 163.5,612.687627 C163.5,612.687627 154.3,738.887627 142.8,818.987627 C142.4,821.587627 141.6,826.987627 137.5,831.587627 C128.8,841.187627 116.5,833.987627 79.2,832.287627 C79.2,832.287627 42.5,830.687627 34.7,821.587627 C33.2,819.787627 32.3,817.787627 32.3,817.787627 C30.8,813.887627 31,810.287627 31.1,808.787627 C40.7,715.987627 35.5,666.587627 50.5,558.587627 C57.6333333,507.320961 71.1333333,431.104903 91,329.939453 L94,292.572266 L94,279.515447 C93.9999994,260.977323 104.826005,244.576601 121,236.97704 L121,101 C121,98.790861 122.790861,97 125,97 L134,97 C136.209139,97 138,98.790861 138,101 L138,232.261314 Z" id="Overall" fill="#474BFF" fill-rule="nonzero"></path>
                    <path d="M207.676795,196.837117 C204.53347,203.12188 198.432168,207.765457 190.895354,208.762061 C178.895354,210.362061 167.795354,201.962061 166.195354,189.862061 C164.595354,177.762061 172.995354,166.762061 185.095354,165.162061 C187.998332,164.774997 190.84864,164.973161 193.524523,165.667361 L191.595354,161.418452 L188.795354,156.089903 L188.795354,156.423492 C189.395354,155.923996 190.095354,155.624299 190.795354,155.124803 L195.195354,152.92702 C197.395354,152.127827 200.095354,151.228734 203.195354,150.129843 L204.095354,149.830145 C204.195354,149.830145 204.395354,149.730246 204.495354,149.630347 L205.895354,149.130851 L206.095354,149.130851 L208.295354,148.431557 C210.695354,147.732262 213.395354,146.933069 216.095354,146.133875 C218.695354,145.334682 221.295354,144.535488 223.795354,143.736294 L225.995354,143.136899 L226.195354,143.136899 L227.695354,142.737303 L228.095354,142.537504 L228.995354,142.337706 C232.095354,141.538512 234.895354,140.739319 237.195354,140.239823 L242.295354,139.540528 C243.095354,139.440629 243.895354,139.34073 244.695354,139.041032 C244.795354,140.939117 244.995354,142.837202 245.195354,144.835186 L251.795354,185.793855 C251.995354,186.992646 251.995354,188.091537 251.795354,189.190428 C251.695354,189.689924 251.595354,190.089521 251.395354,190.788815 C250.895354,192.487101 249.795354,193.88569 248.395354,195.08448 C247.195354,196.083472 246.195354,196.682867 241.395354,198.281254 C239.195354,198.980549 236.195354,199.979541 232.795354,201.078432 C229.395354,202.077424 226.395354,202.876617 224.195354,203.675811 C219.295354,204.9745 217.895354,205.174299 216.495354,204.9745 C214.795354,204.774702 213.095354,203.975509 211.695354,202.976517 C211.295354,202.776718 210.895354,202.377121 210.595354,201.877625 C209.895354,201.078432 209.095354,200.07944 208.695354,199.080448 L207.676795,196.837117 Z M189.595354,199.262061 C196.495354,198.362061 201.295354,191.962061 200.395354,185.162061 C199.495354,178.362061 193.095354,173.462061 186.295354,174.362061 C179.495354,175.262061 174.595354,181.662061 175.495354,188.462061 C176.495354,195.462061 182.795354,200.162061 189.595354,199.262061 Z" id="Cup" fill="#FFCB3D" fill-rule="nonzero"></path>
                    <path d="M191.495354,154.374433 C192.495354,153.974433 193.795354,153.474433 195.295354,152.974433 C197.495354,152.174433 200.195354,151.274433 203.295354,150.174433 L204.195354,149.874433 C204.295354,149.874433 204.495354,149.774433 204.595354,149.674433 L205.995354,149.174433 L206.195354,149.174433 L208.395354,148.474433 C210.795354,147.774433 213.495354,146.974433 216.195354,146.174433 C218.795354,145.374433 221.395354,144.574433 223.895354,143.774433 L226.095354,143.174433 L226.295354,143.174433 L227.795354,142.774433 L228.195354,142.574433 L229.095354,142.374433 C232.195354,141.574433 234.995354,140.774433 237.295354,140.274433 C238.895354,139.874433 240.095354,139.574433 241.295354,139.374433 C243.295354,138.974433 244.495354,138.874433 244.495354,139.174433 C244.495354,139.374433 243.995354,139.774433 242.795354,140.274433 C239.095354,142.074433 229.595354,145.574433 217.995354,149.274433 L217.095354,149.474433 L216.195354,149.774433 C204.495354,153.174433 194.695354,155.474433 190.495354,155.974433 C189.195354,156.174433 188.595354,156.074433 188.495354,155.974433 C188.495354,155.774433 189.495354,155.174433 191.495354,154.374433 Z" id="Shadow-Cup" fill="#474961" fill-rule="nonzero"></path>
                    <path d="M196.25135,96.5236864 C198.415229,96.7773351 200.684879,97.0653154 203.060303,97.3876273 C195.476898,104.385957 189.704329,108.232566 185.742598,108.927453 C179.8,109.969784 182.552833,109.969784 172.419005,109.969784 C165.66312,109.969784 158.06202,105.894895 149.615704,97.7451172 C154.744699,96.9491217 159.409649,96.3338855 163.610554,95.8994085 L163.416003,87.0797528 C158.222742,89.0105586 158.512232,88.8168831 158,88.9876273 C151.7,90.5876273 146.3,90.3876273 145.3,90.1876273 C141.7,89.8876273 137.9,86.8876273 134.5,81.7876273 C129.9,74.9876273 125.8,64.3876273 123.6,51.6876273 C123.2,49.8876273 123.1,48.0876273 123,46.2876273 L122.6,28.3876273 C122.5,24.3876273 123.4,20.3876273 125.4,16.7876273 C126.2,15.1876273 127,13.8876273 128,12.7876273 C128.030802,12.7481074 128.061676,12.7087191 128.092619,12.6694622 C128.129136,12.6095286 128.164952,12.5489618 128.2,12.4876273 C135.9,1.7876273 152,0.387627298 159.4,1.1876273 C160.3,1.2876273 163.5,1.6876273 168.1,1.9876273 C170.6,2.1876273 172.6,2.1876273 173.8,2.2876273 C188.7,2.8876273 194.6,1.0876273 202.1,5.0876273 C203.5,5.7876273 206.7,7.5876273 209.5,11.0876273 C217.4,20.9876273 215.5,33.7876273 215,37.5876273 C213.2,48.9876273 206.6,55.9876273 204.6,58.8876273 C202.214303,62.4065303 198.192285,66.7080214 195.334474,69.6068409 L196.25135,96.5236864 Z M295.099187,336.459277 L326.230855,392.411622 C329.430855,398.785699 323.330855,405.891227 316.930855,403.174408 C304.576278,397.920843 294.430284,390.968333 286.299833,383.852295 C285.3147,376.800581 283.26558,364.719797 280.152474,347.609942 L280.120751,347.624319 C278.094559,336.493996 275.620975,323.249019 272.7,307.889389 L272.7,302.738889 L320.1,236.861193 C303.716172,222.442384 297.232789,218.317192 281.047157,202.340592 C299.151255,191.485325 309.658661,189.797962 317.956218,181.988662 C323.857337,176.434785 330.15683,168.06291 332.472427,162.518144 C358.957622,182.926015 376.010699,199.845774 379.7,209.292462 C382.7,216.99549 383.3,224.597162 383.3,224.597162 C384.2,237.165259 380.3,247.098111 378.8,250.848269 C368.245488,277.33042 319.769165,317.325066 295.099187,336.459277 Z M177.741155,173.941414 C179.909492,173.714885 182.201194,174.697958 183.490412,176.595288 L185.076747,179.041416 C186.39219,181.115893 186.279842,183.614235 185.053889,185.471322 C186.683743,185.739359 188.198648,186.676152 189.155104,188.191238 L190.698506,190.664678 C191.536751,192.039069 191.758659,193.584784 191.45789,195.003592 C192.784687,195.419146 193.966956,196.276632 194.718334,197.495563 L196.261736,199.969003 C198.01209,202.838893 197.07507,206.455797 194.303421,208.10442 L178.253914,217.689293 C149.827354,239.741187 123.846249,265.960711 94.1134291,285.7 C58.6134291,308.6 33.5134291,310.9 18.6134291,301.7 C5.61342911,293.7 -7.98657089,290.2 5.71342911,250.2 C10.0471524,237.718877 22.7948344,218.100914 34.5800773,200.331825 C38.8484291,203.279636 47.2151717,206.545435 63.7093114,208.911397 C72.2828509,210.141208 82.4596073,208.763869 88.7093114,208.911397 C92.4935561,209.000726 97.3122987,208.399034 103.165539,207.10632 L103.45,207.256836 L104.45,217.487442 C92.6922861,224.295814 86.8134291,227.7 86.8134291,227.7 C104.157293,217.766667 114.629226,211.666667 118.229226,209.4 L127.550715,203.72276 C145.532001,187.699959 175,160.687627 175,160.687627 C179.534564,164.204228 179.69195,168.995921 177.741155,173.941414 Z" id="Skin" fill="#DB9E75" fill-rule="nonzero"></path>
                    <polygon id="Shadow" fill="#482D1F" fill-rule="nonzero" points="163.2 87.0219727 177.5 80.7876273 163.680664 97"></polygon>
                    <path d="M199.266174,42.5042395 C199.291034,39.7450731 198.554077,36.9327037 196.8,34.4876273 C193.6,29.9876273 187.6,27.4876273 182.8,29.0876273 C180.1,29.9876273 178.3,32.0876273 178.1,32.2876273 C175.4,35.6876273 174.8,39.2876273 174.8,39.2876273 L174.72671,40.0092486 C167.509268,32.5280468 158.52799,23.2799266 151.774426,16.168599 C147.666947,17.2953929 140.889608,18.4221868 133.188087,16.7832139 C131.830842,16.4823415 130.178302,15.8684864 128.230469,14.9416485 C128.169022,14.9124187 128.109039,14.8802073 128.050729,14.8451355 C127.058769,14.2485006 126.738295,12.9606904 127.33493,11.9687309 C135.344513,1.00809927 152.185174,-0.426002064 159.886695,0.39348441 C160.913565,0.495920219 164.199547,0.905663456 169.025834,1.21297088 C171.695695,1.4178425 173.749434,1.4178425 174.981678,1.52027831 C190.590095,2.13489317 196.751312,0.2910486 204.555521,4.38848097 C205.993138,5.10553163 209.381807,6.9493762 212.257042,10.5346295 C221.190807,21.3928253 219.034381,34.6070447 218.007512,37.680119 C217.288703,39.831271 216.66146,41.19123 215.562668,41.913485 C214.973945,42.3004632 207.876622,42.4983979 199.266174,42.5042395 Z M126.1,40.6876273 C125.1,40.4876273 124.8,39.1876273 125.5,38.4876273 C126.4,37.6876273 128,36.8876273 130,36.8876273 C134.1,36.8876273 138.5,39.5876273 133.9,40.7876273 C131.2,41.4876273 128,41.0876273 126.1,40.6876273 Z M146.7,41.3876273 C145.7,41.1876273 145.4,39.8876273 146.2,39.1876273 C147.1,38.3876273 148.7,37.5876273 150.8,37.5876273 C154.9,37.5876273 159.3,40.3876273 154.7,41.4876273 C151.8,42.2876273 148.6,41.7876273 146.7,41.3876273 Z" id="Hair" fill="#482D1F" fill-rule="nonzero"></path>
                    <path d="M133.9,47.6876273 C133.8,49.3876273 133.5,52.1876273 132.5,53.1876273 C130.8,54.6876273 128.6,49.6876273 129.9,46.5876273 C130.4,45.2876273 131.1,45.0876273 131.9,45.1876273 C133.1,45.3876273 133.9,46.4876273 133.9,47.6876273 Z M151.8,47.4876273 C151.9,49.1876273 151.9,51.9876273 150.9,53.1876273 C149.4,54.8876273 146.6,50.0876273 147.6,46.8876273 C148,45.5876273 148.7,45.2876273 149.5,45.2876273 C150.7,45.2876273 151.7,46.2876273 151.8,47.4876273 Z" id="Combined-Shape" fill="#482D1F" fill-rule="nonzero"></path>
                    <path d="M143.6,67.9876273 C144.3,67.7876273 146,67.2876273 146.3,66.1876273 C146.3,65.9876273 146.4,65.6876273 146.3,65.4876273 C145.9,64.7876273 144.7,65.1876273 142.9,65.2876273 C139.7,65.4876273 137.1,65.1876273 137.1,65.1876273 C137.1,65.1876273 137.8,67.1876273 138.3,67.7876273 C139.3,69.2876273 142.5,68.2876273 143.6,67.9876273 Z" id="Path" fill="#482D1F" fill-rule="nonzero"></path>
                    <path d="M137.8,41.9876273 L137.8,47.8876273 L136.3,58.5876273 C136.2,59.1876273 136.7,59.7876273 137.3,59.8876273 C138.6,59.9876273 139.8,60.0876273 142.1,60.0876273" id="Path" stroke="#482D1F" stroke-width="2" stroke-linecap="round" stroke-linejoin="round"></path>
                    <path d="M199.011988,39.9420042 C198.926728,39.3963402 199.299959,38.8848753 199.845623,38.7996153 C200.391287,38.7143553 200.902752,39.0875864 200.988012,39.6332504 C201.511817,42.9856006 200.91315,46.606111 199.394427,49.5348409 C198.33839,51.6469158 196.874326,53.347764 195.12496,54.7031285 C193.937363,55.623249 192.91149,56.1990797 191.619058,56.7955867 C191.117606,57.0270261 190.52348,56.8081376 190.292041,56.3066855 C190.060601,55.8052334 190.27949,55.2111074 190.780942,54.9796679 C193.720231,53.6230727 195.995751,51.8600577 197.612245,48.6273101 C198.942342,46.0621246 199.469821,42.872133 199.011988,39.9420042 Z M105.216252,216.683063 C105.246716,216.731152 105.274766,216.781471 105.300161,216.833939 C105.66108,217.579612 105.349176,218.476683 104.603503,218.837602 L75.6035029,232.874141 C74.8578297,233.23506 73.9607589,232.923156 73.5998393,232.177483 C73.2389196,231.43181 73.550824,230.534739 74.2964971,230.173819 L102.355357,216.59281 C102.31818,216.460016 102.298836,216.319829 102.300053,216.175023 C102.341709,211.217919 102.37504,206.46418 102.450033,195.177661 C102.52504,183.88918 102.558376,179.134586 102.600053,174.175023 C102.607014,173.346625 103.284207,172.680719 104.112605,172.687626 C104.941002,172.694642 105.606908,173.371834 105.599947,174.200232 C105.558291,179.157335 105.52496,183.911075 105.449967,195.197594 C105.37496,206.486075 105.341624,211.240669 105.299947,216.200232 C105.298525,216.3694 105.269154,216.531793 105.216252,216.683063 Z" id="Shadow" fill="#482D1F" fill-rule="nonzero"></path>
                    <path d="M279,341.310408 L293.730855,334 L326.230855,392.411622 C329.430855,398.785699 323.330855,405.891227 316.930855,403.174408 C304.576278,397.920843 294.430284,390.968333 286.299833,383.852295 C285.19787,375.964295 282.764592,361.783666 279,341.310408 Z" id="Shadow-Arm" fill="#8C2A00" fill-rule="nonzero" opacity="0.2"></path>
                    <path d="M142.855184,256.887099 C142.700988,267.812173 141.139437,275.438631 138.170531,279.766474 C134.920215,284.504536 127.637867,288.757523 116.323489,292.525434 L116.323488,292.525431 C113.84009,293.352451 112.179393,295.693902 112.219966,298.311073 C112.317181,304.582036 112.083392,309.268154 111.5186,312.369429 C110.827133,316.166272 110.827133,325.709795 111.5186,341 L249.195273,338.045088 L250.315959,312.369429 L248.744974,295.857664 C248.497925,293.261135 246.601706,291.121632 244.053655,290.564461 C234.720291,288.523575 228.219859,284.781323 224.55236,279.337705 C221.232535,274.410134 219.754888,267.063708 220.119418,257.298427 C220.284235,252.883224 216.838616,249.170384 212.423412,249.005568 C212.32398,249.001856 212.224488,249 212.124986,249 L150.854382,249 C146.480134,249.000005 142.916916,252.513288 142.855184,256.887099 Z" id="Pocket" fill="#444444" fill-rule="nonzero" opacity="0.176985679"></path>
                </g>
            </g>
            <g id="Interior-/-Door-/-1" transform="translate(116.000000, 0.000000)">
                <g id="Door" transform="translate(1.000000, 0.000000)">
                    <rect id="Rectangle" fill="#F2F6FB" fill-rule="nonzero" x="5" y="5" width="424" height="854"></rect>
                    <path d="M1.77635684e-15,11 L1.77635684e-15,0 L437,0 L437,11 L437,859 L426,859 L426,11 L11,11 L11,859 L-1.10134124e-13,859 L-5.82090998e-14,11 Z M54,382 L81,382 C82.1045695,382 83,382.895431 83,384 L83,466 C83,467.104569 82.1045695,468 81,468 L54,468 C52.8954305,468 52,467.104569 52,466 L52,384 C52,382.895431 52.8954305,382 54,382 Z M61,459 L74,459 L74,391 L61,391 L61,459 Z" id="Combined-Shape" fill="#E1E5F0" fill-rule="nonzero"></path>
                </g>
            </g>
            <g id="Characters-standing-/-Woman-standing-/-1" transform="translate(0.000000, 14.000000)">
                <g id="Woman" transform="translate(284.000000, 51.000000)">
                    <path d="M35.5,886 L195.5,886 C197.985281,886 200,888.014719 200,890.5 C200,892.985281 197.985281,895 195.5,895 L35.5,895 C33.0147186,895 31,892.985281 31,890.5 C31,888.014719 33.0147186,886 35.5,886 Z M442.182155,895 L339.682155,895 C337.282155,895 335.182155,893.269231 335.182155,891.192308 L335.182155,889.807692 C335.182155,887.730769 337.182155,886 339.682155,886 L442.182155,886 C444.582155,886 446.682155,887.730769 446.682155,889.807692 L446.682155,891.192308 C446.682155,893.269231 444.682155,895 442.182155,895 Z" id="Base" fill="#A339FF" fill-rule="nonzero"></path>
                    <path d="M125.211324,583.733641 L130.811992,533.031374 C150.596346,360.824446 179.778104,266.673991 218.357266,250.580011 C226.379932,246.739996 221.189857,245.255741 252.072575,244.913192 C252.832451,244.93781 253.692982,244.895001 254.452858,244.919619 C284.340362,245.110335 305.876188,243.261323 318.794922,262.493657 C328.765794,274.089697 338.987353,294.422783 349.459599,323.492915 C359.660402,351.80954 379.578394,447.848166 409.213577,611.608795 C409.300065,612.086714 409.357458,612.569444 409.38544,613.054319 C409.425503,613.748534 409.405722,614.432366 409.330571,615.100791 C409.433906,615.943792 409.531321,616.773966 409.622818,617.591314 C411.109645,630.873215 406.409392,649.503436 395.52206,673.481978 C333.119269,677.477855 290.498662,678.082334 267.660239,675.295415 C213.863786,668.73076 181.141752,647.919479 164.422769,640.357829 C137.149848,628.02285 123.879209,611.002678 124.610852,589.297312 C124.601255,589.341222 124.591698,589.385189 124.58218,589.429218 L124.617544,589.109071 C124.617959,589.097968 124.618378,589.086865 124.6188,589.07576 C124.610276,587.260814 124.807784,585.480107 125.211324,583.733641 Z" id="Skirt" fill="#FFCB3D" fill-rule="nonzero"></path>
                    <path d="M125.036451,588.592552 C125.031447,586.815244 125.224142,585.070791 125.614537,583.359193 L125.036451,588.592552 L125.036451,588.592552 Z M409.130065,615.487259 C409.235178,616.343659 409.599746,618.527916 409.622818,619.358599 C410.013809,633.43593 406.768776,648.656561 395.881443,672.635103 C333.652778,677.013052 290.498662,678.082334 267.660239,675.295415 C213.863786,668.73076 181.141752,647.919479 164.422769,640.357829 C137.17555,628.034475 123.877593,610.841511 124.58218,589.165423 C131.315986,558.646138 157.471092,558.482909 202.158568,589.165423 C244.816867,618.454699 310.25992,630.553544 398.487729,625.461956 C404.48358,625.115936 408.582917,622.954094 409.130065,617.153241 L409.130065,615.487259 Z" id="Shape" fill="#8C2A00" fill-rule="nonzero" opacity="0.2"></path>
                    <path d="M202.545647,189.677282 C200.320989,189.75949 179.900229,189.783514 180.992585,175.968319 C182.140631,161.448797 182.942411,149.760805 186.436031,140.283448 C189.929652,130.806092 197.153235,131.839965 198.160924,128.99868 C202.266031,117.423903 205.668184,114.92983 218.15517,111.469454 C225.010568,106.072331 233.963082,102.864757 245.637699,102.572826 L250.652918,102.485285 C260.180312,102.252846 269.194973,102.681464 277.163754,104.229707 L278.951402,104.3246 C291.093099,108.041083 298.47308,110.302167 301.091346,111.107851 C313.407873,114.897854 316.833587,117.351002 321.381532,128.203747 C322.497019,130.865628 329.461488,130.262992 333.31084,139.148313 C337.160191,148.033634 338.502267,158.822422 340.317098,172.232228 C342.131928,185.642034 330.486478,197.351075 330.212187,197.287406 L305.778399,192.533225 L303.409759,230.66107 C303.341408,231.787512 303.359258,232.810153 303.290907,233.936594 C303.292172,239.051337 302.632387,246.632705 298.945368,252.221008 C293.801852,260.085231 291.167424,268.470972 258.44366,269.451349 C223.342481,270.370928 220.957312,266.204834 215.276728,258.427251 C211.398711,253.073292 207.146737,242.608222 206.965929,237.292023 C206.955748,236.70871 205.48232,220.83713 202.545647,189.677282 Z" id="Shirt" fill="#A339FF" fill-rule="nonzero"></path>
                    <path d="M207.468805,267.086832 C190.662146,288.180436 171.119679,302.308082 155.18333,284.906831 L83.678826,226.035511 C81.805356,225.421589 79.8931909,224.73626 77.9530641,223.972082 C74.0248699,225.874487 69.8379475,226.825689 65.3922965,226.825689 C55.0346377,226.825689 32.6544937,225.652236 9.93705778,215.325689 C6.62723917,213.821161 3.31488657,209.987828 0,203.825689 L97,203.825689 L140,203.825689 C151.99732,205.968063 163.115352,207.977451 173.354095,209.853853 L184.967096,184.749277 C190.769848,189.337013 201.053388,189.307985 202.595335,189.251006 C203.596085,199.869559 204.42691,208.712703 205.08781,215.780439 C237.462516,221.967618 256.209657,226.09372 261.329233,228.158746 L275.505441,186.574835 L329.944148,197.167195 C329.957296,197.170247 329.996571,197.146249 330.059238,197.096311 C306.922789,267.143731 282.364293,297.848339 256.38375,289.210136 C243.425521,284.901689 227.12054,277.527254 207.468805,267.086832 Z M63.464921,216.890105 C63.5459912,216.941819 63.6269279,216.991438 63.707731,217.038963 C63.6268137,216.991371 63.5458946,216.941724 63.4649738,216.890021 Z M390.894412,625.860373 L417.782155,824.496421 L346.182155,834.196421 L294.096495,622.025312 C322.404252,626.289985 354.670202,627.568342 390.894316,625.860378 L390.894412,625.860373 Z M140.729619,567.452679 C153.838816,562.810481 174.315132,570.048062 202.158568,589.165423 C210.447267,594.856461 219.596186,599.898487 229.605327,604.291502 L200.6,824.896421 L125.1,824.896421 L140.729619,567.452679 Z M236.280695,94.8922947 L235.604523,88.8577906 C235.505471,88.8805365 235.405834,88.9033501 235.30561,88.926231 C226.4943,90.9660367 227.009828,90.8103757 226.39468,90.9573212 C219.897016,91.794197 214.561143,90.8254586 213.582379,90.539064 C205.409834,88.7198571 197.929478,72.1046753 196.884467,49.6280663 C196.742489,47.8087691 196.899369,46.0156187 196.95663,44.2137526 L198.815576,26.4080143 C199.164199,22.4232355 200.599921,18.6339475 202.88864,15.421197 C203.122741,15.0401503 203.348127,14.758723 203.573512,14.4772957 C204.36672,13.4424906 205.142496,12.6069244 205.909557,11.8709776 C208.878181,8.91847511 212.266462,6.90612568 215.693354,5.59982812 C223.742571,3.09181988 232.535231,3.559932 237.355576,4.68433143 C238.044197,4.84495992 240.209679,5.33556096 243.26302,6.00422165 C246.090975,6.95430959 248.845458,7.59682355 251.725707,7.94919467 C253.310903,8.18826333 254.384319,9.6875228 254.24487,11.2814343 L251.017488,36.6968628 C250.811626,38.284964 254.417648,37.6869798 261.835555,34.9029105 C266.626006,35.2216386 270.024937,43.1781344 271.08345,48.2898415 C272.224152,53.6095031 269.869457,58.7237391 266.39402,61.7322832 C266.078732,61.9968411 265.758878,62.2401055 265.436941,62.4639208 L266.37546,72.2707677 L265.66575,79.235415 L266.212863,101.803317 C267.628523,101.916807 269.152826,102.047024 270.824505,102.191882 C285.392511,103.45426 299.446126,108.035738 312.985352,115.936314 L213.406282,115.936314 C217.799052,109.782389 225.500789,105.553417 236.511495,103.249398 L236.280695,94.8922947 Z" id="Skin" fill="#F2A98A" fill-rule="nonzero"></path>
                    <path d="M83.2030368,225.643783 C95.5566593,229.4887 106.262422,230.077927 112.302528,230.077927 C117.973793,230.077927 134.279343,232.252971 144.571782,229.921936 C168.35087,244.890804 189.328316,257.264321 207.504122,267.042491 C190.689528,288.160626 171.130843,302.320272 155.18333,284.906831 L83.2030368,225.643783 Z M78.1055618,223.897686 C74.1332803,225.849688 69.8955253,226.825689 65.3922965,226.825689 C55.0346377,226.825689 32.6544937,225.652236 9.93705778,215.325689 C6.62723917,213.821161 3.31488657,209.987828 0,203.825689 L97,203.825689 C96.9679167,203.883903 96.9358034,203.942007 96.90366,204 L55,204 C57.9047975,210.986775 60.8073745,215.333096 63.707731,217.038963 C68.574548,219.90142 73.4236993,222.143593 78.1055618,223.897686 Z M205.12489,216.17702 C195.644589,214.365714 184.99875,212.378129 173.187374,210.214264 L184.967096,184.749277 C190.769848,189.337013 201.053388,189.307985 202.595335,189.251006 C203.614892,200.069108 204.458077,209.044446 205.12489,216.17702 Z" id="Shadow-Arm" fill="#8C2A00" fill-rule="nonzero" opacity="0.2"></path>
                    <path d="M197.696996,886.571837 C197.047222,886.207643 196.29786,886 195.5,886 L35.5,886 C35.1933344,886 34.8938335,886.030676 34.6043983,886.089126 C34.6014846,885.993376 34.6,885.896997 34.6,885.8 C34.7,885.1 34.7,884.3 34.9,883.5 C36.1,878.7 40,874.7 42.2,872.7 C46.8,869.8 51.4,867.3 56.2,865 C74,856.4 80.1,856.5 91.8,848.7 C96.6,845.4 101.1,841.7 105.2,837.6 L123.1,824.4 L201.767578,824 L197.696996,886.571837 Z M441.539713,886 L339.682155,886 C339.1844,886 338.706466,886.068611 338.260191,886.194903 C340.975626,871.906565 346.182155,834.196421 346.182155,834.196421 L417.782155,824.496421 L441.539713,886 Z" id="Combined-Shape" fill="#474961" fill-rule="nonzero"></path>
                    <path d="M268.627215,87.6749877 C256.817153,80.5876186 257.071206,66.1528826 257.210338,63.6358014 C257.09972,63.4289964 256.988608,63.2213947 256.87705,63.0131074 L257.336469,63.0572824 C258.636469,62.7572824 262.736469,62.0572824 265.936469,58.8572824 C269.136469,55.6572824 271.036469,50.3572824 269.336469,45.1572824 C267.836469,40.1572824 263.036469,36.0572824 258.236469,36.1572824 C255.536469,36.2572824 253.336469,37.5572824 253.036469,37.7572824 C249.536469,40.0572824 247.936469,43.2572824 247.936469,43.2572824 L246.9582,45.4681699 C246.639358,44.9670631 246.331518,44.4953855 246.036469,44.0572824 C239.036469,36.2572824 232.036469,28.5572824 224.936469,20.7572824 C220.936469,21.7572824 214.336469,22.6572824 206.836469,20.8572824 C204.436469,20.2572824 202.336469,18.9572824 200.536469,18.0572824 C201.236469,16.9572824 201.936469,16.0572824 202.636469,15.2572824 C205.336469,12.0572824 208.536469,9.75728238 211.836469,8.15728238 C219.636469,4.95728238 228.436469,4.65728238 233.336469,5.35728238 C234.036469,5.45728238 236.236469,5.75728238 239.336469,6.15728238 C240.236469,6.25728238 241.136469,6.35728238 242.236469,6.45728238 C244.836469,6.65728238 246.836469,6.85728238 248.036469,6.95728238 C263.236469,7.95728238 269.136469,6.25728238 276.736469,10.4572824 C278.136469,11.2572824 281.336469,13.1572824 284.036469,16.6572824 C288.244289,22.1058697 289.512792,28.340215 289.694526,33.5234693 L289.736469,33.4572824 C289.61524,32.0716278 297.236469,59.4572824 287.236469,72.5572824 C284.74667,75.8189188 282.951171,78.5350346 281.658582,80.7750851 C284.543362,82.7335277 288.619928,85.6877903 293.10013,89.4492686 C297.065742,92.8892885 297.0877,98.1913337 294.820129,101.828899 C288.2433,100.453802 281.628717,99.7697613 274.976381,99.7767779 C273.169843,99.7786834 271.518459,99.7706755 269.980834,99.764214 L268.627215,87.6749877 Z M195.254885,47.4947686 C194.24337,47.3650123 193.753661,46.0960816 194.509858,45.441738 C195.351861,44.5809059 196.785426,43.5784636 198.780554,43.4389506 C202.870566,43.1529491 207.43424,45.3399307 203.035885,46.9506681 C200.398267,47.9370618 197.277916,47.7542813 195.254885,47.4947686 Z M214.663433,46.9395443 C213.651918,46.8097879 213.162208,45.5408573 214.011187,44.7797816 C214.853189,43.9189495 216.286754,42.9165072 218.381639,42.7700186 C222.471651,42.484017 227.0423,44.7707551 222.63697,46.2817361 C219.806815,47.3818375 216.686464,47.1990569 214.663433,46.9395443 Z" id="Hair" fill="#DE6903" fill-rule="nonzero" transform="translate(245.242955, 53.437525) rotate(5.000000) translate(-245.242955, -53.437525) "></path>
                    <path d="M202.986731,51.4049315 C203.186731,53.1049315 203.286731,55.9049315 202.386731,57.1049315 C200.986731,58.8049315 197.986731,54.1049315 198.886731,50.9049315 C199.186731,49.6049315 199.886731,49.2049315 200.686731,49.2049315 C201.886731,49.2049315 202.886731,50.2049315 202.986731,51.4049315 Z M220.886731,51.5049315 C221.086731,53.2049315 221.186731,56.0049315 220.286731,57.2049315 C218.886731,58.9049315 215.886731,54.2049315 216.786731,51.0049315 C217.086731,49.7049315 217.786731,49.3049315 218.586731,49.3049315 C219.786731,49.3049315 220.786731,50.3049315 220.886731,51.5049315 Z" id="Combined-Shape" fill="#482D1F" fill-rule="nonzero" transform="translate(209.871680, 53.384891) rotate(1.000000) translate(-209.871680, -53.384891) "></path>
                    <path d="M212.709706,71.8371928 C213.409706,71.6371928 215.109706,71.1371928 215.409706,70.0371928 C215.409706,69.8371928 215.509706,69.5371928 215.409706,69.3371928 C215.009706,68.6371928 213.809706,69.0371928 212.009706,69.1371928 C208.809706,69.2371928 206.209706,68.9371928 206.209706,68.9371928 C206.209706,68.9371928 206.909706,70.9371928 207.409706,71.5371928 C208.409706,73.1371928 211.609706,72.1371928 212.709706,71.8371928 Z" id="Mouth" fill="#482D1F" fill-rule="nonzero" transform="translate(210.831929, 70.677283) rotate(1.000000) translate(-210.831929, -70.677283) "></path>
                    <path d="M208.049168,52.3306772 L206.458904,62.9655636 C206.269295,64.1023696 207.143635,65.2098669 208.283509,65.399846 C208.410917,65.4195261 208.526041,65.4358864 208.641975,65.4510326 C209.348463,65.5433319 210.00769,65.5869354 211.230945,65.6349062 C211.419718,65.6423091 212.136366,65.6693061 212.145911,65.6696701 C212.542766,65.6848044 212.867545,65.6978593 213.204471,65.7125082 C213.756234,65.7364979 214.222975,65.3086528 214.246964,64.7568893 C214.270954,64.2051258 213.843109,63.7383856 213.291345,63.7143959 C212.950385,63.6995715 212.622249,63.6863817 212.222127,63.6711229 C212.211187,63.6707056 211.496268,63.6437738 211.309316,63.6364423 C210.142655,63.5906909 209.531782,63.5502856 208.901064,63.4678854 C208.800086,63.4546932 208.699971,63.4404658 208.599965,63.4250804 C208.521879,63.4119867 208.431109,63.2970115 208.434302,63.277851 L210.036912,52.5613405 L210.047765,52.4303988 L210.147765,46.5303988 C210.157124,45.9781933 209.71706,45.5229551 209.164855,45.5134491 C208.612649,45.5042362 208.157411,45.9442999 208.148052,46.4965053 L208.049168,52.3306772 Z" id="Nose" fill="#482D1F" fill-rule="nonzero" transform="translate(210.340446, 55.613459) rotate(1.000000) translate(-210.340446, -55.613459) "></path>
                    <path d="M217.478287,111.327686 C208.637404,118.46216 203.341239,129.295412 200.205565,142.219287 C198.890606,147.561595 198.726608,153.292994 199.350918,158.806042 C200.437619,170.297484 201.402912,180.520426 202.246796,189.474867 C201.961086,189.529623 179.346538,190.296393 180.494584,175.776872 C181.64263,161.25735 182.44441,149.569358 185.93803,140.092002 C189.431651,130.614645 196.655234,131.648518 197.662923,128.807233 C201.748359,117.28792 205.137561,114.762494 217.478287,111.327686 Z" id="Combined-Shape" fill="#444444" fill-rule="nonzero" opacity="0.176985679"></path>
                    <path d="M278.880995,184.078575 C278.700365,183.952637 278.452395,183.72572 278.161469,183.411607 C277.539207,182.739752 276.783354,181.739824 275.988374,180.537668 C274.359492,178.074502 272.785336,175.102951 271.956954,172.894526 C271.610006,171.969583 271.439469,170.010902 271.400841,167.021485 C271.392013,166.338279 271.389807,165.791143 271.388532,164.582794 C271.384926,161.163388 271.355068,160.256217 271.103066,159.489365 C269.658647,155.093927 270.074946,149.765566 271.944091,144.296756 C273.410487,140.006326 275.736774,135.959753 277.301946,134.521818 C277.912004,133.961354 277.952208,133.012458 277.391743,132.4024 C276.831278,131.792341 275.882382,131.752138 275.272324,132.312602 C273.287148,134.136398 270.720233,138.601543 269.105319,143.326513 C267.042973,149.360598 266.576936,155.325568 268.25301,160.425944 C268.348185,160.715564 268.385653,161.853942 268.388534,164.585958 C268.389821,165.80615 268.392059,166.361238 268.401092,167.060246 C268.444608,170.427964 268.631107,172.569978 269.148059,173.948146 C271.330433,179.766241 276.344891,187.349017 278.910727,187.079336 C279.734616,186.992742 280.332311,186.25465 280.245717,185.430761 C280.170085,184.711173 279.597469,184.164134 278.904773,184.094854 C278.89745,184.089936 278.88951,184.084512 278.880995,184.078575 Z" id="Shadow" fill="#482D1F" fill-rule="nonzero" transform="translate(273.744047, 159.501767) rotate(6.000000) translate(-273.744047, -159.501767) "></path>
                </g>
            </g>
            <g id="Interior-/-Open-sign-/-1" transform="translate(206.000000, 6.000000)">
                <g transform="translate(28.000000, 0.000000)" id="Combined-Shape">
                    <path d="M106.438849,123 L201,123 L201,263 L0,263 L0,123 L99.1439338,123 L14.1714983,6.40991403 C13.0329906,4.84777565 13.3764112,2.65846948 14.9385496,1.51996185 C16.500688,0.381454218 18.6899941,0.724874792 19.8285017,2.28701317 L102.726284,116.030482 L181.118755,2.36139825 C182.216181,0.770130717 184.395798,0.369792961 185.987065,1.46721885 C187.578333,2.56464474 187.978671,4.74426141 186.881245,6.33552894 L106.881245,122.335529 C106.756175,122.51688 106.617049,122.682763 106.46634,122.832724 C106.458515,122.888693 106.449343,122.944469 106.438834,123 Z" fill="#E1E5F0" fill-rule="nonzero"></path>
                    <path d="M11,132 L191,132 L191,254 L11,254 L11,132 Z M29.1796875,191.84375 C29.1796875,195.859395 29.9687421,199.203112 31.546875,201.875 C33.1250079,204.546888 35.1835811,206.499994 37.7226562,207.734375 C40.2617314,208.968756 43.4687306,209.585938 47.34375,209.585938 C51.1562691,209.585938 54.339831,208.871101 56.8945312,207.441406 C59.4492315,206.011712 61.402337,204.011732 62.7539062,201.441406 C64.1054755,198.871081 64.78125,195.578145 64.78125,191.5625 C64.78125,186.031222 63.2343905,181.730484 60.140625,178.660156 C57.0468595,175.589828 52.6406536,174.054688 46.921875,174.054688 C41.3437221,174.054688 36.9922031,175.617172 33.8671875,178.742188 C30.7421719,181.867203 29.1796875,186.234347 29.1796875,191.84375 Z M39.796875,191.890625 C39.796875,188.390607 40.445306,185.88282 41.7421875,184.367188 C43.039069,182.851555 44.7578018,182.09375 46.8984375,182.09375 C49.1328237,182.09375 50.9023372,182.839836 52.2070312,184.332031 C53.5117253,185.824226 54.1640625,188.187484 54.1640625,191.421875 C54.1640625,195.265644 53.5390687,197.92968 52.2890625,199.414062 C51.0390563,200.898445 49.2734489,201.640625 46.9921875,201.640625 C44.7734264,201.640625 43.0195377,200.88282 41.7304688,199.367188 C40.4413998,197.851555 39.796875,195.359392 39.796875,191.890625 Z M70.453125,174.640625 L70.453125,209 L81.1171875,209 L81.1171875,196.25 L86.9296875,196.25 C91.2109589,196.25 94.3945208,195.273447 96.4804688,193.320312 C98.5664167,191.367178 99.609375,188.656267 99.609375,185.1875 C99.609375,181.812483 98.6523533,179.210947 96.7382812,177.382812 C94.8242092,175.554678 91.9453317,174.640625 88.1015625,174.640625 L70.453125,174.640625 Z M81.1171875,189.289062 L81.1171875,181.625 L84.140625,181.625 C86.1250099,181.625 87.4765589,181.999996 88.1953125,182.75 C88.9140661,183.500004 89.2734375,184.414057 89.2734375,185.492188 C89.2734375,186.601568 88.8593791,187.511715 88.03125,188.222656 C87.2031209,188.933597 85.7656352,189.289062 83.71875,189.289062 L81.1171875,189.289062 Z M105.140625,174.640625 L105.140625,209 L134.109375,209 L134.109375,201.21875 L115.78125,201.21875 L115.78125,194.445312 L132.304688,194.445312 L132.304688,187.4375 L115.78125,187.4375 L115.78125,181.976562 L133.59375,181.976562 L133.59375,174.640625 L105.140625,174.640625 Z M139.898438,174.640625 L139.898438,209 L149.882812,209 L149.882812,190.132812 L162.75,209 L172.757812,209 L172.757812,174.640625 L162.75,174.640625 L162.75,193.648438 L149.8125,174.640625 L139.898438,174.640625 Z" fill="#F2F6FB" fill-rule="nonzero"></path>
                </g>
            </g>
            <g id="Interior-/-Table-/-Table-5" transform="translate(782.000000, 417.000000)">
                <g id="Table" transform="translate(5.000000, 0.000000)">
                    <path d="M672,544 C672,514.728908 648.271092,491 619,491 L117,491 C87.7289083,491 64,514.728908 64,544 L0,544 L0,51 C-3.44940413e-15,22.8334778 22.8334778,5.1741062e-15 51,0 L680,0 C708.166522,-5.1741062e-15 731,22.8334778 731,51 L731,544 L672,544 Z" id="Combined-Shape" fill="#F2F6FB" fill-rule="nonzero"></path>
                    <path d="M51,-2.13162821e-14 L680,-2.13162821e-14 C708.166522,-3.35958156e-14 731,22.8334778 731,51 L731,57.25 L0,57.25 L0,51 C3.65602323e-15,22.8334778 22.8334778,-2.32476032e-14 51,-2.13162821e-14 Z M261,178 L464,178 L436.227922,414 L293.052458,414 L261,178 Z M350.636244,269.728718 C345.804659,265.341732 340.093673,262.751266 334.253982,262.802108 C320.373431,262.922956 311.022003,277.920924 313.366983,296.301007 C315.711962,314.68109 328.865354,329.483125 342.745905,329.362277 C345.795173,329.335729 348.625871,328.591227 351.162014,327.250635 C352.600525,328.520585 354.174809,329.655875 355.881862,330.637005 C372.848097,340.388235 396.50454,331.21871 408.720128,310.156304 C420.93553,289.09379 417.084317,264.114321 400.118138,254.362995 C384.595868,245.441674 363.473711,252.357539 350.636244,269.728718 Z" id="Combined-Shape" fill="#E1E5F0" fill-rule="nonzero"></path>
                    <path d="M269.224528,153 C268.119958,153 267.224528,152.104569 267.224528,151 C267.224528,150.929185 267.228289,150.85842 267.235795,150.788005 L269.90075,125.788005 C269.975936,125.08269 270.411772,124.495509 271.013046,124.201972 C271.00436,124.134781 271,124.067455 271,124 C271,117.372583 313.085234,112 365,112 C416.914766,112 459,117.372583 459,124 C459,124.452575 458.803744,124.899299 458.421504,125.33886 C458.466919,125.468778 458.499461,125.605129 458.517525,125.7465 L461.712046,150.7465 C461.85205,151.84216 461.077338,152.843865 459.981677,152.983869 C459.897604,152.994612 459.812933,153 459.728177,153 L477,153 C478.104569,153 479,153.895431 479,155 L479,176 C479,177.104569 478.104569,178 477,178 L247,178 C245.895431,178 245,177.104569 245,176 L245,155 C245,153.895431 245.895431,153 247,153 L269.224528,153 Z M272.33839,224 L457.618012,224 C463.140859,224 467.618012,228.477153 467.618012,234 C467.618012,234.43044 467.59022,234.86043 467.53481,235.287288 L451.438513,359.287288 C450.791623,364.270688 446.546925,368 441.521714,368 L287.954926,368 C282.915218,368 278.663024,364.249738 278.033299,359.249528 L262.416763,235.249528 C261.726668,229.769965 265.609299,224.768468 271.088862,224.078373 C271.503326,224.026176 271.920653,224 272.33839,224 Z M351.01751,269.2985 C346.185925,264.911514 340.474939,262.321048 334.635249,262.37189 C320.754697,262.492738 311.403269,277.490706 313.748249,295.870789 C316.093228,314.250872 329.24662,329.052907 343.127171,328.932059 C346.17644,328.905511 349.007137,328.161009 351.543281,326.820417 C352.981791,328.090367 354.556076,329.225657 356.263128,330.206787 C373.229363,339.958016 396.885806,330.788492 409.101394,309.726086 C421.316796,288.663572 417.465583,263.684103 400.499404,253.932777 C384.977134,245.011456 363.854977,251.927321 351.01751,269.2985 Z" id="Combined-Shape" fill="#D8DEED" fill-rule="nonzero"></path>
                    <ellipse id="Oval" fill="#E1E5F0" fill-rule="nonzero" cx="365" cy="411" rx="72" ry="12"></ellipse>
                    <path d="M344.486817,269.173994 C341.352712,267.138682 343.317257,289.369337 336.862743,298.847974 C329.812116,309.20202 316.101173,309.641025 309.445467,316.777789" id="Shape" stroke="#D8DEED" stroke-width="5" stroke-linecap="round" stroke-linejoin="round" transform="translate(326.966142, 292.910439) rotate(-33.000000) translate(-326.966142, -292.910439) "></path>
                    <path d="M410.977539,260.87772 C410.977539,260.87772 393.578869,266.254919 383.73877,278.972656 C373.89867,291.690393 380.32168,299.415533 372.608398,315.148438 C370.008597,320.451294 364.639131,325.830703 356.5,331.286665" id="Path" stroke="#D8DEED" stroke-width="5" stroke-linecap="round" stroke-linejoin="round"></path>
                </g>
            </g>
            <g id="Active-objects-/-Devices-/-Cash" transform="translate(794.000000, 153.000000)">
                <g id="Cash" transform="translate(66.000000, 133.000000)">
                    <path d="M143,99 L210,99 C216.627417,99 222,104.372583 222,111 L222,131 L52,131 L0,131 L0,0 L131,0 C137.627417,-1.21743675e-15 143,5.372583 143,12 L143,99 Z" id="Cash-Machine" fill="#474961" fill-rule="nonzero"></path>
                    <path d="M143,99 L210,99 C216.627417,99 222,104.372583 222,111 L222,131 L143,131 L143,99 Z" id="Shadow" fill="#444444" fill-rule="nonzero" opacity="0.176985679"></path>
                </g>
            </g>
        </g>
    </g>
</svg>