<?xml version="1.0" encoding="UTF-8"?>
<svg width="1700px" height="1200px" viewBox="0 0 1700 1200" version="1.1" xmlns="http://www.w3.org/2000/svg" xmlns:xlink="http://www.w3.org/1999/xlink">
    <!-- Generator: Sketch 56.1 (81669) - https://sketch.com -->
    <title>Photo stock</title>
    <desc>Created with Sketch.</desc>
    <defs>
        <rect id="path-1" x="1.70530257e-13" y="-2.55795385e-13" width="525" height="262.666667" rx="4"></rect>
        <path d="M21,63.2440381 C18.6696153,64.067711 17,66.2901891 17,68.9026267 L17,99.9026267 C17,102.515064 18.6696153,104.737543 21,105.561215 L21,118.274267 C21,124.073257 16.2989899,128.774267 10.5,128.774267 C4.70101013,128.774267 7.10171439e-16,124.073257 0,118.274267 L0,0.774267196 L21,0.774267196 L21,63.2440381 Z" id="path-3"></path>
    </defs>
    <g id="Photo-stock" stroke="none" stroke-width="1" fill="none" fill-rule="evenodd">
        <g id="Group" transform="translate(344.000000, 103.000000)">
            <g id="UI-/-Content-/-Gallery-/-1" transform="translate(570.000000, 0.000000)">
                <g id="Gallery">
                    <g>
                        <g id="Browser" fill-rule="nonzero">
                            <g id="Background" transform="translate(0.000000, 29.000000)" fill="#F2F6FB">
                                <path d="M6,0 L512,0 C515.313708,-6.08718376e-16 518,2.6862915 518,6 L518,354 C518,357.313708 515.313708,360 512,360 L6,360 C2.6862915,360 4.05812251e-16,357.313708 0,354 L0,6 C-4.05812251e-16,2.6862915 2.6862915,6.08718376e-16 6,0 Z"></path>
                            </g>
                            <path d="M0,20.0043947 C0,8.95627257 8.96355497,0 20.0085869,0 L497.991413,0 C509.04185,0 518,8.95709143 518,20.0043947 L518,44 L0,44 L0,20.0043947 Z" id="Top-bar" fill="#D8DEED"></path>
                            <ellipse id="Burron" fill="#FF5645" cx="30.1400394" cy="22.5" rx="9.7061144" ry="9.5"></ellipse>
                            <ellipse id="Burron" fill="#FFCB3D" cx="61.8126233" cy="22.5" rx="9.7061144" ry="9.5"></ellipse>
                            <ellipse id="Burron" fill="#3ABF7C" cx="94.5069034" cy="22.5" rx="9.7061144" ry="9.5"></ellipse>
                        </g>
                        <g id="Image" transform="translate(30.609091, 87.303030)" fill-rule="nonzero">
                            <g id="Image-1">
                                <g transform="translate(0.000000, 0.000000)">
                                    <path d="M-4.40536496e-13,4.0069687 C-4.40536496e-13,1.793981 1.78920808,1.56319402e-13 3.99474223,1.56319402e-13 L132.568894,1.56319402e-13 C134.775129,1.56319402e-13 136.563636,1.78616404 136.563636,4.0069687 L136.563636,147.993031 C136.563636,150.206019 134.774428,152 132.568894,152 L3.99474223,152 C1.78850702,152 -4.40536496e-13,150.213836 -4.40536496e-13,147.993031 L-4.40536496e-13,4.0069687 Z M160.109091,130.673635 C160.109091,128.460648 161.898299,126.666667 164.103833,126.666667 L292.677985,126.666667 C294.88422,126.666667 296.672727,128.452831 296.672727,130.673635 L296.672727,274.659698 C296.672727,276.872686 294.883519,278.666667 292.677985,278.666667 L164.103833,278.666667 C161.897598,278.666667 160.109091,276.880503 160.109091,274.659698 L160.109091,130.673635 Z M320.218182,4.0069687 C320.218182,1.793981 322.00739,1.56319402e-13 324.212924,1.56319402e-13 L452.787076,1.56319402e-13 C454.993311,1.56319402e-13 456.781818,1.78616404 456.781818,4.0069687 L456.781818,147.993031 C456.781818,150.206019 454.99261,152 452.787076,152 L324.212924,152 C322.006689,152 320.218182,150.213836 320.218182,147.993031 L320.218182,4.0069687 Z M320.218182,179.029469 C320.218182,176.820791 322.00739,175.030303 324.212924,175.030303 L452.787076,175.030303 C454.993311,175.030303 456.781818,176.829106 456.781818,179.029469 L456.781818,274.6675 C456.781818,276.876179 454.99261,278.666667 452.787076,278.666667 L324.212924,278.666667 C322.006689,278.666667 320.218182,276.867864 320.218182,274.6675 L320.218182,179.029469 Z M-4.40536496e-13,179.029469 C-4.40536496e-13,176.820791 1.78920808,175.030303 3.99474223,175.030303 L132.568894,175.030303 C134.775129,175.030303 136.563636,176.829106 136.563636,179.029469 L136.563636,274.6675 C136.563636,276.876179 134.774428,278.666667 132.568894,278.666667 L3.99474223,278.666667 C1.78850702,278.666667 -4.40536496e-13,276.867864 -4.40536496e-13,274.6675 L-4.40536496e-13,179.029469 Z M160.109091,3.99916638 C160.109091,1.79048778 161.898299,1.3500312e-13 164.103833,1.3500312e-13 L292.677985,1.3500312e-13 C294.88422,1.3500312e-13 296.672727,1.79880316 296.672727,3.99916638 L296.672727,99.6371973 C296.672727,101.845876 294.883519,103.636364 292.677985,103.636364 L164.103833,103.636364 C161.897598,103.636364 160.109091,101.83756 160.109091,99.6371973 L160.109091,3.99916638 Z" id="Combined-Shape" fill="#E1E5F0"></path>
                                    <g id="Icons-/-Mountains" transform="translate(34.069989, 29.272727)" fill="#F2F6FB">
                                        <path d="M40.8876191,69.6968188 L37.9697889,69.7288774 L37.9922996,69.6968188 L1.26304581,69.6968188 C0.155172133,69.6968188 -0.221919156,68.9563159 0.404629359,68.0658261 L26.0542718,31.6109555 C26.6880552,30.710183 27.7387452,30.6994154 28.3969682,31.5820139 L47.0413788,56.8096068 L53.9778034,46.931124 C54.6143685,46.0245621 55.6839475,46.0012512 56.3582879,46.8681474 L72.398271,67.4882937 C73.0764112,68.3600746 72.7335785,69.0912606 71.6288382,69.1215447 L57.1688081,69.5179354 L55.9766855,69.5310334 L56.0889219,69.6968188 C56.0889219,69.6968188 55.1962291,69.6968188 54.0829392,69.6968188 L40.8876191,69.6968188 Z M55.7314305,36.8489658 C52.3758201,36.8489658 49.6555604,34.4203421 49.6555604,31.4244829 C49.6555604,28.4286237 52.3758201,26 55.7314305,26 C59.087041,26 61.8073007,28.4286237 61.8073007,31.4244829 C61.8073007,34.4203421 59.087041,36.8489658 55.7314305,36.8489658 Z M197.59671,196.363485 L194.67888,196.395544 L194.701391,196.363485 L157.972137,196.363485 C156.864263,196.363485 156.487172,195.622983 157.11372,194.732493 L182.763363,158.277622 C183.397146,157.37685 184.447836,157.366082 185.106059,158.248681 L203.75047,183.476273 L210.686894,173.597791 C211.323459,172.691229 212.393038,172.667918 213.067379,173.534814 L229.107362,194.15496 C229.785502,195.026741 229.442669,195.757927 228.337929,195.788211 L213.877899,196.184602 L212.685776,196.1977 L212.798013,196.363485 C212.798013,196.363485 211.90532,196.363485 210.79203,196.363485 L197.59671,196.363485 Z M212.440521,163.515632 C209.084911,163.515632 206.364651,161.087009 206.364651,158.09115 C206.364651,155.09529 209.084911,152.666667 212.440521,152.666667 C215.796132,152.666667 218.516392,155.09529 218.516392,158.09115 C218.516392,161.087009 215.796132,163.515632 212.440521,163.515632 Z M354.305801,69.6968188 L351.387971,69.7288774 L351.410481,69.6968188 L314.681228,69.6968188 C313.573354,69.6968188 313.196263,68.9563159 313.822811,68.0658261 L339.472454,31.6109555 C340.106237,30.710183 341.156927,30.6994154 341.81515,31.5820139 L360.459561,56.8096068 L367.395985,46.931124 C368.03255,46.0245621 369.102129,46.0012512 369.77647,46.8681474 L385.816453,67.4882937 C386.494593,68.3600746 386.15176,69.0912606 385.04702,69.1215447 L370.58699,69.5179354 L369.394867,69.5310334 L369.507104,69.6968188 C369.507104,69.6968188 368.614411,69.6968188 367.501121,69.6968188 L354.305801,69.6968188 Z M369.149612,36.8489658 C365.794002,36.8489658 363.073742,34.4203421 363.073742,31.4244829 C363.073742,28.4286237 365.794002,26 369.149612,26 C372.505223,26 375.225482,28.4286237 375.225482,31.4244829 C375.225482,34.4203421 372.505223,36.8489658 369.149612,36.8489658 Z M354.305801,219.393789 L351.387971,219.425847 L351.410481,219.393789 L314.681228,219.393789 C313.573354,219.393789 313.196263,218.653286 313.822811,217.762796 L339.472454,181.307925 C340.106237,180.407153 341.156927,180.396385 341.81515,181.278984 L360.459561,206.506576 L367.395985,196.628094 C368.03255,195.721532 369.102129,195.698221 369.77647,196.565117 L385.816453,217.185263 C386.494593,218.057044 386.15176,218.78823 385.04702,218.818514 L370.58699,219.214905 L369.394867,219.228003 L369.507104,219.393789 C369.507104,219.393789 368.614411,219.393789 367.501121,219.393789 L354.305801,219.393789 Z M369.149612,186.545936 C365.794002,186.545936 363.073742,184.117312 363.073742,181.121453 C363.073742,178.125593 365.794002,175.69697 369.149612,175.69697 C372.505223,175.69697 375.225482,178.125593 375.225482,181.121453 C375.225482,184.117312 372.505223,186.545936 369.149612,186.545936 Z M40.8876191,219.393789 L37.9697889,219.425847 L37.9922996,219.393789 L1.26304581,219.393789 C0.155172133,219.393789 -0.221919156,218.653286 0.404629359,217.762796 L26.0542718,181.307925 C26.6880552,180.407153 27.7387452,180.396385 28.3969682,181.278984 L47.0413788,206.506576 L53.9778034,196.628094 C54.6143685,195.721532 55.6839475,195.698221 56.3582879,196.565117 L72.398271,217.185263 C73.0764112,218.057044 72.7335785,218.78823 71.6288382,218.818514 L57.1688081,219.214905 L55.9766855,219.228003 L56.0889219,219.393789 C56.0889219,219.393789 55.1962291,219.393789 54.0829392,219.393789 L40.8876191,219.393789 Z M55.7314305,186.545936 C52.3758201,186.545936 49.6555604,184.117312 49.6555604,181.121453 C49.6555604,178.125593 52.3758201,175.69697 55.7314305,175.69697 C59.087041,175.69697 61.8073007,178.125593 61.8073007,181.121453 C61.8073007,184.117312 59.087041,186.545936 55.7314305,186.545936 Z M197.59671,44.3634855 L194.67888,44.395544 L194.701391,44.3634855 L157.972137,44.3634855 C156.864263,44.3634855 156.487172,43.6229825 157.11372,42.7324927 L182.763363,6.27762212 C183.397146,5.37684971 184.447836,5.36608206 185.106059,6.2486806 L203.75047,31.4762735 L210.686894,21.5977906 C211.323459,20.6912288 212.393038,20.6679179 213.067379,21.534814 L229.107362,42.1549604 C229.785502,43.0267412 229.442669,43.7579272 228.337929,43.7882113 L213.877899,44.1846021 L212.685776,44.1977001 L212.798013,44.3634855 C212.798013,44.3634855 211.90532,44.3634855 210.79203,44.3634855 L197.59671,44.3634855 Z M212.440521,11.5156325 C209.084911,11.5156325 206.364651,9.08700877 206.364651,6.09114958 C206.364651,3.09529039 209.084911,0.666666667 212.440521,0.666666667 C215.796132,0.666666667 218.516392,3.09529039 218.516392,6.09114958 C218.516392,9.08700877 215.796132,11.5156325 212.440521,11.5156325 Z" id="Combined-Shape"></path>
                                    </g>
                                </g>
                            </g>
                        </g>
                        <g id="Image" transform="translate(224.434158, 268.969697)">
                            <g id="Image-1">
                                <g>
                                    <g id="Icons-/-Mountains" transform="translate(0.354013, 0.272727)"></g>
                                </g>
                            </g>
                        </g>
                        <g id="Image" transform="translate(384.543249, 142.303030)">
                            <g id="Image-1">
                                <g>
                                    <g id="Icons-/-Mountains" transform="translate(0.354013, 0.272727)"></g>
                                </g>
                            </g>
                        </g>
                        <g id="Image" transform="translate(384.543249, 291.333333)">
                            <g id="Image-1">
                                <g>
                                    <g id="Icons-/-Mountains" transform="translate(0.354013, 0.939394)"></g>
                                </g>
                            </g>
                        </g>
                        <g id="Image" transform="translate(64.325067, 291.333333)">
                            <g id="Image-1">
                                <g>
                                    <g id="Icons-/-Mountains" transform="translate(0.354013, 0.939394)"></g>
                                </g>
                            </g>
                        </g>
                        <g id="Image" transform="translate(224.434158, 116.303030)">
                            <g id="Image-1">
                                <g>
                                    <g id="Icons-/-Mountains" transform="translate(0.354013, 0.939394)"></g>
                                </g>
                            </g>
                        </g>
                    </g>
                </g>
            </g>
            <g id="Interior-/-Chair-/-Chair-1" transform="translate(511.000000, 478.145455)" fill="#D8DEED">
                <g id="Chair-">
                    <path d="M294.7,293.613218 L294.7,293.8 C294.7,296.2 292.6,298.2 290.2,298.2 L214.698496,298.2 L241.3,347 C260.3,381.8 279.2,416.5 298.1,451.3 L329.4,508.7 C330.5,510.7 329.6,513.3 327.5,514.5 L327.1,514.7 C325,515.9 322.3,515.2 321.3,513.3 L204.2,298.2 L126.2,298.2 L9.1,513.3 C8.1,515.2 5.4,515.8 3.3,514.7 L2.9,514.5 C0.8,513.3 -0.1,510.7 1,508.7 L32.3,451.3 C51.3,416.5 70.2,381.8 89.1,347 L115.701504,298.2 L15.6,298.2 C13.1,298.2 11.1,296.2 11.1,293.8 L11.1,293.3 C11.1,290.9 13.2,288.9 15.6,288.9 L83.6,288.9 C127.9,288.9 172.3,288.9 216.7,288.9 L285.870787,288.9 L294.3,220.7 C300.1,174.3 305.8,127.8 311.6,81.3 L321.1,4.5 C321.4,1.8 323.7,-0.2 326.2,0.1 L326.7,0.2 C329.1,0.5 330.8,3 330.5,5.5 L294.8,293.1 C294.77408,293.274961 294.740601,293.446142 294.7,293.613218 Z" id="Combined-Shape" fill-rule="nonzero"></path>
                </g>
            </g>
            <g id="UI-/-E-commerce-/-Stock-photo-/-1">
                <g id="Stock-photo" transform="translate(0.000000, 0.000000)">
                    <g id="Browser" transform="translate(0.000000, 0.000000)" fill="#F2F6FB" fill-rule="nonzero">
                        <g id="Background">
                            <rect x="0" y="0" width="525" height="386" rx="20"></rect>
                        </g>
                    </g>
                    <g id="Image" transform="translate(0.000000, 41.757576)">
                        <g id="Image-1">
                            <g transform="translate(0.000000, 0.000000)">
                                <rect id="Placeholder" fill="#E1E5F0" fill-rule="nonzero" x="0" y="0" width="525" height="262.666667" rx="4"></rect>
                                <rect id="Placeholder" fill="#E1E5F0" fill-rule="nonzero" x="0" y="0" width="525" height="262.666667" rx="4"></rect>
                                <g id="Group-6" transform="translate(0.000000, 0.242424)">
                                    <mask id="mask-2" fill="white">
                                        <use xlink:href="#path-1"></use>
                                    </mask>
                                    <use id="Mask" fill="#E1E5F0" fill-rule="nonzero" xlink:href="#path-1"></use>
                                    <g mask="url(#mask-2)">
                                        <g transform="translate(0.000000, 7.757576)">
                                            <rect id="Placeholder" fill="#A339FF" fill-rule="nonzero" x="0" y="188.909091" width="525" height="68" rx="4"></rect>
                                            <g id="Group-5" stroke-width="1" fill="none" fill-rule="evenodd" transform="translate(29.000000, 0.242424)">
                                                <path d="M211.469389,282.236006 C223.238149,288.50392 230,292.87164 230,292.87164 L206.252984,292.751494 L205.068364,295.13951 C203.451388,294.31263 201.873909,293.506646 200.335927,292.721556 L199.61751,292.717922 C199.671553,293.893472 199.724939,295.078045 199.777669,296.27164 L189.547363,292.666972 L161.823937,292.526707 C148.440437,302.586826 67.9251835,295.208601 48.3911303,291.952799 L32.3501271,291.87164 C-27.085012,298.87164 13.5663803,171.47164 13.5663803,171.47164 C22.533764,145.585468 29.9133299,129.153145 35.7050781,122.174671 C45.8511497,109.949675 63.8160721,107.486468 74.2573106,107.005638 C87.6285164,104.282758 119.676938,108.768069 126.404607,110.570126 C127.224252,110.795702 128.071121,111.02781 128.940481,111.269244 C128.911603,111.21197 128.882707,111.15468 128.853793,111.097373 C145.078966,110.681966 158.249169,118.17283 168.364404,133.569965 C172.4447,139.78088 178.37465,168.875977 185.600098,182.029893 C188.083362,186.550673 190.30013,194.734722 192.250401,206.58204 C195.722633,200.94472 199.4462,194.895093 203.421103,188.433158 C204.289186,187.021912 206.136949,186.581602 207.54819,187.449693 C207.581092,187.469932 207.613601,187.490804 207.645697,187.512299 L243.598717,211.589786 C244.850849,212.42833 245.286585,214.065631 244.616891,215.415631 L211.469389,282.236006 Z" id="Combined-Shape" fill="#FFFFFF"></path>
                                                <path d="M92.5152545,107.490935 C101.549702,196.878072 106.066925,241.57164 106.066925,241.57164 C106.066925,241.57164 121.805691,246.570711 153.283221,256.568851 L127.705313,111.554304 L92.5152545,107.490935 Z" id="Path-36" fill="#D8DEED" fill-rule="nonzero"></path>
                                                <g id="Combined-Shape" transform="translate(82.853793, 6.097373)" fill="#DB9E75" fill-rule="nonzero">
                                                    <path d="M191.985237,188.189773 C191.140031,188.644576 190.173254,188.902627 189.146207,188.902627 C188.949607,188.902627 188.755216,188.893171 188.563464,188.87469 L187.146207,189.158374 L187.146207,188.561215 C184.815822,187.737543 183.146207,185.515064 183.146207,182.902627 L183.146207,151.902627 C183.146207,149.290189 184.815822,147.067711 187.146207,146.244038 L187.146207,145.850821 L195.907874,144.091296 C199.124199,143.490067 202.090719,146.186056 202.466981,150.152189 L202.852797,153.679899 C203.032941,155.866306 202.415937,157.93124 201.307059,159.493789 C201.965317,160.49726 202.381729,161.764579 202.464954,163.209457 L202.852442,166.734692 C203.051589,169.136221 202.287502,171.390447 200.965379,172.992172 C201.224495,173.684383 201.397506,174.447802 201.465371,175.267275 L201.852516,178.793018 C202.191821,182.890142 199.72844,186.558975 196.473759,187.291331 L191.985237,188.189773 Z M166.146207,192.740189 L166.146207,193.361826 L165.89091,193.412927 C164.394855,197.348485 162.781978,201.474138 161.052279,205.789887 C160.959275,205.70936 160.86041,205.633769 160.755851,205.563746 L124.800075,181.484413 C124.769717,181.464083 124.73899,181.444309 124.70791,181.425101 C124.591414,181.353104 124.471917,181.290041 124.350218,181.235721 L136.070035,162.503322 C170.059618,132.930235 184.069709,130.725416 178.100308,155.888864 C175.859435,165.335053 171.874734,177.618828 166.146207,192.740189 Z M43.6874105,86.9433077 L44.8515192,105.456931 L34.9206206,113.965185 C18.0811809,105.584103 9.66146103,101.393562 9.66146103,101.393562 C9.66146103,101.393562 9.66146103,88.7137367 9.66146103,63.3540866 C6.42773144,59.7413843 3.79794914,56.4116141 2.71678921,54.2336134 C0.531437913,49.9076176 -0.303971757,41.1286366 0.646206533,35.9260256 C0.961276822,33.7904389 8.17911451,27.3400654 12.7516753,24.5308505 C17.1249971,21.7390668 26.3816815,30.8829065 27.3305501,31.4021832 L26.4940357,5.77758085 C26.454206,4.17495376 27.6359566,2.76659819 29.3382032,2.7180529 C32.8336002,2.51262727 36.3115661,2.1079627 40.0273813,0.979815117 C40.4258592,0.94495282 40.8156215,0.810471053 41.2140994,0.775608756 C44.5750146,0.180420821 63.5238932,-2.38082909 74.5242128,10.9110093 C75.5253749,12.0280028 76.4356331,13.2533313 77.2724186,14.7862338 C79.0891869,18.3414206 80.1351462,22.2651904 80.1849107,26.2761159 L80.3416104,44.1303995 C80.2992518,45.9409811 80.1572737,47.7602783 79.9069606,49.4886716 C78.1161583,62.2934765 74.3317474,72.9639138 69.9172862,79.8749581 C66.658429,85.0787884 62.9176863,88.2167565 59.4397204,88.6214211 C58.4522413,88.8081963 53.0640743,89.1792178 46.6224518,87.8355291 C46.2022028,87.7351407 46.3137281,87.8224783 43.6874105,86.9433077 Z" id="Skin"></path>
                                                </g>
                                                <path d="M68.222404,239.5507 C68.0528309,239.571151 67.8527057,239.596492 67.6240637,239.627082 C66.7140838,239.748829 65.6979339,239.90945 64.6026725,240.113599 C61.4765494,240.696284 58.3524654,241.508653 55.4501461,242.583955 C53.7368712,243.218718 52.1523619,243.928108 50.7228781,244.714324 C49.9969971,245.113558 49.0849107,244.848759 48.6856761,244.122878 C48.2864416,243.396997 48.5512408,242.484911 49.2771219,242.085676 C50.843965,241.223912 52.5622794,240.454618 54.4078888,239.770825 C57.4866244,238.630161 60.7708134,237.776159 64.0529634,237.164392 C65.2005976,236.950482 66.2671364,236.781896 67.2262362,236.653577 C67.4138771,236.628473 67.5901184,236.605904 67.7543921,236.585766 L92.9406141,160.532231 C93.2010501,159.745806 94.0496988,159.319407 94.836124,159.579843 C95.6225492,159.840279 96.0489476,160.688928 95.7885116,161.475353 L70.8382464,236.816381 C106.690618,239.621183 143.242466,250.085295 178.827069,265.740738 C193.050064,271.998143 206.134183,278.664853 217.784184,285.307831 C221.864055,287.634225 225.474212,289.792151 228.577684,291.727505 C229.665609,292.405945 230.612964,293.008436 231.415124,293.528214 C231.696801,293.710733 231.940442,293.870035 232.145469,294.005277 C232.269743,294.087252 232.354244,294.143473 232.398395,294.173096 C233.086323,294.634666 233.269823,295.566518 232.808254,296.254446 C232.346685,296.942374 231.414833,297.125874 230.726905,296.664305 C230.569865,296.558939 230.253932,296.35054 229.783749,296.045874 C228.996005,295.535437 228.063284,294.942254 226.990233,294.27309 C223.919488,292.358144 220.343066,290.220383 216.298157,287.913925 C204.734502,281.320183 191.742092,274.700201 177.618968,268.486734 C141.689839,252.679716 104.787944,242.214061 68.7043429,239.66583 C68.5324254,239.653689 68.3706296,239.613597 68.222404,239.5507 Z M186.608121,216.868543 C187.063059,216.176211 187.993104,215.983765 188.685436,216.438703 C189.377768,216.893641 189.570213,217.823686 189.115276,218.516018 C189.073961,218.578891 189.073961,218.578891 188.876806,218.879295 C188.682194,219.175921 188.456508,219.520205 188.202381,219.908235 C187.47619,221.017063 186.66779,222.25396 185.798228,223.587631 C183.313908,227.397906 180.837383,231.219991 178.537207,234.803286 C178.300247,235.172516 178.300247,235.172516 178.063557,235.541684 C174.561523,241.005189 171.840712,245.339268 170.176304,248.133605 C169.752367,248.845342 168.831722,249.07865 168.119985,248.654713 C167.408248,248.230777 167.17494,247.310132 167.598876,246.598395 C169.284714,243.768082 172.019113,239.412358 175.537875,233.922755 C175.775109,233.552739 175.775109,233.552739 176.012592,233.182694 C178.317055,229.592721 180.797288,225.764912 183.285203,221.949124 C184.155924,220.613674 184.965435,219.375079 185.692704,218.264604 C185.947287,217.875878 186.17342,217.530912 186.368473,217.233614 C186.566242,216.932274 186.566242,216.932274 186.608121,216.868543 Z" id="Combined-Shape" fill="#482D1F" fill-rule="nonzero"></path>
                                                <g id="Rectangle" transform="translate(249.000000, 89.097373)">
                                                    <mask id="mask-4" fill="white">
                                                        <use xlink:href="#path-3"></use>
                                                    </mask>
                                                    <use id="Combined-Shape" fill="#FFFFFF" xlink:href="#path-3"></use>
                                                    <path d="M17,74.7742672 L17,99.9026267 C17,103.216335 19.6862915,105.902627 23,105.902627 C26.3137085,105.902627 29,103.216335 29,99.9026267 L29,87.338447 L29,132.774267 L-11,132.774267 L-11,74.7742672 L17,74.7742672 Z" id="Chemistry" fill="#3ABF7C" fill-rule="nonzero" mask="url(#mask-4)"></path>
                                                </g>
                                                <g id="Group-2" transform="translate(120.666115, 55.441384) rotate(-5.000000) translate(-120.666115, -55.441384) translate(59.666115, 5.941384)" fill="#482D1F" fill-rule="nonzero">
                                                    <path d="M63.6722482,87.4106327 L63.3213794,98.4913096 L49.3218479,80.9128999 L63.6722482,87.4106327 Z M97.8855721,54.0995963 C98.2890174,52.9303094 99.5628912,52.1383211 100.740894,52.4421469 C101.529134,52.611491 102.074557,53.2615012 102.251398,54.6823205 C102.245211,58.1951487 98.0761858,62.2472136 97.1633987,60.0593334 C96.4797454,58.6945557 97.3302139,55.8578845 97.8855721,54.0995963 Z M76.3949156,49.4719048 C76.7983609,48.3026179 78.0722347,47.5106296 79.2502372,47.8144554 C80.0384774,47.9837995 80.5839008,48.6338097 80.7607411,50.054629 C80.7545544,53.5674572 76.5855293,57.6195221 75.6727422,55.4316419 C74.9890889,54.0668642 75.8395574,51.230193 76.3949156,49.4719048 Z M90.334633,54.2148792 C90.3772638,53.6642422 90.8582024,53.2524219 91.4088438,53.2950019 C91.9594763,53.3376836 92.3712966,53.8186221 92.3286562,54.3692582 L91.5559062,64.3498864 C91.4554779,65.4977874 90.3204351,66.4502014 89.1725352,66.3497731 C88.5504141,66.2953446 87.9405209,66.2022956 87.0207732,66.0313731 C86.84957,65.9995574 86.671843,65.9659327 86.41696,65.9172883 C86.0988229,65.8564813 85.9262938,65.8235288 85.7611119,65.792172 C85.1992114,65.6855055 84.7352269,65.5999765 84.2400711,65.5129367 C83.6961262,65.4173208 83.3326839,64.8988542 83.4282998,64.3549094 C83.5239158,63.8109645 84.0423823,63.4475221 84.5863272,63.5431381 C85.0915613,63.6319494 85.5640108,63.7190388 86.1341142,63.8272625 C86.3005877,63.8588645 86.4744487,63.8920714 86.7918924,63.9527462 C87.0438663,64.0008354 87.218835,64.0339382 87.3861895,64.0650387 C88.2480022,64.2251948 88.8019968,64.3097156 89.3468466,64.3573837 C89.3943803,64.3615424 89.5593581,64.2231096 89.562695,64.1855418 L90.334633,54.2148792 Z M81.8455819,70.9286109 C81.1743923,70.5687435 79.5505859,69.623623 79.5381222,68.6187127 C79.5555533,68.4194738 79.4820806,68.1118998 79.6900351,68.0297115 C80.2317103,67.575192 81.3835661,68.1778762 83.1331387,68.8328539 C86.2512371,69.9087081 88.8239122,70.3345519 88.8239122,70.3345519 C88.8239122,70.3345519 87.6882683,71.8413077 87.0556892,72.1874921 C85.7556687,73.2783389 82.7981987,71.513864 81.8455819,70.9286109 Z" id="Combined-Shape"></path>
                                                    <path d="M45.5788326,56.8018653 C43.8402254,67.4987259 34.5593896,75.6646443 23.3713013,75.6646443 C10.9448944,75.6646443 0.871301287,65.5910512 0.871301287,53.1646443 C0.871301287,45.2933349 4.91321682,38.3660655 11.034748,34.3451359 C11.0303702,34.3011191 11.02607,34.2570404 11.0218479,34.2128999 C10.7218479,30.4128999 9.52184786,17.5128999 18.1218479,8.01289988 C21.1218479,4.71289988 24.5218479,3.11289988 25.9218479,2.41289988 C33.8218479,-1.08710012 39.6218479,1.01289988 54.8218479,1.31289988 C56.0218479,1.31289988 58.0218479,1.41289988 60.6218479,1.31289988 C65.3218479,1.21289988 68.6218479,1.01289988 69.5218479,1.01289988 C77.0218479,0.712899878 93.3218479,3.01289988 100.521848,14.1128999 C100.921848,14.7128999 92.9345823,10.5619757 78.5490021,18.0314115 C64.1634219,25.5008474 61.3218479,31.2128999 53.7218479,38.4128999 C53.3372386,38.8895987 52.9315014,39.4094336 52.508054,39.9663323 L52.4218479,38.1128999 C52.4218479,38.1128999 52.0218479,34.5128999 49.5218479,30.9128999 C49.3218479,30.7128999 47.6218479,28.5128999 45.0218479,27.4128999 C40.3218479,25.6128999 34.1218479,27.7128999 30.7218479,32.0128999 C27.1218479,36.4128999 27.1218479,42.3128999 29.0218479,46.8128999 C30.9218479,51.3128999 34.6218479,53.4128999 35.9218479,54.0128999 C36.753589,54.3967804 39.9725839,55.3264355 45.5788326,56.8018653 Z" id="Hair"></path>
                                                    <g id="Group" transform="translate(85.096958, 53.270525) rotate(5.000000) translate(-85.096958, -53.270525) translate(50.096958, 36.270525)">
                                                        <path d="M10.7448447,10.1379834 L0.999460935,6.68829005 C0.218517674,6.41184996 -0.190462951,5.55467139 0.0859771415,4.77372813 C0.362417234,3.99278487 1.2195958,3.58380425 2.00053906,3.86024434 L12.0708314,7.4249496 C14.5835508,3.42957311 19.0316854,0.774267196 24.1,0.774267196 C31.9424434,0.774267196 38.3,7.13182375 38.3,14.9742672 C38.3,15.1615807 38.2963732,15.3480472 38.2891859,15.5336001 L41.3109853,15.9046983 C42.6762857,9.48779947 48.3760125,4.6742672 55.2,4.6742672 C63.0424434,4.6742672 69.4,11.0318237 69.4,18.8742672 C69.4,26.7167106 63.0424434,33.0742672 55.2,33.0742672 C47.3624833,33.0742672 41.0079885,26.724696 41.0000075,18.8890457 L37.8580453,18.5031907 C36.2890358,24.6384387 30.7242177,29.1742672 24.1,29.1742672 C16.2575566,29.1742672 9.9,22.8167106 9.9,14.9742672 C9.9,13.2760543 10.1981067,11.6474679 10.7448447,10.1379834 Z M13.9450535,10.243839 C13.2744981,11.680886 12.9,13.2838422 12.9,14.9742672 C12.9,21.1598564 17.9144108,26.1742672 24.1,26.1742672 C30.2855892,26.1742672 35.3,21.1598564 35.3,14.9742672 C35.3,8.788678 30.2855892,3.7742672 24.1,3.7742672 C19.8530174,3.7742672 16.1581401,6.13811069 14.2592949,9.62187077 C14.2470378,9.67305083 14.2319758,9.72408931 14.2140229,9.77480626 C14.1515217,9.95137213 14.0593342,10.108924 13.9450535,10.243839 Z M44.0319575,18.0217931 C44.0107802,18.3031779 44,18.5874636 44,18.8742672 C44,25.0598564 49.0144108,30.0742672 55.2,30.0742672 C61.3855892,30.0742672 66.4,25.0598564 66.4,18.8742672 C66.4,12.688678 61.3855892,7.6742672 55.2,7.6742672 C49.5054871,7.6742672 44.8035738,11.924091 44.0928919,17.4251066 C44.1036117,17.533409 44.1026358,17.6445651 44.0888152,17.7571041 C44.0775946,17.8484718 44.0583797,17.9369064 44.0319575,18.0217931 Z" id="Combined-Shape"></path>
                                                    </g>
                                                </g>
                                            </g>
                                        </g>
                                    </g>
                                </g>
                            </g>
                        </g>
                        <g id="Microscope" transform="translate(357.000000, 39.242424)" fill-rule="nonzero">
                            <path d="M68.2014403,61.3622157 L58.0740124,58.2659503 C57.0177073,57.9430054 56.4232014,56.8249024 56.7461463,55.7685974 L69.7108305,13.363026 C70.0337754,12.3067209 71.1518784,11.712215 72.2081834,12.0351599 L85.3656178,16.0577913 C86.4219229,16.3807361 87.0164288,17.4988391 86.6934839,18.5551442 L75.6614444,54.6393197 L90.8774325,59.185598 C104.940349,108.818644 105.647871,139.590111 93,151.5 C81.7096696,162.131558 79.6109441,172.631558 86.7038235,183 L102,183 C103.104569,183 104,183.895431 104,185 L104,196 C104,197.104569 103.104569,198 102,198 L2,198 C0.8954305,198 1.3527075e-16,197.104569 0,196 L0,185 C-1.3527075e-16,183.895431 0.8954305,183 2,183 L26.1604459,183 C32.4332834,176.299722 43.3864666,161.33061 59.0199956,138.092664 L18.4326471,127.200484 C14.4397416,126.128932 12.0706796,122.02428 13.1402508,118.030843 C14.2091365,114.039967 18.3108843,111.671225 22.301761,112.740111 C22.3029556,112.74043 22.3041502,112.740751 22.3053448,112.741071 L85.1123326,129.596201 C85.1921335,129.617617 85.2712857,129.640244 85.3497748,129.664057 C86.0119522,128.648037 86.3430409,127.329059 86.3430409,125.707125 C86.3430409,115.891383 91.6342448,82.8409547 81.6750321,78.9455484 C75.035557,76.3486108 69.5897372,74.5327888 65.3375728,73.4980824 L68.2014403,61.3622157 Z M51.6153877,79.3316904 L64.7728221,83.3543218 C65.8291271,83.6772667 66.423633,84.7953696 66.1006882,85.8516747 L62.3529755,98.1098906 C60.9192116,102.799521 55.9552199,105.438922 51.2655897,104.005158 C46.5759594,102.571394 43.9365582,97.6074027 45.370322,92.9177724 L49.1180348,80.6595565 C49.4409796,79.6032514 50.5590826,79.0087455 51.6153877,79.3316904 Z" id="Combined-Shape" fill="#474961"></path>
                            <circle id="Oval" fill="#F2F6FB" cx="79.5" cy="56.5" r="13.5"></circle>
                            <path d="M65.2851515,83.7194545 C65.1939973,83.6754811 65.0983385,83.6378804 64.9985591,83.6073748 L51.8411247,79.5847434 C51.5498019,79.4956771 51.2537785,79.4763943 50.9710315,79.5173366 L57.6383951,57.7093729 C57.7258202,57.7508094 57.8173365,57.7864059 57.9126095,57.8155338 L71.0700439,61.8381652 C71.3664756,61.9287935 71.6677741,61.9471691 71.9550002,61.9033625 L65.2851515,83.7194545 Z M85.9743348,16.0481851 C85.76071,15.8512529 85.5006467,15.6980031 85.204215,15.6073748 L72.0467806,11.5847434 C71.9515075,11.5556155 71.8557318,11.5339512 71.7600821,11.519416 L74.810841,1.54083329 C75.1337859,0.484528226 76.2518889,-0.109977679 77.3081939,0.212967189 L87.7484038,3.40485966 C88.8047088,3.72780453 89.3992147,4.84590752 89.0762699,5.90221258 L85.9743348,16.0481851 Z" id="Combined-Shape" fill="#F2F6FB"></path>
                        </g>
                    </g>
                    <g id="Text" transform="translate(28.863636, 330.527273)" fill="#E1E5F0" fill-rule="nonzero">
                        <rect id="Rectangle" x="0.136363636" y="0.472727273" width="260.113636" height="19.1030303" rx="2"></rect>
                    </g>
                    <g id="Button" transform="translate(379.000000, 323.000000)" fill="#474BFF" fill-rule="nonzero">
                        <g>
                            <path d="M17.0797572,-3.82045197e-16 L85.9202428,3.82045197e-16 C90.0273752,-3.7242278e-16 92.8818983,0.696192084 95.3263428,2.00349528 C97.7707872,3.31079847 99.6892015,5.22921278 100.996505,7.67365722 C102.303808,10.1181017 103,12.9726248 103,17.0797572 L103,18.9202428 C103,23.0273752 102.303808,25.8818983 100.996505,28.3263428 C99.6892015,30.7707872 97.7707872,32.6892015 95.3263428,33.9965047 C92.8818983,35.3038079 90.0273752,36 85.9202428,36 L17.0797572,36 C12.9726248,36 10.1181017,35.3038079 7.67365722,33.9965047 C5.22921278,32.6892015 3.31079847,30.7707872 2.00349528,28.3263428 C0.696192084,25.8818983 2.48281853e-16,23.0273752 -2.54696798e-16,18.9202428 L7.00649228e-16,17.0797572 C-6.83002261e-16,12.9726248 0.696192084,10.1181017 2.00349528,7.67365722 C3.31079847,5.22921278 5.22921278,3.31079847 7.67365722,2.00349528 C10.1181017,0.696192084 12.9726248,3.7242278e-16 17.0797572,-3.82045197e-16 Z"></path>
                        </g>
                    </g>
                </g>
            </g>
            <g id="Characters-sitting-/-Woman-sitting/-11" transform="translate(354.000000, 236.000000)">
                <g id="Woman" transform="translate(243.500000, 432.500000) scale(-1, 1) translate(-243.500000, -432.500000) translate(36.000000, 102.000000)">
                    <g id="Legs" transform="translate(13.396627, 281.444518)" fill-rule="nonzero">
                        <path d="M136.500896,362.174768 L190.536052,363.117955 C193.020955,363.161329 195.000205,365.210903 194.956831,367.695806 C194.913457,370.180709 192.863884,372.159959 190.378981,372.116585 L134.38751,371.13925 C133.366323,371.121425 132.430533,370.764782 131.685425,370.178348 L131.670303,370.180748 L33.4703026,293.880748 C31.6703026,292.480748 31.2703026,289.780748 32.7703026,288.080748 L33.0703026,287.580748 C33.9703026,286.480748 35.3703026,285.880748 36.7703026,285.980748 C37.5703026,285.980748 38.2703026,286.280748 38.9703026,286.780748 L136.500896,362.174768 Z M395.50483,366.695699 C397.989733,366.739073 399.968983,368.788646 399.925609,371.273549 C399.882235,373.758452 397.832661,375.737702 395.347758,375.694328 L235.372127,372.901943 C232.887224,372.858569 230.907974,370.808995 230.951348,368.324092 C230.994722,365.83919 233.044296,363.859939 235.529199,363.903314 L395.50483,366.695699 Z" id="Base" fill="#A339FF" transform="translate(215.887510, 330.832493) rotate(-1.000000) translate(-215.887510, -330.832493) "></path>
                        <path d="M396.40793,367.143132 C395.940813,366.968386 395.436466,366.868916 394.909366,366.859715 L234.933735,364.06733 C234.494142,364.059657 234.068173,364.115283 233.664524,364.22581 L233.578972,301.189585 L308.768292,302.502249 C317.901626,308.702249 323.834959,313.168916 326.568292,315.902249 C330.668292,320.002249 335.068292,323.802249 339.868292,327.102249 C351.468292,335.002249 357.568292,335.002249 375.268292,343.702249 C380.068292,346.002249 384.668292,348.602249 389.168292,351.502249 C393.668292,354.402249 395.168292,357.602249 396.368292,362.402249 C396.568292,363.202249 396.568292,364.002249 396.668292,364.702249 C396.668292,365.775807 396.572217,366.554005 396.40793,367.143132 Z M36.3322676,286.148671 L73.2490373,235.555482 L133.449037,281.255482 L135.249037,287.255482 C142.249037,311.788815 146.049037,324.722149 146.649037,326.055482 C147.370666,327.615761 148.118923,329.058121 148.905676,330.462684 C154.342655,332.675409 160.516815,334.839371 169.949037,339.555482 C174.749037,341.855482 179.349037,344.455482 183.849037,347.355482 C188.349037,350.255482 189.849037,353.455482 191.049037,358.255482 C191.249037,359.055482 191.249037,359.855482 191.349037,360.555482 C191.349037,361.577244 191.17744,362.530366 190.90258,363.402263 C190.593265,363.329079 190.271408,363.287746 189.940589,363.281972 L135.905432,362.338785 L38.3748387,286.944765 C37.7211297,286.47783 37.0674207,286.185317 36.3322676,286.148671 Z" id="Shoes" fill="#474961" transform="translate(216.500280, 301.349307) rotate(-1.000000) translate(-216.500280, -301.349307) "></path>
                        <path d="M232.861535,217.640401 C213.459972,225.691579 189.22881,220.063013 160.168047,200.754701 C108.53741,166.450699 113.37388,153.768918 117.87388,147.268918 C117.87388,147.168918 118.679544,145.979367 118.679544,145.879367 C117.079544,145.879367 118.903373,144.579367 107.503373,144.479367 C96.1033726,144.379367 34.7033726,143.079367 11.2033726,109.179367 C1.82884137,95.6561071 1.10337261,80.6793671 0.40337261,73.9793671 C-2.19662739,47.9127004 7.77239657,23.2744818 30.3104445,0.0647111629 C193.50573,0.207815091 275.236706,0.212700389 275.503373,0.0793670554 C275.903373,-0.120632945 307.094584,-0.935288837 327.264235,13.2214976 C346.608698,26.7990967 363.833045,55.5765749 343.902461,105.786397 L340.983406,175.292366 C339.99515,198.823867 321.742579,217.990507 298.287398,220.126544 C287.826904,221.079169 276.352802,221.555482 263.865091,221.555482 C257.08074,221.555482 247.676932,220.456773 235.653668,218.259355 C234.709685,218.086829 233.778552,217.880058 232.861538,217.640402 Z" fill="#3ABF7C"></path>
                        <path d="M232.31371,217.351326 C236.03019,215.848053 239.570598,213.846057 242.934933,211.345339 C304.358719,153.887411 337.039708,120.733914 340.977901,111.884849 C342.000963,109.586045 342.948634,107.329565 343.823935,105.114872 L340.883776,175.123347 C339.89552,198.654848 321.642949,217.821488 298.187767,219.957525 C287.727273,220.91015 276.253171,221.386463 263.765461,221.386463 C256.98111,221.386463 247.577302,220.287754 235.554037,218.090336 C234.455874,217.889632 233.375099,217.642581 232.313714,217.351327 Z" id="Combined-Shape" fill="#444444" opacity="0.176985679"></path>
                        <path d="M164.035007,79.1763917 C159.101101,86.6394424 153.905069,93.8905906 141.288783,111.14907 C128.630069,128.465591 123.417767,135.739442 118.435007,143.276392 C117.82585,144.197805 118.078984,145.438577 119.000397,146.047733 C119.92181,146.65689 121.162582,146.403756 121.771739,145.482342 C126.705644,138.019292 131.901677,130.768144 144.517962,113.509664 C157.176677,96.1931435 162.388978,88.9192917 167.371739,81.3823424 C167.980895,80.4609293 167.727761,79.2201574 166.806348,78.611001 C165.884935,78.0018445 164.644163,78.2549786 164.035007,79.1763917 Z" id="Shadow" fill="#482D1F"></path>
                    </g>
                    <g id="Body" transform="translate(0.923804, 0.126827)" fill-rule="nonzero">
                        <path d="M43.3453898,144.493044 C44.590068,141.268685 46.3279676,137.859862 48.5590886,134.266574 C59.4696555,113.955066 67.6154174,106.253671 77.8333696,102.87079 C87.896865,99.5390451 99.290958,97.8731728 112.015649,97.8731728 C141.107446,97.8731728 161.527974,124.829984 160.585342,155.312626 L149.907458,282.765744 C103.052928,285.914726 65.1567004,285.283869 36.2187738,280.873173 C7.2808472,276.462477 -4.1566528,268.004728 1.90627379,255.499927 L30.5195761,172.873173 C35.2739677,161.763106 39.4941499,152.397498 43.3453817,144.493061 Z" id="T-shirt" fill="#A339FF"></path>
                        <path d="M135.614523,452.00496 C142.183434,459.425663 153.509306,468.948133 172.347846,481.312313 C183.94102,488.921188 194.766089,494.380903 204.823051,497.691459 L145.692651,564.082563 L84.5954176,519.383272 L135.614523,452.00496 Z M243.895908,498.472763 C244.296629,498.321404 244.695332,498.164399 245.092017,498.001748 C246.014026,498.240912 246.950232,498.446836 247.899345,498.618142 C259.922227,500.788163 269.326434,501.873173 276.111966,501.873173 C288.606958,501.873173 300.087816,501.402414 310.554538,500.460896 C316.262243,499.947469 321.662939,498.425439 326.58274,496.077105 L321.247184,582.209465 L246.046406,582.209465 L243.895908,498.472763 Z M94.0339681,60.9793318 C90.4794258,58.2055041 87.9703074,53.4853314 88.694269,48.1127352 C89.345875,42.9334099 92.6894223,37.1441623 97.2519769,35.5941336 C101.89501,34.0167641 108.271024,37.3326301 107.828578,34.9716468 L102.557017,9.91529764 C102.294532,8.33381044 103.268777,6.77469298 104.827769,6.41477129 C108.357996,5.7023845 111.82832,5.61960996 115.32847,3.8878629 C115.718218,3.79788248 116.085471,3.61046505 116.475219,3.52048463 C119.698097,2.36590302 137.648751,-4.34409218 150.789087,6.78521886 C151.913466,7.65456998 153.007894,8.83872723 154.124816,10.1203215 C156.763448,13.1032097 158.442748,16.8207291 159.147678,20.7631996 L162.394806,38.3843846 C162.604844,40.1832409 162.912319,41.9596021 162.927483,43.8034487 C163.611673,66.3268118 157.504597,83.4391941 149.45486,85.913405 C148.502985,86.235793 143.263881,87.5479657 136.742933,87.3087283 C136.113321,87.2488249 136.667991,87.4286604 127.718449,86.005391 C126.047857,85.7668952 124.539391,85.5336605 123.178422,85.3084766 L122.586826,99.1177399 C119.385805,98.3988948 116.02237,97.9738421 112.51106,97.8731728 C105.772877,97.8731728 99.383965,98.309617 93.3443237,99.1825054 L94.0339681,60.9793318 Z M154.045615,230.983921 C153.598702,231.282513 153.150238,231.581287 152.700191,231.880255 C140.978969,239.665697 135.26359,241.975232 130.321718,242.293022 C109.129162,243.681049 99.361097,225.642249 82.7433221,202.775211 C77.4043278,195.42844 72.8763813,189.010068 69.1594826,183.520097 C69.1752733,183.520908 69.1910697,183.521709 69.2068717,183.5225 C79.8646216,181.441401 90.6433655,173.629552 101.543103,160.086953 C107.030522,153.268999 111.321107,146.372571 114.414858,139.39767 C127.584516,159.997031 134.552828,170.768771 135.319796,171.71289 C154.126173,162.646482 227.059594,119.80286 261.147083,95.1642166 C262.931238,93.181954 277.896169,80.0530109 306.041875,55.7773872 C313.895479,64.7134364 299.030036,80.3417549 292.190399,86.7644755 C290.554757,89.4358134 300.837454,103.356836 299.201812,106.028174 C300.243304,115.216666 265.781809,141.372368 254.865738,151.147788 C251.509702,154.135193 249.518449,155.960798 244.759623,159.894397 C218.88817,181.678171 196.739545,200.866674 169.473944,220.327581 L176.221565,237.835724 L245.656274,245.009892 C264.616087,241.384613 277.980039,239.906283 285.748129,240.5749 C299.034884,241.718522 332.511939,253.797977 321.576196,261.573173 C314.2857,266.756636 298.33583,273.323467 273.726586,281.273664 C199.733086,282.695329 158.460043,283.101064 149.907458,282.490869 L154.045612,230.983933 L154.045615,230.983921 Z" id="Skin" fill="#F2A98A"></path>
                        <path d="M116.201865,47.7480143 L114.876517,45.3071724 C114.876517,45.3071724 113.044788,42.3331569 109.428971,40.316758 C109.104056,40.1604563 106.815733,38.9673177 104.114175,39.1450314 C99.3052187,39.4169551 94.8827361,43.8758393 93.7822018,48.9786644 C92.5114485,54.3073777 94.8334948,59.3331215 98.2914049,62.3815405 C100.459119,64.2925503 102.873792,65.1370485 104.701347,65.5298131 C101.824025,68.7479362 98.2899444,72.567911 94.0991046,76.9897373 L93.7984687,94.2722189 C83.6483136,96.0426309 75.534775,94.1767679 69.457853,88.6746299 C59.5984862,79.7478086 63.6686394,69.2721221 68.9276141,64.1287048 C70.1288509,62.9538633 72.2117571,61.0798201 74.7855186,58.9325185 C72.874552,56.3503641 71.0443628,53.2348311 69.6263168,49.5386369 C68.3817547,45.9260111 63.823457,33.739054 69.7287033,22.4205706 C71.7670478,18.3579174 74.6000522,15.9591498 75.8067046,14.9621593 C82.4545401,9.52742989 88.6532256,10.1489588 103.396165,6.43739175 C106.491654,5.62011137 111.048699,4.46540441 116.3702,2.62105646 C116.782443,2.62851305 117.149696,2.44109562 117.539444,2.3511152 C120.762322,1.19653359 138.390838,-3.79700376 150.834077,6.98009287 C150.879067,7.17496688 152.775486,8.27660029 152.745534,8.59140642 C152.745534,8.59140642 150.249145,25.1370825 120.85287,28.9474654 C120.85287,28.9474654 118.742555,39.6522637 116.201865,47.7480143 Z M163.09395,31.7161349 C161.297843,32.4046114 158.230144,33.3633731 155.283419,32.9673782 C150.688493,32.512783 154.591169,29.2296261 158.643157,28.5728177 C160.620243,28.2548091 162.295376,28.9210892 163.342039,29.5164867 C164.17228,30.0556519 164.030515,31.3125937 163.09395,31.7161349 Z M145.340588,35.9202863 C143.446666,36.629554 140.378967,37.5883157 137.334428,37.213112 C132.760293,36.8563316 136.642178,33.47536 140.694165,32.8185515 C142.769067,32.4797517 144.4442,33.1460318 145.490862,33.7414294 C146.418918,34.2598033 146.277153,35.5167451 145.340588,35.9202863 Z" id="Hair" fill="#DE6903"></path>
                        <polygon id="Shadow" fill="#482D1F" transform="translate(118.117789, 88.223611) scale(-1, 1) rotate(8.000000) translate(-118.117789, -88.223611) " points="114.114291 94.5500257 123.732646 81.8971961 112.502932 86.0372631"></polygon>
                        <path d="M157.257752,40.9798035 C157.11924,39.771162 157.832428,38.6303892 158.985942,38.2996243 C159.754951,38.0791144 160.538089,38.270673 161.21236,39.5337481 C162.767283,42.4168394 161.055304,47.693119 159.309516,46.3211765 C158.01749,45.4432998 157.534084,42.6690759 157.257752,40.9798035 Z M141.086065,44.8342066 C140.947552,43.6255651 141.66074,42.4847922 142.814254,42.1540273 C143.583264,41.9335175 144.366402,42.125076 145.040673,43.3881512 C146.595595,46.2712424 144.883616,51.547522 143.137829,50.1755796 C141.845802,49.2977029 141.26627,46.5510427 141.086065,44.8342066 Z" id="Eyes" fill="#482D1F"></path>
                        <path d="M154.183456,64.8460744 C154.883456,64.6460744 156.583456,64.0460744 156.883456,62.9460744 C156.883456,62.7460744 156.983456,62.4460744 156.883456,62.2460744 C156.483456,61.6460744 155.183456,61.9460744 153.383456,62.1460744 C150.183456,62.4460744 147.583456,62.1460744 147.583456,62.1460744 C147.583456,62.1460744 148.383456,64.1460744 148.883456,64.6460744 C149.883456,66.2460744 153.083456,65.1460744 154.183456,64.8460744 Z" id="Path" fill="#482D1F" transform="translate(152.255678, 63.692840) scale(-1, 1) rotate(12.000000) translate(-152.255678, -63.692840) "></path>
                        <path d="M150.366383,45.7061382 L150.372039,45.5608085 L150.363913,45.6332671 L150.366383,45.7061382 Z M149.172039,56.2608085 L149.165809,56.3722593 C149.165809,57.4636127 149.912659,58.4771947 151.00141,58.6586532 C151.20119,58.6779351 151.312755,58.6858549 151.424504,58.6931245 C152.482141,58.7619279 153.241375,58.7722593 155.965809,58.7722593 C156.518094,58.7722593 156.965809,58.3245441 156.965809,57.7722593 C156.965809,57.2199746 156.518094,56.7722593 155.965809,56.7722593 C153.289548,56.7722593 152.551573,56.7622171 151.554337,56.6973432 C151.450446,56.6905847 151.346734,56.6832224 151.242506,56.6752048 C151.264991,56.6753143 151.181279,56.5592578 151.167657,56.4116826 L152.359579,45.7837101 L152.365235,45.6383805 L152.165235,39.7383805 C152.146524,39.1864128 151.683898,38.7541226 151.13193,38.7728334 C150.579963,38.7915441 150.147672,39.2541704 150.166383,39.8061382 L150.363913,45.6332671 L149.172039,56.2608085 Z" id="Path" fill="#482D1F" transform="translate(153.065809, 48.772254) scale(-1, 1) rotate(12.000000) translate(-153.065809, -48.772254) "></path>
                        <path d="M154.240848,230.364376 C159.48772,226.891116 164.521465,223.442355 169.392577,220.001903 L176.221565,237.835724 L245.656274,245.009892 C264.608432,241.3917 277.972384,239.91337 285.748129,240.5749 C299.047977,241.706401 332.522716,253.880388 321.576196,261.573173 C314.278516,266.701696 298.256315,273.283202 273.509594,281.317691 C190.948583,283.010801 149.747871,283.364125 149.907458,282.377665 C149.918199,282.311268 149.928585,282.185541 149.938615,282.000483 C149.973836,281.998231 150.009061,281.995978 150.044291,281.993722 L154.240848,230.364376 Z" id="Combined-Shape" fill="#8C2A00" opacity="0.2"></path>
                        <path d="M70.2717203,182.903924 C64.1914747,175.572197 59.146143,169.155302 55.1369468,163.655577 C54.6489416,162.986142 53.7106515,162.839065 53.041217,163.32707 C52.3717826,163.815075 52.224705,164.753365 52.7127102,165.4228 C56.7621735,170.977762 61.845026,177.442378 67.9624892,184.818984 C68.4913182,185.45666 69.4369578,185.544899 70.0746343,185.01607 C70.7123109,184.487241 70.8005493,183.541601 70.2717203,182.903924 Z" id="Shadow" fill="#482D1F"></path>
                    </g>
                </g>
            </g>
            <g id="Interior-/-Table-/-Table-4" transform="translate(153.000000, 614.000000)" fill="#D8DEED" fill-rule="nonzero">
                <path d="M14,14 L14,371.5 C14,375.365993 10.8659932,378.5 7,378.5 C3.13400675,378.5 -3.37507799e-14,375.365993 -3.19744231e-14,371.5 L3.37507799e-14,7.5 C3.52985532e-14,4.13148704 2.37932732,1.31869575 5.5490399,0.650568182 C6.44576872,0.233096975 7.445663,1.93678564e-16 8.5,0 L603.5,0 C607.365993,-7.10171439e-16 610.5,3.13400675 610.5,7 C610.5,10.8659932 607.365993,14 603.5,14 L14,14 Z" id="Combined-Shape"></path>
            </g>
            <g id="Active-objects-/-Devices-/-Imac" transform="translate(153.000000, 350.579255)">
                <g id="IMac" transform="translate(52.000000, 77.000000)">
                    <path d="M77.2741822,174.002112 L86.8908439,135.2 L14.7012122,135.2 C7.20121215,135.2 1,129.5 1,122.6 L1,12.7 C0.901212154,5.7 7.00121215,0 14.6012122,0 L234.301212,0 C241.801212,0 248.001212,5.7 248.001212,12.6 L248.001212,122.6 C248.001212,129.5 241.801212,135.2 234.301212,135.2 L146.325551,135.2 L142.355883,174.002112 L168.402424,174.002112 C172.402424,174.002112 175.502424,177.202112 175.502424,181.102112 C175.502424,185.102112 172.302424,188.202112 168.402424,188.202112 L56.9024243,188.202112 C52.9024243,188.202112 49.8024243,185.002112 49.8024243,181.102112 C49.6024243,177.202112 52.9024243,174.002112 56.9024243,174.002112 L77.2741822,174.002112 Z" fill="#474961" fill-rule="nonzero"></path>
                    <path d="M149.306026,106.91856 L149.602424,174.102112 L142.432781,174.102112 L149.306026,106.91856 Z" id="Shadow" fill="#FFFFFF"></path>
                </g>
            </g>
            <g id="Active-objects-/-Devices-/-Mouse" transform="translate(467.000000, 531.000000)" fill="#474961" fill-rule="nonzero">
                <path d="M15.6632756,69.9767639 C26.1632756,58.9767639 48.0632756,49.8767639 85.4632756,69.5767639 C91.1632756,72.4767639 89.4632756,82.2767639 83.2632756,82.4767639 L19.3632756,84.2767639 C14.5632756,84.4767639 12.1632756,73.6767639 15.6632756,69.9767639 Z" id="Mouse" transform="translate(51.472027, 71.139752) rotate(2.000000) translate(-51.472027, -71.139752) "></path>
            </g>
        </g>
        <g id="Characters-in-moshion-/-Woman-in-moshion-/-3" transform="translate(1516.000000, 63.000000)">
            <g id="Woman" transform="translate(277.000000, 47.000000)">
                <path d="M4.5,900 C2,900 0,898.269231 0,896.192308 L0,894.807692 C0,892.730769 2.1,891 4.5,891 L107,891 C109.5,891 111.5,892.730769 111.5,894.807692 L111.5,896.192308 C111.5,898.269231 109.4,900 107,900 L4.5,900 Z M191.5,891 L360.5,891 C362.985281,891 365,893.014719 365,895.5 C365,897.985281 362.985281,900 360.5,900 L191.5,900 C189.014719,900 187,897.985281 187,895.5 C187,893.014719 189.014719,891 191.5,891 Z" id="Base" fill="#DE3190" fill-rule="nonzero"></path>
                <path d="M361.074065,891.036273 C360.886085,891.012338 360.694483,891 360.5,891 L191.5,891 C190.838715,891 190.210745,891.14264 189.645179,891.398831 L197.699219,827.154355 L272.9,827.154355 C280.130901,832.303585 286.097568,836.703585 290.8,840.354355 C292.185215,841.429777 293.549971,842.509471 294.894269,843.593437 C301.534864,848.948037 308.833316,853.430932 316.611834,856.932918 C324.341223,860.412785 332.070611,864.019931 339.8,867.754355 C344.6,870.054355 349.2,872.554355 353.8,875.454355 C356,877.454355 359.9,881.454355 361.1,886.254355 C361.3,887.054355 361.3,887.854355 361.4,888.554355 C361.4,889.435384 361.277521,890.26538 361.074065,891.036273 Z M109.070198,891.428022 C108.451737,891.155049 107.748265,891 107,891 L5.47710713,891 L32.9,826.769589 L112.197266,826.769589 C112.197266,826.769589 108.46719,876.321127 109.070198,891.428022 Z" id="Shoes" fill="#474961" fill-rule="nonzero"></path>
                <path d="M164.347963,636.739499 L134.925877,761.630664 C131.750215,775.110747 119.75986,784.66518 105.91103,784.750949 L50.3673357,785.094946 C33.799111,785.197558 20.284728,771.849541 20.1821164,755.281316 C20.1666018,752.776238 20.464922,750.279444 21.0698467,747.849195 C22.3316029,665.539277 40.6882448,592.526813 76.1397727,528.811804 C63.8703451,428.145737 87.5602534,345.135479 147.209498,279.781032 C159.641309,266.16017 172.848064,260.831164 186.829762,263.794016 C197.101611,262.962102 206.407054,263.272649 214.746092,264.725657 C275.614918,249.609962 289.8362,343.258701 291.484989,393.289889 C294.27521,477.956922 295.069884,599.608203 293.86901,758.243731 C293.747485,774.29708 281.009633,787.409718 264.966554,787.996584 L208.160653,790.074578 C191.603185,790.68026 177.689702,777.748782 177.08402,761.191314 C177.062836,760.612199 177.058436,760.032591 177.070826,759.453221 L177.378503,745.06583 C169.006475,705.631687 164.662961,669.52291 164.347963,636.739499 Z" id="Legs" fill="#3ABF7C" fill-rule="nonzero"></path>
                <path d="M164.337563,635.438056 L247.807351,281.124668 C239.395348,272.606136 228.408533,267.131484 214.846907,264.700711 C275.630623,249.713397 289.837111,343.286334 291.484989,393.289889 C294.27521,477.956922 295.069884,599.608203 293.86901,758.243731 C293.747485,774.29708 281.009633,787.409718 264.966554,787.996584 L208.160653,790.074578 C191.603185,790.68026 177.689702,777.748782 177.08402,761.191314 C177.062836,760.612199 177.058436,760.032591 177.070826,759.453221 L177.378503,745.06583 C168.895541,705.109163 164.548561,668.566572 164.337563,635.438056 Z" id="Shadow-Legs" fill="#444444" fill-rule="nonzero" opacity="0.176985679"></path>
                <path d="M282.890074,184.33103 L280.385429,240.041356 C280.239921,241.258544 280.098288,242.364751 280.055658,243.585532 C279.751253,249.3529 278.371565,256.416103 273.742418,262.143563 C267.061705,270.577265 256.815745,278.499191 215.623513,280.559232 C206.429928,281.019006 196.511209,281.135406 185.867355,280.908429 C182.442447,280.835394 179.033611,280.417468 175.692494,279.660984 C148.221317,273.441058 130.993776,246.129023 137.213703,218.657847 C141.700108,198.843009 145.335766,182.765539 148.120676,170.425437 C145.972109,163.518815 145.199396,156.040496 147.009478,148.553714 C148.78499,141.209917 153.297957,132.848678 159.748157,126.118766 C169.256916,108.222104 189.915885,96.9002174 215.126573,96.074975 L215.224303,94.7415273 C215.425207,92.0003505 217.800998,89.9352862 220.543443,90.1180716 L245.409177,91.7753863 C248.160602,91.9587703 250.244142,94.3350958 250.066246,97.0868818 L249.79334,101.308331 C249.791391,101.338478 249.789178,101.368545 249.786705,101.398531 C265.600912,108.656385 275.790941,122.793408 281.124452,138.641069 C284.690264,143.812168 287.805718,150.001036 290.470815,157.207673 C294.155735,167.171999 290.809135,178.045906 282.890074,184.33103 Z" id="T-shirt" fill="#DE3190" fill-rule="nonzero"></path>
                <path d="M280.667678,138.291337 C283.950838,141.816836 287.24203,148.283554 290.541254,157.691492 C294.062785,167.733353 290.516157,178.585254 282.436406,184.73259 L283.400256,163.293857 C284.2268,157.322492 284.135195,151.096833 282.690677,145.268391 C282.116742,142.917061 281.443187,140.586139 280.667678,138.291337 Z" id="Combined-Shape" fill="#444444" fill-rule="nonzero" opacity="0.176985679"></path>
                <path d="M376.973066,184.991205 C378.819086,180.081082 380.608479,174.564786 382.341245,168.442315 C389.169246,165.508179 393.287033,168.437218 394.694606,177.229432 C396.805964,190.417754 394.314526,242.656447 394.322662,243.282651 C394.627546,266.748913 386.986568,277.205775 381.355706,278.040188 L381.359619,278.113196 C313.910233,277.107346 270.075882,277.715907 249.856565,279.93888 C230.22976,282.096711 203.585295,256.142551 169.923169,202.076403 C202.133371,193.125881 224.139226,183.659834 235.940734,173.678259 C241.981488,184.204118 248.4931,196.94008 255.475572,211.886146 L281.576087,215.09044 L282.95586,184.400412 C285.956132,181.985664 288.288576,178.909407 289.818998,175.476442 L289.818991,175.476429 C293.561934,182.92503 297.568032,191.432498 301.837285,200.998834 L376.973066,184.991205 Z M44.4269286,784.57905 C46.2918591,784.929453 48.217272,785.107138 50.1857946,785.094946 L105.729489,784.750949 C109.446526,784.727929 113.02968,784.022795 116.344451,782.742725 L111.327124,833.299893 L111.264822,833.294619 C111.539804,829.395888 111.720158,827 111.720158,827 L36.9083023,827 L34.1865234,826.769589 L44.4269286,784.57905 Z M199.569927,789.197799 C202.253345,789.870715 205.075575,790.180791 207.979112,790.074578 L264.785012,787.996584 C266.617462,787.929552 268.40679,787.699104 270.139122,787.319525 L272.592552,827.50561 C272.536077,827.465375 272.479523,827.425093 272.422893,827.384766 L197.596597,827.384766 L199.569927,789.197799 Z M407.038738,178.585733 C413.72461,160.615157 420.151633,148.619716 426.319808,142.599411 C433.035989,136.044236 440.167916,125.296513 447.715588,110.356241 C454.978,108.778857 458.461245,112.439793 458.165322,121.339047 C457.721439,134.687928 440.138685,182.900714 440.027186,183.516966 C436.229491,204.506714 432.257797,215.808468 427.342376,217.524837 L427.353358,217.580865 C415.904147,221.384629 405.114858,224.910805 394.985491,228.159394 C395.488904,213.508549 396.014648,191.988987 395.191086,181.109868 L407.038738,178.585733 Z M248.40397,83.2124746 L247.974678,92.7324217 C247.26797,92.2516009 246.42845,91.9457663 245.514293,91.8818422 L220.575192,90.1379304 C219.768699,90.081535 218.993529,90.219676 218.295633,90.5124065 L219.002251,73.5735037 L218.453352,67.061996 C212.21658,56.489566 209.447413,49.7029955 210.145851,46.7022844 C210.910893,43.3073144 217.927801,29.5203985 231.196575,5.34153663 C231.084965,3.74543414 263.819494,1.1982497 271.823715,3.84635417 C275.227286,5.21226028 281.036388,8.47251391 281.804439,9.42124843 C282.024879,9.70656635 282.245319,9.99188427 282.472734,10.3769586 C284.705034,13.6291634 286.074405,17.4429311 286.353431,21.4331873 L287.901341,39.2686568 C287.927146,41.0712478 288.052708,42.8668631 287.879001,44.6834053 C286.441878,67.1383531 278.672686,83.6204541 270.469636,85.2967533 C269.486023,85.5660225 264.134056,86.4414895 257.651987,85.4913413 C257.039497,85.3336824 257.55223,85.4983169 248.777861,83.3050433 C248.652306,83.2740641 248.527677,83.2432077 248.40397,83.2124746 Z" id="Skin" fill="#F2A98A" fill-rule="nonzero"></path>
                <path d="M407.144772,178.452762 C413.429662,161.009644 419.721167,149.214518 426.019287,143.067383 C432.735468,136.512209 439.967569,125.608495 447.715588,110.356241 C454.978,108.778857 458.461245,112.439793 458.165322,121.339047 C457.721439,134.687928 440.138685,182.900714 440.027186,183.516966 C436.098157,205.232594 431.651456,216.672682 426.454239,217.774937 L426.463379,217.82373 C415.130305,221.574185 404.444985,225.053109 394.407421,228.260503 C394.911502,213.618806 395.441151,192.04671 394.618365,181.134635 L407.144772,178.452762 Z M376.48146,185.017701 C373.469444,193.031939 370.306654,199.432193 366.993091,204.218465 C363.900372,208.685739 361.159737,215.503406 358.771187,224.671468 L281,215.123695 L282.381268,184.400412 C285.585956,181.82114 288.028716,178.487149 289.546011,174.769878 C292.620105,180.939744 296.717196,189.682729 301.837285,200.998834 L376.48146,185.017701 Z" id="Shadow-Arm" fill="#8C2A00" fill-rule="nonzero" opacity="0.2"></path>
                <polygon id="Shadow" fill="#482D1F" fill-rule="nonzero" transform="translate(244.272704, 86.218797) scale(-1, 1) rotate(4.000000) translate(-244.272704, -86.218797) " points="240.926417 92.1021268 249.665614 80.3354667 238.879795 83.7897068"></polygon>
                <path d="M238.754253,42.9636224 L235.964546,37.6877335 C235.964546,37.6877335 234.145223,34.6071389 230.493309,32.5568892 C230.180088,32.3783034 227.894764,31.2349343 225.194365,31.3235204 C220.399082,31.5585951 215.896776,35.9834388 214.749213,41.0758937 C213.416088,46.3818128 215.681169,51.5363649 219.096594,54.5053492 C222.518996,57.5740898 227.158279,57.9176801 228.47604,58.1262659 L233.076381,57.6857142 L233.438384,57.3065789 C233.011516,58.3772023 232.559271,59.451704 232.073772,60.5217168 C229.43808,66.2059561 224.14202,73.204711 222.608018,73.641072 L222.609967,73.648425 C203.224419,77.2132016 190.746905,70.5503411 185.177427,53.6598435 C180.059708,38.139394 185.445681,24.6389255 201.335352,13.1584328 C209.315747,6.04967284 223.142083,3.58104386 235.727049,3.56892255 C236.917247,3.38683903 238.898617,3.05057457 241.478525,2.67245623 C242.568967,2.49734835 243.459895,2.33619177 244.350824,2.17503519 C247.415756,1.5652871 249.572983,1.03644454 250.281175,0.969490313 C258.614833,0.181605775 265.71529,0.964998898 273.716421,3.56892255 C278.519416,5.03745651 282.205203,8.46515521 284.773783,13.8520186 C270.777356,15.4427621 262.426127,16.0032232 259.720095,15.5334021 C253.17396,23.701982 246.720703,31.7652104 240.274325,39.9268146 C239.733936,40.8504694 239.23313,41.8689903 238.754253,42.9636224 Z M289.13749,35.1803928 C287.161165,35.6845166 284.086348,36.2462099 281.34818,35.5886133 C276.78631,34.5259067 281.04944,31.7990547 285.143821,31.5844772 C287.14108,31.4798053 288.686127,32.300068 289.626762,33.0518692 C290.457067,33.6091782 290.125652,34.928331 289.13749,35.1803928 Z M269.899055,36.6748847 C267.96271,37.3156419 264.934565,38.0904553 261.946499,37.5505849 C257.333798,36.9079415 261.384141,33.7910964 265.45358,33.2914321 C267.537927,33.0355065 269.136428,33.745994 270.127215,34.4303485 C271.105816,35.0154484 270.867227,36.3545062 269.899055,36.6748847 Z" id="Hair" fill="#482D1F" fill-rule="nonzero"></path>
                <path d="M282.268345,43.2999429 C282.263377,42.0957937 283.172416,41.0124433 284.36785,40.9078564 C285.164806,40.8381318 285.897004,41.1756006 286.309165,42.444507 C287.484639,45.5538899 284.905687,50.4974722 283.362849,48.9259592 C282.361687,47.8089658 282.21727,45.010905 282.268345,43.2999429 Z M264.445175,44.9596502 C264.440208,43.755501 265.349247,42.6721505 266.54468,42.5675636 C267.341636,42.497839 268.073835,42.8353079 268.485995,44.1042143 C269.661469,47.2135971 267.082517,52.1571795 265.53968,50.5856665 C264.538518,49.468673 264.394101,46.6706123 264.445175,44.9596502 Z" id="Eyes" fill="#482D1F" fill-rule="nonzero"></path>
                <path d="M277.12672,64.1500475 C277.82672,63.9500475 279.52672,63.4500475 279.82672,62.3500475 C279.82672,62.1500475 279.92672,61.8500475 279.82672,61.6500475 C279.42672,60.9500475 278.22672,61.3500475 276.42672,61.4500475 C273.22672,61.5500475 270.62672,61.2500475 270.62672,61.2500475 C270.62672,61.2500475 271.32672,63.2500475 271.82672,63.8500475 C272.82672,65.4500475 276.02672,64.4500475 277.12672,64.1500475 Z" id="Mouth" fill="#482D1F" fill-rule="nonzero" transform="translate(275.248943, 62.990138) scale(-1, 1) rotate(3.000000) translate(-275.248943, -62.990138) "></path>
                <path d="M272.911052,44.9104409 L272.921905,44.7794992 L272.912168,44.8446128 L272.911052,44.9104409 Z M272.912168,44.8446128 L271.321905,55.4794992 C271.132295,56.6163053 272.006635,57.7238025 273.14651,57.9137816 C273.273917,57.9334618 273.389041,57.949822 273.504976,57.9649682 C274.211464,58.0572675 274.87069,58.100871 276.093945,58.1488418 C276.282718,58.1562447 276.999366,58.1832417 277.008912,58.1836057 C277.405766,58.19874 277.730545,58.2117949 278.067471,58.2264438 C278.619235,58.2504335 279.085975,57.8225884 279.109965,57.2708249 C279.133955,56.7190614 278.706109,56.2523212 278.154346,56.2283315 C277.813386,56.2135072 277.485249,56.2003174 277.085128,56.1850585 C277.074187,56.1846413 276.359268,56.1577094 276.172316,56.1503779 C275.005655,56.1046265 274.394782,56.0642212 273.764064,55.981821 C273.663087,55.9686288 273.562971,55.9544014 273.462966,55.939016 C273.384879,55.9259223 273.294109,55.8109471 273.297303,55.7917867 L274.899913,45.0752761 L274.910765,44.9443344 L275.010765,39.0443344 C275.020124,38.4921289 274.580061,38.0368907 274.027855,38.0273847 C273.47565,38.0181719 273.020412,38.4582355 273.011052,39.0104409 L272.912168,44.8446128 Z" id="Nose" fill="#482D1F" fill-rule="nonzero" transform="translate(275.203446, 48.127324) scale(-1, 1) rotate(3.000000) translate(-275.203446, -48.127324) "></path>
                <path d="M395.218393,214.384735 C388.476641,224.773684 384.853016,232.664298 384.32941,237.938051 C383.789185,243.379182 383.982702,248.920772 384.911198,254.565966 C385.045648,255.38341 384.491972,256.155072 383.674528,256.289522 C382.857083,256.423971 382.085421,255.870295 381.950972,255.052851 C380.980357,249.151585 380.77765,243.346804 381.344088,237.641652 C381.927144,231.769121 385.719097,223.511964 392.701838,212.751655 C393.152801,212.056727 394.081728,211.858955 394.776656,212.309917 C395.471583,212.76088 395.669356,213.689807 395.218393,214.384735 Z M237.638383,174.604851 C236.985806,175.115179 236.043085,174.999862 235.532758,174.347284 C235.022431,173.694706 235.137747,172.751986 235.790325,172.241659 C252.060423,159.518156 251.842116,146.896 235.055322,133.285674 C234.411825,132.763943 234.313115,131.819339 234.834846,131.175842 C235.356578,130.532346 236.301182,130.433636 236.944678,130.955367 C255.200198,145.7565 255.458127,160.669499 237.638383,174.604851 Z M169.983228,200.59283 C170.811626,200.585883 171.488807,201.251801 171.495807,202.080199 C171.5027,202.908597 170.836782,203.585777 170.008384,203.592724 C155.241172,203.716556 148.22025,194.413913 149.237597,176.487678 C149.284536,175.660582 149.993082,175.02814 150.820178,175.075079 C151.647274,175.122018 152.279716,175.830564 152.232777,176.65766 C151.305894,192.989889 157.125385,200.700651 169.983228,200.59283 Z" id="Shadow" fill="#482D1F" fill-rule="nonzero"></path>
            </g>
        </g>
        <g id="Characters-in-moshion-/-Woman-in-moshion-/-10" transform="translate(1676.000000, 243.500000)">
            <g id="Woman" transform="translate(261.000000, 368.000000)">
                <path d="M442.372391,570 C442.792144,569.870124 443.235628,569.8 443.69247,569.8 L499.19247,569.8 C501.69247,569.8 503.79247,571.9 503.79247,574.4 C503.79247,576.9 501.69247,579 499.19247,579 L451.5,579 L291.5,579 C289.014719,579 287,576.985281 287,574.5 C287,572.014719 289.014719,570 291.5,570 L442.372391,570 Z" id="Base" fill="#FFCB3D" fill-rule="nonzero"></path>
                <path d="M451.450295,570 L443.69247,570 C443.235628,570 442.792144,570.070124 442.372391,570.2 L291.5,570.2 C290.773673,570.2 290.087538,570.372079 289.480138,570.677692 L288,505.94632 L362.860946,507.013068 L377.047372,467 L442.84494,486.943556 C446.130551,498.111947 449.515725,509.280339 452.9009,520.548448 C454.693051,526.431797 456.485202,532.215428 458.277353,537.999059 C463.852935,540.19285 468.632004,542.187206 472.017179,543.682973 C478.488836,546.475071 483.964853,549.067733 489.93869,552.956726 C489.93869,552.956726 495.116016,556.147695 498.003371,560.734713 C498.899446,562.23048 499.695958,563.925682 500.193778,565.720602 C500.392906,566.518344 500.392906,567.316087 500.49247,568.014111 C500.461351,568.668608 500.313521,569.401033 500.124975,570.098738 C499.822975,570.034084 499.510969,570 499.19247,570 L451.467955,570 C451.511718,569.857697 451.532187,569.712619 451.529361,569.564766 C451.526522,569.712645 451.500167,569.857723 451.450295,570 Z" id="Shoes" fill="#474961" fill-rule="nonzero"></path>
                <path d="M451.625945,570 C451.695545,569.773685 451.706227,569.540352 451.65799,569.3 C451.55799,568.5 451.55799,567.7 451.35799,567 C450.15799,562.2 446.35799,558.2 444.15799,556.1 C439.65799,553.2 435.15799,550.6 430.25799,548.3 C412.55799,539.5 407.45799,539.6 395.85799,531.7 C391.05799,528.4 386.65799,524.7 382.55799,520.5 L365.352466,507.1 L363,507.066478 L377.205362,467 L443.002931,486.943556 C446.288541,498.111947 449.673716,509.280339 453.05889,520.548448 C454.851041,526.431797 456.643192,532.215428 458.435343,537.999059 C464.010925,540.19285 468.789995,542.187206 472.175169,543.682973 C478.646826,546.475071 484.122843,549.067733 490.096681,552.956726 C490.096681,552.956726 495.274006,556.147695 498.161361,560.734713 C499.057436,562.23048 499.853948,563.925682 500.351768,565.720602 C500.550896,566.518344 500.550896,567.316087 500.65046,568.014111 C500.618828,568.679398 500.466605,569.425203 500.273607,570.133216 C499.925744,570.046258 499.563512,570 499.19247,570 L451.625945,570 Z" id="Shadow-Shoes" fill="#444444" fill-rule="nonzero" opacity="0.176985679"></path>
                <path d="M385.479122,439.598385 C385.836341,448.131878 386.318311,455.22627 387.011055,460.436035 C387.126928,461.738745 387.060839,471.3213 385.270448,474.724325 C379.708648,485.14343 348.877214,482.081346 321.418273,482.846203 C293.959333,483.611061 278.821529,486.293687 270.649405,479.972222 C266.171811,476.52769 265.507063,470.342114 265.240343,468.183908 C264.014745,457.190498 262.588905,446.053681 261.085137,434.859451 C226.859102,448.439261 205.333961,456.493257 196.509715,459.02144 C187.777754,461.523184 178.102432,462.196931 169.302704,462.607013 C94.3172142,489.844557 53.9453136,445.897968 49.6930242,435.459804 C33.4508367,395.589844 38.4843747,362.78125 52.2695312,339.5 C61.1594856,324.486079 129.325994,288.138313 256.769057,230.456701 C259.626618,229.16335 265.90458,225.974176 275.602944,220.88918 C286.915822,214.835378 301.827743,211.45348 320.338707,210.743484 C324.613638,210.579517 328.893588,210.889027 333.100447,211.666365 C359.817332,216.603075 374.207826,226.123127 376.27193,240.22652 C376.302099,240.397619 376.317184,240.483169 376.347353,240.654268 C377.259793,246.715308 378.060744,253.103167 378.765487,259.738693 C383.422094,258.755068 387.838021,257.71937 392.013269,256.6316 C392.027062,256.622067 392.040869,256.612536 392.054688,256.603007 C403.044846,249.025066 443.654938,242.770159 463.5,251.392578 C488.033114,262.051895 502.441769,287.768073 498.722638,314.256991 L498.722657,314.256994 C493.412606,352.07699 490.37486,372.57881 489.609421,375.762454 C488.467282,380.642109 474.591921,435.823197 469.52676,456.07529 C468.414321,460.672369 463.538049,464.159612 457.284215,464.787944 C450.394992,465.523344 408.340016,449.078243 385.479114,439.598381 Z" id="Legs" fill="#A339FF" fill-rule="nonzero"></path>
                <path d="M385.862828,439.753578 C384.185531,396.355862 385.394408,318.09212 379.181768,259.787592 C383.768042,258.816041 388.12019,257.793835 392.238211,256.720974 C392.252004,256.711441 392.26581,256.70191 392.279629,256.692381 C403.269788,249.11444 443.87988,242.859533 463.724942,251.481952 C488.258056,262.141269 502.666711,287.857447 498.94758,314.346365 L498.947599,314.346368 C493.637547,352.166364 490.599802,372.668184 489.834363,375.851828 C488.692223,380.731483 474.816863,435.91257 469.751702,456.164664 C468.639262,460.761743 463.762991,464.248986 457.509157,464.877318 C450.635851,465.611019 408.759102,449.243517 385.86282,439.753575 Z M261.491187,434.876963 C227.159967,448.500224 205.574457,456.578175 196.734657,459.110814 C188.405726,461.497088 179.218507,462.220216 170.751536,462.637765 C172.19576,462.103232 173.65272,461.542337 175.122404,460.954341 C207.086557,448.166012 234.400882,428.731919 257.065379,402.652061 L257.065365,402.652077 C258.539275,413.395153 260.050294,424.161911 261.491187,434.876963 Z" id="Shadow-Legs" fill="#444444" fill-rule="nonzero" opacity="0.176985679"></path>
                <path d="M159.470859,276.242999 C104.91318,303.041318 71.0754751,322.303519 57.9577461,334.029603 L54.0016719,335.997564 C34.0409873,309.450478 25.9664335,273.503589 29.7780105,228.156897 C20.2434612,225.823373 12.0669521,223.435126 8.33140033,221.686217 C0.860066375,218.188292 -1.1626263,210.534591 2.26332229,198.725114 C5.13307551,187.377476 10.938618,174.219631 19.6799497,159.251576 C30.0693462,141.461489 44.7262891,140.943387 54.1861144,142.130254 C62.4484109,135.978267 102.721986,135.27894 110.277638,136.81086 C122.164664,139.309104 139.791814,142.809119 149.450748,157.146753 C152.551877,161.615746 153.993943,165.960445 154.744795,169.065921 C154.744795,169.065921 156.186861,173.410619 157.211293,178.144275 C159.565415,188.969414 164.233194,226.852807 159.470859,276.242999 Z" id="T-shirt" fill="#FFCB3D" fill-rule="nonzero"></path>
                <rect id="Shadow-Book" fill="#474961" fill-rule="nonzero" transform="translate(231.363592, 182.720563) rotate(-42.000000) translate(-231.363592, -182.720563) " x="158.863592" y="177.220563" width="145" height="11" rx="5.5"></rect>
                <path d="M243.357543,166.978677 L186.006896,125.552222 C182.443386,122.97817 177.616762,123.033132 174.112792,125.687665 L113.429296,171.660179 C109.027084,174.995201 108.161955,181.267468 111.496977,185.669681 C112.055649,186.407125 112.713955,187.063474 113.45306,187.619948 L177.644886,235.950109 L243.761424,182.883747 C248.068537,179.426778 248.757714,173.132748 245.300746,168.825635 C244.738848,168.125554 244.085241,167.50432 243.357543,166.978677 Z" id="Book" fill="#474BFF" fill-rule="nonzero" transform="translate(178.437550, 178.585185) rotate(-3.000000) translate(-178.437550, -178.585185) "></path>
                <path d="M78.5400454,100.282734 C75.5494568,96.4092725 72.8700188,92.7665931 71.4472583,89.770241 C69.3377389,85.4067644 70.4365886,72.6845813 74.4253256,67.6093805 C78.4140625,62.5341797 110.042644,39.0595819 110.44167,39.0316793 C113.81246,38.4952381 132.803153,36.2650818 143.569823,49.7468779 C144.551338,50.8811739 145.440073,52.122202 146.249978,53.6694749 C148.004423,57.2558272 148.981744,61.1972539 148.9615,65.208437 L148.806576,83.0627362 C148.732625,84.8723028 148.558917,86.688845 148.278478,88.4126065 C146.264473,101.184207 142.294414,111.786972 137.760011,118.619921 C134.410831,123.766084 130.615892,126.838289 127.131394,127.182193 C126.140806,127.351706 120.746984,127.628635 114.329793,126.172729 C113.91136,126.065021 114.021344,126.154292 111.41077,125.22942 L111.944595,136.9945 C120.602248,138.805186 131.810951,141.30387 140.828127,147.877095 C127.955098,154.726157 113.698912,157.808141 98.0595703,157.123047 C91.3326092,156.828367 84.2397117,155.926011 76.7808778,154.415978 C71.2450616,147.863388 64.4998092,144.004907 60.7343637,143.382309 C59.0181334,143.098538 56.6913795,142.626904 53.9663476,142.314725 C54.0137542,142.274149 54.0613405,142.23364 54.1091073,142.193199 C57.3988607,139.483662 66.8547795,137.801457 77.1761718,136.885978 L77.8190419,100.055971 L78.5400454,100.282734 Z M162.891289,243.598067 C163.123078,243.596729 163.354729,243.583069 163.585177,243.557124 C163.36228,243.567564 163.138874,243.566596 162.91591,243.554187 C162.907705,243.568814 162.899498,243.583441 162.891289,243.598067 Z M176.268178,232.667593 L180.509725,235.490609 L184.449262,231.98512 C184.578647,231.887766 184.704859,231.7839 184.827471,231.6735 L187.182419,229.553095 L243.442255,179.491825 C244.225078,178.795251 244.87264,178.003295 245.383011,177.149047 L262.396072,161.830418 C270.100433,158.021674 276.077556,156.518088 278.073052,159.323349 C278.073052,159.323349 248.247527,191.666716 232.495784,208.642952 C228.374636,219.445332 222.266244,233.260399 214.170607,250.088152 C194.004502,259.516482 175.716023,268.261896 159.305167,276.324394 C160.361727,265.785051 160.983173,255.761973 161.283888,246.4059 C141.691944,279.96637 111.407871,308.326998 70.4316687,331.487784 C18.0296346,361.106738 9.4881418,260.124529 8.12826027,221.139174 C8.32104354,221.234987 8.51773717,221.327798 8.71834115,221.417607 C19.4647584,226.228738 69.3008683,237.317607 78.534943,235.817607 C78.800483,235.785975 79.0566902,235.724325 79.3035644,235.632657 L77.733682,259.859597 L135.873944,218.562878 C135.885843,218.547366 135.897824,218.531891 135.909885,218.516453 L164.845975,181.479948 C167.056108,178.651107 171.141003,178.149545 173.969844,180.359677 C174.856216,181.052187 175.5141,181.928758 175.931671,182.893077 L176.768657,181.652194 C178.776076,178.676073 182.816034,177.890785 185.792155,179.898204 C187.754448,181.221787 188.764305,183.428989 188.649204,185.63226 C190.209962,185.482687 191.828948,185.894047 193.179396,186.911682 L193.197409,186.925256 C195.941013,188.99271 196.489141,192.892843 194.421687,195.636448 C194.366814,195.709267 194.310346,195.78087 194.252325,195.851207 L193.826651,196.367234 C195.872146,195.881462 198.114627,196.395508 199.767502,197.936838 C202.392953,200.385111 202.536584,204.498176 200.088312,207.123627 L176.268178,232.667593 Z M388.961123,440.616445 C406.514842,447.832778 432.815329,458.12609 447.601017,462.496527 L442.84494,486.943556 L386.624899,469.902994 C387.060766,466.929119 387.044021,463.917891 386.971538,463.102993 C386.340476,458.357106 385.893919,452.003329 385.56417,444.390679 C385.511206,442.894202 385.452218,441.332169 385.387207,439.70459 L388.961123,440.616445 Z M288.025016,484.025288 C296.273465,484.147578 307.105422,483.244882 321.418273,482.846203 C331.635063,482.561619 342.318741,482.806836 351.993949,482.690312 L363.724883,504.576318 L362.860946,507.013068 L288.093349,505.947651 L288.025016,484.025288 Z" id="Skin" fill="#F2A98A" fill-rule="nonzero"></path>
                <path d="M161.001851,245.66692 C161.400778,244.976165 161.795197,244.283217 162.185108,243.588076 C164.044352,243.691551 165.934332,242.999486 167.303587,241.53114 L175.719878,232.505773 L180.204559,235.490609 L184.144095,231.98512 C184.27348,231.887766 184.399693,231.7839 184.522305,231.6735 L186.877252,229.553095 L243.137088,179.491825 C243.919911,178.795251 244.567473,178.003295 245.077844,177.149047 L262.090905,161.830418 C269.795266,158.021674 275.772389,156.518088 277.767885,159.323349 C277.767885,159.323349 247.970296,191.636422 232.212763,208.619085 C228.096323,219.478772 221.999909,233.407455 214.050169,250.00179 C193.811007,259.463083 175.460952,268.237284 159,276.324394 C160.08443,265.507048 160.710488,255.233561 161.001851,245.66692 Z" id="Shadow-Arm" fill="#8C2A00" fill-rule="nonzero" opacity="0.2"></path>
                <polygon id="Shadow" fill="#482D1F" fill-rule="nonzero" transform="translate(104.866731, 128.750970) rotate(-4.000000) translate(-104.866731, -128.750970) " points="111.641443 125.727911 98.0920195 120.064855 111.294755 137.437085"></polygon>
                <path d="M128.490621,39.9307362 C133.964829,41.7467538 139.620254,45.0378846 143.679829,50.9201259 C144.579829,52.1201259 145.379829,53.4201259 146.079829,55.0201259 C146.741203,56.6515166 147.247052,58.3412295 147.580231,60.0635494 L95.816025,74.152166 L104.677218,40.566327 C114.442973,39.8340357 122.380774,39.6221721 128.490621,39.9307362 Z" id="Hair" fill="#482D1F" fill-rule="nonzero" transform="translate(121.698128, 56.972845) rotate(-4.000000) translate(-121.698128, -56.972845) "></path>
                <path d="M132.176451,43.8215348 C113.270832,59.9107393 101.211641,70.4430086 95.9988755,75.4183426 C95.8022253,75.6639006 95.6040579,75.9182369 95.404507,76.1807624 C95.2535511,75.2620924 94.6280374,72.2639438 92.5459898,69.2657952 C92.3459898,69.0657952 90.6459898,66.8657952 88.0459898,65.7657952 C83.3459898,63.9657952 77.1459898,66.0657952 73.7459898,70.3657952 C70.1459898,74.7657952 70.1459898,80.6657952 72.0459898,85.1657952 C73.9459898,89.6657952 77.6459898,91.7657952 78.9459898,92.3657952 L84.2459898,93.7657952 L84.8056496,93.5571085 C80.2724632,101.636593 76.1468449,108.903894 73.8046686,109.287345 C69.5459132,109.984569 63.71098,100.585985 59.452531,95.9330845 C56.746355,92.976241 50.4127812,83.4776386 49.2073797,70.7814874 C48.8786338,66.5862374 47.5636503,52.3444678 56.9876987,41.8563429 C60.2751574,38.2130995 64.0009439,36.4466785 65.5350913,35.6738693 C70.7344892,33.3531148 90.0853508,33.171439 104.927003,33.3965207 C102.415854,28.836213 101.335868,19.6739174 101.687045,5.90963388 C101.698596,5.45689626 101.863463,5.02148282 102.15467,4.67463532 C102.864913,3.82868719 104.126456,3.7186767 104.972404,4.42892004 C116.598873,14.1903009 123.942124,21.2050019 127.002157,25.473023 C129.728857,21.7393455 137.206972,17.6907768 149.436504,13.327317 C149.86629,13.1739704 150.335593,13.1722064 150.766521,13.3223179 C151.809619,13.6856765 152.360658,14.8258355 151.997291,15.8689314 C145.809593,33.6320458 141.399753,42.8826182 138.767771,43.6206488 C137.321162,44.0262906 135.124055,44.0932526 132.176451,43.8215348 Z" id="Kerchief" fill="#DE3190" fill-rule="nonzero" transform="translate(100.532665, 56.642346) rotate(-4.000000) translate(-100.532665, -56.642346) "></path>
                <path d="M143.950007,86.5470485 C144.165568,85.3290447 145.299864,84.3475293 146.510892,84.4633343 C147.315919,84.5072856 147.956312,85.0639701 148.35324,86.4396328 C148.896657,89.9101801 145.412842,94.5645365 144.169033,92.5463841 C143.280298,91.305356 143.676543,88.3705664 143.950007,86.5470485 Z M122.000005,85.3382109 C122.215567,84.1202071 123.349863,83.1386917 124.560891,83.2544968 C125.365918,83.298448 126.00631,83.8551325 126.403239,85.2307953 C126.946655,88.7013425 123.462841,93.3556989 122.219032,91.3375465 C121.330297,90.0965184 121.726542,87.1617288 122.000005,85.3382109 Z" id="Eyes" fill="#482D1F" fill-rule="nonzero"></path>
                <path d="M136.904755,87.9645508 L137.004755,97.9645508 C137.004705,98.0022666 136.852421,98.1545513 136.804705,98.1545513 C136.257774,98.1545513 135.698521,98.118636 134.82603,98.0342013 C134.656601,98.017805 134.479413,98.0000777 134.224207,97.9741325 C133.902683,97.9413556 133.72659,97.9234281 133.557995,97.9064555 C132.980629,97.8483314 132.502387,97.80275 131.991335,97.7583108 C131.441127,97.7104665 130.956309,98.1177132 130.908465,98.6679217 C130.860621,99.2181302 131.267867,99.7029477 131.818076,99.7507919 C132.318933,99.7943448 132.788607,99.8391094 133.357666,99.8963972 C133.524952,99.9132381 133.699696,99.9310283 134.021923,99.9638764 C134.280075,99.9901212 134.460057,100.008128 134.633381,100.024901 C135.564526,100.115012 136.180208,100.154551 136.804705,100.154551 C137.95699,100.154551 139.004705,99.1068361 139.004705,97.9545503 L138.904646,87.9445518 C138.899133,87.3922947 138.446963,86.9490788 137.894706,86.9545503 C137.342449,86.9601239 136.899233,87.4122937 136.904755,87.9645508 Z" id="Nose" fill="#482D1F" fill-rule="nonzero" transform="translate(134.954676, 93.554551) rotate(-4.000000) translate(-134.954676, -93.554551) "></path>
                <path d="M130.677161,105.527498 C129.977161,105.227498 128.277161,104.427498 128.177161,103.427498 C128.177161,103.227498 128.077161,102.927498 128.277161,102.827498 C128.777161,102.327498 129.977161,102.827498 131.777161,103.327498 C134.977161,104.127498 137.577161,104.327498 137.577161,104.327498 C137.577161,104.327498 136.577161,105.927498 135.977161,106.327498 C134.777161,107.527498 131.677161,106.027498 130.677161,105.527498 Z" id="Mouth" fill="#482D1F" fill-rule="nonzero" transform="translate(132.864661, 104.701144) rotate(-4.000000) translate(-132.864661, -104.701144) "></path>
                <path d="M106.900542,80.8228786 L101.040182,79.0257015 C100.24816,78.7828149 99.8029987,77.9438565 100.045885,77.1518352 C100.288772,76.359814 101.12773,75.9146523 101.919751,76.1575388 L108.220984,78.0899169 C110.728234,74.068036 115.191545,71.3916201 120.279967,71.3916201 C128.12241,71.3916201 134.479967,77.7491767 134.479967,85.5916201 C134.479967,85.7789337 134.47634,85.9654001 134.469152,86.1509531 L137.490952,86.5220513 C138.856252,80.1051524 144.555979,75.2916201 151.379967,75.2916201 C159.22241,75.2916201 165.579967,81.6491767 165.579967,89.4916201 C165.579967,97.3340636 159.22241,103.69162 151.379967,103.69162 C143.54245,103.69162 137.187955,97.342049 137.179974,89.5063987 L134.038012,89.1205437 C132.469002,95.2557916 126.904184,99.7916201 120.279967,99.7916201 C112.437523,99.7916201 106.079967,93.4340636 106.079967,85.5916201 C106.079967,83.9187065 106.369257,82.3133603 106.900542,80.8228786 Z M110.125054,80.8611187 C109.454477,82.2981844 109.079967,83.9011664 109.079967,85.5916201 C109.079967,91.7772093 114.094377,96.7916201 120.279967,96.7916201 C126.465556,96.7916201 131.479967,91.7772093 131.479967,85.5916201 C131.479967,79.406031 126.465556,74.3916201 120.279967,74.3916201 C116.032887,74.3916201 112.337937,76.7555719 110.439131,80.2394631 C110.431783,80.2701558 110.423429,80.3008154 110.414048,80.3314051 C110.352502,80.5320979 110.252684,80.7105194 110.125054,80.8611187 Z M140.211924,88.6391461 C140.190747,88.9205308 140.179967,89.2048166 140.179967,89.4916201 C140.179967,95.6772093 145.194377,100.69162 151.379967,100.69162 C157.565556,100.69162 162.579967,95.6772093 162.579967,89.4916201 C162.579967,83.306031 157.565556,78.2916201 151.379967,78.2916201 C145.685454,78.2916201 140.98354,82.5414439 140.272858,88.0424595 C140.283578,88.150762 140.282602,88.2619181 140.268782,88.3744571 C140.257561,88.4658248 140.238346,88.5542594 140.211924,88.6391461 Z" id="Glasses" fill="#482D1F" fill-rule="nonzero" transform="translate(132.779767, 87.541620) rotate(-4.000000) translate(-132.779767, -87.541620) "></path>
                <path d="M257.99207,403.345963 L249.371793,319.845963 C249.286721,319.021916 248.549734,318.422858 247.725687,318.50793 C246.901639,318.593002 246.302581,319.329989 246.387653,320.154037 L255.00793,403.654037 C255.093002,404.478084 255.829989,405.077142 256.654037,404.99207 C257.478084,404.906998 258.077142,404.170011 257.99207,403.345963 Z" id="Path-6" fill="#482D1F" fill-rule="nonzero"></path>
                <path d="M88.0708404,213.123486 C88.0708404,213.123486 84.855253,229.715441 76.855253,234.115441" id="Path" stroke="#482D1F" stroke-width="3" stroke-linecap="round" stroke-linejoin="round" transform="translate(82.463047, 223.619463) rotate(-14.000000) translate(-82.463047, -223.619463) "></path>
            </g>
        </g>
    </g>
</svg>