<?xml version="1.0" encoding="UTF-8"?>
<svg width="1700px" height="1200px" viewBox="0 0 1700 1200" version="1.1" xmlns="http://www.w3.org/2000/svg" xmlns:xlink="http://www.w3.org/1999/xlink">
    <!-- Generator: Sketch 56.1 (81669) - https://sketch.com -->
    <title>Site-constructor</title>
    <desc>Created with Sketch.</desc>
    <g id="Site-constructor" stroke="none" stroke-width="1" fill="none" fill-rule="evenodd">
        <g id="Group" transform="translate(152.000000, 111.000000)">
            <g id="UI-/-Web-design-/-Web-design-1-/-2" transform="translate(658.000000, 19.000000)">
                <g id="Web-page" transform="translate(0.000000, 77.000000)">
                    <g id="Browser" fill-rule="nonzero">
                        <g id="Background" transform="translate(0.000000, 9.000000)" fill="#F2F6FB">
                            <rect x="0" y="0" width="654" height="755" rx="6"></rect>
                        </g>
                        <g id="Input-Form" transform="translate(45.622727, 89.000000)" fill="#D8DEED">
                            <path d="M83.2556576,0 L83.2556576,6 L7.38457522,6 C6.82374096,6 6.37727273,6.4459858 6.37727273,6.99897672 L0.377272727,6.99897672 C0.377272727,3.13082429 3.51148373,0 7.38457522,0 L83.2556576,0 Z M177.255658,0 L177.255658,6 L95.2556576,6 L95.2556576,0 L177.255658,0 Z M271.255658,0 L271.255658,6 L189.255658,6 L189.255658,0 L271.255658,0 Z M365.255658,0 L365.255658,6 L283.255658,6 L283.255658,0 L365.255658,0 Z M459.255658,0 L459.255658,6 L377.255658,6 L377.255658,0 L459.255658,0 Z M553.255658,0 L553.255658,6 L471.255658,6 L471.255658,0 L553.255658,0 Z M563.377273,91.756887 L557.377273,91.756887 L557.377273,9.75688705 L563.377273,9.75688705 L563.377273,91.756887 Z M532.743024,163 L532.743024,157 L556.36997,157 C556.930804,157 557.377273,156.554014 557.377273,156.001023 L557.377273,103.756887 L563.377273,103.756887 L563.377273,156.001023 C563.377273,159.869176 560.243062,163 556.36997,163 L532.743024,163 Z M438.743024,163 L438.743024,157 L520.743024,157 L520.743024,163 L438.743024,163 Z M344.743024,163 L344.743024,157 L426.743024,157 L426.743024,163 L344.743024,163 Z M250.743024,163 L250.743024,157 L332.743024,157 L332.743024,163 L250.743024,163 Z M156.743024,163 L156.743024,157 L238.743024,157 L238.743024,163 L156.743024,163 Z M62.7430241,163 L62.7430241,157 L144.743024,157 L144.743024,163 L62.7430241,163 Z M0.377272727,123.487249 L6.37727273,123.487249 L6.37727273,156.001023 C6.37727273,156.551436 6.82678367,157 7.38457522,157 L50.7430241,157 L50.7430241,163 L7.38457522,163 C3.51590484,163 0.377272727,159.867981 0.377272727,156.001023 L0.377272727,123.487249 Z M0.377272727,29.4872492 L6.37727273,29.4872492 L6.37727273,111.487249 L0.377272727,111.487249 L0.377272727,29.4872492 Z M0.377272727,6.99897672 L6.37727273,6.99897672 L6.37727273,17.4872492 L0.377272727,17.4872492 L0.377272727,6.99897672 Z" id="Placeholder"></path>
                        </g>
                        <path d="M0,20.0043947 C0,8.95627257 8.94995668,0 19.9973017,0 L634.002698,0 C645.046903,0 654,8.95709143 654,20.0043947 L654,44 L0,44 L0,20.0043947 Z" id="Top-bar" fill="#D8DEED"></path>
                        <circle id="Burron" fill="#FF5645" cx="29.5" cy="22.5" r="9.5"></circle>
                        <circle id="Burron" fill="#FFCB3D" cx="60.5" cy="22.5" r="9.5"></circle>
                        <circle id="Burron" fill="#3ABF7C" cx="92.5" cy="22.5" r="9.5"></circle>
                    </g>
                    <g id="Image" transform="translate(45.090909, 291.000000)">
                        <g id="Image-1">
                            <g>
                                <path d="M1,3.9932986 C1,1.78786068 2.78168819,0 5.00233823,0 L555.997662,0 C558.208092,0 560,1.78329017 560,3.9932986 L560,173.279429 C560,175.484867 558.218312,177.272727 555.997662,177.272727 L5.00233823,177.272727 C2.79190786,177.272727 1,175.489437 1,173.279429 L1,3.9932986 Z M2.90909091,209 L215.909091,209 C217.01366,209 217.909091,209.895431 217.909091,211 L217.909091,235 C217.909091,236.104569 217.01366,237 215.909091,237 L2.90909091,237 C1.80452141,237 0.909090909,236.104569 0.909090909,235 L0.909090909,211 C0.909090909,209.895431 1.80452141,209 2.90909091,209 Z M2.90909091,255 L153.909091,255 C155.01366,255 155.909091,255.895431 155.909091,257 L155.909091,281 C155.909091,282.104569 155.01366,283 153.909091,283 L2.90909091,283 C1.80452141,283 0.909090909,282.104569 0.909090909,281 L0.909090909,257 C0.909090909,255.895431 1.80452141,255 2.90909091,255 Z M2.90909091,302 L184.909091,302 C186.01366,302 186.909091,302.895431 186.909091,304 L186.909091,328 C186.909091,329.104569 186.01366,330 184.909091,330 L2.90909091,330 C1.80452141,330 0.909090909,329.104569 0.909090909,328 L0.909090909,304 C0.909090909,302.895431 1.80452141,302 2.90909091,302 Z M2.90909091,348 L122.909091,348 C124.01366,348 124.909091,348.895431 124.909091,350 L124.909091,374 C124.909091,375.104569 124.01366,376 122.909091,376 L2.90909091,376 C1.80452141,376 0.909090909,375.104569 0.909090909,374 L0.909090909,350 C0.909090909,348.895431 1.80452141,348 2.90909091,348 Z M281.909091,255 L501.909091,255 C503.01366,255 503.909091,255.895431 503.909091,257 L503.909091,281 C503.909091,282.104569 503.01366,283 501.909091,283 L281.909091,283 C280.804521,283 279.909091,282.104569 279.909091,281 L279.909091,257 C279.909091,255.895431 280.804521,255 281.909091,255 Z M281.909091,302 L529.909091,302 C531.01366,302 531.909091,302.895431 531.909091,304 L531.909091,328 C531.909091,329.104569 531.01366,330 529.909091,330 L281.909091,330 C280.804521,330 279.909091,329.104569 279.909091,328 L279.909091,304 C279.909091,302.895431 280.804521,302 281.909091,302 Z M281.909091,348 L557.909091,348 C559.01366,348 559.909091,348.895431 559.909091,350 L559.909091,374 C559.909091,375.104569 559.01366,376 557.909091,376 L281.909091,376 C280.804521,376 279.909091,375.104569 279.909091,374 L279.909091,350 C279.909091,348.895431 280.804521,348 281.909091,348 Z M281.909091,394 L473.909091,394 C475.01366,394 475.909091,394.895431 475.909091,396 L475.909091,420 C475.909091,421.104569 475.01366,422 473.909091,422 L281.909091,422 C280.804521,422 279.909091,421.104569 279.909091,420 L279.909091,396 C279.909091,394.895431 280.804521,394 281.909091,394 Z M282,209.181818 L558,209.181818 C559.104569,209.181818 560,210.077249 560,211.181818 L560,235.545455 C560,236.650024 559.104569,237.545455 558,237.545455 L282,237.545455 C280.895431,237.545455 280,236.650024 280,235.545455 L280,211.181818 C280,210.077249 280.895431,209.181818 282,209.181818 Z" id="Combined-Shape" fill="#E1E5F0" fill-rule="nonzero"></path>
                                <g id="Icons-/-Mountains" transform="translate(230.909091, 56.727273)" fill="#FFFFFF">
                                    <path d="M56.0741377,67.181957 L51.9295773,67.2312456 L51.9602129,67.181957 L1.25335008,67.181957 C0.143657362,67.181957 -0.28195767,66.4209488 0.300934065,65.4850528 L36.2182358,7.81592359 C36.8019237,6.87874931 37.7729516,6.8725812 38.3779931,7.78886093 L64.2717588,47.3743223 L74.2275523,31.3567789 C74.8110468,30.4180142 75.7868729,30.3872215 76.4145305,31.2987622 L99.3251025,64.5715519 C99.9494428,65.4782748 99.5683091,66.2407961 98.4550776,66.2752712 L77.3461535,66.9289823 L76.4441693,66.9397091 L76.5885396,67.181957 C76.5885396,67.181957 75.6931774,67.181957 74.5792632,67.181957 L56.0741377,67.181957 Z M76.1020171,16.6798127 C71.5352494,16.6798127 67.8331528,12.9459095 67.8331528,8.33990637 C67.8331528,3.73390327 71.5352494,3.55271368e-14 76.1020171,3.55271368e-14 C80.6687848,3.55271368e-14 84.3708815,3.73390327 84.3708815,8.33990637 C84.3708815,12.9459095 80.6687848,16.6798127 76.1020171,16.6798127 Z" id="Mountains"></path>
                                </g>
                            </g>
                        </g>
                    </g>
                    <g id="Menu" transform="translate(45.090909, 499.181818)"></g>
                    <g id="Text" transform="translate(324.181818, 500.181818)"></g>
                </g>
            </g>
            <g id="-------------------">
                <g id="Woman" transform="translate(-0.480341, 32.445590)">
                    <path d="M145.980341,936.55441 L247.980341,936.55441 C250.465622,936.55441 252.480341,938.569129 252.480341,941.05441 C252.480341,943.539692 250.465622,945.55441 247.980341,945.55441 L145.980341,945.55441 C143.49506,945.55441 141.480341,943.539692 141.480341,941.05441 C141.480341,938.569129 143.49506,936.55441 145.980341,936.55441 Z M461.980341,936.55441 L631.980341,936.55441 C634.465622,936.55441 636.480341,938.569129 636.480341,941.05441 C636.480341,943.539692 634.465622,945.55441 631.980341,945.55441 L461.980341,945.55441 C459.49506,945.55441 457.480341,943.539692 457.480341,941.05441 C457.480341,938.569129 459.49506,936.55441 461.980341,936.55441 Z" id="Base" fill="#FFCB3D" fill-rule="nonzero"></path>
                    <path d="M632.49432,936.583442 C632.325647,936.564263 632.154145,936.55441 631.980341,936.55441 L461.980341,936.55441 C461.687656,936.55441 461.401498,936.582353 461.124388,936.635715 L469.156746,872.564176 L544.357527,872.564176 L562.257527,885.764176 C566.357527,889.864176 570.857527,893.564176 575.657527,896.864176 C587.357527,904.664176 593.457527,904.564176 611.257527,913.164176 C616.057527,915.464176 620.657527,917.964176 625.257527,920.864176 C627.457527,922.864176 631.357527,926.864176 632.557527,931.664176 C632.757527,932.464176 632.757527,933.264176 632.857527,933.964176 C632.857527,934.89777 632.719997,935.774059 632.49432,936.583442 Z M249.264182,936.740204 C248.857348,936.619318 248.426425,936.55441 247.980341,936.55441 L145.980341,936.55441 C145.714889,936.55441 145.454805,936.577395 145.201971,936.621482 L169.357527,874.615979 L240.957527,884.315979 L249.264182,936.740204 Z" id="Shoes" fill="#474961" fill-rule="nonzero"></path>
                    <path d="M216.593442,607.789975 C216.16413,607.696951 215.734406,607.603559 215.304271,607.509799 C238.404375,472.794273 256.015356,392.062399 268.137214,365.314176 C280.259073,338.565953 294.545361,319.624674 310.996079,308.490341 C326.694127,290.604053 354.380951,291.60086 392.681441,290.479156 C393.654352,290.434051 394.759251,290.444267 395.732138,290.397784 C435.332135,289.729075 428.746069,291.242505 439.201194,294.477333 C489.371336,307.877661 530.989979,392.505802 564.057124,548.361754 L574.566732,599.412566 C574.417534,598.994493 574.263095,598.582904 574.103416,598.177801 C574.38928,599.496752 574.528145,600.834851 574.520012,602.192098 C575.578511,624.003227 558.651058,641.09725 523.737652,653.474166 C502.407383,661.035817 460.660237,681.847097 392.026105,688.411752 C362.888583,691.198672 308.512724,690.594193 228.898529,686.598316 C215.741666,664.497193 210.11169,646.805682 212.0086,633.523781 C213.048151,626.244995 214.576429,617.66706 216.593435,607.789975 Z" id="Skirt" fill="#A339FF" fill-rule="nonzero"></path>
                    <path d="M216.539934,608.052221 C333.499365,633.422184 419.922242,631.46273 475.808567,602.17386 C530.603965,573.456721 563.347911,572.031297 574.040405,597.897587 C574.368853,599.307132 574.528722,600.738635 574.520012,602.192098 C575.578511,624.003227 558.651058,641.09725 523.737652,653.474166 C502.407383,661.035817 460.660237,681.847097 392.026105,688.411752 C362.888583,691.198672 308.512724,690.594193 228.898529,686.598316 C215.741666,664.497193 210.11169,646.805682 212.0086,633.523781 C213.03894,626.30949 214.549384,617.81897 216.539934,608.052221 Z" id="Shadow-Skirt" fill="#444444" fill-rule="nonzero" opacity="0.176985679"></path>
                    <path d="M323.011806,212.924862 C311.815946,211.200992 302.834676,209.362995 296.067997,207.410872 C290.522496,206.631502 282.046337,204.430428 278.722249,197.904293 C273.878503,188.539031 282.744885,175.748517 292.640077,161.385885 C304.551133,144.1761 311.848445,137.968662 323.327692,129.849869 C342.870187,116.028277 354.93836,115.492174 363.693164,124.384869 C364.574215,125.279797 365.451136,126.760573 366.323926,128.827198 C368.820454,128.46366 371.374273,128.293339 373.970567,128.330966 L395.970567,128.730966 C423.870567,129.030966 446.070567,152.930966 445.670567,181.830966 L445.670567,183.630966 L445.070567,239.330966 L444.530894,265.413619 C444.159379,283.369128 429.497309,297.730966 411.537956,297.730966 L355.438808,297.730966 C355.316716,297.730966 355.194625,297.730289 355.072541,297.728933 C336.848267,297.52665 322.238557,282.588973 322.44084,264.364699 L323.011806,212.924862 Z" id="T-shirt" fill="#FFCB3D" fill-rule="nonzero"></path>
                    <rect id="Placeholder" fill="#D8DEED" fill-rule="nonzero" transform="translate(395.000000, 351.480331) rotate(3.000000) translate(-395.000000, -351.480331) " x="7" y="219.480331" width="776" height="264" rx="10"></rect>
                    <rect id="Input-Field" fill="#FFFFFF" transform="translate(288.613417, 317.866421) rotate(3.000000) translate(-288.613417, -317.866421) " x="48.613417" y="289.866421" width="480" height="56" rx="4"></rect>
                    <path d="M403.909301,114.898242 L402.60446,131.509406 C402.54025,132.326829 401.983621,133.02226 401.200102,133.263925 C396.830857,134.611691 392.583332,135.101297 388.457527,134.732745 C384.21383,134.353661 377.970909,132.831695 369.728763,130.166847 C368.752002,129.851041 368.172939,128.847023 368.388731,127.843415 L375.015872,97.0221836 L375.40452,97.1323981 C371.767622,89.7860259 369.464282,85.6760455 368.494499,84.802457 C364.804915,81.2687655 361.89133,59.4552047 378.334405,60.7700562 C380.14545,60.7808093 381.909308,61.2992763 383.605071,62.1265526 L383.714976,62.215552 C384.264501,62.6605487 384.971119,62.686831 385.677738,62.7131132 C387.368425,62.5354148 388.635321,61.1956487 388.557075,59.4945086 L386.723952,33.4434116 C386.546254,31.7527243 387.713698,30.4234111 389.404385,30.2457127 C393.084116,29.8589574 396.643489,29.2837505 400.239598,28.1013777 C400.736858,28.0491134 401.124214,27.9078499 401.522023,27.8660385 C405.060491,27.0919273 424.129329,23.8811016 435.967114,37.0156687 C437.008523,38.3139238 438.049933,39.6121788 438.892438,40.9313395 C441.05888,44.3234671 442.272611,48.2179319 442.413274,52.4262824 L443.221718,70.6415622 C443.210965,72.4526073 443.200212,74.2636524 443.001007,76.1950554 C440.579193,99.0735347 432.065713,115.654267 423.565089,117.050472 C419.199646,117.60985 414.771485,117.572514 410.359154,116.729108 C409.798791,116.518871 410.15917,116.6921 403.909301,114.898242 Z M316.910546,623.801631 L240.957527,884.315979 L169.357527,874.615979 L215.304271,607.509799 L215.531489,607.523565 C215.514443,607.622953 215.497393,607.72237 215.480341,607.821817 C252.308587,615.849608 286.118661,621.176214 316.910562,623.801634 L316.910546,623.801631 Z M450.564242,612.860329 C459.576495,609.8329 467.99127,606.270744 475.808567,602.17386 C529.631316,573.966467 562.178516,572.0905 573.450168,596.545961 C579.895985,617.090417 581.739584,635.838025 578.980964,652.788785 C570.699714,703.674202 559.158569,776.932666 544.357527,872.564176 L469.156746,872.564176 L470.457867,657.86691 L450.564242,612.860329 Z M282.493719,202.090094 C286.531497,205.397989 292.237566,206.752539 296.339873,207.329081 C308.784073,210.919116 328.718174,214.123166 356.142178,216.941233 L341.921398,272.599005 L431.997012,304.804006 C432.437901,304.898021 434.540546,305.738137 438.30495,307.324353 C477.360001,318.449511 503.376495,328.532772 516.354431,337.574134 C526.418094,344.585204 524.37453,353.760715 510.223738,365.100666 C498.961137,374.126122 483.853254,376.736528 470.215136,372.013526 L412.00044,351.853262 C412.003492,351.782167 412.006536,351.711064 412.009573,351.639954 C339.044752,343.686515 295.12089,328.002418 280.237985,304.587659 C266.506713,282.984722 267.258623,248.818869 282.493717,202.090099 Z M507.800654,225.349332 C531.873541,200.586412 553.906217,196.603108 573.898683,213.399417 C593.891148,230.195727 571.858472,234.179032 507.800654,225.349332 Z" id="Skin" fill="#ED9474" fill-rule="nonzero"></path>
                    <path d="M347.282814,74.0553322 C344.251317,75.2557603 341.253621,75.7175404 338.289725,75.4406723 C318.67806,73.6086768 305.385312,56.3788862 300.135312,39.5366853 C294.885312,22.6944845 304.109164,14.0539614 318.866284,4.63037171 C333.623404,-4.79321803 350.516644,1.92560365 364.5998,9.20977843 C372.831179,13.4672621 377.660039,20.8522385 379.086381,31.3647076 C381.313815,31.1629188 383.772631,30.9081505 386.520272,30.5488452 C389.702742,30.2143541 393.25122,29.3500714 399.155634,28.1261875 C399.652895,28.0739232 402.451185,27.3828426 402.848993,27.3410312 C406.387461,26.56692 424.239234,23.970101 436.077019,37.1046681 C436.008925,37.4134775 432.947948,37.1046681 423.98941,43.0529094 C413.786439,49.8274225 403.733222,79.5178594 394.735637,79.055832 C394.636996,79.0538949 394.434435,79.1533907 394.127955,79.3543194 L394.52628,78.9772855 L389.0164,67.6913996 C387.77101,65.4090755 385.881718,63.6971823 383.725429,62.3150042 C382.029665,61.4877278 380.265808,60.9692609 378.454763,60.9585077 C373.639247,61.0624356 368.854488,65.2857146 367.377634,70.3679288 C366.000232,75.4396902 367.470208,80.815485 371.348243,84.2288186 C373.797512,86.4851607 376.958776,87.8622625 380.303416,88.1140317 L384.369497,87.6089492 C384.20523,87.7558689 384.039023,87.9046814 383.870878,88.0553867 C376.937994,98.9915846 373.471552,104.459684 373.471552,104.459684 C373.471552,104.459684 370.469256,103.651342 364.464664,102.03466 C357.085345,99.4800723 351.358061,90.1536297 347.282814,74.0553322 Z M428.644959,66.8444475 C426.708179,67.5507654 423.577973,68.3825174 420.720142,67.9790318 C415.941361,67.4757937 420.024577,64.2312071 424.280116,63.5828304 C426.258707,63.2743213 427.933564,63.9026932 429.011709,64.5937823 C429.781044,65.2167777 429.618575,66.5410147 428.644959,66.8444475 Z M445.510019,64.6696549 C443.594146,65.5748771 440.59475,66.6945329 437.668826,66.5998567 C432.722498,66.4158808 436.564999,62.7943912 440.689727,61.8581107 C442.846317,61.3297915 444.411269,61.8691642 445.578413,62.4503482 C446.5362,62.9529857 446.473183,64.2667699 445.510019,64.6696549 Z" id="Hair" fill="#482D1F" fill-rule="nonzero"></path>
                    <path d="M423.068458,79.7983132 C421.948502,78.7094154 422.053631,75.8829427 422.174289,74.160897 C422.137854,72.8575657 423.247658,71.936514 424.341632,71.8215327 C425.04825,71.8478149 425.985131,72.1515481 426.330375,73.522973 C427.371484,76.7317254 424.570393,81.65147 423.068458,79.7983132 Z M439.467616,77.9741414 C438.546564,76.8643379 438.452789,74.0587709 438.573447,72.3367251 C438.537012,71.0333938 439.646816,70.1123422 440.74079,69.9973608 C441.447408,70.0236431 442.384289,70.3273763 442.729534,71.6988012 C443.770643,74.9075535 440.870099,79.837751 439.467616,77.9741414 Z" id="Eyes" fill="#482D1F" fill-rule="nonzero"></path>
                    <path d="M438.608521,70.9701489 C438.682728,70.4228723 438.299229,69.9190602 437.751952,69.8448532 C437.204675,69.7706462 436.700863,70.1541449 436.626656,70.7014216 L435.826656,76.6014216 L435.817632,76.7264399 L435.718591,87.3238845 C435.680711,87.4424879 435.586426,87.5210648 435.456106,87.5339221 C434.262522,87.4016651 432.727862,87.2405059 430.851629,87.0503823 C430.302158,86.994703 429.811587,87.3950001 429.755908,87.944471 C429.700228,88.4939419 430.100525,88.9845131 430.649996,89.0401924 C432.558231,89.2335589 434.110794,89.3967397 435.307157,89.529669 L435.417588,89.5357853 C436.585547,89.5357853 437.519788,88.7053486 437.703982,87.6001843 L437.717545,87.4451307 L437.816958,76.8079231 L438.608521,70.9701489 Z" id="Path" fill="#482D1F" fill-rule="nonzero" transform="translate(434.184222, 79.685726) rotate(-6.000000) translate(-434.184222, -79.685726) "></path>
                    <path d="M431.53828,97.4555414 C430.83828,97.3555414 429.03828,96.9555414 428.63828,95.8555414 C428.63828,95.6555414 428.43828,95.3555414 428.53828,95.1555414 C428.83828,94.6555414 431.93828,94.6555414 431.93828,94.6555414 C436.03828,94.7555414 437.03828,94.5555414 437.33828,95.0555414 C437.43828,95.3555414 437.43828,95.7555414 436.73828,96.6555414 C435.83828,98.3555414 432.63828,97.6555414 431.53828,97.4555414 Z" id="Path" fill="#482D1F" fill-rule="nonzero" transform="translate(432.947948, 96.212042) rotate(-6.000000) translate(-432.947948, -96.212042) "></path>
                    <path d="M587.338225,309.126053 L724.879947,309.126053 C731.566337,309.126053 733.990984,309.822245 736.435429,311.129548 C738.879873,312.436851 740.798287,314.355265 742.105591,316.79971 C743.412894,319.244154 744.109086,321.668801 744.109086,328.355192 L744.109086,345.896914 C744.109086,352.583304 743.412894,355.007951 742.105591,357.452395 C740.798287,359.89684 738.879873,361.815254 736.435429,363.122557 C733.990984,364.429861 731.566337,365.126053 724.879947,365.126053 L587.338225,365.126053 C580.651834,365.126053 578.227187,364.429861 575.782743,363.122557 C573.338299,361.815254 571.419884,359.89684 570.112581,357.452395 C568.805278,355.007951 568.109086,352.583304 568.109086,345.896914 L568.109086,328.355192 C568.109086,321.668801 568.805278,319.244154 570.112581,316.79971 C571.419884,314.355265 573.338299,312.436851 575.782743,311.129548 C578.227187,309.822245 580.651834,309.126053 587.338225,309.126053 Z" id="Button" fill="#474BFF" fill-rule="nonzero" transform="translate(656.109086, 337.126053) rotate(3.000000) translate(-656.109086, -337.126053) "></path>
                    <rect id="Title" fill="#F2F6FB" fill-rule="nonzero" transform="translate(297.994744, 410.272943) rotate(3.000000) translate(-297.994744, -410.272943) " x="151.494744" y="394.272943" width="293" height="32" rx="2"></rect>
                    <rect id="Title" fill="#F2F6FB" fill-rule="nonzero" transform="translate(547.242568, 424.048743) rotate(3.000000) translate(-547.242568, -424.048743) " x="463.242568" y="408.048743" width="168" height="32" rx="2"></rect>
                    <path d="M487.150399,340.173932 C487.337166,339.366832 488.142854,338.863953 488.949953,339.05072 C489.757053,339.237487 490.259932,340.043175 490.073165,340.850274 C488.900104,345.919573 487.862978,349.829705 485.457327,358.512601 C483.062978,367.154705 482.033437,371.03624 480.873165,376.050274 C480.686398,376.857374 479.88071,377.360253 479.073611,377.173486 C478.266511,376.986719 477.763632,376.181031 477.950399,375.373932 C479.12346,370.304633 480.160586,366.394501 482.566236,357.711606 C484.960586,349.069501 485.990126,345.187966 487.150399,340.173932 Z M504.504013,334.091235 C504.740392,333.297247 505.575668,332.845215 506.369656,333.081593 C507.163644,333.317971 507.615676,334.153248 507.379298,334.947236 C505.76004,340.386283 504.600331,344.630234 502.091672,354.103232 C499.575331,363.605234 498.41004,367.869616 496.779298,373.347236 C496.54292,374.141224 495.707643,374.593256 494.913655,374.356878 C494.119668,374.120499 493.667635,373.285223 493.904013,372.491235 C495.523272,367.052188 496.68298,362.808236 499.19164,353.335239 C501.70798,343.833236 502.873272,339.568855 504.504013,334.091235 Z" id="Fingers" fill="#482D1F" fill-rule="nonzero" transform="translate(492.676749, 355.115639) scale(-1, 1) rotate(-125.000000) translate(-492.676749, -355.115639) "></path>
                    <path d="M369.888689,214.085837 C377.430859,193.512156 381.812316,178.758415 383.03792,169.756773 C383.149682,168.935919 382.574849,168.179885 381.753996,168.068123 C380.933142,167.956361 380.177108,168.531194 380.065346,169.352047 C378.876887,178.080874 374.54415,192.670557 367.071993,213.053256 C366.786854,213.831065 367.186241,214.692755 367.96405,214.977895 C368.74186,215.263034 369.60355,214.863647 369.888689,214.085837 Z" id="Shadow" fill="#482D1F" fill-rule="nonzero"></path>
                </g>
            </g>
        </g>
    </g>
</svg>