<?xml version="1.0" encoding="UTF-8"?>
<svg width="1700px" height="1200px" viewBox="0 0 1700 1200" version="1.1" xmlns="http://www.w3.org/2000/svg" xmlns:xlink="http://www.w3.org/1999/xlink">
    <!-- Generator: Sketch 56.1 (81669) - https://sketch.com -->
    <title>Social page</title>
    <desc>Created with Sketch.</desc>
    <defs>
        <rect id="path-1" x="69" y="102" width="1026" height="332" rx="20"></rect>
        <rect id="path-3" x="0" y="0" width="1027" height="539" rx="6"></rect>
        <circle id="path-5" cx="140.5" cy="140.5" r="140.5"></circle>
    </defs>
    <g id="Social-page" stroke="none" stroke-width="1" fill="none" fill-rule="evenodd">
        <g id="Group" transform="translate(237.000000, 95.000000)">
            <g id="UI-/-Social-/-Page-/-1">
                <g id="Page">
                    <g id="Browser" fill-rule="nonzero">
                        <rect id="Background" fill="#F2F6FB" x="0" y="33" width="1164" height="781" rx="10"></rect>
                        <g id="Gallery-">
                            <path d="M0,20.0043947 C0,8.95627257 8.94833823,0 20.0043099,0 L1143.99569,0 C1155.04377,0 1164,8.95709143 1164,20.0043947 L1164,44 L0,44 L0,20.0043947 Z M788.345455,501.478268 C788.345455,490.429513 797.301428,481.472727 808.347081,481.472727 L1075.21656,481.472727 C1086.26315,481.472727 1095.21818,490.431301 1095.21818,501.478268 L1095.21818,673.10355 C1095.21818,684.152305 1086.26221,693.109091 1075.21656,693.109091 L808.347081,693.109091 C797.300488,693.109091 788.345455,684.150518 788.345455,673.10355 L788.345455,501.478268 Z M428.563636,501.478268 C428.563636,490.429513 437.51961,481.472727 448.565262,481.472727 L715.434738,481.472727 C726.481331,481.472727 735.436364,490.431301 735.436364,501.478268 L735.436364,673.10355 C735.436364,684.152305 726.48039,693.109091 715.434738,693.109091 L448.565262,693.109091 C437.518669,693.109091 428.563636,684.150518 428.563636,673.10355 L428.563636,501.478268 Z" id="Combined-Shape" fill="#D8DEED"></path>
                            <circle id="Burron" fill="#FF5645" cx="29.5" cy="22.5" r="9.5"></circle>
                            <circle id="Burron" fill="#FFCB3D" cx="60.5" cy="22.5" r="9.5"></circle>
                            <circle id="Burron" fill="#3ABF7C" cx="92.5" cy="22.5" r="9.5"></circle>
                        </g>
                    </g>
                    <g id="Video" transform="translate(428.345455, 481.472727)" fill="#F2F6FB" fill-rule="nonzero">
                        <g id="Icons-/-Video">
                            <g transform="translate(79.109091, 55.490909)">
                                <path d="M480.1566,53.8671545 L393.447214,97.2218477 C392.953235,97.468837 392.352562,97.2686126 392.105573,96.7746342 C392.036145,96.6357787 392,96.4826657 392,96.3274206 L392,9.61803399 C392,9.06574924 392.447715,8.61803399 393,8.61803399 C393.155245,8.61803399 393.308358,8.65417908 393.447214,8.7236068 L480.1566,52.0783001 C480.650579,52.3252893 480.850803,52.9259624 480.603814,53.4199409 C480.50705,53.6134683 480.350128,53.7703908 480.1566,53.8671545 Z M84.7934109,100.513675 L78.3059212,100.587391 L78.3518071,100.513675 L1.39226708,100.513675 C0.288512181,100.513675 -0.130921125,99.7515898 0.455786822,98.8109484 L55.2944414,10.8906938 C55.8809925,9.95030375 56.8496126,9.93319794 57.4604432,10.8566911 L96.7880588,70.8957172 L112.229774,46.0885011 C112.813219,45.1511932 113.790649,45.1228951 114.424806,46.0425236 L149.849387,97.4138122 C150.478225,98.3257274 150.098396,99.0924899 148.994206,99.1266348 L115.378082,100.166148 L115.035806,100.170037 L115.240036,100.513675 C115.240036,100.513675 114.341149,100.513675 113.241511,100.513675 L84.7934109,100.513675 Z M114.511324,24.9826858 C107.671234,24.9826858 102.126246,19.3982614 102.126246,12.5095247 C102.126246,5.62078807 107.671234,0.0363636364 114.511324,0.0363636364 C121.351414,0.0363636364 126.896403,5.62078807 126.896403,12.5095247 C126.896403,19.3982614 121.351414,24.9826858 114.511324,24.9826858 Z" id="Combined-Shape"></path>
                            </g>
                        </g>
                    </g>
                    <mask id="mask-2" fill="white">
                        <use xlink:href="#path-1"></use>
                    </mask>
                    <use id="Mask" fill="#E1E5F0" fill-rule="nonzero" xlink:href="#path-1"></use>
                    <g id="Graphics" mask="url(#mask-2)">
                        <g transform="translate(69.000000, 61.000000)" id="Graphics-">
                            <g>
                                <g id="Graphic">
                                    <mask id="mask-4" fill="white">
                                        <use xlink:href="#path-3"></use>
                                    </mask>
                                    <use id="Mask" fill="#E1E5F0" fill-rule="nonzero" xlink:href="#path-3"></use>
                                    <g id="Group-3" mask="url(#mask-4)" fill="#D8DEED" fill-rule="nonzero">
                                        <g transform="translate(-17.407602, 40.835014)" id="completed">
                                            <path d="M0.921293673,553.602486 L1194.09164,553.602486 L1194.09164,0.22195995 C1166.05923,85.2434774 1112.65036,131.481965 1055.13683,131.481965 C1021.90719,131.481965 987.319395,116.058284 955.447917,83.7540138 C923.938614,51.8241446 888.60232,36.5713853 853.748928,36.5713853 C792.342006,36.5632461 732.413969,83.8761009 697.391561,170.623117 C669.944665,238.601263 633.751221,272.598476 597.557778,272.598476 C561.364334,272.598476 525.164854,238.601263 497.699849,170.5987 C462.659332,83.8598226 402.695078,36.5306896 341.28212,36.5225504 C306.416654,36.5225504 271.092433,51.7671706 239.577094,83.7051789 C207.705616,116.00131 173.105747,131.424991 139.882145,131.424991 C82.3625782,131.424991 28.9537073,85.1946426 0.921293673,0.164985929 L0.921293673,553.602486 Z"></path>
                                        </g>
                                    </g>
                                </g>
                            </g>
                        </g>
                    </g>
                    <g id="Userpic" mask="url(#mask-2)">
                        <g transform="translate(123.000000, 125.763636)" id="User">
                            <g transform="translate(0.000000, 0.636364)">
                                <mask id="mask-6" fill="white">
                                    <use xlink:href="#path-5"></use>
                                </mask>
                                <use id="Oval" fill="#A339FF" fill-rule="nonzero" xlink:href="#path-5"></use>
                                <g id="Body" mask="url(#mask-6)">
                                    <g transform="translate(129.273124, 178.687186) scale(-1, 1) rotate(1.000000) translate(-129.273124, -178.687186) translate(-1.226876, 26.687186)">
                                        <polyline id="Path" fill="#BF865F" fill-rule="nonzero" points="3.03238651 297.624023 52.2323865 296.474023 52.2323865 238.524023 13.0323865 233.824023 10.3323865 246.624023"></polyline>
                                        <path d="M153.388626,101.266128 C160.501065,97.7814175 181.344937,98.8687107 181.539753,98.9661187 C188.839753,99.1661187 201.632387,100.324023 215.132387,109.624023 C217.132387,111.024023 220.132387,113.224023 223.232387,116.424023 C225.932387,119.124023 231.05089,120.607617 237.45089,145.507617 C239.75089,154.307617 242.532387,176.283008 252.332387,191.124023 C254.298929,194.102135 257.009219,206.108255 260.463254,227.142383 C238.195515,230.066057 221.231656,232.26422 209.571676,233.736872 C212.445562,256.007067 212.60669,274.611402 210.632387,286.724023 C212.345373,294.057357 212.901866,298.424023 212.301866,299.824023 C179.18888,300.624023 159.46572,301.124023 153.132387,301.324023 C137.532387,301.824023 94.8224597,305.807637 55.0508896,302.925738 C45.0508896,293.425738 45.5323865,261.224023 45.5323865,261.224023 C45.7556324,254.886722 45.9773224,248.861107 46.1973445,243.133135 C27.4256035,239.111742 12.268173,234.586179 0.725052827,229.556445 C4.52994195,209.468164 7.03238651,197.69069 8.23238651,194.224023 C11.7323865,184.324023 19.5017767,166.879591 21.3399521,157.909139 C27.0327375,130.127866 34.6323865,122.224023 37.3323865,119.524023 C40.4323865,116.324023 53.3878675,105.148698 73.0508896,102.375781 C77.3614759,101.767894 85.7804887,100.99718 98.3079282,100.063639 C103.834721,99.1095114 109.109511,98.6845424 113.632387,98.3240234 C126.69635,97.3595697 140.375302,96.3182424 153.388626,101.266128 Z" id="Shirt" fill="#FFCB3D" fill-rule="nonzero"></path>
                                        <path d="M153.30595,101.321286 C143.783827,122.429271 138.914349,142.116944 138.697515,160.384306 C138.480681,178.651668 139.028398,210.03034 140.340665,254.520322 L81.0239096,255.192008 C80.8056425,214.505328 81.5980124,183.224496 83.4010192,161.34951 C85.204026,139.474524 92.2863835,118.703957 104.648092,99.0378105 C120.015856,97.3331381 131.000234,96.8465197 137.601226,97.5779552 C144.202218,98.3093907 149.437126,99.5571675 153.30595,101.321286 Z" id="T-shirt" fill="#FFFFFF" fill-rule="evenodd"></path>
                                        <path d="M141.283255,70.7002162 L142.35853,103.578902 C142.35853,104.307988 142.05853,105.037074 141.45853,105.34954 C138.85853,107.016023 135.15853,108.890817 130.55853,109.932369 C122.25853,111.911318 115.15853,110.453145 111.15853,109.203283 C110.35853,108.994972 109.75853,108.161731 109.75853,107.328489 L109.348145,87.9513361 C104.10337,89.9018443 104.396336,89.706392 103.882476,89.8776786 C97.5824763,91.4776786 92.1824763,91.2776786 91.1824763,91.0776786 C87.5824763,90.7776786 83.7824763,87.7776786 80.3824763,82.6776786 C75.7824763,75.8776786 71.6824763,65.2776786 69.4824763,52.5776786 C69.0824763,50.7776786 68.9824763,48.9776786 68.8824763,47.1776786 L68.4824763,29.2776786 C68.3824763,25.2776786 69.3824763,21.3776786 71.2824763,17.6776786 C72.0824763,16.0776786 72.8824763,14.7776786 73.8824763,13.6776786 C79.91748,5.93465499 88.6753269,3.24834024 95.7268071,2.46292224 C99.4797609,1.98236466 102.899493,2.00527193 105.35853,2.27111374 C106.25853,2.37111374 109.45853,2.77111374 114.05853,3.07111374 C116.55853,3.27111374 118.55853,3.27111374 119.75853,3.37111374 C134.65853,3.97111374 140.55853,2.17111374 148.05853,6.17111374 C149.45853,6.87111374 152.65853,8.67111374 155.45853,12.1711137 C163.35853,22.0711137 161.45853,34.8711137 160.95853,38.6711137 C159.15853,50.0711137 152.55853,57.0711137 150.55853,59.9711137 C148.170119,63.4940203 144.141661,67.8012968 141.283255,70.7002162 Z" id="Skin" fill="#DB9E75" fill-rule="nonzero" transform="translate(114.998419, 56.493520) rotate(-2.000000) translate(-114.998419, -56.493520) "></path>
                                        <path d="M193.975741,242.715699 C194.201252,243.512841 193.737854,244.341866 192.940711,244.567377 C192.143569,244.792889 191.314544,244.32949 191.089032,243.532348 C187.394987,230.474561 175.609412,190.928353 173.112694,183.608248 C172.845264,182.824173 173.264088,181.971761 174.048162,181.704331 C174.832237,181.436901 175.684649,181.855725 175.952079,182.639799 C178.47127,190.025793 190.267605,229.608107 193.975741,242.715699 Z M41.1031355,247.617279 C40.8858778,248.41671 40.0616885,248.888655 39.262257,248.671397 C38.4628256,248.45414 37.9908805,247.62995 38.2081382,246.830519 C41.7669805,233.735236 52.0325742,193.767501 53.662602,186.207041 C53.8371983,185.397221 54.6352249,184.882271 55.4450444,185.056868 C56.254864,185.231464 56.7698141,186.02949 56.5952178,186.83931 C54.9505182,194.467821 44.6755518,234.472049 41.1031355,247.617279 Z M110.271899,88.1958227 L123.826132,82.1901656 L111.325966,104.142502 L110.271899,88.1958227 Z M79.6104282,50.0021825 C79.5698183,51.7046368 79.3677196,54.513401 78.4032283,55.5476913 C76.7566131,57.1061067 74.3834558,52.1859314 75.5744754,49.0424505 C76.0288015,47.7257927 76.7213952,47.5014849 77.5243978,47.5735044 C78.7306467,47.7315031 79.5685488,48.8029135 79.6104282,50.0021825 Z M97.4890541,49.0776642 C97.6483224,50.7731387 97.746041,53.571433 96.7885295,54.8056015 C95.3487724,56.5569151 92.3829605,51.8575577 93.270673,48.6246076 C93.62506,47.3114397 94.3141637,46.9871928 95.1136764,46.9592732 C96.3129453,46.9173938 97.3472357,47.8818852 97.4890541,49.0776642 Z M90.012979,69.9512911 C89.024058,70.2860079 85.8609069,71.3970771 84.7092277,69.9363803 C84.1885926,69.3541955 83.41922,67.3798435 83.41922,67.3798435 C83.41922,67.3798435 86.028106,67.5889221 89.2191768,67.2773655 C91.0145903,67.1146074 92.1998995,66.6729716 92.6240855,67.3585854 C92.7310045,67.5549736 92.6415352,67.8582808 92.6485151,68.058159 C92.3870873,69.1679588 90.7055727,69.7269833 90.012979,69.9512911 Z M81.3948126,60.7076004 L82.5132072,50.0311421 L82.3097345,44.2044462 C82.29046,43.6524979 82.7222775,43.1894303 83.2742258,43.1701559 C83.8261741,43.1508814 84.2892417,43.5826989 84.3085161,44.1346472 L84.5144231,50.0310531 L84.5095904,50.1701359 L83.3809012,60.9416579 C83.3783784,60.9609181 83.4731055,61.0726554 83.4759839,61.0769685 L83.8002273,61.0905998 C85.4434943,61.1593682 86.4503503,61.1702759 88.2032872,61.109062 C88.7552356,61.0897875 89.2183031,61.521605 89.2375776,62.0735533 C89.256852,62.6255017 88.8250345,63.0885692 88.2730862,63.1078437 C86.4633112,63.1710424 85.407239,63.1596016 83.7166033,63.0888508 C83.5544468,63.0820359 83.5544468,63.0820359 83.3042567,63.0676227 C82.1584465,62.9175404 81.245988,61.8412319 81.3948126,60.7076004 Z" id="Combined-Shape" fill="#482D1F" fill-rule="nonzero"></path>
                                        <path d="M144.726545,41.8683049 C144.560714,39.2991804 143.719166,36.7327352 142.007948,34.5151061 C138.65285,30.1295258 132.569256,27.8404457 127.828019,29.6069886 C125.161073,30.600669 123.435459,32.7622088 123.242561,32.9690669 C122.497236,33.9780195 121.927683,34.9975391 121.49455,35.9372978 C106.323157,29.362076 94.5403077,25.9188399 86.1460018,25.6075894 C79.726325,25.3695556 73.5159142,26.8975903 67.5147696,30.1916933 C67.394564,26.4091269 68.2576706,22.6868911 69.9364468,19.116255 C70.6801203,17.4893101 71.4342636,16.1621824 72.395265,15.027953 C78.1563647,7.07902761 86.8151256,4.08870484 93.8348996,3.05767218 C97.5687959,2.44643116 100.987245,2.34997753 103.454061,2.52983825 C104.357003,2.59836778 107.569013,2.88644572 112.176681,3.02572529 C114.682138,3.13835471 116.680919,3.06855572 117.883678,3.1266154 C132.795541,3.2062474 138.629128,1.20143688 146.264157,4.93725396 C147.687734,5.58796825 150.948604,7.27519335 153.869046,10.6753427 C162.109739,20.2936058 160.65761,33.1521174 160.290533,36.9672523 C159.986352,39.4544308 159.448815,41.7422311 158.774169,43.8303644 C154.604554,43.3971804 149.922012,42.7431606 144.726545,41.8683049 Z M71.5673933,43.1787237 C70.5610226,43.013745 70.215836,41.7250068 70.8909799,41.0010035 C71.7625121,40.1700813 73.3336178,39.3147295 75.3323995,39.2449305 C79.4299018,39.1018425 83.9214501,41.64664 79.3661317,43.0064467 C76.6956961,43.900188 73.4836856,43.61211 71.5673933,43.1787237 Z M92.179274,43.1593676 C91.1729033,42.9943889 90.8277167,41.7056507 91.6027997,40.9781575 C92.4743318,40.1472353 94.0454376,39.2918835 96.1441583,39.2185945 C100.241661,39.0755066 104.736699,41.7202431 100.177891,42.9801107 C97.3110667,43.980771 94.1920155,43.4893249 92.179274,43.1593676 Z" id="Hair" fill="#482D1F" fill-rule="nonzero"></path>
                                        <path d="M144.686524,40.000198 C145.144357,42.9303267 144.616878,46.1203184 143.286781,48.6855039 C141.670287,51.9182515 139.394767,53.6812665 136.455478,55.0378617 C135.954026,55.2693011 135.735137,55.8634271 135.966577,56.3648792 C136.198016,56.8663314 136.792142,57.0852199 137.293594,56.8537805 C138.586026,56.2572735 139.611899,55.6814428 140.799496,54.7613223 C142.548862,53.4059578 144.012926,51.7051096 145.068963,49.5930347 C146.587686,46.6643047 147.186353,43.0437944 146.662548,39.6914442 C146.577288,39.1457802 146.065823,38.772549 145.520159,38.857809 C144.974495,38.943069 144.601264,39.454534 144.686524,40.000198 Z" id="Path" fill="#482D1F" fill-rule="nonzero" transform="translate(141.361413, 47.895870) rotate(-2.000000) translate(-141.361413, -47.895870) "></path>
                                    </g>
                                </g>
                            </g>
                        </g>
                    </g>
                    <g id="Text" mask="url(#mask-2)">
                        <g transform="translate(68.563636, 618.563636)"></g>
                    </g>
                    <g id="Text" mask="url(#mask-2)">
                        <g transform="translate(788.345455, 719.563636)"></g>
                    </g>
                    <g id="Text" mask="url(#mask-2)">
                        <g transform="translate(68.781818, 481.472727)"></g>
                    </g>
                    <g id="Image" mask="url(#mask-2)">
                        <g transform="translate(428.563636, 481.472727)">
                            <g>
                                <g id="Image-1">
                                    <g id="Picture"></g>
                                    <g id="Icons-/-Mountains" transform="translate(78.436364, 55.527273)"></g>
                                </g>
                            </g>
                        </g>
                    </g>
                    <path d="M443.563636,712.526599 L678.109091,712.526599 C686.393362,712.526599 693.109091,719.242328 693.109091,727.526599 L693.109091,736.890909 C693.109091,745.17518 686.393362,751.890909 678.109091,751.890909 L443.563636,751.890909 C435.279365,751.890909 428.563636,745.17518 428.563636,736.890909 L428.563636,727.526599 C428.563636,719.242328 435.279365,712.526599 443.563636,712.526599 Z M803.345455,712.526599 L1037.89091,712.526599 C1046.17518,712.526599 1052.89091,719.242328 1052.89091,727.526599 L1052.89091,736.890909 C1052.89091,745.17518 1046.17518,751.890909 1037.89091,751.890909 L803.345455,751.890909 C795.061183,751.890909 788.345455,745.17518 788.345455,736.890909 L788.345455,727.526599 C788.345455,719.242328 795.061183,712.526599 803.345455,712.526599 Z M83.7818182,619.036364 L318.327273,619.036364 C326.611544,619.036364 333.327273,625.752092 333.327273,634.036364 L333.327273,643.400673 C333.327273,651.684945 326.611544,658.400673 318.327273,658.400673 L83.7818182,658.400673 C75.4975469,658.400673 68.7818182,651.684945 68.7818182,643.400673 L68.7818182,634.036364 C68.7818182,625.752092 75.4975469,619.036364 83.7818182,619.036364 Z M83.7818182,683.003367 L318.327273,683.003367 C326.611544,683.003367 333.327273,689.719096 333.327273,698.003367 L333.327273,707.367677 C333.327273,715.651948 326.611544,722.367677 318.327273,722.367677 L83.7818182,722.367677 C75.4975469,722.367677 68.7818182,715.651948 68.7818182,707.367677 L68.7818182,698.003367 C68.7818182,689.719096 75.4975469,683.003367 83.7818182,683.003367 Z" id="Combined-Shape" fill="#E1E5F0" fill-rule="nonzero"></path>
                    <path d="M83.7818182,481.472727 L307.745455,481.472727 C316.029726,481.472727 322.745455,488.188456 322.745455,496.472727 L322.745455,504.990476 C322.745455,513.274747 316.029726,519.990476 307.745455,519.990476 L83.7818182,519.990476 C75.4975469,519.990476 68.7818182,513.274747 68.7818182,504.990476 L68.7818182,496.472727 C68.7818182,488.188456 75.4975469,481.472727 83.7818182,481.472727 Z M83.7818182,544.064069 L276,544.064069 C284.284271,544.064069 291,550.779798 291,559.064069 L291,567.581818 C291,575.866089 284.284271,582.581818 276,582.581818 L83.7818182,582.581818 C75.4975469,582.581818 68.7818182,575.866089 68.7818182,567.581818 L68.7818182,559.064069 C68.7818182,550.779798 75.4975469,544.064069 83.7818182,544.064069 Z" id="Text" fill="#474BFF" fill-rule="nonzero"></path>
                </g>
            </g>
        </g>
        <g id="Characters-standing-/-Woman-standing-/-4" transform="translate(489.000000, 167.000000)">
            <g id="Woman" transform="translate(257.000000, 51.000000)">
                <path d="M167.5,887 C169.985281,887 172,889.014719 172,891.5 C172,893.985281 169.985281,896 167.5,896 L4.5,896 C2.01471863,896 0,893.985281 0,891.5 C0,889.014719 2.01471863,887 4.5,887 L167.5,887 Z M485.5,896 L383,896 C380.6,896 378.5,894.269231 378.5,892.192308 L378.5,890.807692 C378.5,888.730769 380.5,887 383,887 L485.5,887 C487.9,887 490,888.730769 490,890.807692 L490,892.192308 C490,894.269231 488,896 485.5,896 Z" id="Base" fill="#3ABF7C" fill-rule="nonzero"></path>
                <path d="M168.02578,887.030389 C167.853308,887.010318 167.677859,887 167.5,887 L5.20823677,887 C5.10070229,886.452403 5.04616354,885.762354 5.06176,884.868834 C5.17396145,884.170686 5.18792338,883.370808 5.40185484,882.57442 C6.68544363,877.796094 8.24106287,874.62276 12.7909895,871.801737 C17.3409161,868.980715 21.9855917,866.461392 26.8250012,864.245514 C44.6741413,855.855746 50.7732123,855.962206 62.5093196,848.265857 C67.3661814,845.050131 71.8318304,841.327501 76.0027609,837.29968 C78.7833811,834.614466 84.7937649,830.252031 94.0339121,824.212374 L168.636236,824.212067 L168.02578,887.030389 Z M486.046202,887.029929 C485.866442,887.010185 485.684103,887 485.5,887 L383.343878,887 L391.426963,835.986751 L463.026963,826.286751 L486.046202,887.029929 Z" id="Shoes" fill="#474961" fill-rule="nonzero"></path>
                <path d="M274.902516,492.094352 C252.154802,567.349063 237.951416,619.242569 213.993621,697.80578 C209.036158,711.862967 207.207346,722.523952 208.507186,729.788735 C210.456946,740.685909 220.070752,760.224734 224.755814,781.531174 C229.440877,802.837615 181.394078,779.458927 140.535708,771.612789 C99.6773382,763.76665 57.5893698,755.759745 58.6827273,749.639731 C61.3292258,735.091328 102.833585,716.065837 106.115403,697.80578 C109.39722,679.545723 111.88247,659.66156 112.340795,656.389066 C133.364437,531.503132 153.092728,435.544211 163.783436,383.349683 C168.293501,360.967563 176.957323,318.709922 208.507186,275.452713 C210.559744,272.716474 212.222835,270.587125 213.199995,269.26987 C216.10013,266.202275 219.347228,263.889651 222.665859,262.149986 C222.592056,261.534049 222.518435,260.919747 222.444982,260.307158 C230.442524,254.366677 235.868387,250.071328 268.230292,247.60616 C269.03017,247.592198 269.928288,247.476506 270.728166,247.462544 C302.104186,245.814706 328.739107,257.26352 348.832335,281.958599 C361.655766,301.045506 371.703614,324.522421 378.975878,352.389342 C385.651124,377.968521 411.084851,492.637119 455.277059,696.395134 C457.265452,702.279665 459.192433,706.59736 461.058002,709.348219 C467.271477,718.510245 485.610337,731.006865 498.556464,748.56568 C511.502591,766.124496 458.100687,764.309395 417.583397,773.760187 C377.066107,783.21098 335.360133,793.015027 333.869731,786.979407 C331.097602,775.599103 349.456037,751.735919 355.007677,733.351864 C338.181799,687.584351 321.655462,640.038354 305.627392,590.905777 C294.738507,557.430002 284.514045,524.475087 274.902516,492.094352 Z" id="Legs" fill="#A339FF" fill-rule="nonzero"></path>
                <path d="M274.59779,492.320277 C251.959076,567.241144 237.767967,619.065263 213.875886,697.412983 C208.918422,711.47017 207.08961,722.131155 208.38945,729.395938 C210.33921,740.293112 219.953017,759.831937 224.638079,781.138378 C229.323142,802.444818 181.276343,779.06613 140.417973,771.219992 C99.5596031,763.373854 57.4716347,755.366948 58.5649923,749.246935 C61.2114907,734.698531 102.71585,715.67304 105.997667,697.412983 C109.279485,679.152927 111.764735,659.268763 112.22306,655.99627 C133.246702,531.110336 152.974992,435.151415 163.665701,382.956886 C168.175766,360.574766 176.839588,318.317126 208.38945,275.059916 C210.442009,272.323677 212.1051,270.194328 213.08226,268.877074 C215.922324,265.873017 219.095127,263.592981 222.342001,261.86603 C226.054368,292.841909 230.212082,328.031177 236.258828,355.789266 C242.376992,383.875203 250.528083,410.498849 259.017277,438.45495 C264.024496,456.22357 269.214982,474.181804 274.59779,492.320277 Z" id="Shadow-T-shirt" fill="#444444" fill-rule="nonzero" opacity="0.176985679"></path>
                <path d="M313.263939,106.336634 C318.770287,107.931085 323.984306,110.25965 328.504738,113.152966 C347.892405,125.562098 359.307358,149.213356 350.447188,172.5 C348.601337,177.351338 342.402897,183.225006 331.851867,190.121004 C330.995855,190.217065 330.146666,190.301375 329.304301,190.373934 L325.986623,226.204862 C325.886623,227.304862 325.786623,228.304862 325.786623,229.404862 C325.686623,234.404862 324.786623,241.804862 320.486623,247.204862 C314.486623,254.804862 305.586623,265.804862 268.386623,266.204862 C228.386623,266.604862 218.786623,255.604862 212.586623,247.804862 C208.286623,242.504862 207.186623,236.104862 207.086623,230.904862 C207.086623,229.804862 206.986623,228.804862 206.886623,227.704862 L203.356035,190.098749 C184.599798,186.957701 181.735392,174.52951 178.640686,164.912164 C172.335912,145.318965 185.803688,122.280763 202.526935,111.26277 C214.438988,103.414597 229.049847,100.119617 242.645114,102.929053 C248.892193,101.086607 255.645906,100.051231 262.786623,100.004862 L268.486623,100.004862 C285.752558,99.901782 301.504355,101.419095 313.263939,106.336634 Z" id="T-shirt" fill="#3ABF7C" fill-rule="nonzero"></path>
                <path d="M203.320297,189.718087 C184.944974,186.461641 182.100578,174.148973 179.029365,164.604636 C172.724591,145.011437 186.192367,121.973236 202.915614,110.955242 C214.941933,103.031787 229.719083,99.7492946 243.424745,102.70406 C222.32709,108.659451 206.875465,123.782794 201.586623,141.204862 C199.986623,146.404862 199.686623,152.004862 200.286623,157.404862 L203.320297,189.718087 Z" id="Shadow-T-shirt" fill="#444444" fill-rule="nonzero" opacity="0.176985679"></path>
                <path d="M235.702435,85.3835624 C235.439452,85.4494212 235.17219,85.5158609 234.90059,85.5828746 C226.126221,87.7761482 226.638954,87.6115137 226.026464,87.7691726 C219.544395,88.7193208 214.192428,87.8438539 213.208815,87.5745846 C205.005765,85.8982854 197.236573,69.4161844 195.79945,46.9612366 C195.625743,45.1446944 195.751305,43.3490791 195.77711,41.5464882 L197.32502,23.7110186 C197.604046,19.7207624 198.973416,15.9069947 201.205717,12.6547899 C201.433132,12.2697156 201.653572,11.9843977 201.874011,11.6990797 C202.642063,10.7503452 203.410114,9.80161071 204.164214,9.052389 C207.080858,6.04852652 210.433503,3.97734992 213.837074,2.6114438 C221.841295,-0.0366606665 230.640785,0.277927087 235.48002,1.31802864 C236.171339,1.46661458 238.345053,1.91934804 241.409599,2.53461873 C244.253705,3.43520734 247.018982,4.02955108 249.904942,4.33160126 C251.494069,4.54296802 252.593486,6.02326546 252.481876,7.61936794 L249.698546,33.0872512 C249.630234,33.6976197 257.163917,27.9382336 264.961242,30 C267.475545,30.6648312 270.944031,34.1970077 275.366699,40.5965296 C273.790476,45.4204524 272.964761,47.90121 272.889554,48.0388024 C269.618933,54.0224157 267.220487,57.7844844 265.694217,59.3250085 L265.086977,75.3636771 L266.114901,100.004862 L262.786623,100.004862 C253.272486,100.066642 244.445371,101.884142 236.588237,105.027024 L235.702435,85.3835624 Z M451.513637,767.723991 L463.034298,826.305208 L391.622937,836.348197 L384.039457,781.224616 C394.795904,778.853371 406.406717,776.138973 417.921524,773.453106 C428.704158,770.938021 440.399308,769.22081 451.513637,767.723991 Z M112.21984,765.729737 C121.446567,767.579268 131.194703,769.446998 140.873835,771.305707 C153.558165,773.741512 166.935293,777.674296 179.212414,781.302354 L168.65,825.3 L93,825.3 L112.21984,765.729737 Z M199.676765,248.682449 C188.231327,257.767075 176.620396,261.863453 164.843971,260.971582 C130.90182,258.401022 95.9736869,224.944674 60.0595703,160.602539 L60.0660858,160.598895 L60.0623016,160.59819 L24.5385044,92.6462144 C33.4040974,85.2395491 41.5922342,85.5277251 49.1029149,93.5107423 C56.0230184,102.595727 60.0076481,108.017219 61.0568041,109.775216 C76.7673918,136.100351 89.4196993,131.435594 104.790487,150.7825 L152.71771,192.048784 L170.239033,173.970424 C168.034841,165.623038 165.91276,156.776007 163.872789,147.42933 C158.556679,143.839971 150.36176,137.307618 137,126.114239 C135.746955,125.064542 129.578986,123.668758 118.496094,121.926887 C102.024913,124.08568 94.5809026,119.443384 96.1640625,108 L166.836717,103.370559 C174.356766,102.877953 181.605669,106.268836 186.047415,112.356913 C191.419193,119.719739 195.272351,125.879061 197.606888,130.834878 L239.988898,194.387804 L262.036611,158.617502 C268.482896,170.193749 278.066405,175.434045 291.272354,182.902128 C302.120435,189.036815 315.181315,191.360855 330.454992,189.874249 C301.003782,248.163661 272.115797,277.721035 243.791034,278.546382 C227.371735,279.024819 212.666979,269.070175 199.676765,248.682449 Z" id="Skin" fill="#ED9474" fill-rule="nonzero"></path>
                <path d="M200.304452,248.550177 C188.805223,257.727302 177.138894,261.86777 165.305466,260.971582 C131.363316,258.401022 96.4351825,224.944674 60.5210659,160.602539 L60.5275814,160.598895 L60.5237972,160.59819 L25,92.6462144 C33.865593,85.2395491 42.0537298,85.5277251 49.5644105,93.5107423 C56.4845139,102.595727 60.4691437,108.017219 61.5182997,109.775216 C77.2288874,136.100351 89.8811948,131.435594 105.251983,150.7825 L153.179206,192.048784 L170.802392,173.865322 C179.391295,206.336878 189.225315,231.23183 200.304452,248.550177 Z" id="Shadow-Arm" fill="#8C2A00" fill-rule="nonzero" opacity="0.2"></path>
                <polygon id="Shadow" fill="#482D1F" fill-rule="nonzero" transform="translate(241.521022, 88.003552) rotate(4.000000) translate(-241.521022, -88.003552) " points="236.506097 94.1809113 247.483638 81.8261926 235.558406 85.7854057"></polygon>
                <path d="M284.983905,51.5755107 C283.67378,56.3328876 284.049733,59.9740354 286.111762,62.4989541 C296.449831,75.1577382 301.146861,77.0080811 298.561664,81.6413891 C295.609027,86.9332398 284.608001,88.3267937 265.558587,85.822051 C252.865353,77.2382327 255.714517,61.7561308 255.731296,60.4064507 C255.726016,60.3950217 255.720734,60.3835901 255.715451,60.372156 C257.039304,60.1635663 261.164308,59.8475703 264.581857,56.7831805 C267.997282,53.8141963 270.262363,48.6596441 268.929238,43.353725 C267.781674,38.2612701 263.279369,33.8364264 258.484086,33.6013517 C255.783687,33.5127656 253.498363,34.6561347 253.185142,34.8347205 C249.533228,36.8849702 247.713905,39.9655648 247.713905,39.9655648 L246.572213,42.1247303 C246.25497,41.551236 245.95318,41.0157302 245.669947,40.5243467 C239.231099,32.2550518 232.785276,24.0855133 226.246672,15.8092427 C214.686209,12.2942633 203.82031,12.5368875 202.094451,11.4137618 C202.862503,10.4650273 203.630554,9.51629279 204.384654,8.76707108 C207.301298,5.7632086 210.653942,3.692032 214.057514,2.32612588 C222.061734,-0.321978587 230.861225,-0.00739083295 235.700459,1.03271072 C236.391778,1.18129666 238.565492,1.63403012 241.630038,2.24930081 C242.52087,2.41183804 243.411702,2.57437527 244.502047,2.7508638 C247.081762,3.13174344 249.062939,3.47076919 250.25304,3.65423337 C265.346258,5.71209582 271.350471,4.42780013 278.638981,9.14771834 C279.979766,10.0434286 283.039433,12.1620211 285.488708,15.8418377 C292.558192,26.5610915 289.377888,39.0697151 288.514274,42.8186046 C287.650961,46.1718808 286.389644,49.0769231 284.983905,51.5755107 Z M194.761,34.6484847 C193.792828,34.3281062 193.542053,33.088303 194.322144,32.4788293 C195.312931,31.7944748 196.923619,30.9847326 198.920899,31.1292167 C203.014712,31.4303718 207.188683,34.3608946 202.650863,35.2142341 C199.749864,35.8655461 196.610277,35.1778003 194.761,34.6484847 Z M214.016396,37.01275 C213.048223,36.6923714 212.797448,35.4525683 213.676794,34.8552815 C214.667581,34.170927 216.278269,33.3611848 218.374803,33.5178558 C222.468616,33.8190109 226.630401,36.8487883 222.104767,37.6028732 C219.104514,38.2419983 215.964927,37.5542525 214.016396,37.01275 Z" id="Hair" fill="#482D1F" fill-rule="nonzero"></path>
                <path d="M34.5663577,55.2188228 L34.5663577,55.2188228 C37.3663577,53.7188228 40.3663577,53.8188228 41.2663577,55.5188228 L84.0663577,132.418823 C84.9663577,134.118823 83.5663577,136.718823 80.7663577,138.318823 L80.7663577,138.318823 C77.9663577,139.818823 74.9663577,139.718823 74.0663577,138.018823 L31.2663577,61.1188228 C30.2663577,59.3188228 31.7663577,56.7188228 34.5663577,55.2188228 Z" id="Phone" fill="#474961" fill-rule="nonzero" transform="translate(57.646820, 96.768823) rotate(-5.000000) translate(-57.646820, -96.768823) "></path>
                <path d="M201.266703,43.2051102 C201.258034,44.9168125 201.214564,47.7325025 200.075774,48.8016886 C198.566099,50.4298415 196.049805,45.4863342 197.13457,42.3954951 C197.602951,41.0424913 198.346481,40.7307814 199.140517,40.8282768 C200.331573,40.97452 201.214437,41.9896809 201.266703,43.2051102 Z M219.007146,44.7788568 C219.097732,46.5027461 218.955007,49.3062491 217.816217,50.3754352 C216.306543,52.0035881 213.790248,47.0600809 214.875013,43.9692417 C215.343394,42.6162379 216.086924,42.304528 216.880961,42.4020235 C218.072016,42.5482667 218.95488,43.5634275 219.007146,44.7788568 Z" id="Eyes" fill="#482D1F" fill-rule="nonzero"></path>
                <path d="M211.737567,63.9926014 C212.437567,63.7926014 214.137567,63.1926014 214.437567,62.0926014 C214.437567,61.8926014 214.537567,61.5926014 214.437567,61.3926014 C214.037567,60.7926014 212.737567,61.0926014 210.937567,61.2926014 C207.737567,61.5926014 205.137567,61.2926014 205.137567,61.2926014 C205.137567,61.2926014 205.937567,63.2926014 206.437567,63.7926014 C207.437567,65.3926014 210.637567,64.2926014 211.737567,63.9926014 Z" id="Mouth" fill="#482D1F" fill-rule="nonzero" transform="translate(209.809790, 62.839367) rotate(7.000000) translate(-209.809790, -62.839367) "></path>
                <path d="M204.738757,55.5273571 L204.732527,55.638808 C204.732527,56.7301614 205.479377,57.7437434 206.568128,57.9252019 C206.767907,57.9444838 206.879473,57.9524036 206.991221,57.9596732 C208.048859,58.0284765 208.808093,58.038808 211.532527,58.038808 C212.084812,58.038808 212.532527,57.5910927 212.532527,57.038808 C212.532527,56.4865232 212.084812,56.038808 211.532527,56.038808 C208.856266,56.038808 208.118291,56.0287658 207.121054,55.9638918 C207.017164,55.9571333 206.913452,55.9497711 206.809223,55.9417535 C206.831709,55.941863 206.747997,55.8258065 206.734375,55.6782313 L207.926297,45.0502588 L207.931953,44.9049291 L207.731953,39.0049291 C207.713242,38.4529614 207.250616,38.0206713 206.698648,38.039382 C206.14668,38.0580928 205.71439,38.5207191 205.733101,39.0726868 L205.930631,44.8998158 L204.738757,55.5273571 Z" id="Nose" fill="#482D1F" fill-rule="nonzero" transform="translate(208.632527, 48.038802) rotate(7.000000) translate(-208.632527, -48.038802) "></path>
                <path d="M94,69.5775208 L94,70 C93.8325243,69.9300886 93.6658576,69.8600993 93.5,69.7900321 C93.3341424,69.8600993 93.1674757,69.9300886 93,70 L93,69.5775208 C72.6602374,60.8799044 64.7316531,50.9867055 69.214247,39.8979242 C73.7058716,28.7868035 81.8011226,27.0304475 93.5,34.6288563 C105.198877,27.0304475 113.294128,28.7868035 117.785753,39.8979242 C122.268347,50.9867055 114.339763,60.8799044 94,69.5775208 Z" id="Heart" fill="#FF5645" fill-rule="nonzero"></path>
                <path d="M262.905456,158.929329 C261.915542,144.668756 264.277531,134.035139 269.908672,126.981472 C270.425526,126.334052 270.319681,125.390221 269.67226,124.873367 C269.024839,124.356513 268.081008,124.462358 267.564154,125.109778 C261.398114,132.83347 258.875199,144.191572 259.912658,159.137077 C259.970026,159.963516 260.686493,160.58697 261.512932,160.529602 C262.33937,160.472234 262.962825,159.755767 262.905456,158.929329 Z" id="Shadow" fill="#482D1F" fill-rule="nonzero"></path>
            </g>
        </g>
    </g>
</svg>