<?xml version="1.0" encoding="UTF-8"?>
<svg width="1700px" height="1200px" viewBox="0 0 1700 1200" version="1.1" xmlns="http://www.w3.org/2000/svg" xmlns:xlink="http://www.w3.org/1999/xlink">
    <!-- Generator: Sketch 56.1 (81669) - https://sketch.com -->
    <title>Startup</title>
    <desc>Created with Sketch.</desc>
    <defs>
        <path d="M108.436924,0.389672512 C48.6254329,0.389672512 0.138639461,48.8889403 0.138639461,108.715819 C0.138639461,168.542698 48.6254329,217.041965 108.436924,217.041965 C168.248414,217.041965 216.735208,168.542698 216.735208,108.715819 L174.159286,108.715819 C174.159286,145.022616 144.734382,174.45509 108.436924,174.45509 C72.139465,174.45509 42.714561,145.022616 42.714561,108.715819 C42.714561,72.409022 72.139465,42.9765477 108.436924,42.9765477 L108.436924,0.389672512 Z" id="path-1"></path>
        <path d="M1.70530257e-13,8.52651283e-14 L406.398844,8.52651283e-14 L406.398844,256.439138 C406.398844,258.648063 404.609223,260.438749 402.392975,260.438749 L4.00586932,260.438749 C1.79348879,260.438749 1.70530257e-13,258.654261 1.70530257e-13,256.439138 L1.70530257e-13,8.52651283e-14 Z" id="path-3"></path>
    </defs>
    <g id="Startup" stroke="none" stroke-width="1" fill="none" fill-rule="evenodd">
        <g id="UI-/-Content-/-Text-1-/-4" transform="translate(1224.000000, 164.000000)">
            <g id="Content">
                <g id="Browser" fill="#E1E5F0" fill-rule="nonzero">
                    <g id="Background">
                        <rect x="0" y="0" width="330" height="253" rx="20"></rect>
                    </g>
                </g>
                <g id="Text" transform="translate(186.804734, 126.500000) rotate(-270.000000) translate(-186.804734, -126.500000) translate(117.159763, 12.357326)" fill-rule="nonzero">
                    <path d="M126.291011,113.701968 L135.94927,113.701968 C136.945381,113.701968 137.306594,113.805684 137.670757,114.000441 C138.03492,114.195197 138.320718,114.480994 138.515474,114.845157 C138.710231,115.20932 138.813947,115.570534 138.813947,116.566644 L138.813947,228.285347 L123.426335,228.285347 L123.426335,116.566644 C123.426335,115.570534 123.530051,115.20932 123.724807,114.845157 C123.919564,114.480994 124.205361,114.195197 124.569524,114.000441 C124.933687,113.805684 125.294901,113.701968 126.291011,113.701968 Z" id="Rectangle" fill="#D8DEED"></path>
                    <path d="M95.5157885,-1.2377775e-13 L105.174047,-1.13571101e-13 C106.170158,-1.13754084e-13 106.531371,0.103715767 106.895535,0.298472295 C107.259698,0.493228823 107.545495,0.779026112 107.740251,1.14318916 C107.935008,1.5073522 108.038724,1.86856588 108.038724,2.8646762 L108.038724,228.285347 L92.6511123,228.285347 L92.6511123,2.8646762 C92.6511123,1.86856588 92.754828,1.5073522 92.9495846,1.14318916 C93.1443411,0.779026112 93.4301384,0.493228823 93.7943014,0.298472295 C94.1584645,0.103715767 94.5196782,-1.07823727e-13 95.5157885,-1.2377775e-13 Z" id="Rectangle" fill="#F2F6FB"></path>
                    <path d="M64.7405656,29.9679606 L74.3988247,29.9679606 C75.394935,29.9679606 75.7561487,30.0716764 76.1203117,30.2664329 C76.4844747,30.4611894 76.770272,30.7469867 76.9650286,31.1111498 C77.1597851,31.4753128 77.2635009,31.8365265 77.2635009,32.8326368 L77.2635009,228.285347 L61.8758894,228.285347 L61.8758894,32.8326368 C61.8758894,31.8365265 61.9796052,31.4753128 62.1743617,31.1111498 C62.3691183,30.7469867 62.6549156,30.4611894 63.0190786,30.2664329 C63.3832417,30.0716764 63.7444553,29.9679606 64.7405656,29.9679606 Z" id="Rectangle" fill="#D8DEED"></path>
                    <path d="M33.9653428,97.8365773 L43.6236018,97.8365773 C44.6197122,97.8365773 44.9809258,97.9402931 45.3450889,98.1350496 C45.7092519,98.3298061 45.9950492,98.6156034 46.1898057,98.9797665 C46.3845623,99.3439295 46.488278,99.7051432 46.488278,100.701254 L46.488278,228.285347 L31.1006666,228.285347 L31.1006666,100.701254 C31.1006666,99.7051432 31.2043824,99.3439295 31.3991389,98.9797665 C31.5938954,98.6156034 31.8796927,98.3298061 32.2438558,98.1350496 C32.6080188,97.9402931 32.9692325,97.8365773 33.9653428,97.8365773 Z" id="Rectangle" fill="#D8DEED"></path>
                    <path d="M3.19011999,64.3429743 L12.848379,64.3429743 C13.8444893,64.3429743 14.205703,64.44669 14.569866,64.6414466 C14.9340291,64.8362031 15.2198264,65.1220004 15.4145829,65.4861634 C15.6093394,65.8503265 15.7130552,66.2115401 15.7130552,67.2076505 L15.7130552,228.285347 L0.325443787,228.285347 L0.325443787,67.2076505 C0.325443787,66.2115401 0.429159554,65.8503265 0.623916082,65.4861634 C0.81867261,65.1220004 1.1044699,64.8362031 1.46863295,64.6414466 C1.83279599,64.44669 2.19400966,64.3429743 3.19011999,64.3429743 Z" id="Rectangle" fill="#D8DEED"></path>
                </g>
            </g>
        </g>
        <g id="UI-/-Charts-/-Chart-6-/-2" transform="translate(477.000000, 131.000000)">
            <g id="Chart" stroke-width="1" fill-rule="evenodd" transform="translate(0.000000, -1.470437)">
                <rect id="Background" fill="#F2F6FB" fill-rule="nonzero" x="0" y="1.47043702" width="374.4714" height="286" rx="20"></rect>
                <g id="Graphic" transform="translate(148.931439, 149.465663) rotate(-30.000000) translate(-148.931439, -149.465663) translate(40.047810, 40.285714)">
                    <path d="M109.165403,197.443448 C157.546253,197.443448 196.766682,158.21293 196.766682,109.819632 C196.766682,61.4263347 157.546253,22.1958159 109.165403,22.1958159 C60.7845526,22.1958159 21.5641241,61.4263347 21.5641241,109.819632 C21.5641241,158.21293 60.7845526,197.443448 109.165403,197.443448 Z M109.165403,154.567332 C84.458287,154.567332 64.4292122,134.533105 64.4292122,109.819632 C64.4292122,85.1061598 84.458287,65.071932 109.165403,65.071932 C133.872519,65.071932 153.901594,85.1061598 153.901594,109.819632 C153.901594,134.533105 133.872519,154.567332 109.165403,154.567332 Z" id="Oval-8" fill="#E1E5F0" fill-rule="nonzero"></path>
                    <g id="Oval-8" transform="translate(0.552302, 0.446141)">
                        <mask id="mask-2" fill="white">
                            <use xlink:href="#path-1"></use>
                        </mask>
                        <use id="Mask" fill="#FFFFFF" xlink:href="#path-1"></use>
                        <path d="M110.166621,1.11060594 C50.6911375,-10.6848463 -5.43820994,48.6483643 -5.43820994,108.475243 C-5.43820994,168.302122 64.3945715,229.496015 110.166621,217.762899 L111.567695,173.257126 C75.1089146,173.257126 44.1521595,145.743549 44.1521595,109.436752 C44.1521595,73.1299554 73.7078409,43.6974812 110.166621,43.6974812 L110.166621,1.11060594 Z" fill="#474BFF" fill-rule="nonzero" mask="url(#mask-2)"></path>
                    </g>
                </g>
                <g id="Colors" transform="translate(288.394477, 99.989717)">
                    <rect id="Rectangle" fill="#474BFF" fill-rule="nonzero" x="-1.0658141e-14" y="0.649559743" width="27.2209073" height="26.8917761" rx="2"></rect>
                    <rect id="Rectangle-Copy" fill="#FFFFFF" x="-1.0658141e-14" y="40.0268033" width="27.2209073" height="26.8917761" rx="2"></rect>
                    <rect id="Rectangle-Copy-2" fill="#E1E5F0" fill-rule="nonzero" x="-1.0658141e-14" y="79.4040469" width="27.2209073" height="26.8917761" rx="2"></rect>
                </g>
            </g>
            <path d="M0,16.1748072 C0,7.24170785 7.24203474,0 16.1770588,0 L356.822941,0 C365.757284,0 373,7.23974371 373,16.1748072 L373,32.3496144 L0,32.3496144 L0,16.1748072 Z" id="Top-bar-Copy" fill="#E1E5F0" fill-rule="nonzero"></path>
        </g>
        <g id="UI-/-Headers-/-Header-4-/-1" transform="translate(827.000000, 57.000000)">
            <g id="Header" stroke-width="1" fill-rule="evenodd" transform="translate(0.000000, -0.809769)">
                <g id="Browser" fill="#F2F6FB" fill-rule="nonzero">
                    <g id="Background" transform="translate(0.000000, 0.621996)">
                        <rect x="0" y="0.187772438" width="421" height="314.190231" rx="20"></rect>
                    </g>
                </g>
                <g id="iMac" transform="translate(7.300578, 54.254499)">
                    <mask id="mask-4" fill="white">
                        <use xlink:href="#path-3"></use>
                    </mask>
                    <use id="Mask" fill="#F2F6FB" fill-rule="nonzero" xlink:href="#path-3"></use>
                    <g id="Devices-/-iMac" mask="url(#mask-4)">
                        <g transform="translate(81.279769, 81.271666)" id="iMac">
                            <g>
                                <path d="M143.347947,166.976323 L143.347947,189.141322 L164.037342,189.141322 L164.037342,200.962654 L79.8019501,200.962654 L79.8019501,189.141322 L100.491345,189.141322 L100.491345,166.976323 L4.00374671,166.976323 C1.79253846,166.976323 8.52651283e-14,165.194184 8.52651283e-14,162.975262 L8.52651283e-14,137.422991 L243.839292,137.422991 L243.839292,162.975262 C243.839292,165.184987 242.051041,166.976323 239.835545,166.976323 L143.347947,166.976323 Z" id="Combined-Shape" fill="#D8DEED" fill-rule="nonzero"></path>
                                <path d="M8.52651283e-14,3.99818992 C8.52651283e-14,1.7900506 1.78825099,-1.13686838e-13 4.00374671,-1.13686838e-13 L239.835545,-1.13686838e-13 C242.046753,-1.13686838e-13 243.839292,1.79358387 243.839292,3.99818992 L243.839292,141.855991 L8.52651283e-14,141.855991 L8.52651283e-14,3.99818992 Z" id="Screen" fill="#FFFFFF"></path>
                                <g id="Icons-/-Mountains" transform="translate(100.461339, 57.259583)" fill="#D8DEED" fill-rule="nonzero">
                                    <path d="M23.7245555,28.7818821 L22.139855,28.8029544 L22.1528004,28.7818821 L1.43258794,28.7818821 C0.547935002,28.7818821 0.205144317,28.1737379 0.673921225,27.4122188 L15.0914906,3.99115432 C15.5571435,3.23471016 16.3235401,3.21719522 16.8083296,3.96032937 L27.368791,20.2914139 L31.1945062,14.0640036 C31.6554605,13.3136727 32.4339547,13.3002317 32.9287033,14.0271964 L41.788233,27.0450509 C42.2850492,27.7750537 41.9693582,28.389349 41.0868348,28.4170014 L33.656733,28.6498111 L32.5120175,28.6650327 L32.5815054,28.7818821 C32.5815054,28.7818821 31.867002,28.7818821 30.9796996,28.7818821 L23.7245555,28.7818821 Z M32.3754924,7.14591277 C30.4417413,7.14591277 28.8741264,5.54624571 28.8741264,3.57295639 C28.8741264,1.59966706 30.4417413,3.55271368e-15 32.3754924,3.55271368e-15 C34.3092435,3.55271368e-15 35.8768585,1.59966706 35.8768585,3.57295639 C35.8768585,5.54624571 34.3092435,7.14591277 32.3754924,7.14591277 Z" id="Mountains"></path>
                                </g>
                            </g>
                        </g>
                    </g>
                </g>
                <g id="Text" transform="translate(118.431599, 78.547558)" fill="#D8DEED" fill-rule="nonzero">
                    <rect x="46.2325832" y="23.9377425" width="92.4651664" height="14.7309184" rx="2"></rect>
                    <rect id="Title" x="-3.83693077e-13" y="-8.70414851e-14" width="184.930333" height="14.7309184" rx="2"></rect>
                </g>
            </g>
            <path d="M0,17.81491 C0,7.9760069 7.97615317,0 17.820942,0 L403.179058,0 C413.021292,0 421,7.97384359 421,17.81491 L421,35.6298201 L0,35.6298201 L0,17.81491 Z" id="Top-bar-Copy" fill="#E1E5F0" fill-rule="nonzero"></path>
            <ellipse id="Burron-Copy" fill="#FF5645" fill-rule="nonzero" cx="23.9296724" cy="18.2197943" rx="7.7061657" ry="7.69280206"></ellipse>
            <ellipse id="Burron-Copy-2" fill="#FFCB3D" fill-rule="nonzero" cx="49.0761079" cy="18.2197943" rx="7.7061657" ry="7.69280206"></ellipse>
            <ellipse id="Burron-Copy-3" fill="#3ABF7C" fill-rule="nonzero" cx="75.0337187" cy="18.2197943" rx="7.7061657" ry="7.69280206"></ellipse>
        </g>
        <g id="Group" transform="translate(615.000000, 356.000000)">
            <g id="Chair-2" transform="translate(118.000000, 236.000000)" fill="#D8DEED" fill-rule="nonzero">
                <path d="M297.6,273.6 L297.6,201.7 C297.6,158.1 297.6,114.6 297.6,71.1 L297.6,4.4 C297.6,2 256.1,5.68434189e-14 206.2,5.68434189e-14 L195.8,5.68434189e-14 C146,5.68434189e-14 104.4,2 104.4,4.4 L104.4,273.8 C104.4,276.2 145.9,278.2 195.8,278.2 L206.2,278.2 C256,278.3 297.6,276.2 297.6,273.6 Z" id="Path"></path>
                <path d="M2.5,512.8 L2.9,513 C5,514.1 7.7,513.5 8.7,511.6 L125.8,296.5 C126.9,294.5 126,292 123.9,290.9 L123.5,290.7 C121.4,289.6 118.7,290.2 117.7,292.1 L88.7,345.3 C69.8,380.1 50.9,414.8 31.9,449.6 L0.6,507 C-0.5,509 0.4,511.6 2.5,512.8 Z" id="Path"></path>
                <path d="M293.2,287.2 L219.9,287.2 C175.5,287.2 131.1,287.2 86.8,287.2 L18.8,287.2 C16.4,287.2 14.3,289.2 14.3,291.6 L14.3,292.1 C14.3,294.5 16.3,296.5 18.8,296.5 L293.4,296.5 C295.8,296.5 297.9,294.5 297.9,292.1 L297.9,291.6 C297.9,289.2 295.8,287.2 293.2,287.2 Z" id="Path"></path>
                <path d="M329,507 L297.7,449.6 C278.8,414.8 259.9,380.1 240.9,345.3 L211.9,292.1 C210.9,290.2 208.2,289.5 206.1,290.7 L205.7,290.9 C203.6,292 202.7,294.6 203.8,296.5 L320.9,511.6 C321.9,513.5 324.6,514.2 326.7,513 L327.1,512.8 C329.2,511.6 330.1,509 329,507 Z" id="Path"></path>
            </g>
            <g id="Characters-sitting-/-Man-sitting-/-3" transform="translate(0.271934, 0.000000)">
                <g id="Man" transform="translate(86.000000, 69.000000)">
                    <g id="Legs" transform="translate(0.000000, 305.824023)" fill-rule="nonzero">
                        <path d="M4.50268017,381.175977 C2.10125074,381.175977 -9.09494702e-13,379.175977 -9.09494702e-13,376.675977 C-9.09494702e-13,374.175977 2.00119119,372.175977 4.50268017,372.175977 L163.49732,372.175977 C165.998809,372.175977 168,374.175977 168,376.675977 C168,379.175977 165.998809,381.175977 163.49732,381.175977 L4.50268017,381.175977 Z M296.686258,381.175977 L196.398582,381.175977 C194.052672,381.175977 192,379.445207 192,377.368284 L192,375.983669 C192,373.906746 193.954925,372.175977 196.398582,372.175977 L296.588511,372.175977 C298.934422,372.175977 300.987094,373.906746 300.987094,375.983669 L300.987094,377.368284 C301.182586,379.445207 299.129914,381.175977 296.686258,381.175977 Z" id="Base" fill="#FF5645"></path>
                        <path d="M165.227538,372.515625 C164.695792,372.296598 164.111643,372.175977 163.49732,372.175977 L4.50268017,372.175977 C4.09462279,372.175977 3.69987835,372.229197 3.32496189,372.329126 C3.08571691,371.89098 2.90653761,371.411381 2.8,370.9 C2.8,370.9 2.8,370.8 2.8,370.8 C2.8,370.3 2.7,369.8 2.8,369.3 C2.9,368.7 2.9,368.2 3.1,367.6 C4.4,363.1 7.9,359.3 10.2,357.2 C10.5,356.9 10.7,356.8 11,356.6 C15.4,353.9 19.9,351.4 24.6,349.3 C33.8,345.1 54.2,336.5 60.3,333.4 C68.2,329.4 79.1,322.6 90.5,310.4 C91.1,310.1 91.9,309.7 91.9,309.7 L160.9,306 C160.9,306 162.2,309 162.2,309.1 L165.7,370.4 C165.7,371.160092 165.53051,371.87597 165.227538,372.515625 Z M297.752771,372.31971 C297.37898,372.226167 296.987997,372.175977 296.588511,372.175977 L196.398582,372.175977 C195.855667,372.175977 195.336876,372.261409 194.858289,372.417089 L204.1,319 L269.981497,306.466383 L297.752768,372.319706 Z" id="Shoes" fill="#474961"></path>
                        <path d="M260.724744,148.956288 C271.200106,195.9309 281.298938,244.524222 290.259975,292.823561 C290.716909,295.207148 291.516764,300.76431 288.826409,305.964965 C283.861094,315.482438 271.384186,314.873655 241.455337,318.124835 C206.21914,322.07742 191.454899,326.478184 183.63662,316.742663 C180.994879,313.62887 180.154367,310.347817 179.881267,308.858288 C177.576274,295.223851 171.908446,272.465448 164.970501,245.151675 C167.930411,258.847855 170.816182,272.565526 173.609522,286.260986 C174.108957,288.637333 175.007941,294.18214 172.410878,299.429904 C167.6163,309.034303 155.130419,308.638246 125.264194,312.400794 C90.1039557,316.955457 75.4205607,321.609135 67.4295974,312.004736 C64.7326473,308.935289 63.8336639,305.667813 63.5340028,304.182597 C56.2422488,265.269929 20.0831399,152.096446 5.99906714,70.9046206 C5.99906714,70.7065917 5.8991801,70.6075773 5.8991801,70.4095484 C1.40426326,44.1707269 18.2851732,19.6151504 43.3568205,16.2486601 C51.6474449,15.1595015 59.9380693,14.0703428 68.2286937,12.9811842 C69.7538548,12.7845776 71.2733963,12.6710621 72.7828616,12.637523 L72.7685547,12.6052693 L194.298937,1.25082735 C273.117676,0.416942449 312.527045,-4.54747351e-13 312.527045,-4.54747351e-13 C312.826609,13.3421584 315.547745,64.0658087 314.549604,83.1111832 C312.972207,113.209262 306.180535,142.135373 272.585116,148.744219 C268.936822,148.991279 264.959944,149.053391 260.724744,148.956288 Z" fill="#474BFF"></path>
                        <path d="M260.688935,149.125934 C253.330268,116.107015 245.784021,83.8832296 238.314337,53.1182434 C232.730366,30.1559851 211.922566,14.9523591 189.599885,17.4423544 C181.291078,18.3895375 172.982272,19.3367206 164.673466,20.2839036 C139.545535,23.2210071 122.228807,47.4755047 126.254598,73.7768929 C126.251063,73.9748154 126.349167,74.0754802 126.345632,74.2734027 C127.575284,82.1958378 129.008662,90.4247127 130.600536,98.8612875 C126.199337,81.3378306 121.783689,64.1425511 117.398729,47.3832916 C112.264458,27.7890347 96.0608193,14.080777 77.517105,12.359218 L194.530382,1.42680394 C273.349121,0.592919043 312.75849,0.175976594 312.75849,0.175976594 C313.058055,13.518135 315.77919,64.2417853 314.781049,83.2871598 C313.203652,113.385239 306.41198,142.311349 272.816562,148.920195 C269.091625,149.172445 265.024156,149.231895 260.688935,149.125934 Z" id="Shadow-Legs" fill="#444444" opacity="0.176985679"></path>
                        <path d="M124.386357,78.9865932 L171.797949,282.76589 C171.985678,283.572766 172.791965,284.074684 173.598841,283.886955 C174.405717,283.699226 174.907635,282.892939 174.719906,282.086063 L127.308314,78.3067663 C127.120585,77.49989 126.314299,76.997972 125.507422,77.185701 C124.700546,77.37343 124.198628,78.1797169 124.386357,78.9865932 Z" id="Shadow-Legs" fill="#482D1F"></path>
                    </g>
                    <g id="Body" transform="translate(83.949110, 0.000000)" fill-rule="nonzero">
                        <path d="M140.240844,105.138441 C155.677702,93.1149895 172.896873,86.9374278 191.898355,86.6057557 C222.35248,86.074177 225.169064,95.686379 219.841389,114.464932 C219.765377,114.732854 219.678358,114.994008 219.580334,115.248393 C219.764481,115.372145 219.948508,115.497351 220.132387,115.624023 C222.132387,117.024023 225.132387,119.224023 228.232387,122.424023 C230.932387,125.124023 236.05089,126.607617 242.45089,151.507617 C244.75089,160.307617 247.532387,182.283008 257.332387,197.124023 C267.132387,211.965039 272.597765,228.590285 257.332387,239.6 C245.411525,248.197579 234.851018,249.106988 215.795121,252.140925 C217.4393,269.5694 217.274357,284.133273 215.632387,294.206983 C217.345373,301.540317 217.901866,305.906983 217.301866,307.306983 C184.18888,308.106983 164.46572,308.606983 158.132387,308.806983 C142.532387,309.306983 99.8224597,313.290597 60.0508896,310.408698 C50.0508896,300.908698 50.5323865,268.706983 50.5323865,268.706983 C50.7101576,263.660577 50.8869422,258.81181 51.0626837,254.153592 C24.9011662,247.426345 10.5577338,241.052231 8.03238651,235.03125 C4.00861395,225.437695 11.4323865,205.424023 13.2323865,200.224023 C16.7323865,190.324023 24.5017767,172.879591 26.3399521,163.909139 C32.0327375,136.127866 39.6323865,128.224023 42.3323865,125.524023 C45.4323865,122.324023 58.3878675,111.148698 78.0508896,108.375781 C84.1415729,107.516862 98.4345416,106.332643 120.929796,104.823124 C121.161211,104.813321 121.257631,105.078051 121.219056,105.617314 C127.485249,105.165066 133.872145,104.786123 140.240844,105.138441 Z" id="T-shirt" fill="#FF5645"></path>
                        <path d="M140.261448,105.778021 C155.771815,93.60701 173.086674,87.3546399 192.206025,87.0209104 C222.660151,86.4893317 225.476735,96.1015337 220.149059,114.880087 C220.048674,115.233919 219.929091,115.575947 219.790313,115.90617 C206.450281,106.936143 192.432425,105.570522 185.229547,105.373183 C185.029547,105.273183 184.829547,105.273183 184.629547,105.273183 L149.129547,104.773183 C145.035445,104.598966 145.494083,104.424749 147.398899,106.497834 C145.026974,106.133294 142.645396,105.904857 140.261448,105.778021 Z M89.8111014,220.588513 C89.9384704,216.263821 93.4810617,212.824028 97.8076292,212.824023 L143.967985,212.824023 C144.005657,212.824023 144.043329,212.82429 144.080997,212.824822 C148.498832,212.887237 152.029596,216.519197 151.967186,220.937031 C151.866626,228.054824 153.06803,233.467155 155.571397,237.174023 C158.29974,241.214023 162.4528,244.086491 168.030578,245.791426 C170.553487,246.562592 172.27669,248.891223 172.276689,251.529359 L172.276689,280.833984 L64.0011416,284.644531 L64.9712932,253.073821 C65.0482056,250.570932 66.6714067,248.379004 69.043041,247.575439 C77.8341619,244.596804 83.5108659,241.24438 86.0731531,237.518167 C88.3293482,234.237088 89.575331,228.593871 89.8111014,220.588513 Z" id="Shadow" fill="#444444" opacity="0.176985679"></path>
                        <path d="M156.493024,70.7535104 L149.5423,112.780798 C149.408734,113.467937 148.98068,114.097833 148.334461,114.277836 C145.476936,115.352336 141.501459,116.413272 136.795165,116.517177 C128.285122,116.798554 121.582702,114.069533 117.885164,112.128344 C117.138024,111.779371 116.701695,110.879584 116.854342,110.094282 L119.798979,92.9329694 C114.332718,93.83738 114.653844,93.7025003 114.118444,93.7723689 C107.628898,94.1408757 102.366273,92.9141817 101.422808,92.5270472 C97.9461924,91.5456467 94.7884361,87.875691 92.4240295,82.2206418 C89.2060457,74.6678555 87.2039495,63.4802905 87.467644,50.5938455 C87.4184493,48.750593 87.6637428,46.9645831 87.9090363,45.1785733 L90.9318664,27.5311231 C91.5969397,23.5855335 93.3227219,19.9479965 95.8938069,16.678513 C96.984403,15.2605567 98.0177564,14.1370885 99.2092735,13.2481076 C112.209524,1.92055329 130.478822,7.50917856 133.72095,8.64874274 C134.09452,8.82322906 134.487171,8.89955266 134.860741,9.07403897 C138.301953,10.7616594 141.680405,11.7239791 145.09702,12.4899733 C148.513634,13.2559675 169.412453,51.8537692 169.404405,53.9915098 C169.439223,56.7425567 163.335479,63.6163502 156.493024,70.7535104 Z M10.6068063,289.266968 L15.3323865,252.624023 L16.8755967,242.521484 L51.197374,254 L50.6362941,272.343317 C63.7620505,270.527431 79.954824,270.339891 98.2998625,274 C98.6730396,274.074454 99.0402052,274.149823 99.4013593,274.226107 C129.594937,267.716575 170.38095,259.417039 197.641625,255.821428 L184.573388,207.123981 C186.956113,214.157795 188.5233,218.555741 188.791577,218.597014 C190.091577,218.797014 196.991577,255.5851 197.791577,255.385913 C229.291577,248.9851 242.326199,250.582706 257.591577,239.572991 C259.793981,237.98457 261.564872,236.279262 262.953488,234.479288 C269.485191,265.059484 272.595746,305.923201 230.579564,313.394996 L67.5344584,311.136343 L1.03648535,317.294678 C0.482676026,306.535807 4.98730766,296.510291 10.6068063,289.266968 Z" id="Skin" fill="#DB9E75"></path>
                        <path d="M199.494244,253.591675 C199.719755,254.388818 199.256357,255.217843 198.459214,255.443354 C197.662072,255.668866 196.833047,255.205467 196.607536,254.408325 C192.91349,241.350537 181.127915,201.80433 178.631197,194.484224 C178.363767,193.70015 178.782591,192.847737 179.566665,192.580307 C180.35074,192.312878 181.203153,192.731701 181.470582,193.515776 C183.989773,200.901769 195.786108,240.484084 199.494244,253.591675 Z M52.6855553,254.187927 C52.5817662,255.009827 51.831347,255.59197 51.0094472,255.488181 C50.1875474,255.384392 49.6054036,254.633973 49.7091927,253.812073 L56.8440363,197.311666 C56.9478254,196.489766 57.6982446,195.907622 58.5201444,196.011411 C59.3420442,196.115201 59.924188,196.86562 59.8203989,197.68752 L52.6855553,254.187927 Z" id="Shadow" fill="#482D1F"></path>
                        <polygon id="Shadow" fill="#482D1F" transform="translate(122.594637, 97.160985) rotate(11.000000) translate(-122.594637, -97.160985) " points="119.042076 93.5032037 126.147198 90.641444 119.270423 103.680525"></polygon>
                        <path d="M150.085886,65.1135265 L150.455748,65.2807685 C153.122415,64.9474352 154.889082,64.5807685 155.755748,64.1807685 C157.055748,63.5807685 160.855748,61.7807685 163.055748,57.3807685 C165.255748,52.9807685 165.555748,47.0807685 162.255748,42.4807685 C159.055748,37.9807685 153.055748,35.4807685 148.255748,37.0807685 C145.555748,37.9807685 143.755748,40.0807685 143.555748,40.2807685 C142.952651,41.0402239 142.454331,41.8096581 142.044071,42.546721 L87.9656323,39.2655316 C87.4886913,27.6735149 91.677084,19.2318696 100.53081,13.9405959 C103.047583,12.4364908 110.153723,9.56553332 116.725274,9.15122423 C126.869033,8.51170219 136.443189,10.1778413 139.255748,10.3807685 C141.555909,10.5807685 159.162313,7.99073713 170.521304,13.6686373 C171.759852,14.3686373 174.679287,16.1686373 177.156383,19.6686373 C184.853075,30.2686373 182.995253,43.1686373 182.110575,46.1686373 C181.807558,47.1961902 178.791553,57.3042853 173.822691,66.4998272 C168.636737,76.0971264 161.495547,84.7756299 161.495547,84.7756299 C156.034696,84.5033047 152.231476,77.9492703 150.085886,65.1135265 Z M91.5557483,48.6807685 C90.5557483,48.4807685 90.2557483,47.1807685 90.9557483,46.4807685 C91.8557483,45.6807685 93.4557483,44.8807685 95.4557483,44.8807685 C99.5557483,44.8807685 103.955748,47.5807685 99.3557483,48.7807685 C96.6557483,49.5807685 93.4557483,49.1807685 91.5557483,48.6807685 Z M112.155748,49.3807685 C111.155748,49.1807685 110.855748,47.8807685 111.655748,47.1807685 C112.555748,46.3807685 114.155748,45.5807685 116.255748,45.5807685 C120.355748,45.5807685 124.755748,48.3807685 120.155748,49.4807685 C117.255748,50.3807685 114.155748,49.7807685 112.155748,49.3807685 Z" id="Hair" fill="#482D1F" transform="translate(135.447348, 46.890760) rotate(11.000000) translate(-135.447348, -46.890760) "></path>
                        <path d="M97.8878288,49.993619 C97.7878288,51.693619 97.4878288,54.493619 96.4878288,55.493619 C94.7878288,56.993619 92.5878288,51.993619 93.8878288,48.893619 C94.3878288,47.593619 95.0878288,47.393619 95.8878288,47.493619 C97.0878288,47.693619 97.8878288,48.793619 97.8878288,49.993619 Z M115.787829,49.693619 C115.887829,51.393619 115.887829,54.193619 114.887829,55.393619 C113.387829,57.093619 110.587829,52.293619 111.587829,49.093619 C111.987829,47.793619 112.687829,47.493619 113.487829,47.493619 C114.687829,47.493619 115.687829,48.493619 115.787829,49.693619 Z" id="Eyes" fill="#482D1F" transform="translate(104.662465, 51.619649) rotate(11.000000) translate(-104.662465, -51.619649) "></path>
                        <path d="M104.224803,70.1715385 C104.924803,69.9715385 106.624803,69.4715385 106.924803,68.3715385 C106.924803,68.1715385 107.024803,67.8715385 106.924803,67.6715385 C106.524803,66.9715385 105.324803,67.3715385 103.524803,67.4715385 C100.324803,67.6715385 97.7248031,67.3715385 97.7248031,67.3715385 C97.7248031,67.3715385 98.4248031,69.3715385 98.9248031,69.9715385 C100.024803,71.4715385 103.224803,70.4715385 104.224803,70.1715385 Z" id="Mouth" fill="#482D1F" transform="translate(102.347025, 69.021787) rotate(11.000000) translate(-102.347025, -69.021787) "></path>
                        <path d="M98.9957743,60.4405198 C98.8074773,61.5682667 99.6818172,62.675764 100.821692,62.8657431 C101.071226,62.8888789 101.071226,62.8888789 101.233046,62.9013489 C102.920183,63.0310589 103.975212,63.0793492 105.786091,63.0793492 C106.338375,63.0793492 106.786091,62.6316339 106.786091,62.0793492 C106.786091,61.5270644 106.338375,61.0793492 105.786091,61.0793492 C104.032085,61.0793492 103.026223,61.0333094 101.386357,60.9072336 L101.062787,60.8822947 C101.060061,60.8778838 100.969291,60.7629086 100.972485,60.7437481 L102.476407,50.0181785 L102.486091,49.8793492 L102.486091,43.9793492 C102.486091,43.4270644 102.038375,42.9793492 101.486091,42.9793492 C100.933806,42.9793492 100.486091,43.4270644 100.486091,43.9793492 L100.486091,49.8095967 L98.9957743,60.4405198 Z" id="Nose" fill="#482D1F" transform="translate(102.878128, 53.029349) rotate(11.000000) translate(-102.878128, -53.029349) "></path>
                        <path d="M10.7508408,289.18335 C16.9944932,284.138916 23.9879827,280.264893 31.7313096,277.561279 C39.4746364,274.857666 45.7404236,273.125895 50.5286713,272.365967 L51.197374,254 L16.8755967,242.521484 L10.7508408,289.18335 Z" id="Shadow-Arm" fill="#8C2A00" opacity="0.2"></path>
                    </g>
                </g>
            </g>
            <g id="Characters-sitting-/-Woman-sitting/-5" transform="translate(380.000000, 0.000000)">
                <g id="Woman-" transform="translate(21.000000, 86.000000)">
                    <g id="Legs" transform="translate(0.000000, 299.142046)" fill-rule="nonzero">
                        <path d="M4.5,361.801863 L159.5,361.801863 C161.985281,361.801863 164,363.816581 164,366.301863 C164,368.787144 161.985281,370.801863 159.5,370.801863 L4.5,370.801863 C2.01471863,370.801863 -5.65390597e-14,368.787144 -5.68434189e-14,366.301863 C-5.7147778e-14,363.816581 2.01471863,361.801863 4.5,361.801863 Z M308.235523,361.817592 L406.052775,288.89337 C406.761395,288.405663 407.466524,288.117926 408.266402,288.131888 C409.667934,288.056336 411.057249,288.680678 411.937914,289.796218 L412.229143,290.301377 C413.699245,292.027297 413.252184,294.719905 411.428025,296.088277 L311.911363,370.66283 L253.299345,370.839936 C250.999695,370.799796 249.131399,368.96691 249.071555,366.665515 L249.082026,366.065607 C249.222152,363.767702 251.055037,361.899406 253.354687,361.939547 L308.235523,361.817592 Z" id="Base" fill="#FFCB3D"></path>
                        <path d="M161.222593,361.875561 C160.691996,361.655524 160.11018,361.534079 159.5,361.534079 L4.5,361.534079 C4.02469044,361.534079 3.56659241,361.60777 3.13650766,361.744351 C3.17173422,361.429918 3.21977831,361.109031 3.3,360.788144 C4.5,355.988144 6,352.788144 10.5,349.888144 C15,346.988144 19.6,344.388144 24.4,342.088144 C42.1,333.388144 48.2,333.388144 59.8,325.488144 C64.6,322.188144 69,318.388144 73.1,314.288144 C75.8333333,311.554811 81.7666667,307.088144 90.9,300.888144 L174.419922,303.658735 L161.222593,361.875561 Z M407.81229,287.889114 C407.193684,287.968902 406.624365,288.23219 406.052775,288.625587 L308.235523,361.549808 L253.354687,361.671763 C253.29636,361.670745 253.238334,361.670954 253.180628,361.672368 C252.976687,361.076747 252.880366,360.455298 252.891664,359.80802 C253.003112,359.108764 253.017095,358.307634 253.229503,357.509968 C254.503945,352.723972 256.625282,349.669015 261.140499,346.842849 C265.655717,344.016683 269.687676,341.369088 274.49004,339.148965 C283.930343,334.589538 290.093657,332.529441 295.526456,330.407746 C296.331557,329.014825 297.099126,327.583387 297.84234,326.033402 C298.770205,324.046164 302.858841,313.694895 304.660509,305.868975 C305.86162,300.651695 307.585012,294.487384 309.830686,287.376041 L311.24003,281.78836 L372.63916,237.346723 L407.81229,287.889114 Z" id="Shoes" fill="#474961"></path>
                        <path d="M211.076741,0.525722517 C212.781096,0.525722517 215.1,0.525722517 215.1,0.525722517 C260.1,0.425722517 305.1,0.325722517 350.1,0.225722517 C407.343787,-0.0635034413 437.332347,-0.0747830874 440.06568,0.191883579 C442.96568,0.891883579 462.6,11.6899852 468.2,30.6257225 C471.196081,40.7566166 473.6,54.3257225 472.6,71.1257225 C472,77.8257225 471.1,92.4257225 462.6,106.425723 C453.8,121.025723 441.6,130.825723 423.5,137.025723 C408.1,142.225723 393,139.825723 374.4,138.125723 L374.2,138.125723 C373.5,138.025723 372.1,137.725723 370.4,137.425723 L367,136.825723 C365.1,136.425723 363.4,136.125723 362.6,136.025723 L362.4,136.025723 C345.2,132.925723 329.9,130.125723 314.6,127.225723 L313.9,127.125723 C313.056972,126.959335 312.213945,126.794179 311.37078,126.630116 C314.012376,130.257564 316.525084,133.75757 318.908904,137.130134 C325.508904,146.430134 331.908904,155.730134 338.108904,164.930134 L363.208904,200.430134 C367.008904,205.730134 365.308904,213.130134 359.408904,216.830134 L328.508904,236.030134 L300.508904,254.630134 L295.008904,258.130134 C289.508904,261.530134 282.308904,260.430134 278.608904,255.530134 C269.108904,242.930134 262.108904,233.430134 250.008904,217.930134 C242.394628,208.099043 247.135692,214.896568 222.955342,189.703885 C213.632195,215.970983 201.523123,250.782419 193.1,264.925723 C191,268.525723 186.9,270.425723 182.7,269.825723 L103.3,258.025723 C96.5,257.025723 92.5,249.725723 95.4,243.425723 C110.1,211.125723 136.187109,120.057954 139.787109,111.857954 C141.007164,109.092496 142.159886,106.167285 143.255746,103.129645 C133.958819,90.9549008 129.387664,84.0789385 125.508904,74.7301335 C122.008904,66.3301335 118.808904,58.6301335 119.008904,48.2301335 C119.308904,32.8301335 127.008904,15.3301335 142.408904,5.93013351 C151.008904,0.630133509 159.213623,0.879895823 164.213623,0.479895823 C168.68029,0.34656249 184.288547,0.34656249 211.038396,0.479895823 C211.051179,0.495172248 211.06396,0.510447812 211.076741,0.525722517 Z" fill="#DE3190"></path>
                        <path d="M211.079574,0.38367644 C209.888812,0.38367644 208.859976,0.38367644 208.859976,0.38367644 C201.759976,0.38367644 200.456265,1.98367644 194.156265,5.18367644 C189.256265,7.58367644 184.156265,10.4836764 178.956265,14.1836764 C171.756265,19.1836764 166.256265,26.2836764 162.856265,34.2836764 C162.756265,34.4836764 162.656265,34.6836764 162.556265,34.9836764 C156.220265,50.2076753 151.190763,79.6281522 142.919466,102.688875 C133.84801,90.7877044 129.340608,83.9655229 125.508904,74.7301335 C122.008904,66.3301335 118.808904,58.6301335 119.008904,48.2301335 C119.308904,32.8301335 127.008904,15.3301335 142.408904,5.93013351 C151.008904,0.630133509 159.348633,0.779895823 164.348633,0.379895823 C168.815299,0.24656249 184.391227,0.24656249 211.076416,0.379895823 Z M311.324933,126.565575 C313.983187,130.216376 316.511178,133.737896 318.908904,137.130134 C325.508904,146.430134 331.908904,155.730134 338.108904,164.930134 L363.208904,200.430134 C367.008904,205.730134 365.308904,213.130134 359.408904,216.830134 L328.508904,236.030134 L300.508904,254.630134 L295.008904,258.130134 C289.508904,261.530134 282.308904,260.430134 278.608904,255.530134 C269.108904,242.930134 262.108904,233.430134 250.008904,217.930134 C242.356989,208.050446 247.182866,214.964177 222.594633,189.327938 C228.065831,173.915834 232.567534,161.486752 234.784781,157.976112 C239.684781,150.176112 244.556265,135.483676 248.856265,129.783676 C251.156265,126.683676 254.356265,122.383676 258.356265,117.383676 C262.856265,117.983676 267.356265,118.583676 271.856265,119.283676 C278.056265,120.383676 284.256265,121.583676 290.556265,122.683676 C297.536501,123.95281 304.434558,125.221944 311.324933,126.565575 Z" id="Shadow-Legs" fill="#444444" opacity="0.176985679"></path>
                        <path d="M239.300832,96.3268312 C244.760047,103.591786 246.445628,105.631552 248.201324,107.348233 C249.820628,108.931552 251.426713,110.875119 256.800832,118.026831 C257.298501,118.689113 258.238827,118.822559 258.901109,118.32489 C259.563391,117.827222 259.696836,116.886896 259.199168,116.224614 C253.739953,108.959659 252.054372,106.919893 250.298676,105.203213 C248.679372,103.619893 247.073287,101.676326 241.699168,94.5246138 C241.201499,93.8623318 240.261173,93.7288862 239.598891,94.2265548 C238.936609,94.7242234 238.803164,95.6645492 239.300832,96.3268312 Z" id="Shadow" fill="#482D1F"></path>
                    </g>
                    <g id="Body" transform="translate(67.706761, 0.736607)" fill-rule="nonzero">
                        <path d="M267.076893,211.661904 L237.514493,202.390346 C235.488794,199.900123 218.184098,166.457766 253.171745,150.04914 C255.649853,145.650388 258.367855,141.388475 261.331234,137.285335 C270.331234,124.685335 277.731234,114.485335 290.931234,108.385335 C295.891722,106.109647 300.878362,104.795046 305.683859,104.145635 C312.360163,101.628595 319.658372,100.439872 327.231234,100.885335 L350.231234,102.285335 C379.431234,103.885335 401.531234,128.685335 399.731234,157.585335 L399.631234,159.385335 L396.725918,213.531446 L394.167956,265.427639 L392.731234,275.385335 C392.731234,276.185335 392.631234,276.885335 392.531234,277.685335 C392.431234,278.585335 392.331234,279.385335 392.231234,280.285335 C391.931234,282.585335 385.231234,297.785335 384.831234,298.685335 L258.931234,298.885335 L267.076893,211.661904 Z" id="T-shirt" fill="#FFCB3D" transform="translate(315.645077, 199.839404) scale(-1, 1) translate(-315.645077, -199.839404) "></path>
                        <path d="M227.075582,556.397371 L232.358408,553.035573 L260.358408,534.435573 L290.85458,515.486495 L306.924903,538.711147 L244.400488,581.144741 L227.075582,556.397371 Z M37.6210491,556.798469 L114.549504,568.231162 C114.846898,568.273646 115.143791,568.303597 115.439508,568.321297 L106.713161,602.064174 L23.1932386,599.293583 L37.6210491,556.798469 Z M305.370641,63.7317254 L303.84477,75.4705154 L303.216962,84.4485918 L302.026777,101.469022 L280.895828,102.755254 C277.881743,102.920409 274.943308,103.332756 272.098998,103.971287 L273.195491,89.106265 C272.775737,89.1740026 272.34494,89.2423417 271.902835,89.3112422 C262.977783,90.7922697 263.490516,90.6276351 262.885002,90.6855377 C256.345031,91.0301718 251.120722,89.7626549 250.144085,89.3936292 C242.089621,87.0260108 235.765848,69.943274 236.238048,47.4213508 C236.263854,45.6187598 236.489172,43.8301202 236.71449,42.0414805 L239.75177,24.4104021 C240.429822,20.4480485 242.091486,16.7549642 244.609104,13.7231991 C245.704327,12.3963659 246.785599,11.2690455 247.952676,10.3482136 C260.973986,-0.971038865 279.228725,4.61595696 282.457905,5.74396097 C282.849955,5.87161997 283.242005,5.99927896 283.634055,6.12693795 C287.127627,7.77465093 290.46354,8.80987418 293.920135,9.55280386 C295.502287,9.86392703 296.494972,11.4370052 296.183849,13.0191564 L291.21983,38.1340626 C290.753145,40.5072894 310.126691,30.329929 310.461692,51.1079107 C311.248872,56.2178325 308.797851,60.9198325 305.370641,63.7317254 Z M236.837409,250.070474 C239.09858,249.691644 241.658939,249.276421 244.566297,248.820121 C276.357508,243.855212 303.20048,240.100586 325.591271,237.073648 C325.584214,237.070233 325.577154,237.066814 325.570093,237.063393 C324.596874,235.293903 322.388611,230.645546 319.619906,224.685548 C320.306656,224.719669 321.009099,224.743827 321.727558,224.757703 L392.87574,202.443734 C393.501731,204.124638 394.133197,205.831347 394.770093,207.563393 C406.623721,239.900091 413.123362,257.276322 411.717246,269.390499 C411.80037,269.403862 411.880943,269.415215 411.958919,269.424526 C411.87327,269.501265 411.769968,269.733156 411.624681,270.102054 C411.564877,270.516324 411.495448,270.92446 411.416286,271.32687 C411.339419,271.295836 411.262599,271.264822 411.185826,271.233827 C409.570666,275.319059 404.86368,285.581436 388.358919,295.528857 C374.572461,303.837958 313.772461,304.956784 205.958919,298.885335 C205.852394,298.803825 205.746077,298.722463 205.639969,298.641248 C194.19244,297.730631 181.68763,295.324743 168.125538,291.423583 C171.948838,292.533121 175.70032,293.525342 179.379984,294.400243 L126.789332,287.458114 C117.885447,285.122668 92.6827326,278.273424 73.6112389,273.149096 C67.4890208,271.555995 61.4459679,269.982618 56.0896453,268.583833 C44.9896453,265.683833 36.7896453,263.483833 36.7896453,263.483833 C37.3896453,251.483833 56.3896453,254.483833 64.8896453,256.483833 C75.2896453,256.983833 85.6896453,257.583833 96.1896453,258.083833 C97.8082818,257.659905 99.7239687,257.191418 101.879466,256.792855 C94.0985657,251.427314 102.935706,247.120852 128.390886,243.873471 C141.609739,242.187108 151.679995,243.94892 161.946022,246.847601 L216.640077,236.698192 L216.558919,236.625866 L233.221063,189.263393 L234.795828,215.795785 L234.895828,216.795785 L236.837409,250.070474 Z" id="Skin" fill="#F2A98A"></path>
                        <path d="M241.302537,61.5934766 C243.802537,63.6934766 246.602537,64.4934766 248.402537,64.7934766 C249.502537,64.9934766 250.502537,65.7934766 250.802537,66.7934766 L256.302537,84.2934766 C256.302537,84.2934766 256.602537,84.4934766 257.302537,84.6934766 C259.002537,85.3934766 263.202537,86.8934766 272.402537,88.9934766 C281.202537,91.0934766 280.702537,90.8934766 281.302537,90.9934766 C287.802537,91.7934766 293.102537,90.8934766 294.102537,90.5934766 C302.302537,88.7934766 309.802537,72.1934766 310.902537,49.6934766 C311.002537,47.8934766 310.902537,46.0934766 310.802537,44.2934766 L309.002537,26.4934766 C308.602537,22.4934766 307.202537,18.6934766 304.902537,15.4934766 C303.902537,14.0934766 302.902537,12.8934766 301.802537,11.8934766 C289.602537,-0.306523362 271.002537,3.99347664 267.702537,4.89347664 C267.302537,4.99347664 266.902537,5.09347664 266.502537,5.19347664 C262.902537,6.59347664 259.502537,7.39347664 256.002537,7.89347664 C254.402537,8.09347664 253.302537,9.59347664 253.502537,11.1934766 L256.702537,36.5934766 C257.002537,38.9934766 238.386121,27.4894776 236.602537,48.1934766 C235.402537,53.4934766 237.802537,58.5934766 241.302537,61.5934766 Z" id="Path" fill="#F2A98A" transform="translate(273.616891, 47.371202) scale(-1, 1) rotate(-4.000000) translate(-273.616891, -47.371202) "></path>
                        <polygon id="Shadow" fill="#482D1F" transform="translate(278.052690, 91.674581) scale(-1, 1) rotate(-1.000000) translate(-278.052690, -91.674581) " points="283.659058 97.1553666 272.303402 86.1937948 283.801977 88.9675506"></polygon>
                        <path d="M328.093646,61.9808343 C331.346607,66.115272 333.113517,70.2266695 332.079096,73.6746401 C330.763934,78.0340484 326.625186,80.1070128 322.397504,82.194063 C322.36235,82.2112663 322.326878,82.2285676 322.291086,82.2459628 C324.998778,77.3851536 327.067444,70.3838426 328.093646,61.9808343 Z M270.061557,65.7894649 C271.469152,70.958071 273.757375,77.7353504 276.926226,86.1213031 C264.72906,91.2519195 255.176449,91.2519195 248.268394,86.1213031 C245.414532,84.0152483 239.31688,62.4637469 235.350379,51.6140067 C234.094716,47.9927762 229.731286,35.7673732 235.761351,24.5193374 C237.89043,20.5611785 240.729658,18.1572682 241.963711,17.1687771 C248.704609,11.7854423 254.866481,12.4572483 269.655551,8.91699105 C272.713121,8.20196396 277.246111,7.08303294 282.635054,5.30278266 C283.03408,5.27488007 283.42613,5.14722108 283.81818,5.01956208 C287.04736,3.89155808 304.948383,-0.915013967 317.243496,10.0540424 C318.003796,10.7565923 318.546277,11.2917892 318.870937,11.6596332 C316.339636,13.7285456 314.230357,15.1227267 312.543099,15.8421763 C305.435273,18.8453087 298.830423,19.0064322 294.698557,18.6938953 C294.074897,21.2436106 293.080114,24.2202541 291.586549,27.2317759 C287.396164,35.9492316 280.744937,41.3379189 276.60379,44.1861997 C275.698529,43.2918981 273.596549,41.4019686 270.834389,40.1107459 C270.521168,39.93216 268.150039,38.9952795 265.470567,39.3831347 C260.703187,40.017235 256.627809,44.8132017 255.886247,49.9775105 C255.058879,55.3483078 257.709035,60.2754445 261.409778,63.023989 C264.74613,65.5018995 268.415875,65.7566692 270.061557,65.7894649 Z" id="Hair" fill="#482D1F" transform="translate(282.511104, 46.484633) scale(-1, 1) translate(-282.511104, -46.484633) "></path>
                        <path d="M300.03278,245.312983 C299.305599,245.709845 298.394382,245.44207 297.99752,244.714889 C297.600657,243.987709 297.868433,243.076492 298.595613,242.679629 L311.095613,235.857687 C311.822794,235.460824 312.734011,235.7286 313.130873,236.45578 C313.527736,237.182961 313.259961,238.094178 312.53278,238.491041 L300.03278,245.312983 Z M334.013748,183.610519 C333.713408,182.838452 334.095818,181.969095 334.867884,181.668754 C335.639951,181.368414 336.509309,181.750824 336.809649,182.522891 C337.055386,183.154592 337.224175,183.615594 337.473083,184.385972 C337.855978,185.571048 338.208839,186.865649 338.509458,188.262634 C340.459986,197.326815 339.531918,206.446255 334.045825,214.390361 C329.521745,220.91168 323.485593,224.628581 317.248325,226.602972 C316.458523,226.852982 315.61559,226.415394 315.36558,225.625592 C315.11557,224.835791 315.553158,223.992857 316.34296,223.742847 C322.004304,221.950763 327.495369,218.569512 331.57908,212.682977 C336.523664,205.522995 337.368542,197.221005 335.576595,188.893759 C335.298007,187.59915 334.971454,186.401068 334.618389,185.308318 C334.39098,184.60448 334.240085,184.192351 334.013748,183.610519 Z" id="Shadow" fill="#482D1F" transform="translate(318.628718, 213.531446) scale(-1, 1) translate(-318.628718, -213.531446) "></path>
                        <path d="M36.2932386,250.251671 L38.2453929,216.795785 L38.3453929,215.795785 L39.9201572,189.263393 L56.5823015,236.625866 L56.5011432,236.698192 L111.456709,246.896129 C107.779403,247.924241 104.0825,249.102181 100.212089,250.323583 C94.8967392,252.000969 87.7102983,254.819564 78.6527662,258.779367 C69.633506,256.814576 63.5932455,255.624843 59.1995876,255.007354 C52.7126068,254.095669 56.3299397,253.613091 36.2932581,250.251677 Z M171.211531,256.783589 C173.387502,257.184145 175.320378,257.656615 176.951575,258.083833 C187.451575,257.583833 197.851575,256.983833 208.251575,256.483833 C216.751575,254.483833 235.751575,251.483833 236.351575,263.483833 C236.351575,263.483833 228.151575,265.683833 217.051575,268.583833 C211.695253,269.982618 205.6522,271.555995 199.529982,273.149096 C180.458488,278.273424 155.255773,285.122668 146.351888,287.458114 L93.7612363,294.400243 C97.440901,293.525342 101.192383,292.533121 105.015682,291.423583 C119.884744,287.108514 138.23537,277.216225 160.067558,261.746715 C165.236138,260.002589 168.950795,258.348214 171.211531,256.783589 Z" id="Shadow-Arm" fill="#8C2A00" opacity="0.2" transform="translate(136.322407, 241.831818) scale(-1, 1) translate(-136.322407, -241.831818) "></path>
                        <path d="M1.6691537e-11,281.987551 C9.66781031,276.988028 20.2990043,270.396741 31.8935819,262.213689 L138.667074,233.443302 C141.667074,232.643302 144.867074,234.443302 145.667074,237.543302 C146.467074,240.643302 144.667074,243.743302 141.567074,244.543302 L2.76707358,281.943302 C1.82306623,282.186917 0.879058883,282.18943 1.66979763e-11,281.987551 Z" id="Notepad" fill="#474961" transform="translate(72.928359, 257.693302) scale(-1, 1) translate(-72.928359, -257.693302) "></path>
                        <path d="M242.805603,44.1510971 C242.917622,46.0386507 243.179906,49.0839965 242.267423,50.3951685 C240.785321,52.5127915 237.366202,47.3157821 238.183056,43.8043018 C238.575093,42.3613165 239.344148,41.7743934 240.185605,41.8184922 C241.558435,41.7859013 242.666265,42.7848016 242.805603,44.1510971 Z M264.880124,43.3052291 C264.992144,45.1927826 265.254428,48.2381285 264.341945,49.5493005 C262.859842,51.6669234 259.440723,46.4699141 260.257578,42.9584338 C260.649614,41.5154484 261.41867,40.9285253 262.260127,40.9726242 C263.632957,40.9400332 264.740787,41.9389336 264.880124,43.3052291 Z" id="Eyes" fill="#482D1F" transform="translate(251.530679, 45.928529) rotate(9.000000) translate(-251.530679, -45.928529) "></path>
                        <path d="M246.897751,45.1020942 L245.997736,54.7984703 C245.993471,56.0234118 246.924134,57.1514201 248.093471,57.1514201 C248.785024,57.2057791 249.228124,57.2057791 251.008292,57.172796 C251.804241,57.1580486 252.349604,57.1514201 252.993471,57.1514201 C253.545755,57.1514201 253.993471,56.7037048 253.993471,56.1514201 C253.993471,55.5991353 253.545755,55.1514201 252.993471,55.1514201 C252.334868,55.1514201 251.778487,55.1581825 250.971242,55.1731392 C249.262521,55.2047986 248.846362,55.2047986 248.167852,55.1541902 C248.122807,55.1514201 247.993471,54.9946585 247.993471,54.8908912 L248.889191,45.286936 C248.940233,44.737015 248.535813,44.2498377 247.985892,44.1987951 C247.435971,44.1477524 246.948793,44.5521732 246.897751,45.1020942 Z" id="Nose" fill="#482D1F" transform="translate(249.995603, 50.694903) rotate(12.000000) translate(-249.995603, -50.694903) "></path>
                        <path d="M252.027855,63.4570728 C252.694914,63.2383033 254.314914,62.47261 254.505502,61.3787624 C254.505502,61.1599929 254.600796,60.8318387 254.505502,60.7224539 C254.124326,60.1755301 252.885502,60.6130691 251.170208,60.9412234 C248.120796,61.4881472 245.547855,61.4881472 245.547855,61.4881472 C245.547855,61.4881472 246.405502,63.3476881 246.881973,63.8946119 C247.930208,65.2072289 250.97962,63.8946119 252.027855,63.4570728 Z" id="Mouth" fill="#482D1F" transform="translate(250.047855, 62.462992) rotate(12.000000) translate(-250.047855, -62.462992) "></path>
                        <path d="M252.869498,43.5662421 C253.28968,35.8595466 259.870053,29.9441038 267.581405,30.3482386 C273.262149,30.6459538 277.974002,34.2902781 279.906619,39.2706179 L280.032846,39.7422579 L280.032846,39.7422579 L279.906619,39.2706179 C279.964683,39.4202497 280.020239,39.5710875 280.073237,39.7230768 L287.389169,36.2488096 C288.137501,35.8934341 289.032232,36.2119877 289.387607,36.9603191 C289.742983,37.7086504 289.424429,38.6033815 288.676098,38.958757 L281.020965,42.5941072 C280.933875,42.6354653 280.844803,42.6676956 280.754829,42.6911832 C280.845063,43.4652617 280.871672,44.2573553 280.829515,45.0617555 C280.424854,52.7831456 273.837388,58.7145265 266.115998,58.3098656 C259.540172,57.9652411 254.262615,53.1363105 253.091328,46.9416737 C253.081347,46.8092806 253.071799,46.6823116 253.062666,46.5605357 L249.650799,46.8443892 L249.649604,47.2427855 C248.845733,54.5658514 242.451401,60.0737737 235.001475,59.6833396 C227.280085,59.2786787 221.348704,52.6912128 221.753365,44.9698227 C222.158026,37.2484326 228.745491,31.3170517 236.466882,31.7217126 C243.304921,32.0800791 248.739089,37.2875083 249.611902,43.8372608 L252.869497,43.5662422 Z M266.273006,55.313977 C272.339813,55.6319249 277.515679,50.9715541 277.833626,44.9047476 C278.151574,38.8379412 273.491204,33.6620751 267.424397,33.3441272 C261.357591,33.0261794 256.181725,37.6865501 255.863777,43.7533566 C255.545829,49.8201631 260.2062,54.9960292 266.273006,55.313977 Z M235.158483,56.687451 C241.225289,57.0053988 246.401155,52.3450281 246.719103,46.2782216 C247.037051,40.2114151 242.37668,35.0355491 236.309874,34.7176012 C230.243067,34.3996533 225.067201,39.0600241 224.749253,45.1268306 C224.431305,51.1936371 229.091676,56.3695031 235.158483,56.687451 Z" id="Glasses" fill="#482D1F" transform="translate(255.633408, 45.015789) rotate(9.000000) translate(-255.633408, -45.015789) "></path>
                    </g>
                </g>
            </g>
            <g id="Chair" transform="translate(591.000000, 233.592134)" fill="#D8DEED" fill-rule="nonzero">
                <path d="M3,513.075634 L3.4,513.275634 C5.5,514.375634 8.2,513.775634 9.2,511.875634 L126.3,296.775634 C127.4,294.775634 126.5,292.275634 124.4,291.175634 L124,290.975634 C121.9,289.875634 119.2,290.475634 118.2,292.375634 L89.2,345.575634 C70.3,380.375634 51.4,415.075634 32.4,449.875634 L1.1,507.275634 C2.27262653e-13,509.275634 0.9,511.875634 3,513.075634 Z" id="Path"></path>
                <path d="M290.756276,287.475634 L227.691396,287.475634 C189.491114,287.475634 151.290832,287.475634 113.176587,287.475634 L54.6716502,287.475634 C52.6067701,287.475634 50.8,289.475634 50.8,291.875634 L50.8,292.375634 C50.8,294.775634 52.5207334,296.775634 54.6716502,296.775634 L290.92835,296.775634 C292.99323,296.775634 294.8,294.775634 294.8,292.375634 L294.8,291.875634 C294.8,289.475634 292.99323,287.475634 290.756276,287.475634 Z" id="Path"></path>
                <path d="M329.5,507.275634 L298.2,449.875634 C279.3,415.075634 260.4,380.375634 241.4,345.575634 L212.4,292.375634 C211.4,290.475634 208.7,289.775634 206.6,290.975634 L206.2,291.175634 C204.1,292.275634 203.2,294.875634 204.3,296.775634 L321.4,511.875634 C322.4,513.775634 325.1,514.475634 327.2,513.275634 L327.6,513.075634 C329.7,511.875634 330.6,509.275634 329.5,507.275634 Z" id="Path"></path>
                <path d="M294.36568,4.42980747 L303.86568,81.2298075 C309.66568,127.729807 315.36568,174.229807 321.16568,220.629807 L329.96568,291.829807 C330.26568,294.329807 328.56568,296.829807 326.16568,297.129807 L325.66568,297.229807 C323.26568,297.529807 321.06568,295.729807 320.66568,293.029807 L284.96568,5.42980747 C284.66568,2.92980747 286.36568,0.429807475 288.76568,0.129807475 L289.26568,0.029807475 C291.76568,-0.270192525 294.06568,1.72980747 294.36568,4.42980747 Z" id="Path" transform="translate(307.465680, 148.631201) scale(-1, 1) translate(-307.465680, -148.631201) "></path>
            </g>
            <rect id="Rectangle" fill="#D8DEED" fill-rule="nonzero" x="87" y="374" width="787" height="14" rx="7"></rect>
        </g>
        <g id="Characters-standing-/-Woman-standing-/-2" transform="translate(-119.000000, 176.000000)">
            <g id="Woman" transform="translate(294.000000, 53.000000)">
                <path d="M21.4376287,893 C18.8376287,893 16.8376287,891.269231 16.9376287,889.192308 L16.9376287,887.807692 C16.9376287,885.730769 19.0376287,884 21.4376287,884 L123.937629,884 C126.437629,884 128.437629,885.730769 128.437629,887.807692 L128.437629,889.192308 C128.437629,891.269231 126.337629,893 123.937629,893 L21.4376287,893 Z M249.863159,884 L408.863159,884 C411.348441,884 413.363159,886.014719 413.363159,888.5 C413.363159,890.985281 411.348441,893 408.863159,893 L249.863159,893 C247.377878,893 245.363159,890.985281 245.363159,888.5 C245.363159,886.014719 247.377878,884 249.863159,884 Z" id="Base" fill="#3ABF7C" fill-rule="nonzero"></path>
                <path d="M178.385975,543.593715 C175.736097,599.309788 171.206028,680.496335 164.795769,787.153355 C164.436217,793.135754 159.717932,797.935642 153.742578,798.397716 C122.139376,800.841575 106.337775,802.063504 106.337775,802.063504 C98.2930564,801.898001 90.1487179,801.741411 81.5683209,801.181233 C78.1436782,801.04501 74.6006257,800.69808 71.0575732,800.351151 C47.9610721,795.55714 31.8341299,791.190162 8.73762874,786.396151 C4.23223477,785.360769 -2.59765625,775.906674 1.75867461,760.324179 C6.11500546,744.741683 19.505469,654.868146 30.2793494,588.896984 C29.3680172,578.245531 29.462275,567.614766 30.9699956,557.078848 C32.6450422,544.978872 61.8935348,342.44421 65.3111815,322.553536 C67.9845129,285.298563 86.1589984,269.041509 107.084473,262.16179 C112.680771,260.321881 116.910752,253.797379 125.364696,250.986109 C133.009899,248.443777 149.561282,246.874528 175.018845,246.27836 C183.273013,244.408305 203.631013,245.049929 217.727051,253.181108 C223.311004,256.402164 230.685055,263.514589 239.667969,280.460405 C248.650882,297.406221 301.091624,458.752687 302.191624,488.577821 C311.791624,516.053715 319.691624,541.793214 324.291624,557.522907 C328.491624,571.822629 328.491624,583.262406 328.891624,586.633055 C339.991624,675.189188 384.591624,754.756925 363.791624,774.16369 C360.591624,777.125775 343.491624,780.496424 309.291624,787.339862 C307.091624,787.748425 305.091624,788.156989 305.091624,788.156989 C296.591624,789.791243 288.591624,791.016933 280.591624,792.140483 C280.591624,792.140483 242.791624,799.494625 199.891624,796.226117 C192.976293,795.678097 185.807743,711.467296 178.385975,543.593715 Z" id="Legs" fill="#A339FF" fill-rule="nonzero"></path>
                <path d="M217.727051,252.828754 C223.311004,256.04981 230.685055,263.162235 239.667969,280.108051 C248.650882,297.053867 301.091624,458.400333 302.191624,488.225467 C311.791624,515.701361 319.691624,541.44086 324.291624,557.170553 C328.491624,571.470275 328.491624,582.910052 328.891624,586.280701 C339.991624,674.836834 384.591624,754.404571 363.791624,773.811336 C360.591624,776.773421 343.491624,780.14407 309.291624,786.987508 C307.091624,787.396071 305.091624,787.804635 305.091624,787.804635 C296.591624,789.438889 288.591624,790.664579 280.591624,791.788129 C280.591624,791.788129 242.791624,799.142271 199.891624,795.873763 C192.923933,795.321593 185.699175,709.834936 178.217349,539.413793 C179.954985,502.40218 180.823803,477.160224 180.823803,463.687926 C183.893828,439.734327 186.854839,415.679831 189.924864,391.726231 C192.628682,337.317132 193.166789,300.413066 191.539184,281.014034 C191.350675,278.767229 190.139412,267.095884 187.905395,246 L217.727051,252.828754 Z" id="Shadow-Legs" fill="#444444" fill-rule="nonzero" opacity="0.176985679"></path>
                <path d="M123.977819,884 L22.5497742,884 L53.0376287,825.254155 L108.437629,831.954155 L123.977819,884 Z M410.876097,884.441842 C410.28691,884.158655 409.626544,884 408.929122,884 L249.929122,884 C249.592853,884 249.265197,884.036884 248.949982,884.106827 L259.714308,822.954155 L322.376679,821 L340.376679,834.1 C344.576679,838.1 348.976679,841.9 353.876679,845.1 C365.576679,852.8 371.676679,852.7 389.476679,861.2 C394.276679,863.4 398.976679,866 403.476679,868.8 C405.676679,870.8 409.576679,874.8 410.876679,879.6 C411.076679,880.4 411.076679,881.2 411.176679,881.9 C411.199844,882.803428 411.08349,883.653195 410.876097,884.441842 Z" id="Shoes" fill="#474961" fill-rule="nonzero"></path>
                <path d="M99.6,333.054155 C99.6,333.054155 129.9,397.654155 114.7,400.754155 C114.7,400.754155 105.6,395.854155 99,380.254155" id="Finger" fill="#482D1F" fill-rule="nonzero"></path>
                <g id="Note" transform="translate(9.737629, 345.163744)" fill-rule="nonzero">
                    <path d="M13.0555638,4.15327678 L0.0555637709,91.0532768 C-0.344436229,93.7532768 1.45556377,96.2532768 4.15556377,96.7532768 L120.055564,114.153277 C122.755564,114.553277 125.255564,112.753277 125.755564,110.053277 L138.755564,23.1532768 C139.155564,20.4532768 137.355564,17.9532768 134.655564,17.4532768 L18.7555638,0.0532767762 C15.9555638,-0.346723224 13.4555638,1.55327678 13.0555638,4.15327678 Z" id="Path" fill="#F2F6FB"></path>
                    <path d="M126.242406,34.0704459 L116.342406,97.7704459 C115.842406,100.470446 117.742406,102.970446 120.442406,103.470446 L129.742406,104.970446 C132.442406,105.470446 134.942406,103.570446 135.442406,100.870446 L145.342406,37.1704459 C145.842406,34.4704459 143.942406,31.9704459 141.242406,31.4704459 L131.942406,29.9704459 C129.242406,29.4704459 126.742406,31.3704459 126.242406,34.0704459 Z" id="Document" fill="#3ABF7C"></path>
                </g>
                <path d="M191.262156,103.169468 C198.359456,100.307738 209.19917,98.0925456 220.311289,104.312156 C229.775376,109.501669 227.697183,116.629159 243.985545,132.818639 C252.061563,140.824757 259.134342,145.765992 258.629511,152.078293 C258.315715,155.704797 255.752452,158.240478 253.72368,159.857292 C244.578351,163.518754 235.41134,167.165592 226.233488,170.811901 L226.59152,201.580233 L226.607809,202.513418 L227.210521,219.683148 L227.210631,225.593341 C227.210994,245.065323 212.119295,261.205385 192.69112,262.510791 L128.884982,266.798014 C115.659968,267.686621 104.218617,257.685987 103.33001,244.460973 C103.296076,243.955946 103.278128,243.449971 103.276192,242.943809 L103.061879,186.915696 C92.7250176,187.616061 82.3886066,188.312754 72.0536067,188.997955 C68.8025782,188.397277 64.5328707,187.067015 62.6399964,183.610567 C59.2652124,177.45339 66.0317365,169.115875 72.765091,156.945751 C86.2318001,132.605501 80.6368538,126.477975 90.2277366,116.472228 C103.518805,102.588515 121.177331,100.72667 130.939085,100.817002 C133.159247,100.787351 135.429916,101.166905 137.576957,101.732781 L137.825204,101.862163 C142.470445,100.448193 147.40517,99.6691727 152.519764,99.6313734 L174.699611,99.5242637 C180.458376,99.4619707 186.034251,100.788263 191.262156,103.169468 Z" id="T-shirt" fill="#3ABF7C" fill-rule="nonzero"></path>
                <path d="M113.543728,801.071679 L108.437629,831.954155 C108.437629,831.954155 90.0042954,829.720822 53.1376287,825.254155 C53.3838134,814.334284 53.5693912,804.663615 53.6943621,796.242148 C59.0488813,797.457186 64.6315195,798.686201 70.6944139,799.944642 C74.2374664,800.291571 77.7805189,800.638501 81.2051616,800.774725 C89.7855586,801.334902 97.9298971,801.491492 105.974616,801.656995 L113.543728,801.071679 Z M319.891564,784.738077 L322.376679,821 L259.714308,822.954155 C259.714308,822.954155 257.260712,809.67845 254.352978,795.154542 C270.089006,793.706646 280.228465,791.733974 280.228465,791.733974 C288.228465,790.610424 296.228465,789.384734 304.728465,787.75048 C304.728465,787.75048 306.728465,787.341916 308.928465,786.933353 C312.800471,786.158562 316.453289,785.428286 319.891564,784.738077 Z M157.180233,82.2975457 L152.382679,64.8007686 C152.019535,63.7576355 148.129778,62.2927193 145.948047,60.5693359 C142.069472,57.4139187 141.192001,52.0674871 141.922983,46.7321647 C143.01763,41.6153544 147.531722,36.9857785 152.382679,36.60079 C154.201788,36.4564193 155.947799,36.8455809 157.693548,37.6470529 L157.81477,37.7198903 C158.420879,38.0840772 159.14847,38.108791 159.75484,38.0606675 C161.428535,37.7464298 162.617864,36.3162217 162.400656,34.6183346 L158.827515,8.71326436 C158.513277,7.03956944 159.605577,5.63355348 161.279272,5.31931583 C164.941943,4.71529354 168.435008,3.84437471 171.904141,2.46411584 C172.389289,2.34315489 172.777407,2.24638613 173.165525,2.14961737 C176.634398,1.18166898 195.482327,-3.41458623 208.134906,8.88997604 C209.274025,10.1518821 210.388952,11.3167586 211.334013,12.6270491 C213.684567,15.8542604 215.161595,19.7115119 215.668327,23.8106854 L217.718403,41.9536506 C217.862774,43.7727594 217.910115,45.6160605 217.860427,47.4835538 C216.997008,70.4753894 209.61311,87.5694836 201.244375,89.5529823 C196.926689,90.4233795 192.463851,90.7115993 188.098563,90.1510059 C187.508686,90.0195305 187.902913,90.1445867 181.372665,88.7299585 L181.288441,98.9906439 C192.17693,101.088511 196.592852,105.119038 196.592852,105.119038 C196.175681,107.754559 195.203922,109.626906 193.997772,111.014423 C186.582287,119.652743 164.224315,115.301758 138.296769,101.476695 C143.929887,100.154673 149.085172,99.2393765 153.791456,98.6472114 C154.921547,93.2079443 156.077306,88.3149787 157.180233,82.2975457 Z M226.947283,227.08279 C226.973747,226.509235 226.987116,225.932423 226.987105,225.352657 L226.986995,219.442463 L226.384282,202.272734 L226.367993,201.339548 L226.006807,170.300133 C235.43217,166.555743 244.846409,162.811196 254.237782,159.051226 C254.756491,158.637845 255.310139,158.164398 255.852197,157.628011 L281.102436,190.961716 C287.720303,185.46469 318.657263,161.969962 337.997246,147.331823 C364.636695,123.502513 416.04545,78 416.04545,78 C422.55984,82.7435442 417.921284,97.5043439 410.143768,113.442681 C413.433713,115.608524 416.964523,119.855962 420.736199,126.184996 C424.444705,132.408027 423.175845,140.392277 417.720838,145.159041 L387.125495,171.894244 C356.322434,208.597238 303.019037,262.412665 287.592954,267.794958 C270.942345,273.602355 249.340639,256.05833 226.947283,227.08279 Z M73.7599491,188.467981 C96.4028291,186.964502 119.052269,185.407598 141.698169,183.879521 L100.072237,359.527392 C100.049727,359.528926 100.027228,359.530523 100.00474,359.532182 L118.493455,436.265138 C118.932086,438.085573 118.049101,439.966677 116.368413,440.792309 C110.60922,443.62149 103.186416,444.984208 94.1,444.880463 C78.1195173,444.698005 67.1,438.587924 67.1,438.497484 C54.8666477,411.375715 47.9176148,390.344343 46.2529012,375.403368 C46.0264096,373.370583 46.0070294,371.125074 46.1947607,368.666843 C46.1299507,368.643862 46.0650306,368.620743 46,368.597484 L73.7599491,188.467981 Z" id="Skin" fill="#BF865F" fill-rule="nonzero"></path>
                <path d="M190.091919,103.775513 C196.990702,100.66783 208.291296,97.5843956 220.311289,104.312156 C229.775376,109.501669 227.697183,116.629159 243.985545,132.818639 C252.061563,140.824757 258.697994,145.47423 258.697994,151.807582 C258.697994,155.354492 256.428223,157.615845 254.237782,159.051226 C244.844374,162.81201 235.421923,166.577394 226.006807,170.227295 L225.338688,150.14415 C225.40945,138.054337 221.970271,127.142596 215.021152,117.408928 C209.650443,109.886147 201.340698,105.341675 190.091919,103.775513 Z" id="Path" fill="#444444" fill-rule="nonzero" opacity="0.176985679"></path>
                <path d="M226.947283,227.08279 C226.973747,226.509235 226.987116,225.932423 226.987105,225.352657 L226.986995,219.442463 L226.384282,202.272734 L226.367993,201.339548 L226.006807,170.300133 C235.43217,166.555743 244.846409,162.811196 254.237782,159.051226 C254.756491,158.637845 255.310139,158.164398 255.852197,157.628011 L281.102436,190.961716 C287.720303,185.46469 318.657263,161.969962 337.997246,147.331823 C364.636695,123.502513 416.04545,78 416.04545,78 C422.55984,82.7435442 417.921284,97.5043439 410.143768,113.442681 C413.433713,115.608524 416.964523,119.855962 420.736199,126.184996 C424.444705,132.408027 423.175845,140.392277 417.720838,145.159041 L387.125495,171.894244 C356.322434,208.597238 303.019037,262.412665 287.592954,267.794958 C270.942345,273.602355 249.340639,256.05833 226.947283,227.08279 Z" id="Combined-Shape-Copy" fill="#8C2A00" fill-rule="nonzero" opacity="0.2"></path>
                <path d="M92.6318095,408.355192 C92.4450427,407.548092 92.9479217,406.742405 93.7550212,406.555638 C94.5621208,406.368871 95.3678087,406.87175 95.5545755,407.678849 C96.7131515,412.685553 97.7777854,416.566612 100.279024,425.212942 C102.795154,433.910745 103.869643,437.82773 105.0444,442.90436 C105.231167,443.711459 104.728288,444.517147 103.921188,444.703914 C103.114089,444.890681 102.308401,444.387802 102.121634,443.580702 C100.963058,438.573999 99.898424,434.69294 97.3971851,426.04661 C94.8810557,417.348807 93.8065669,413.431822 92.6318095,408.355192 Z M72.2555501,404.845021 C72.019172,404.051033 72.4712041,403.215756 73.2651921,402.979378 C74.0591801,402.743 74.8944568,403.195032 75.1308349,403.98902 C76.761784,409.467337 77.891741,413.615212 80.3015335,422.765695 C82.7034384,431.886227 83.8273806,436.012023 85.4464315,441.450373 C85.6828096,442.244361 85.2307774,443.079638 84.4367895,443.316016 C83.6428015,443.552394 82.8075248,443.100362 82.5711467,442.306374 C80.9401975,436.828058 79.8102406,432.680182 77.4004481,423.5297 C74.9985431,414.409168 73.874601,410.283371 72.2555501,404.845021 Z M139.500299,184.804902 C139.516825,183.9776 140.20011,183.320139 141.027049,183.335085 C141.094222,183.335652 141.212553,183.33263 141.374163,183.322189 C141.641625,183.30491 141.938098,183.272173 142.255256,183.220257 C143.137448,183.07585 144.012382,182.812282 144.816039,182.406396 C147.448736,181.076754 148.848678,178.536333 148.407444,174.083874 C148.061271,170.622147 147.564918,167.601864 146.95873,165.000989 C146.531399,163.167511 146.076538,161.655403 145.625752,160.447216 C145.364922,159.748143 145.171349,159.318398 145.076471,159.1405 C144.686623,158.409535 144.963153,157.500937 145.694118,157.111089 C146.425083,156.721241 147.333681,156.997771 147.723529,157.728736 C147.881098,158.024176 148.129308,158.575222 148.436483,159.398507 C148.932374,160.727584 149.424189,162.362535 149.880423,164.320027 C150.516309,167.048323 151.033652,170.196323 151.392688,173.786694 C151.956457,179.475637 149.905928,183.196655 146.168485,185.084247 C145.0689,185.639592 143.905535,185.990047 142.739879,186.180855 C142.010509,186.300246 141.408692,186.339125 140.993681,186.334903 L140.970042,186.334561 C140.14178,186.318016 139.483754,185.633164 139.500299,184.804902 Z" id="Combined-Shape" fill="#482D1F" fill-rule="nonzero"></path>
                <path d="M121.412632,49.4877356 C104.340584,61.3851455 85.2070162,60.8737796 75.4892204,51.8561507 C68.0962578,44.9392074 66.7209544,33.6361751 66.5279385,32.0353175 C64.5735874,15.9297126 77.8192978,10.7720815 78.9352683,10.2877161 C78.9352683,10.2877161 95.266949,-3.98730417 122.561082,20.3320357 C122.646762,20.4087507 122.732721,20.4861102 122.818905,20.5641361 C124.437148,17.7506384 126.728011,15.4233585 129.307898,13.4967975 C136.538818,8.18984033 142.844175,9.09121089 158.344193,5.94805195 C161.497524,5.36796103 166.374803,4.00118134 172.148193,2.35559082 C172.633341,2.23462987 173.02146,2.13786111 173.409578,2.04109236 C176.87845,1.07314396 195.482327,-3.41458623 208.134906,8.88997604 C208.111137,9.19643893 197.293162,47.0551594 168.530976,51.6496243 L168.530988,51.6496223 L163.535342,42.8895188 C162.081463,40.7785387 160.117984,39.1038006 157.863155,37.9139494 C156.117405,37.1124774 154.371394,36.7233159 152.552285,36.8676866 C147.701328,37.2526751 143.187236,41.882251 142.092589,46.9990612 C141.094971,52.0916793 142.934882,57.4043744 147.007516,60.5114073 C149.574884,62.6256116 152.713144,63.7896917 156.069629,63.7917427 C156.605644,71.7801701 157.25,82.8781583 157.25,82.8781583 C157.25,82.8781583 155.595285,82.8781583 154.851523,82.8781583 C154.113258,82.8781583 129.562862,75.573773 121.412632,49.4877356 Z M202.538015,40.5882838 C200.645808,41.2661867 197.443832,42.064529 194.679141,41.7232302 C189.901543,41.162376 194.050927,37.9635298 198.222938,37.3355762 C200.187721,36.9487619 201.812249,37.6773966 202.903245,38.332933 C203.67896,38.9640165 203.484118,40.2493323 202.538015,40.5882838 Z M221.285397,37.2037338 C219.441575,38.0756959 216.433397,39.2379643 213.498839,39.0420794 C208.623951,38.9177279 212.361285,35.3063105 216.557749,34.3630759 C218.716591,33.9278773 220.268543,34.3654232 221.456568,34.9967675 C222.305121,35.5066292 222.207309,36.7677528 221.285397,37.2037338 Z" id="Hair" fill="#482D1F" fill-rule="nonzero"></path>
                <path d="M214.184928,50.3010076 C213.191222,49.2089685 213.21724,46.4198247 213.291121,44.6493611 C213.291903,43.4124296 214.383942,42.4187241 215.499652,42.3466692 C216.227243,42.371383 217.124441,42.6629934 217.463132,44.0214074 C218.479725,47.2720285 215.590422,52.2179285 214.184928,50.3010076 Z M197.681575,52.2956856 C196.59084,51.2278387 196.713888,48.4145027 196.787768,46.644039 C196.788551,45.4071076 197.88059,44.4134021 198.9963,44.3413472 C199.723891,44.366061 200.621088,44.6576713 200.959779,46.0160853 C201.976373,49.2667064 199.184099,54.1884143 197.681575,52.2956856 Z" id="Eyes" fill="#482D1F" fill-rule="nonzero"></path>
                <path d="M211.324675,58.781042 L213.01529,48.2396762 L214.696569,42.6024481 C214.854415,42.0732004 214.553334,41.5162011 214.024086,41.3583553 C213.494838,41.2005094 212.937839,41.5015902 212.779993,42.0308379 L211.079993,47.7308379 L211.050899,47.8582892 L209.350899,58.4582892 C209.344553,58.4962482 209.258433,58.5522264 209.079702,58.5266935 L208.974487,58.5172987 C207.906198,58.4785943 206.647548,58.2804634 205.202752,57.9202352 C204.666872,57.7866255 204.124144,58.1127295 203.990534,58.6486091 C203.856924,59.1844886 204.183029,59.7272169 204.718908,59.8608267 C206.269737,60.2474917 207.647028,60.4661363 208.854835,60.5141917 C210.041284,60.6557425 211.133254,59.9295683 211.324675,58.781042 Z" id="Path" fill="#482D1F" fill-rule="nonzero" transform="translate(209.349569, 50.924070) rotate(-14.000000) translate(-209.349569, -50.924070) "></path>
                <path d="M130.706352,23.9214163 C130.706352,23.9214163 130.106352,36.0214163 119.306352,51.0214163 L137.106352,48.8214163 L139.206352,39.2214163 L130.706352,23.9214163 Z" id="Path" fill="#482D1F" fill-rule="nonzero" transform="translate(129.256352, 37.471416) rotate(-14.000000) translate(-129.256352, -37.471416) "></path>
                <polygon id="Path" fill="#482D1F" fill-rule="nonzero" transform="translate(179.255211, 94.777843) rotate(-14.000000) translate(-179.255211, -94.777843) " points="183.155211 89.5278432 175.355211 85.5278432 178.855211 104.027843"></polygon>
                <path d="M206.09757,68.3568403 C205.39757,68.1568403 203.69757,67.5568403 203.49757,66.3568403 C203.49757,66.1568403 203.39757,65.8568403 203.49757,65.6568403 C203.79757,65.1568403 206.99757,65.6568403 206.99757,65.6568403 C210.99757,66.3568403 212.09757,66.2568403 212.29757,66.8568403 C212.39757,67.1568403 212.29757,67.5568403 211.39757,68.3568403 C210.29757,69.8568403 207.19757,68.6568403 206.09757,68.3568403 Z" id="Path" fill="#482D1F" fill-rule="nonzero" transform="translate(207.890967, 67.264967) rotate(-14.000000) translate(-207.890967, -67.264967) "></path>
            </g>
        </g>
    </g>
</svg>