<?xml version="1.0" encoding="UTF-8"?>
<svg width="1700px" height="1200px" viewBox="0 0 1700 1200" version="1.1" xmlns="http://www.w3.org/2000/svg" xmlns:xlink="http://www.w3.org/1999/xlink">
    <!-- Generator: Sketch 56.1 (81669) - https://sketch.com -->
    <title>Study online</title>
    <desc>Created with Sketch.</desc>
    <defs>
        <path d="M100,0 L710,0 C765.228475,-1.01453063e-14 810,44.771525 810,100 L810,272 L0,272 L0,100 C-6.76353751e-15,44.771525 44.771525,1.01453063e-14 100,0 Z" id="path-1"></path>
    </defs>
    <g id="Study-online" stroke="none" stroke-width="1" fill="none" fill-rule="evenodd">
        <g id="Background" transform="translate(494.000000, 146.000000)">
            <g id="UI-/-Headers-/-Header-3-/-1">
                <g id="Header">
                    <g id="Browser" fill="#F2F6FB" fill-rule="nonzero">
                        <g id="Background">
                            <rect x="-1.53477231e-12" y="0" width="492.027613" height="370" rx="20"></rect>
                        </g>
                    </g>
                    <path d="M0,20.0061375 C0,8.95705287 8.95120312,0 19.9944672,0 L473.005533,0 C484.048172,0 493,8.95238956 493,20.0061375 L493,41.8508997 L0,41.8508997 L0,20.0061375 Z" id="Top-bar" fill="#E1E5F0" fill-rule="nonzero"></path>
                    <ellipse id="Burron" fill="#FF5645" fill-rule="nonzero" cx="28.6854043" cy="21.4010283" rx="9.23767258" ry="9.03598972"></ellipse>
                    <ellipse id="Burron" fill="#FFCB3D" fill-rule="nonzero" cx="58.8293886" cy="21.4010283" rx="9.23767258" ry="9.03598972"></ellipse>
                    <ellipse id="Burron" fill="#3ABF7C" fill-rule="nonzero" cx="89.9457594" cy="21.4010283" rx="9.23767258" ry="9.03598972"></ellipse>
                    <g id="Menu" transform="translate(22.364892, 70.097375)" fill="#D8DEED" fill-rule="nonzero">
                        <path d="M2,0 L15.8919132,0 C16.9964827,-6.46995335e-16 17.8919132,0.8954305 17.8919132,2 L17.8919132,6.76217185 C17.8919132,7.86674135 16.9964827,8.76217185 15.8919132,8.76217185 L2,8.76217185 C0.8954305,8.76217185 1.3527075e-16,7.86674135 0,6.76217185 L0,2 C-1.3527075e-16,0.8954305 0.8954305,2.02906125e-16 2,0 Z M382.203156,0 L445.29783,0 C446.4024,-6.46995335e-16 447.29783,0.8954305 447.29783,2 L447.29783,6.76217185 C447.29783,7.86674135 446.4024,8.76217185 445.29783,8.76217185 L382.203156,8.76217185 C381.098586,8.76217185 380.203156,7.86674135 380.203156,6.76217185 L380.203156,2 C380.203156,0.8954305 381.098586,2.02906125e-16 382.203156,0 Z M261.432742,0 L324.527416,0 C325.631986,-6.46995335e-16 326.527416,0.8954305 326.527416,2 L326.527416,6.76217185 C326.527416,7.86674135 325.631986,8.76217185 324.527416,8.76217185 L261.432742,8.76217185 C260.328172,8.76217185 259.432742,7.86674135 259.432742,6.76217185 L259.432742,2 C259.432742,0.8954305 260.328172,2.02906125e-16 261.432742,0 Z M337.473373,0 L369.257199,0 C370.361769,-6.46995335e-16 371.257199,0.8954305 371.257199,2 L371.257199,6.76217185 C371.257199,7.86674135 370.361769,8.76217185 369.257199,8.76217185 L337.473373,8.76217185 C336.368803,8.76217185 335.473373,7.86674135 335.473373,6.76217185 L335.473373,2 C335.473373,0.8954305 336.368803,2.02906125e-16 337.473373,0 Z" id="Combined-Shape"></path>
                    </g>
                    <g id="Text" transform="translate(44.729783, 133.623121)" fill="#E1E5F0" fill-rule="nonzero">
                        <path d="M2,0 L132.189349,0 C133.293919,-1.58997828e-14 134.189349,0.8954305 134.189349,2 L134.189349,15.5243437 C134.189349,16.6289132 133.293919,17.5243437 132.189349,17.5243437 L2,17.5243437 C0.8954305,17.5243437 1.3527075e-16,16.6289132 0,15.5243437 L0,2 C-1.3527075e-16,0.8954305 0.8954305,2.02906125e-16 2,0 Z M2,28.4770585 L109.824458,28.4770585 C110.929027,28.4770585 111.824458,29.372489 111.824458,30.4770585 L111.824458,44.0014022 C111.824458,45.1059717 110.929027,46.0014022 109.824458,46.0014022 L2,46.0014022 C0.8954305,46.0014022 1.3527075e-16,45.1059717 0,44.0014022 L0,30.4770585 C-1.3527075e-16,29.372489 0.8954305,28.4770585 2,28.4770585 Z M2,85.4311755 L65.0946746,85.4311755 C66.1992441,85.4311755 67.0946746,86.326606 67.0946746,87.4311755 L67.0946746,100.955519 C67.0946746,102.060089 66.1992441,102.955519 65.0946746,102.955519 L2,102.955519 C0.8954305,102.955519 1.3527075e-16,102.060089 0,100.955519 L0,87.4311755 C-1.3527075e-16,86.326606 0.8954305,85.4311755 2,85.4311755 Z M2,56.954117 L132.189349,56.954117 C133.293919,56.954117 134.189349,57.8495475 134.189349,58.954117 L134.189349,72.4784607 C134.189349,73.5830302 133.293919,74.4784607 132.189349,74.4784607 L2,74.4784607 C0.8954305,74.4784607 1.3527075e-16,73.5830302 0,72.4784607 L0,58.954117 C-1.3527075e-16,57.8495475 0.8954305,56.954117 2,56.954117 Z"></path>
                    </g>
                    <g id="Button" transform="translate(165.500197, 273.817870)" fill="#3ABF7C" fill-rule="nonzero">
                        <g>
                            <path d="M18.5892244,1.10290474e-16 L137.965016,6.59329832e-16 C143.883509,-4.27879707e-16 146.436139,0.696192084 148.880583,2.00349528 C151.325028,3.31079847 153.243442,5.22921278 154.550745,7.67365722 C155.858049,10.1181017 156.554241,12.6707314 156.554241,18.5892244 L156.554241,25.2216348 C156.554241,31.1401279 155.858049,33.6927576 154.550745,36.137202 C153.243442,38.5816465 151.325028,40.5000608 148.880583,41.807364 C146.436139,43.1146672 143.883509,43.8108592 137.965016,43.8108592 L18.5892244,43.8108592 C12.6707314,43.8108592 10.1181017,43.1146672 7.67365722,41.807364 C5.22921278,40.5000608 3.31079847,38.5816465 2.00349528,36.137202 C0.696192084,33.6927576 -2.14200845e-16,31.1401279 3.30067084e-16,25.2216348 L1.20917353e-15,18.5892244 C-7.84707121e-16,12.6707314 0.696192084,10.1181017 2.00349528,7.67365722 C3.31079847,5.22921278 5.22921278,3.31079847 7.67365722,2.00349528 C10.1181017,0.696192084 12.6707314,-7.15742763e-17 18.5892244,1.10290474e-16 Z"></path>
                        </g>
                    </g>
                    <g id="Education" transform="translate(247.958580, 119.845758)" fill-rule="nonzero">
                        <path d="M160.443787,56.6589636 L160.443787,79.6585912 C160.443789,86.4211516 156.19214,92.4534529 149.823266,94.7271432 C134.888094,100.059005 119.952923,102.724936 105.017751,102.724936 C90.0825808,102.724936 75.1474101,100.059005 60.2122394,94.727144 C53.843365,92.453455 49.591716,86.4211537 49.591716,79.6585933 L49.591716,58.0698206 L5.0053771,42.3322877 C3.24593136,41.7112604 1.87553186,40.3070545 1.29755745,38.5329999 C0.271077026,35.3822854 1.993109,31.9959998 5.14382351,30.9695194 L94.2739838,1.93154584 C101.900122,-0.552995953 110.137565,-0.419654276 117.679293,2.31041381 L197.016152,31.0299619 C198.638595,31.6172783 199.929657,32.8746549 200.559652,34.4810079 C201.769532,37.5659476 200.249497,41.0475874 197.164557,42.257468 L160.443787,56.6589636 Z" id="Hat" fill="#474BFF"></path>
                        <path d="M160.443787,56.6589636 L160.443787,79.6585912 C160.443789,86.4211516 156.19214,92.4534529 149.823266,94.7271432 C134.888094,100.059005 119.952923,102.724936 105.017751,102.724936 C90.0825808,102.724936 75.1474101,100.059005 60.2122394,94.727144 C53.843365,92.453455 49.591716,86.4211537 49.591716,79.6585933 L49.591716,58.0698206 L93.3979749,73.5320105 C101.553514,76.4106516 110.472806,76.2570512 118.524392,73.0993048 L160.443787,56.6589636 Z" id="Combined-Shape" fill="#444444" opacity="0.176985679"></path>
                        <path d="M176.488166,77.4808809 L176.488166,51.7269662 L104.475502,35.6084692 C103.166743,35.3155314 102.348557,34.0402631 102.648033,32.7600777 C102.94751,31.4798922 104.251242,30.6795699 105.560001,30.9725076 L179.461382,47.5137536 C180.566492,47.761109 181.350099,48.7228117 181.350099,49.8317344 L181.350099,77.4808809 C183.908808,78.4381463 185.725838,80.8624106 185.725838,83.7017995 C185.725838,86.1489861 184.376109,88.2878093 182.365108,89.4448421 C182.54114,89.7554208 182.673977,90.0299557 182.763621,90.2684469 C187.00474,101.551708 192.391775,113.516205 180.088133,114.127859 C173.018919,114.479214 171.875551,106.431171 176.658031,89.9837306 C174.01025,89.0718729 172.112426,86.6036276 172.112426,83.7017995 C172.112426,80.8624106 173.929457,78.4381463 176.488166,77.4808809 Z" id="Combined-Shape" fill="#474961"></path>
                    </g>
                </g>
            </g>
            <g id="Subpages" transform="translate(529.000000, 6.000000)">
                <g id="Subpages-/-Video">
                    <g>
                        <g id="UI-/-Icons-/-Video" transform="translate(0.851250, 0.000000)" fill-rule="nonzero">
                            <path d="M0.148749955,9.99525822 C0.148749955,4.47502953 4.62912278,-4.54747351e-13 10.1477342,-4.54747351e-13 L99.7464062,-4.54747351e-13 C99.7464062,-4.54747351e-13 136.14875,36.3488159 136.14875,36.3488159 L136.14875,151.000607 C136.14875,156.523119 131.662523,161 126.148345,161 L10.1491547,161 C4.62608365,161 0.148749955,156.525902 0.148749955,151.004742 L0.148749955,9.99525822 Z" id="Page" fill="#F2F6FB"></path>
                            <path d="M72.574065,65.7916129 L95.3870226,111.134137 C95.5607779,111.47949 95.4216712,111.900309 95.076319,112.074065 C94.9787143,112.123172 94.8709693,112.148749 94.7617072,112.148749 L49.135792,112.148749 C48.7491927,112.148749 48.435792,111.835349 48.435792,111.448749 C48.435792,111.339487 48.4613692,111.231742 48.5104766,111.134137 L71.3234342,65.7916129 C71.4971895,65.4462607 71.9180092,65.307154 72.2633614,65.4809093 C72.397593,65.5484446 72.5065298,65.6573814 72.574065,65.7916129 Z" id="Video" fill="#D8DEED" transform="translate(71.948750, 88.348750) rotate(-270.000000) translate(-71.948750, -88.348750) "></path>
                            <path d="M99.7464062,-9.9475983e-14 L136.14875,36.3488159 L101.995814,42.5011445 C96.5574307,43.4808178 92.9050188,39.8678773 93.8396338,34.4214503 L99.7464062,-9.9475983e-14 Z" id="Angle" fill="#D8DEED"></path>
                        </g>
                        <g id="Icons-/-Video" transform="translate(49.000000, 64.400000)"></g>
                    </g>
                </g>
                <g id="Group-13" transform="translate(1.000000, 198.000000)">
                    <g id="Simple-Page-/-Image" fill-rule="nonzero">
                        <g id="UI-/-Icons-/-Book">
                            <g transform="translate(0.000000, -0.000000)">
                                <path d="M1.56319402e-13,9.99525822 C1.56319402e-13,4.47502953 4.48037282,-5.68434189e-14 9.99898429,-5.68434189e-14 L99.5976562,-5.68434189e-14 C99.5976562,-5.68434189e-14 136,36.3488159 136,36.3488159 L136,151.000607 C136,156.523119 131.513773,161 125.999595,161 L10.0004047,161 C4.4773337,161 1.56319402e-13,156.525902 1.56319402e-13,151.004742 L1.56319402e-13,9.99525822 Z" id="Page" fill="#F2F6FB"></path>
                                <path d="M99.5976563,-2.13162821e-14 L136,36.3488159 L101.847064,42.5011445 C96.4086807,43.4808178 92.7562689,39.8678773 93.6908839,34.4214503 L99.5976563,-2.13162821e-14 Z" id="Angle" fill="#D8DEED"></path>
                                <path d="M31,110.505091 L31,68.0501811 C31.000015,67.1878983 31.3710496,66.3673082 32.0184618,65.7977566 C37.1214549,61.3084713 43.3527972,59.426274 50.7124885,60.1511648 C58.569221,60.9250115 63.7777459,64.9115908 66.338063,72.1109025 L66.338063,118.518671 C66.3380962,119.070974 65.8903661,119.518705 65.338063,119.518705 C65.0260245,119.518705 64.7318702,119.373051 64.5427159,119.12488 C61.0116258,114.492086 57.0102501,111.594132 52.5385886,110.43102 C48.1198879,109.281682 42.331189,110.226834 35.1724918,113.266474 C33.6474241,113.914015 31.8861704,113.202654 31.2386167,111.677591 C31.0811528,111.306746 31,110.907982 31,110.505091 Z M105.427849,110.505091 C105.427849,110.907982 105.346697,111.306746 105.189233,111.677591 C104.541679,113.202654 102.780425,113.914015 101.255357,113.266474 C94.0966603,110.226834 88.3079614,109.281682 83.8892607,110.43102 C79.4175992,111.594132 75.4162234,114.492086 71.8851334,119.12488 C71.6959791,119.373051 71.4018248,119.518705 71.0897863,119.518705 C70.5374832,119.518705 70.0897531,119.070974 70.0897863,118.518671 L70.0897863,72.1109025 C72.6501034,64.9115908 77.8586282,60.9250115 85.7153608,60.1511648 C93.0750521,59.426274 99.3063944,61.3084713 104.409388,65.7977566 C105.0568,66.3673082 105.427834,67.1878983 105.427849,68.0501811 L105.427849,110.505091 Z" id="Book" fill="#D8DEED"></path>
                            </g>
                        </g>
                    </g>
                    <g id="Group-8" transform="translate(31.000000, 60.000000)">
                        <g id="Group-11"></g>
                    </g>
                </g>
            </g>
        </g>
        <g id="Interior-/-Sofa-/-Sofa-2" transform="translate(223.000000, 559.000000)">
            <g id="Sofa" transform="translate(48.000000, 22.000000)">
                <path d="M195.00986,273 L917.409896,273 L968.659823,60.1980524 C978.156242,20.7666508 1016.29181,-4.80354843 1056.37591,1.38372318 C1058.1854,1.66303162 1059.98249,2.01749115 1061.76252,2.44618252 C1097.21161,10.9835244 1119.02789,46.6415684 1110.49054,82.0906529 L1052.75993,321.801948 C1043.26351,361.233349 1005.12795,386.803548 965.043847,380.616277 C963.234354,380.336968 961.437262,379.982509 959.657233,379.553817 C938.086303,374.358806 921.563298,359.121599 913.855682,340.000001 L198.564077,340 C190.856458,359.121599 174.333454,374.358806 152.762523,379.553817 C150.982494,379.982509 149.185402,380.336968 147.375909,380.616277 C107.291809,386.803548 69.1562417,361.233349 59.6598228,321.801948 L1.92921277,82.0906529 C-6.60812911,46.6415684 15.2081488,10.9835244 50.6572334,2.44618252 C52.4372624,2.01749115 54.2343539,1.66303162 56.0438474,1.38372318 C96.1279474,-4.80354843 134.263514,20.7666508 143.759933,60.1980524 L195.00986,273 Z" id="Combined-Shape" fill="#E1E5F0" fill-rule="nonzero"></path>
                <g id="completed" transform="translate(151.000000, 1.000000)">
                    <mask id="mask-2" fill="white">
                        <use xlink:href="#path-1"></use>
                    </mask>
                    <use id="Mask" fill="#F2F6FB" fill-rule="nonzero" xlink:href="#path-1"></use>
                </g>
                <path d="M126.498523,395 L98.9259819,442.757042 C94.6457751,450.170577 85.1661238,452.710642 77.7525881,448.430435 C70.3390525,444.150229 67.7989875,434.670577 72.0791944,427.257042 L94.0690033,389.169575 C87.6367524,384.136021 83.5025881,376.300803 83.5025881,367.5 C83.5025881,352.312169 95.8147575,340 111.002588,340 L999.002588,340 C1014.19042,340 1026.50259,352.312169 1026.50259,367.5 C1026.50259,375.761032 1022.85999,383.171288 1017.09333,388.212227 L1039.63586,427.257042 C1043.91607,434.670577 1041.376,444.150229 1033.96247,448.430435 C1026.54893,452.710642 1017.06928,450.170577 1012.78907,442.757042 L985.216532,395 L126.498523,395 Z" id="Combined-Shape" fill="#D8DEED" fill-rule="nonzero"></path>
            </g>
        </g>
        <g id="Characters-in-moshion-/-Woman-in-moshion-/-10" transform="translate(109.000000, 90.180435)">
            <g id="Woman" transform="translate(261.000000, 368.000000)">
                <path d="M442.372391,570 C442.792144,569.870124 443.235628,569.8 443.69247,569.8 L499.19247,569.8 C501.69247,569.8 503.79247,571.9 503.79247,574.4 C503.79247,576.9 501.69247,579 499.19247,579 L451.5,579 L291.5,579 C289.014719,579 287,576.985281 287,574.5 C287,572.014719 289.014719,570 291.5,570 L442.372391,570 Z" id="Base" fill="#FFCB3D" fill-rule="nonzero"></path>
                <path d="M451.450295,570 L443.69247,570 C443.235628,570 442.792144,570.070124 442.372391,570.2 L291.5,570.2 C290.773673,570.2 290.087538,570.372079 289.480138,570.677692 L288,505.94632 L362.860946,507.013068 L377.047372,467 L442.84494,486.943556 C446.130551,498.111947 449.515725,509.280339 452.9009,520.548448 C454.693051,526.431797 456.485202,532.215428 458.277353,537.999059 C463.852935,540.19285 468.632004,542.187206 472.017179,543.682973 C478.488836,546.475071 483.964853,549.067733 489.93869,552.956726 C489.93869,552.956726 495.116016,556.147695 498.003371,560.734713 C498.899446,562.23048 499.695958,563.925682 500.193778,565.720602 C500.392906,566.518344 500.392906,567.316087 500.49247,568.014111 C500.461351,568.668608 500.313521,569.401033 500.124975,570.098738 C499.822975,570.034084 499.510969,570 499.19247,570 L451.467955,570 C451.511718,569.857697 451.532187,569.712619 451.529361,569.564766 C451.526522,569.712645 451.500167,569.857723 451.450295,570 Z" id="Shoes" fill="#474961" fill-rule="nonzero"></path>
                <path d="M451.625945,570 C451.695545,569.773685 451.706227,569.540352 451.65799,569.3 C451.55799,568.5 451.55799,567.7 451.35799,567 C450.15799,562.2 446.35799,558.2 444.15799,556.1 C439.65799,553.2 435.15799,550.6 430.25799,548.3 C412.55799,539.5 407.45799,539.6 395.85799,531.7 C391.05799,528.4 386.65799,524.7 382.55799,520.5 L365.352466,507.1 L363,507.066478 L377.205362,467 L443.002931,486.943556 C446.288541,498.111947 449.673716,509.280339 453.05889,520.548448 C454.851041,526.431797 456.643192,532.215428 458.435343,537.999059 C464.010925,540.19285 468.789995,542.187206 472.175169,543.682973 C478.646826,546.475071 484.122843,549.067733 490.096681,552.956726 C490.096681,552.956726 495.274006,556.147695 498.161361,560.734713 C499.057436,562.23048 499.853948,563.925682 500.351768,565.720602 C500.550896,566.518344 500.550896,567.316087 500.65046,568.014111 C500.618828,568.679398 500.466605,569.425203 500.273607,570.133216 C499.925744,570.046258 499.563512,570 499.19247,570 L451.625945,570 Z" id="Shadow-Shoes" fill="#444444" fill-rule="nonzero" opacity="0.176985679"></path>
                <path d="M385.479122,439.598385 C385.836341,448.131878 386.318311,455.22627 387.011055,460.436035 C387.126928,461.738745 387.060839,471.3213 385.270448,474.724325 C379.708648,485.14343 348.877214,482.081346 321.418273,482.846203 C293.959333,483.611061 278.821529,486.293687 270.649405,479.972222 C266.171811,476.52769 265.507063,470.342114 265.240343,468.183908 C264.014745,457.190498 262.588905,446.053681 261.085137,434.859451 C226.859102,448.439261 205.333961,456.493257 196.509715,459.02144 C187.777754,461.523184 178.102432,462.196931 169.302704,462.607013 C94.3172142,489.844557 53.9453136,445.897968 49.6930242,435.459804 C33.4508367,395.589844 38.4843747,362.78125 52.2695312,339.5 C61.1594856,324.486079 129.325994,288.138313 256.769057,230.456701 C259.626618,229.16335 265.90458,225.974176 275.602944,220.88918 C286.915822,214.835378 301.827743,211.45348 320.338707,210.743484 C324.613638,210.579517 328.893588,210.889027 333.100447,211.666365 C359.817332,216.603075 374.207826,226.123127 376.27193,240.22652 C376.302099,240.397619 376.317184,240.483169 376.347353,240.654268 C377.259793,246.715308 378.060744,253.103167 378.765487,259.738693 C383.422094,258.755068 387.838021,257.71937 392.013269,256.6316 C392.027062,256.622067 392.040869,256.612536 392.054688,256.603007 C403.044846,249.025066 443.654938,242.770159 463.5,251.392578 C488.033114,262.051895 502.441769,287.768073 498.722638,314.256991 L498.722657,314.256994 C493.412606,352.07699 490.37486,372.57881 489.609421,375.762454 C488.467282,380.642109 474.591921,435.823197 469.52676,456.07529 C468.414321,460.672369 463.538049,464.159612 457.284215,464.787944 C450.394992,465.523344 408.340016,449.078243 385.479114,439.598381 Z" id="Legs" fill="#A339FF" fill-rule="nonzero"></path>
                <path d="M385.862828,439.753578 C384.185531,396.355862 385.394408,318.09212 379.181768,259.787592 C383.768042,258.816041 388.12019,257.793835 392.238211,256.720974 C392.252004,256.711441 392.26581,256.70191 392.279629,256.692381 C403.269788,249.11444 443.87988,242.859533 463.724942,251.481952 C488.258056,262.141269 502.666711,287.857447 498.94758,314.346365 L498.947599,314.346368 C493.637547,352.166364 490.599802,372.668184 489.834363,375.851828 C488.692223,380.731483 474.816863,435.91257 469.751702,456.164664 C468.639262,460.761743 463.762991,464.248986 457.509157,464.877318 C450.635851,465.611019 408.759102,449.243517 385.86282,439.753575 Z M261.491187,434.876963 C227.159967,448.500224 205.574457,456.578175 196.734657,459.110814 C188.405726,461.497088 179.218507,462.220216 170.751536,462.637765 C172.19576,462.103232 173.65272,461.542337 175.122404,460.954341 C207.086557,448.166012 234.400882,428.731919 257.065379,402.652061 L257.065365,402.652077 C258.539275,413.395153 260.050294,424.161911 261.491187,434.876963 Z" id="Shadow-Legs" fill="#444444" fill-rule="nonzero" opacity="0.176985679"></path>
                <path d="M159.470859,276.242999 C104.91318,303.041318 71.0754751,322.303519 57.9577461,334.029603 L54.0016719,335.997564 C34.0409873,309.450478 25.9664335,273.503589 29.7780105,228.156897 C20.2434612,225.823373 12.0669521,223.435126 8.33140033,221.686217 C0.860066375,218.188292 -1.1626263,210.534591 2.26332229,198.725114 C5.13307551,187.377476 10.938618,174.219631 19.6799497,159.251576 C30.0693462,141.461489 44.7262891,140.943387 54.1861144,142.130254 C62.4484109,135.978267 102.721986,135.27894 110.277638,136.81086 C122.164664,139.309104 139.791814,142.809119 149.450748,157.146753 C152.551877,161.615746 153.993943,165.960445 154.744795,169.065921 C154.744795,169.065921 156.186861,173.410619 157.211293,178.144275 C159.565415,188.969414 164.233194,226.852807 159.470859,276.242999 Z" id="T-shirt" fill="#FFCB3D" fill-rule="nonzero"></path>
                <rect id="Shadow-Book" fill="#474961" fill-rule="nonzero" transform="translate(231.363592, 182.720563) rotate(-42.000000) translate(-231.363592, -182.720563) " x="158.863592" y="177.220563" width="145" height="11" rx="5.5"></rect>
                <path d="M243.357543,166.978677 L186.006896,125.552222 C182.443386,122.97817 177.616762,123.033132 174.112792,125.687665 L113.429296,171.660179 C109.027084,174.995201 108.161955,181.267468 111.496977,185.669681 C112.055649,186.407125 112.713955,187.063474 113.45306,187.619948 L177.644886,235.950109 L243.761424,182.883747 C248.068537,179.426778 248.757714,173.132748 245.300746,168.825635 C244.738848,168.125554 244.085241,167.50432 243.357543,166.978677 Z" id="Book" fill="#474BFF" fill-rule="nonzero" transform="translate(178.437550, 178.585185) rotate(-3.000000) translate(-178.437550, -178.585185) "></path>
                <path d="M78.5400454,100.282734 C75.5494568,96.4092725 72.8700188,92.7665931 71.4472583,89.770241 C69.3377389,85.4067644 70.4365886,72.6845813 74.4253256,67.6093805 C78.4140625,62.5341797 110.042644,39.0595819 110.44167,39.0316793 C113.81246,38.4952381 132.803153,36.2650818 143.569823,49.7468779 C144.551338,50.8811739 145.440073,52.122202 146.249978,53.6694749 C148.004423,57.2558272 148.981744,61.1972539 148.9615,65.208437 L148.806576,83.0627362 C148.732625,84.8723028 148.558917,86.688845 148.278478,88.4126065 C146.264473,101.184207 142.294414,111.786972 137.760011,118.619921 C134.410831,123.766084 130.615892,126.838289 127.131394,127.182193 C126.140806,127.351706 120.746984,127.628635 114.329793,126.172729 C113.91136,126.065021 114.021344,126.154292 111.41077,125.22942 L111.944595,136.9945 C120.602248,138.805186 131.810951,141.30387 140.828127,147.877095 C127.955098,154.726157 113.698912,157.808141 98.0595703,157.123047 C91.3326092,156.828367 84.2397117,155.926011 76.7808778,154.415978 C71.2450616,147.863388 64.4998092,144.004907 60.7343637,143.382309 C59.0181334,143.098538 56.6913795,142.626904 53.9663476,142.314725 C54.0137542,142.274149 54.0613405,142.23364 54.1091073,142.193199 C57.3988607,139.483662 66.8547795,137.801457 77.1761718,136.885978 L77.8190419,100.055971 L78.5400454,100.282734 Z M162.891289,243.598067 C163.123078,243.596729 163.354729,243.583069 163.585177,243.557124 C163.36228,243.567564 163.138874,243.566596 162.91591,243.554187 C162.907705,243.568814 162.899498,243.583441 162.891289,243.598067 Z M176.268178,232.667593 L180.509725,235.490609 L184.449262,231.98512 C184.578647,231.887766 184.704859,231.7839 184.827471,231.6735 L187.182419,229.553095 L243.442255,179.491825 C244.225078,178.795251 244.87264,178.003295 245.383011,177.149047 L262.396072,161.830418 C270.100433,158.021674 276.077556,156.518088 278.073052,159.323349 C278.073052,159.323349 248.247527,191.666716 232.495784,208.642952 C228.374636,219.445332 222.266244,233.260399 214.170607,250.088152 C194.004502,259.516482 175.716023,268.261896 159.305167,276.324394 C160.361727,265.785051 160.983173,255.761973 161.283888,246.4059 C141.691944,279.96637 111.407871,308.326998 70.4316687,331.487784 C18.0296346,361.106738 9.4881418,260.124529 8.12826027,221.139174 C8.32104354,221.234987 8.51773717,221.327798 8.71834115,221.417607 C19.4647584,226.228738 69.3008683,237.317607 78.534943,235.817607 C78.800483,235.785975 79.0566902,235.724325 79.3035644,235.632657 L77.733682,259.859597 L135.873944,218.562878 C135.885843,218.547366 135.897824,218.531891 135.909885,218.516453 L164.845975,181.479948 C167.056108,178.651107 171.141003,178.149545 173.969844,180.359677 C174.856216,181.052187 175.5141,181.928758 175.931671,182.893077 L176.768657,181.652194 C178.776076,178.676073 182.816034,177.890785 185.792155,179.898204 C187.754448,181.221787 188.764305,183.428989 188.649204,185.63226 C190.209962,185.482687 191.828948,185.894047 193.179396,186.911682 L193.197409,186.925256 C195.941013,188.99271 196.489141,192.892843 194.421687,195.636448 C194.366814,195.709267 194.310346,195.78087 194.252325,195.851207 L193.826651,196.367234 C195.872146,195.881462 198.114627,196.395508 199.767502,197.936838 C202.392953,200.385111 202.536584,204.498176 200.088312,207.123627 L176.268178,232.667593 Z M388.961123,440.616445 C406.514842,447.832778 432.815329,458.12609 447.601017,462.496527 L442.84494,486.943556 L386.624899,469.902994 C387.060766,466.929119 387.044021,463.917891 386.971538,463.102993 C386.340476,458.357106 385.893919,452.003329 385.56417,444.390679 C385.511206,442.894202 385.452218,441.332169 385.387207,439.70459 L388.961123,440.616445 Z M288.025016,484.025288 C296.273465,484.147578 307.105422,483.244882 321.418273,482.846203 C331.635063,482.561619 342.318741,482.806836 351.993949,482.690312 L363.724883,504.576318 L362.860946,507.013068 L288.093349,505.947651 L288.025016,484.025288 Z" id="Skin" fill="#F2A98A" fill-rule="nonzero"></path>
                <path d="M161.001851,245.66692 C161.400778,244.976165 161.795197,244.283217 162.185108,243.588076 C164.044352,243.691551 165.934332,242.999486 167.303587,241.53114 L175.719878,232.505773 L180.204559,235.490609 L184.144095,231.98512 C184.27348,231.887766 184.399693,231.7839 184.522305,231.6735 L186.877252,229.553095 L243.137088,179.491825 C243.919911,178.795251 244.567473,178.003295 245.077844,177.149047 L262.090905,161.830418 C269.795266,158.021674 275.772389,156.518088 277.767885,159.323349 C277.767885,159.323349 247.970296,191.636422 232.212763,208.619085 C228.096323,219.478772 221.999909,233.407455 214.050169,250.00179 C193.811007,259.463083 175.460952,268.237284 159,276.324394 C160.08443,265.507048 160.710488,255.233561 161.001851,245.66692 Z" id="Shadow-Arm" fill="#8C2A00" fill-rule="nonzero" opacity="0.2"></path>
                <polygon id="Shadow" fill="#482D1F" fill-rule="nonzero" transform="translate(104.866731, 128.750970) rotate(-4.000000) translate(-104.866731, -128.750970) " points="111.641443 125.727911 98.0920195 120.064855 111.294755 137.437085"></polygon>
                <path d="M128.490621,39.9307362 C133.964829,41.7467538 139.620254,45.0378846 143.679829,50.9201259 C144.579829,52.1201259 145.379829,53.4201259 146.079829,55.0201259 C146.741203,56.6515166 147.247052,58.3412295 147.580231,60.0635494 L95.816025,74.152166 L104.677218,40.566327 C114.442973,39.8340357 122.380774,39.6221721 128.490621,39.9307362 Z" id="Hair" fill="#482D1F" fill-rule="nonzero" transform="translate(121.698128, 56.972845) rotate(-4.000000) translate(-121.698128, -56.972845) "></path>
                <path d="M132.176451,43.8215348 C113.270832,59.9107393 101.211641,70.4430086 95.9988755,75.4183426 C95.8022253,75.6639006 95.6040579,75.9182369 95.404507,76.1807624 C95.2535511,75.2620924 94.6280374,72.2639438 92.5459898,69.2657952 C92.3459898,69.0657952 90.6459898,66.8657952 88.0459898,65.7657952 C83.3459898,63.9657952 77.1459898,66.0657952 73.7459898,70.3657952 C70.1459898,74.7657952 70.1459898,80.6657952 72.0459898,85.1657952 C73.9459898,89.6657952 77.6459898,91.7657952 78.9459898,92.3657952 L84.2459898,93.7657952 L84.8056496,93.5571085 C80.2724632,101.636593 76.1468449,108.903894 73.8046686,109.287345 C69.5459132,109.984569 63.71098,100.585985 59.452531,95.9330845 C56.746355,92.976241 50.4127812,83.4776386 49.2073797,70.7814874 C48.8786338,66.5862374 47.5636503,52.3444678 56.9876987,41.8563429 C60.2751574,38.2130995 64.0009439,36.4466785 65.5350913,35.6738693 C70.7344892,33.3531148 90.0853508,33.171439 104.927003,33.3965207 C102.415854,28.836213 101.335868,19.6739174 101.687045,5.90963388 C101.698596,5.45689626 101.863463,5.02148282 102.15467,4.67463532 C102.864913,3.82868719 104.126456,3.7186767 104.972404,4.42892004 C116.598873,14.1903009 123.942124,21.2050019 127.002157,25.473023 C129.728857,21.7393455 137.206972,17.6907768 149.436504,13.327317 C149.86629,13.1739704 150.335593,13.1722064 150.766521,13.3223179 C151.809619,13.6856765 152.360658,14.8258355 151.997291,15.8689314 C145.809593,33.6320458 141.399753,42.8826182 138.767771,43.6206488 C137.321162,44.0262906 135.124055,44.0932526 132.176451,43.8215348 Z" id="Kerchief" fill="#DE3190" fill-rule="nonzero" transform="translate(100.532665, 56.642346) rotate(-4.000000) translate(-100.532665, -56.642346) "></path>
                <path d="M143.950007,86.5470485 C144.165568,85.3290447 145.299864,84.3475293 146.510892,84.4633343 C147.315919,84.5072856 147.956312,85.0639701 148.35324,86.4396328 C148.896657,89.9101801 145.412842,94.5645365 144.169033,92.5463841 C143.280298,91.305356 143.676543,88.3705664 143.950007,86.5470485 Z M122.000005,85.3382109 C122.215567,84.1202071 123.349863,83.1386917 124.560891,83.2544968 C125.365918,83.298448 126.00631,83.8551325 126.403239,85.2307953 C126.946655,88.7013425 123.462841,93.3556989 122.219032,91.3375465 C121.330297,90.0965184 121.726542,87.1617288 122.000005,85.3382109 Z" id="Eyes" fill="#482D1F" fill-rule="nonzero"></path>
                <path d="M136.904755,87.9645508 L137.004755,97.9645508 C137.004705,98.0022666 136.852421,98.1545513 136.804705,98.1545513 C136.257774,98.1545513 135.698521,98.118636 134.82603,98.0342013 C134.656601,98.017805 134.479413,98.0000777 134.224207,97.9741325 C133.902683,97.9413556 133.72659,97.9234281 133.557995,97.9064555 C132.980629,97.8483314 132.502387,97.80275 131.991335,97.7583108 C131.441127,97.7104665 130.956309,98.1177132 130.908465,98.6679217 C130.860621,99.2181302 131.267867,99.7029477 131.818076,99.7507919 C132.318933,99.7943448 132.788607,99.8391094 133.357666,99.8963972 C133.524952,99.9132381 133.699696,99.9310283 134.021923,99.9638764 C134.280075,99.9901212 134.460057,100.008128 134.633381,100.024901 C135.564526,100.115012 136.180208,100.154551 136.804705,100.154551 C137.95699,100.154551 139.004705,99.1068361 139.004705,97.9545503 L138.904646,87.9445518 C138.899133,87.3922947 138.446963,86.9490788 137.894706,86.9545503 C137.342449,86.9601239 136.899233,87.4122937 136.904755,87.9645508 Z" id="Nose" fill="#482D1F" fill-rule="nonzero" transform="translate(134.954676, 93.554551) rotate(-4.000000) translate(-134.954676, -93.554551) "></path>
                <path d="M130.677161,105.527498 C129.977161,105.227498 128.277161,104.427498 128.177161,103.427498 C128.177161,103.227498 128.077161,102.927498 128.277161,102.827498 C128.777161,102.327498 129.977161,102.827498 131.777161,103.327498 C134.977161,104.127498 137.577161,104.327498 137.577161,104.327498 C137.577161,104.327498 136.577161,105.927498 135.977161,106.327498 C134.777161,107.527498 131.677161,106.027498 130.677161,105.527498 Z" id="Mouth" fill="#482D1F" fill-rule="nonzero" transform="translate(132.864661, 104.701144) rotate(-4.000000) translate(-132.864661, -104.701144) "></path>
                <path d="M106.900542,80.8228786 L101.040182,79.0257015 C100.24816,78.7828149 99.8029987,77.9438565 100.045885,77.1518352 C100.288772,76.359814 101.12773,75.9146523 101.919751,76.1575388 L108.220984,78.0899169 C110.728234,74.068036 115.191545,71.3916201 120.279967,71.3916201 C128.12241,71.3916201 134.479967,77.7491767 134.479967,85.5916201 C134.479967,85.7789337 134.47634,85.9654001 134.469152,86.1509531 L137.490952,86.5220513 C138.856252,80.1051524 144.555979,75.2916201 151.379967,75.2916201 C159.22241,75.2916201 165.579967,81.6491767 165.579967,89.4916201 C165.579967,97.3340636 159.22241,103.69162 151.379967,103.69162 C143.54245,103.69162 137.187955,97.342049 137.179974,89.5063987 L134.038012,89.1205437 C132.469002,95.2557916 126.904184,99.7916201 120.279967,99.7916201 C112.437523,99.7916201 106.079967,93.4340636 106.079967,85.5916201 C106.079967,83.9187065 106.369257,82.3133603 106.900542,80.8228786 Z M110.125054,80.8611187 C109.454477,82.2981844 109.079967,83.9011664 109.079967,85.5916201 C109.079967,91.7772093 114.094377,96.7916201 120.279967,96.7916201 C126.465556,96.7916201 131.479967,91.7772093 131.479967,85.5916201 C131.479967,79.406031 126.465556,74.3916201 120.279967,74.3916201 C116.032887,74.3916201 112.337937,76.7555719 110.439131,80.2394631 C110.431783,80.2701558 110.423429,80.3008154 110.414048,80.3314051 C110.352502,80.5320979 110.252684,80.7105194 110.125054,80.8611187 Z M140.211924,88.6391461 C140.190747,88.9205308 140.179967,89.2048166 140.179967,89.4916201 C140.179967,95.6772093 145.194377,100.69162 151.379967,100.69162 C157.565556,100.69162 162.579967,95.6772093 162.579967,89.4916201 C162.579967,83.306031 157.565556,78.2916201 151.379967,78.2916201 C145.685454,78.2916201 140.98354,82.5414439 140.272858,88.0424595 C140.283578,88.150762 140.282602,88.2619181 140.268782,88.3744571 C140.257561,88.4658248 140.238346,88.5542594 140.211924,88.6391461 Z" id="Glasses" fill="#482D1F" fill-rule="nonzero" transform="translate(132.779767, 87.541620) rotate(-4.000000) translate(-132.779767, -87.541620) "></path>
                <path d="M257.99207,403.345963 L249.371793,319.845963 C249.286721,319.021916 248.549734,318.422858 247.725687,318.50793 C246.901639,318.593002 246.302581,319.329989 246.387653,320.154037 L255.00793,403.654037 C255.093002,404.478084 255.829989,405.077142 256.654037,404.99207 C257.478084,404.906998 258.077142,404.170011 257.99207,403.345963 Z" id="Path-6" fill="#482D1F" fill-rule="nonzero"></path>
                <path d="M88.0708404,213.123486 C88.0708404,213.123486 84.855253,229.715441 76.855253,234.115441" id="Path" stroke="#482D1F" stroke-width="3" stroke-linecap="round" stroke-linejoin="round" transform="translate(82.463047, 223.619463) rotate(-14.000000) translate(-82.463047, -223.619463) "></path>
            </g>
        </g>
        <g id="Active-objects-/-Books" transform="translate(880.000000, 626.000000)">
            <g id="Books" transform="translate(50.000000, 106.000000)">
                <path d="M39,128 L222,128 C226.418278,128 230,131.581722 230,136 L230,152 C230,156.418278 226.418278,160 222,160 L39,160 C34.581722,160 31,156.418278 31,152 L31,136 C31,131.581722 34.581722,128 39,128 Z M29,0 L212,0 C216.418278,-8.11624501e-16 220,3.581722 220,8 L220,24 C220,28.418278 216.418278,32 212,32 L29,32 C24.581722,32 21,28.418278 21,24 L21,8 C21,3.581722 24.581722,8.11624501e-16 29,0 Z M8,64 L191,64 C195.418278,64 199,67.581722 199,72 L199,88 C199,92.418278 195.418278,96 191,96 L8,96 C3.581722,96 5.41083001e-16,92.418278 0,88 L0,72 C-5.41083001e-16,67.581722 3.581722,64 8,64 Z" id="Blue-Books" fill="#474BFF" fill-rule="nonzero"></path>
                <path d="M57,96 L240,96 C244.418278,96 248,99.581722 248,104 L248,120 C248,124.418278 244.418278,128 240,128 L57,128 C52.581722,128 49,124.418278 49,120 L49,104 C49,99.581722 52.581722,96 57,96 Z M63,32 L246,32 C250.418278,32 254,35.581722 254,40 L254,56 C254,60.418278 250.418278,64 246,64 L63,64 C58.581722,64 55,60.418278 55,56 L55,40 C55,35.581722 58.581722,32 63,32 Z" id="Black-Books" fill="#474961" fill-rule="nonzero"></path>
                <path d="M38.5,12 L220,12 L220,21 L38.5,21 C36.0147186,21 34,18.9852814 34,16.5 C34,14.0147186 36.0147186,12 38.5,12 Z M55,44 L233,44 L233,53 L55,53 L55,44 Z M21,76 L199,76 L199,85 L21,85 L21,76 Z M49,108 L227,108 L227,117 L49,117 L49,108 Z M52,140 L230,140 L230,149 L52,149 L52,140 Z" id="Paper" fill="#D8DEED" fill-rule="nonzero"></path>
            </g>
        </g>
    </g>
</svg>