<?xml version="1.0" encoding="UTF-8"?>
<svg width="1700px" height="1200px" viewBox="0 0 1700 1200" version="1.1" xmlns="http://www.w3.org/2000/svg" xmlns:xlink="http://www.w3.org/1999/xlink">
    <!-- Generator: Sketch 56.1 (81669) - https://sketch.com -->
    <title>Work  abroad</title>
    <desc>Created with Sketch.</desc>
    <g id="Work--abroad" stroke="none" stroke-width="1" fill="none" fill-rule="evenodd">
        <g id="Group" transform="translate(-41.000000, 16.000000)">
            <g id="Outdoor-/-Statue" transform="translate(0.000000, 165.000000)">
                <g id="Statue" transform="translate(194.000000, 0.000000)">
                    <path d="M220.996085,459 L347.531496,459 C346.147773,493.971728 341.441696,521.20015 333.413265,540.685264 C325.384835,560.170379 308.416117,585.546991 282.507113,616.8151 L110,616.8151 C86.8040405,616.8151 68,598.01106 68,574.8151 L68,501 C68,478.496748 85.6977089,460.127018 107.934011,459.049925 C81.5928221,452.646806 61.2734782,451.388318 58.5917002,440.654443 C55.4016731,427.886289 100.557075,432.126984 92.9024486,426.293558 C85.247822,420.460131 32.8862937,405.03726 29.2677265,390.553865 C25.6491592,376.07047 70.1979309,395.75358 64.4800215,381.792532 C58.762112,367.831484 9.78051926,349.82711 6.76959899,337.775839 C5.63373535,333.229518 10.4685667,331.536563 21.2740929,332.696973 C2.99000435,307.857645 -3.50834454,294.135113 1.77904625,291.529377 C7.54137589,288.689582 21.7112346,297.275152 44.2886224,317.286087 C41.4312984,300.28502 42.8169238,292.53702 48.4454983,294.042086 C60.4672499,297.256672 77.6511793,346.444178 91.5391131,352.393098 C105.427047,358.342018 86.483809,313.548233 100.931726,317.41157 C115.379644,321.274906 129.91815,373.78982 135.629132,381.529329 C141.340113,389.268837 137.879385,344.13927 150.616263,347.545079 C163.35314,350.950887 162.221588,379.023914 172.217055,412.686209 C182.212522,446.348505 188.858867,401.682843 205.696542,394.052768 C216.062028,389.355598 221.161876,411.004675 220.996085,459 Z M577.733224,396.27949 C595.859352,388.723211 606.817556,386.095719 610.607836,388.397014 C614.0588,390.49229 608.116591,396.818221 592.781208,407.374806 C600.475738,408.250875 603.687355,409.817623 602.41606,412.07505 C599.024929,418.096649 562.345212,420.947777 556.831976,427.615589 C551.318741,434.283402 585.02245,429.923168 580.946938,437.160014 C576.871427,444.396861 538.057703,445.402093 532.012004,447.460759 C525.966304,449.519425 558.497687,453.492004 554.904831,459.871805 C551.311975,466.251605 531.375232,462.021997 506.433789,463.028409 C481.492347,464.034821 512.770795,473.358932 516.681911,483.358886 C519.289321,490.025521 500.403837,489.397545 460.025459,481.474958 L435.312691,475.57065 L437.919767,474.03183 L435.398061,474.961538 L436.39254,453.926451 C441.480982,423.478791 447.749851,410.3889 455.199148,414.656779 C466.373092,421.058598 466.458711,445.836193 477.057578,429.235302 C487.656446,412.634411 489.767204,397.482078 499.172691,397.422269 C508.578177,397.362459 501.432729,420.991647 506.295034,417.646293 C511.157339,414.300939 526.942395,388.256963 537.611391,388.189118 C548.280386,388.121274 530.166689,409.432306 540.654269,408.173029 C551.14185,406.913752 568.461458,383.012652 577.338863,382.9562 C581.547967,382.929435 581.679421,387.370531 577.733224,396.27949 Z M273.380997,72.2526965 C268.585963,65.5542817 265.76378,57.3473784 265.76378,48.4813189 L265.76378,40.8838583 C265.76378,18.3043268 284.068106,-1.237499e-13 306.647638,-1.27897692e-13 C329.227169,-1.32045485e-13 347.531496,18.3043268 347.531496,40.8838583 L347.531496,48.4813189 C347.531496,57.3473784 344.709313,65.5542817 339.914279,72.2526965 L344.51378,72.2526965 C367.709739,72.2526965 386.51378,91.056737 386.51378,114.252696 L386.51378,180.46225 C386.51378,203.658209 367.709739,222.46225 344.51378,222.46225 L268.781496,222.46225 C245.585537,222.46225 226.781496,203.658209 226.781496,180.46225 L226.781496,114.252696 C226.781496,91.056737 245.585537,72.2526965 268.781496,72.2526965 L273.380997,72.2526965 Z M289,653 L332,653 C337.522847,653 342,657.477153 342,663 C342,668.522847 337.522847,673 332,673 L289,673 C283.477153,673 279,668.522847 279,663 C279,657.477153 283.477153,653 289,653 Z M152,643 L250,643 C255.522847,643 260,647.477153 260,653 L260,663 C260,668.522847 255.522847,673 250,673 L152,673 C146.477153,673 142,668.522847 142,663 L142,653 C142,647.477153 146.477153,643 152,643 Z" id="Shadow" fill="#D8DEED" fill-rule="nonzero"></path>
                    <path d="M345.80529,484.439321 C346.600322,476.471432 347.175724,467.991658 347.531496,459 L135.685738,459 C133.279464,455.986141 132,452.69134 132,449.100343 C132,420.567163 136.056941,382.813 144.170822,335.837854 C151.900921,270.957983 187.510881,236.578286 251.0007,232.698764 C346.235428,226.87948 458.833169,219.834694 470.584307,335.837854 C478.389157,412.884624 499.335394,443.06055 481.741405,459.1849 L509,459.1849 C532.195959,459.1849 551,477.98894 551,501.1849 L551,575 C551,598.195959 532.195959,617 509,617 L282.507113,616.8151 C308.416117,585.546991 325.384835,560.170379 333.413265,540.685264 C339.377488,526.21001 343.508163,507.461363 345.80529,484.439321 Z M68,575 L68,574.8151 L68,575 Z" id="Cloth" fill="#E1E5F0" fill-rule="nonzero"></path>
                    <path d="M345.511447,230.41773 C355.873909,231.431402 365.738204,232.857293 375.104331,234.695403 L375.104331,318.743907 C375.104331,341.939867 356.30029,360.743907 333.104331,360.743907 L280.190945,360.743907 C256.994985,360.743907 238.190945,341.939867 238.190945,318.743907 L238.190945,233.939651 C246.932695,232.261596 256.449351,230.975255 266.740914,230.080629 C250.141577,224.473067 238.190945,208.772359 238.190945,190.280431 L238.190945,162.206027 C242.110465,151.473156 252.410465,143.811248 264.5,143.811248 C279.963973,143.811248 292.5,156.347275 292.5,171.811248 L301.5,171.811248 C301.5,151.376712 284.934536,134.811248 264.5,134.811248 C254.208209,134.811248 244.897847,139.013248 238.190945,145.795217 L238.190945,124.070878 C238.190945,123.376521 238.207795,122.6861 238.241107,122 L375.054168,122 C375.087481,122.6861 375.104331,123.376521 375.104331,124.070878 L375.104331,147.173308 C368.328589,139.58706 358.47202,134.811248 347.5,134.811248 C327.065464,134.811248 310.5,151.376712 310.5,171.811248 L319.5,171.811248 C319.5,156.347275 332.036027,143.811248 347.5,143.811248 C361.356321,143.811248 372.861836,153.876244 375.104331,167.094023 L375.104331,190.280431 C375.104331,209.157413 362.650826,225.125722 345.511447,230.41773 Z M308.004386,454.540704 C316.737054,449.993228 322.623748,446.703738 325.664466,444.672233 C332.233537,440.283434 336.339314,436.634477 337.981798,433.725361 L321.00432,426.1803 C318.746939,425.177084 317.205776,423.034762 316.972325,420.575552 C316.615284,416.814416 319.374848,413.475973 323.135991,413.118991 C341.802262,411.347019 356.482455,412.490472 367.17657,416.549352 C382.061089,422.198673 396.986436,436.342731 411.952609,458.981527 L412,459 L316.691284,459 L204.004578,459 L204.095464,458.96457 C204.060728,458.971794 204.044338,458.97391 204.046295,458.970917 C218.948517,436.358229 234.026074,422.165591 248.82343,416.549352 C259.517545,412.490472 274.197738,411.347019 292.864009,413.118991 C296.625152,413.475973 299.384716,416.814416 299.027675,420.575552 C298.794224,423.034762 297.253061,425.177084 294.99568,426.1803 L278.018202,433.725361 C279.660686,436.634477 283.766463,440.283434 290.335534,444.672233 C293.376252,446.703738 299.26587,449.993228 308.004386,454.540704 Z" id="Body" fill="#F2F6FB" fill-rule="nonzero"></path>
                    <g id="Rocks" transform="translate(110.000000, 643.000000)" fill="#E1E5F0" fill-rule="nonzero">
                        <rect id="Rectangle" x="0" y="10" width="93" height="20" rx="10"></rect>
                    </g>
                </g>
            </g>
            <g id="Interior-/-Sofa-/-Sofa-1" transform="translate(546.000000, 682.000000)">
                <g id="Sofa">
                    <path d="M665.649575,6.01071323 C687.963043,5.69052602 710.906485,5.61174334 734.4799,5.77436519 C770.210353,6.02085269 764.927403,9.12036216 783.307033,6.02085269 C794.496549,4.13387186 800.84321,0.47101576 804.096423,0.981710785 C806.18686,1.30987116 807,3.36130723 807,8.71453372 C807,17.8372743 802.923837,36.8566013 794.771512,65.7725148 L745.479896,172.780927 L727.119943,222.280683 C721.37412,237.771836 706.695002,248.136105 690.17419,248.366428 L573,250 L642.820534,15.0584115 C644.452914,9.56555542 649.534332,5.82469244 655.264151,5.89760894 L664.24179,6.01185656 C664.711036,6.01782746 665.18034,6.01744652 665.649575,6.01071323 Z" id="Pillow" fill="#A339FF" fill-rule="nonzero"></path>
                    <path d="M748.973166,265.09462 C748.672878,268.405779 745.889396,271 742.5,271 L731.015087,271 L760.026102,379.270584 C760.010614,379.674746 757.775794,380.573573 754.773024,381.378163 C753.387131,381.749512 751.98457,382.058658 751.027307,382.181819 C750.070043,382.30498 749.45092,382.304202 749.400918,382.117594 L719.627049,271 L40.9735049,271 L11.1996354,382.117594 C10.9841414,382.459864 8.59931653,382.120861 5.59654712,381.316271 C4.21065354,380.944922 2.84142712,380.51137 1.95083237,380.139399 C1.06023763,379.767428 0.52444986,379.457192 0.574451323,379.270584 L29.5854669,271 L21.5,271 C17.9101491,271 15,268.089851 15,264.5 C15,260.910149 17.9101491,258 21.5,258 L737.666971,258 L821.340773,14.9936329 C822.509515,11.5993622 826.208566,9.79521402 829.602837,10.9639551 C832.997108,12.1326963 834.801256,15.8317482 833.632515,19.2260189 L748.973166,265.09462 Z" id="Combined-Shape" fill="#D8DEED" fill-rule="nonzero"></path>
                </g>
            </g>
            <g id="UI-/-Social-/-Chat-4" transform="translate(1064.000000, 185.000000)">
                <rect id="Background-Copy-2" fill="#E1E5F0" fill-rule="nonzero" x="60" y="180" width="413" height="125" rx="20"></rect>
                <path d="M98.4590909,239.509091 L307.395455,239.509091 C308.500024,239.509091 309.395455,240.404521 309.395455,241.509091 L309.395455,251.957576 C309.395455,253.062145 308.500024,253.957576 307.395455,253.957576 L98.4590909,253.957576 C97.3545214,253.957576 96.4590909,253.062145 96.4590909,251.957576 L96.4590909,241.509091 C96.4590909,240.404521 97.3545214,239.509091 98.4590909,239.509091 Z M98.4590909,262.987879 L325.440909,262.987879 C326.545479,262.987879 327.440909,263.883309 327.440909,264.987879 L327.440909,275.436364 C327.440909,276.540933 326.545479,277.436364 325.440909,277.436364 L98.4590909,277.436364 C97.3545214,277.436364 96.4590909,276.540933 96.4590909,275.436364 L96.4590909,264.987879 C96.4590909,263.883309 97.3545214,262.987879 98.4590909,262.987879 Z" id="Text" fill="#F2F6FB" fill-rule="nonzero"></path>
                <rect id="Title" fill="#F2F6FB" fill-rule="nonzero" x="96.4590909" y="216.030303" width="234.590909" height="14.4484848" rx="2"></rect>
                <rect id="Background-Copy" fill="#F2F6FB" fill-rule="nonzero" x="60" y="38" width="413" height="125" rx="20"></rect>
                <g id="Icons-/-User" stroke-width="1" fill-rule="evenodd" transform="translate(96.309091, 63.466667)">
                    <path d="M314.140909,215.775758 C294.20845,215.775758 278.05,199.60374 278.05,179.654545 C278.05,159.705351 294.20845,143.533333 314.140909,143.533333 C334.073368,143.533333 350.231818,159.705351 350.231818,179.654545 C350.231818,199.60374 334.073368,215.775758 314.140909,215.775758 Z M36.2409091,73.1818182 C16.3084504,73.1818182 0.15,57.0098007 0.15,37.0606061 C0.15,17.1114115 16.3084504,0.939393939 36.2409091,0.939393939 C56.1733678,0.939393939 72.3318182,17.1114115 72.3318182,37.0606061 C72.3318182,57.0098007 56.1733678,73.1818182 36.2409091,73.1818182 Z" id="Ovals" fill="#474BFF" fill-rule="nonzero"></path>
                    <path d="M36.2223692,36.5724816 C31.3075164,36.5724816 27.323241,32.6387476 27.323241,27.7862408 C27.323241,22.933734 31.3075164,19 36.2223692,19 C41.1372221,19 45.1214975,22.933734 45.1214975,27.7862408 C45.1214975,32.6387476 41.1372221,36.5724816 36.2223692,36.5724816 Z M36.2223692,40.965602 C45.130545,40.965602 52.3520392,48.0954899 52.3520392,56.8906634 L20.0926993,56.8906634 C20.0926993,48.0954899 27.3141935,40.965602 36.2223692,40.965602 Z M314.122369,179.166421 C309.207516,179.166421 305.223241,175.232687 305.223241,170.38018 C305.223241,165.527673 309.207516,161.593939 314.122369,161.593939 C319.037222,161.593939 323.021498,165.527673 323.021498,170.38018 C323.021498,175.232687 319.037222,179.166421 314.122369,179.166421 Z M314.122369,183.559541 C323.030545,183.559541 330.252039,190.689429 330.252039,199.484603 L297.992699,199.484603 C297.992699,190.689429 305.214194,183.559541 314.122369,183.559541 Z" id="Combined-Shape" fill="#FFFFFF"></path>
                </g>
                <path d="M188.686364,93.3030303 L397.622727,93.3030303 C398.727297,93.3030303 399.622727,94.1984608 399.622727,95.3030303 L399.622727,105.751515 C399.622727,106.856085 398.727297,107.751515 397.622727,107.751515 L188.686364,107.751515 C187.581794,107.751515 186.686364,106.856085 186.686364,105.751515 L186.686364,95.3030303 C186.686364,94.1984608 187.581794,93.3030303 188.686364,93.3030303 Z M188.686364,116.781818 L433.713636,116.781818 C434.818206,116.781818 435.713636,117.677249 435.713636,118.781818 L435.713636,129.230303 C435.713636,130.334873 434.818206,131.230303 433.713636,131.230303 L188.686364,131.230303 C187.581794,131.230303 186.686364,130.334873 186.686364,129.230303 L186.686364,118.781818 C186.686364,117.677249 187.581794,116.781818 188.686364,116.781818 Z" id="Text" fill="#E1E5F0" fill-rule="nonzero"></path>
                <rect id="Title" fill="#E1E5F0" fill-rule="nonzero" x="186.686364" y="69.8242424" width="162.409091" height="14.4484848" rx="2"></rect>
            </g>
            <g id="Characters-in-moshion-/-Woman-in-moshion-/-11" transform="translate(444.000000, 0.000000)">
                <g id="Woman" transform="translate(86.000000, 576.000000)">
                    <g id="Legs" transform="translate(0.551873, 39.994872)" fill-rule="nonzero">
                        <path d="M316.231227,212.230559 L316.231227,212.830559 C316.131227,215.130559 314.231227,216.930559 311.931227,216.930559 L152.531227,215.330559 C150.231227,215.230559 148.431227,213.330559 148.431227,211.030559 L148.431227,210.430559 C148.531227,208.130559 150.431227,206.330559 152.731227,206.330559 L312.031227,207.930559 C314.431227,207.930559 316.231227,209.830559 316.231227,212.230559 Z M-7.68318082,154.96665 L77.6338207,291.502393 C78.9508192,293.610032 78.3098791,296.386248 76.202241,297.703247 C74.0946028,299.020245 71.3183863,298.379305 70.0013879,296.271667 L-15.3156137,159.735923 C-16.6326122,157.628285 -15.9916721,154.852069 -13.8840339,153.53507 C-11.7763958,152.218072 -9.0001793,152.859012 -7.68318082,154.96665 Z" id="Base" fill="#FFCB3D" transform="translate(150.115613, 225.619158) scale(-1, 1) rotate(-58.000000) translate(-150.115613, -225.619158) "></path>
                        <path d="M326.41128,215.173358 C326.020311,215.055147 325.602022,214.991779 325.163722,214.991779 L165.863722,213.391779 C165.074255,213.391779 164.331916,213.603851 163.69332,213.975423 L162.550186,156.247086 L238.150186,151.647086 L256.050186,164.847086 C260.150186,168.947086 264.650186,172.647086 269.450186,175.947086 C281.150186,183.747086 287.250186,183.647086 305.050186,192.247086 C309.850186,194.547086 314.450186,197.047086 319.050186,199.947086 C321.250186,201.947086 325.150186,205.947086 326.350186,210.747086 C326.550186,211.547086 326.550186,212.347086 326.650186,213.047086 C326.650186,213.79418 326.562115,214.504577 326.41128,215.173358 Z M91.0440659,299.079034 C90.9637454,298.9037 90.8712448,298.731535 90.7663157,298.563613 L5.44931414,162.027869 C5.33204586,161.840201 5.20320819,161.664161 5.06430327,161.500097 L61.7717926,126.065325 L98.023911,184.080842 C97.3488275,199.734155 96.5765096,209.444034 95.7069575,213.210478 C94.4026293,218.860144 93.649488,224.637062 93.3945417,230.456426 C92.979822,244.511959 96.2971343,249.632061 98.4364836,269.284622 C99.0295854,274.574068 99.3470938,279.799887 99.3253829,285.237674 C99.3036721,290.675461 97.4696019,293.590283 94.0348741,297.151553 C93.4624195,297.745098 92.783981,298.169034 92.2433393,298.624782 C91.8514286,298.869675 91.4500019,299.014549 91.0440659,299.079034 Z" id="Shoes" fill="#474961" transform="translate(165.857245, 212.572179) scale(-1, 1) rotate(-58.000000) translate(-165.857245, -212.572179) "></path>
                        <path d="M230.667757,162.100713 C230.275484,161.981617 229.85565,161.917756 229.41565,161.917756 L70.11565,160.317756 C69.3275922,160.317756 68.5864935,160.529072 67.9486683,160.899413 L66.8056855,103.178779 L142.405685,98.5787786 L160.305685,111.778779 C164.405685,115.878779 168.905685,119.578779 173.705685,122.878779 C185.405685,130.678779 191.505685,130.578779 209.305685,139.178779 C214.105685,141.478779 218.705685,143.978779 223.305685,146.878779 C225.505685,148.878779 229.405685,152.878779 230.605685,157.678779 C230.805685,158.478779 230.805685,159.278779 230.905685,159.978779 C230.905685,160.724257 230.817995,161.433198 230.667757,162.100713 Z" id="Shadow-Shoes" fill="#444444" opacity="0.176985679" transform="translate(148.855685, 130.339746) scale(-1, 1) rotate(-58.000000) translate(-148.855685, -130.339746) "></path>
                        <path d="M188.919489,152.786047 L174.60649,108.87152 C172.201226,101.491791 175.439498,93.4501403 182.287696,89.7966653 L212.872456,73.4798683 C228.031019,49.8190696 248.977412,34.3225499 278.205377,46.1857458 C279.107381,46.5518555 280.039399,46.9434333 281.001433,47.360479 L280.152959,46.8721559 C329.186487,19.4222984 359.468916,4.12010563 371.000248,0.965577458 C382.531579,-2.18895071 394.239437,2.38587097 406.123821,14.6900425 L530.396263,188.360601 C606.037282,192.876711 643.956629,215.146689 644.154302,255.170533 C644.350185,295.194378 622.911489,319.611371 579.838214,328.421513 C537.356962,331.972173 502.448623,330.746126 475.113195,324.743371 C444.141188,326.410809 417.622707,322.324078 395.557753,312.48318 C360.096902,296.667755 326.939937,261.887814 296.086859,208.143358 L294.546447,255.890019 L190.114092,255.890019 C184.591243,255.890022 180.114089,251.412868 180.114089,245.890019 C180.114089,245.667971 180.121485,245.445985 180.136264,245.22443 C182.608642,208.161071 185.536384,177.348277 188.919489,152.786047 Z" fill="#DE3190"></path>
                        <path d="M475.331221,324.731542 C444.265621,326.429949 417.674464,322.347162 395.557753,312.48318 C360.096902,296.667755 326.939937,261.887814 296.086859,208.143358 L294.546447,255.890019 L190.114092,255.890019 C184.591243,255.890022 180.114089,251.412868 180.114089,245.890019 C180.114089,245.667971 180.121485,245.445985 180.136264,245.22443 C185.607458,163.205906 193.308588,111.796696 203.239654,90.9968012 C218.771845,58.465759 242.207435,31.574717 278.205377,46.1857458 C279.479102,46.7027318 280.812679,47.2705022 282.206107,47.8890569 L349.315853,86.5128355 L356.836802,119.843044 C374.511809,216.368473 397.067089,276.858469 424.502641,301.31303 C436.652297,312.142573 453.595157,319.948744 475.331221,324.731542 Z" id="Combined-Shape" fill="#444444" opacity="0.176985679"></path>
                    </g>
                    <g id="Body" transform="translate(418.000000, 0.954242)" fill-rule="nonzero">
                        <path d="M225.083189,103.335393 C233.870717,103.853871 244.129088,106.36337 253.385606,113.55805 C264.288912,121.979327 268.687019,131.589044 276.643294,150.965 C283.249377,167.056603 288.933823,181.298754 282.412562,189.654606 C277.639404,195.77057 269.278551,195.77057 263.659439,195.389025 C255.333293,193.757139 247.587664,193.146703 240.04534,192.894896 L222.098645,231.948812 C220.27721,237.068489 207.589268,269.186471 203.854352,273.150361 C193.184417,284.561142 166.081273,273.225272 122.544922,239.142752 C111.558606,229.314627 108.494341,217.552258 113.352127,203.855643 C116.143577,195.099779 118.750564,186.975835 121.173087,179.483809 C115.606295,178.73114 107.535259,176.709264 104.173675,170.625006 C99.0523733,161.344258 107.548219,148.27098 117.121198,133.752093 C128.554089,116.226426 134.712068,107.636939 146.956877,101.369193 C154.492823,97.5339268 162.079058,96.1830509 168.9954,96.1537719 C181.852914,93.4065821 201.823549,92.7593098 225.083189,103.335393 Z" id="T-shirt" fill="#FFCB3D"></path>
                        <path d="M120.82374,179.644592 C115.301725,178.81633 107.761574,176.715589 104.541831,170.888054 C99.4205288,161.607306 108.227902,148.719331 117.489354,134.015142 C128.764265,116.114231 135.079535,107.254167 147.324344,100.986421 C154.401867,97.3844598 161.523838,96.0593854 168.093605,95.9856747 C162.925181,97.143988 158.96708,98.6275339 156.483737,99.8054297 C150.205184,102.751225 148.454336,105.258593 143.859766,113.452622 C141.277445,118.057973 133.59877,140.121963 120.82374,179.644592 Z" id="Shadow-T-shirt" fill="#444444" opacity="0.176985679"></path>
                        <path d="M110.724206,150.903802 L110.639557,150.985315 L62.4395573,100.685315 C60.4395573,98.5853154 60.5395573,95.1853154 62.6395573,93.1853154 L68.5395573,87.4853154 C70.6395573,85.4853154 74.0395573,85.5853154 76.0395573,87.6853154 L124.089774,137.933255 L124.139557,137.885315 L125.639557,146.685315 C126.339557,150.485315 123.039557,153.685315 119.339557,152.785315 L110.724206,150.903802 Z" id="Pencil" fill="#474BFF" transform="translate(93.366999, 119.492116) scale(-1, 1) rotate(-47.000000) translate(-93.366999, -119.492116) "></path>
                        <path d="M207.000344,78.9254271 C208.663158,84.1486299 211.342494,90.9627846 215.038353,99.367891 C210.424728,97.8050111 205.440713,96.6117015 200.086309,95.7879622 C192.054703,94.5523533 188.449687,94.4381479 184.444702,94.42853 L183.700282,88.2721845 C177.535275,90.396868 177.887242,90.2044443 177.338147,90.4439394 C172.976003,91.5171132 168.555865,91.7861497 164.167129,91.4560086 C155.605083,90.5066046 146.235502,74.3941571 142.61964,51.67378 C142.319626,49.7554495 142.214105,47.9474491 142.108584,46.1394487 L141.962606,27.9068217 C141.882828,23.6968768 142.891075,19.7442275 144.877018,16.2433659 C145.649329,14.8819197 146.621366,13.5309407 147.593403,12.1799617 C158.727554,-1.55614671 177.938301,0.652292691 181.512433,1.24015395 C181.911885,1.26108833 182.306103,1.38188567 182.805418,1.40805364 C186.458478,2.40060031 190.043077,2.78873566 193.738007,2.9823787 C195.435677,3.07134982 196.671092,4.33774201 196.582121,6.03541222 L196.114919,32.1467454 C196.125811,33.8496492 204.370222,32.2522666 206.178223,32.1467454 C210.992579,31.9985062 217.392786,35.9403328 219.133599,40.9382895 C220.459259,46.2149006 219.580793,53.4817799 216.086439,57.1038635 C214.818302,58.3725664 211.817445,65.6329015 207.083867,78.8848688 C207.068455,78.8940161 207.040188,78.9076854 207.000344,78.9254271 Z M116.782398,129.162884 L122.203437,129.236561 C124.630246,133.746679 126.928212,137.990131 128.892609,141.57326 C131.023719,143.675703 132.528103,145.152467 132.732269,145.378918 C180.156386,196.048675 203.898896,221.397111 203.959799,221.424227 C204.183182,221.41422 204.672555,218.348194 205.857895,206.834942 C205.946859,204.517658 206.211568,198.884916 206.645933,191.982721 C225.917623,193.579104 243.001805,191.340224 263.659439,195.389025 C266.674734,195.593767 270.572414,195.603222 274.254077,194.705926 C272.843897,206.676075 270.62132,222.736412 266.816885,241.528624 C255.377604,297.954087 245.210142,303.826286 240.721183,305.549435 C236.892365,307.019181 225.132492,310.321511 203.96212,295.422673 C195.468727,287.70048 186.904638,279.399493 178.361208,270.560386 C154.284355,245.697885 133.835537,220.266909 116.440421,195.230562 C113.34995,203.351297 111.623798,209.227765 111.261963,212.859967 C110.910401,216.389045 111.818685,221.012135 113.61792,227.401231 C113.666624,227.574179 113.443363,227.574179 112.948136,227.401231 L98.904954,207.993991 C100.437553,205.499558 103.451108,197.059983 107.945618,182.675267 C101.219528,172.464623 94.9916604,162.347664 89.2223028,152.390986 L68.9083778,128.675299 C67.0619172,126.430175 67.2265463,123.1101 69.5123443,121.172285 L71.5440931,119.559214 C72.458217,118.784254 73.5393548,118.381267 74.6284259,118.314432 L73.2517422,116.707209 C71.4052817,114.462085 71.5699107,111.14201 73.8557088,109.204195 L75.8874576,107.591124 C77.3721551,106.332452 79.2760449,105.999325 80.9592117,106.546804 C80.6294392,104.753754 81.210433,102.846636 82.7348445,101.554296 L84.7665933,99.9412256 C87.0523913,98.0034105 90.3824734,98.3914223 92.2696077,100.545192 L94.3874796,103.017722 C92.7953637,96.1260013 93.3619608,89.5987219 99.9643582,87.442108 C99.9643582,87.442108 105.446352,97.8383842 112.078024,110.300559 L100.50119,110.155232 L116.782398,129.162884 Z" id="Skin" fill="#F2A98A"></path>
                        <path d="M239.354724,35.8047535 C239.721956,37.7207047 240.012038,39.5463362 240.392541,41.3767065 C241.780155,41.6497027 243.262399,42.0277955 244.923434,42.8158073 C246.095621,43.3779252 254.122142,46.9028316 257.461187,53.8871555 C262.241031,63.9511055 257.099082,79.9038594 241.669974,89.6096637 C240.844902,90.0671097 240.130161,90.3300634 240.130161,90.3300634 C237.476154,91.2924824 234.969113,91.3613684 232.362209,91.4250209 C231.862895,91.3988529 231.258483,91.4673143 231.258483,91.4673143 C225.802798,91.1146357 219.991417,90.7355521 213.824341,90.3300634 C210.382611,89.7760034 208.185793,86.8339042 207.233887,81.5037659 C206.974231,80.0498419 206.867417,78.2688224 206.824919,76.2629751 C206.560765,72.5622694 206.086416,65.803035 205.751902,60.3894689 C209.078055,59.9626568 212.162183,58.4221278 214.489565,56.0411465 C218.183645,52.4295301 219.370259,46.9841701 217.729309,41.991447 C215.988496,36.9934904 210.989266,33.0264141 206.174909,33.1746534 C204.366909,33.2801745 202.632604,33.8902441 200.98246,34.8051361 C198.901464,36.2982714 197.104355,38.1066964 195.980119,40.4510714 L191.068448,52.0098553 L191.155792,52.0842619 C191.088762,52.0934953 191.02455,52.100071 190.963352,52.1044846 C182.002278,53.036776 178.068578,19.1845086 158.946378,13.3757693 C154.510115,12.041765 149.698532,12.5039703 146.960579,13.1615782 C155.191952,-2.73468636 181.430691,0.640410022 181.930006,0.666578 C187.890382,1.57977146 193.433184,3.06654086 196.628799,3.23401592 C212.386211,4.46037585 218.582523,2.78236611 226.362215,7.1955719 C229.2796,8.85052407 231.971091,10.9943238 233.926906,13.8005291 C239.177517,21.137438 239.732022,29.8541834 239.354724,35.8047535 Z M154.89208,42.2311189 C153.903917,41.979057 153.672365,40.6651378 154.408041,40.0027323 C155.448539,39.2561646 157.088215,38.5409985 159.080241,38.7455334 C163.363881,39.1703039 167.61131,42.1967448 162.865415,42.9493954 C160.032617,43.5018954 156.863171,42.8351055 154.89208,42.2311189 Z M137.936312,40.9419558 C136.953383,40.590031 136.821694,39.2813454 137.751862,38.72927 C138.88699,38.0877989 140.421569,37.4672622 142.602854,37.8819901 C146.77093,38.6011159 150.797699,42.0165414 145.867779,42.4591359 C142.850956,42.7015799 139.902169,41.6458054 137.936312,40.9419558 Z" id="Hair" fill="#482D1F"></path>
                        <path d="M155.320299,46.5517344 C155.394506,46.0044577 155.011007,45.5006456 154.46373,45.4264386 C153.916454,45.3522316 153.412642,45.7357304 153.338435,46.283007 L152.538435,52.183007 L152.52941,52.3080253 L152.430369,62.90547 C152.392308,63.0246411 152.297301,63.1034017 152.16601,63.1156877 C151.823648,63.0813435 151.47254,63.07163 151.085321,63.0813458 C150.783401,63.0889212 150.553609,63.1025241 150.021842,63.139889 C148.477178,63.2484257 147.806954,63.2149605 146.955959,62.8925425 C146.439499,62.6968705 145.862202,62.9569205 145.66653,63.4733805 C145.470858,63.9898405 145.730908,64.5671375 146.247368,64.7628095 C147.449144,65.2181285 148.343208,65.2627703 150.162028,65.1349699 C150.663488,65.0997346 150.873869,65.0872808 151.135487,65.0807165 C151.465967,65.0724244 151.751359,65.0815238 152.018935,65.1112544 L152.129367,65.1173707 C153.297325,65.1173707 154.231567,64.2869341 154.415761,63.1817697 L154.429323,63.0267161 L154.528736,52.3895086 L155.320299,46.5517344 Z" id="Nose" fill="#482D1F" transform="translate(150.465439, 55.307138) scale(-1, 1) rotate(-3.000000) translate(-150.465439, -55.307138) "></path>
                        <path d="M153.102503,72.0612655 C152.402503,71.9612655 150.602503,71.5612655 150.202503,70.4612655 C150.202503,70.2612655 150.002503,69.9612655 150.102503,69.7612655 C150.402503,69.2612655 153.502503,69.2612655 153.502503,69.2612655 C157.602503,69.3612655 158.602503,69.1612655 158.902503,69.6612655 C159.002503,69.9612655 159.002503,70.3612655 158.302503,71.2612655 C157.502503,72.9612655 154.202503,72.2612655 153.102503,72.0612655 Z" id="Mouth" fill="#482D1F" transform="translate(154.512170, 70.817766) scale(-1, 1) rotate(-1.000000) translate(-154.512170, -70.817766) "></path>
                        <polygon id="Shadow" fill="#482D1F" transform="translate(187.342766, 89.662297) scale(-1, 1) rotate(-3.000000) translate(-187.342766, -89.662297) " points="191.392766 88.4664695 183.292766 85.0664695 190.045708 94.2581247"></polygon>
                        <path d="M144.566875,53.9067404 C143.263847,55.8411963 140.109252,51.0695582 140.981001,47.8107159 C141.253998,46.4231018 142.173699,46.0707523 142.877973,46.0075245 C143.976465,46.0650941 145.132952,46.9268009 145.164778,48.2302529 C145.375396,49.9436239 145.528444,52.7554873 144.566875,53.9067404 Z M160.802674,54.4123355 C159.399784,56.3415578 156.345052,51.5751533 157.216801,48.316311 C157.489798,46.9286968 158.409499,46.5763474 159.113773,46.5131196 C160.212265,46.5706892 161.368752,47.4323959 161.400578,48.7358479 C161.611196,50.4492189 161.864107,53.266316 160.802674,54.4123355 Z" id="Eyes" fill="#482D1F"></path>
                        <path d="M130.5,133.329471 L130.5,133.329471 C130.5,136.529471 127.9,139.129471 124.7,139.129471 L-21.2,139.129471 C-24.4,139.129471 -27,136.529471 -27,133.329471 L-27,133.329471 C-27,130.129471 -24.4,127.529471 -21.2,127.529471 L124.7,127.529471 C127.9,127.529471 130.5,130.129471 130.5,133.329471 Z" id="Note" fill="#474961" transform="translate(51.750000, 133.329471) scale(-1, 1) rotate(-54.000000) translate(-51.750000, -133.329471) "></path>
                        <path d="M93.3626839,190.94902 C99.9233794,204.60752 103.494761,212.875843 104.076827,215.753987 L127.583066,220.370116 C128.063202,220.158859 128.226485,220.006595 128.072915,219.913325 C122.399686,216.467712 118.582469,213.706046 116.432759,210.885277 C114.195763,207.949974 111.414131,202.385657 108.087862,194.192325 L93.3626839,190.94902 Z" id="Shadow-Arms" fill="#8C2A00" opacity="0.2" transform="translate(110.745711, 205.659568) rotate(43.000000) translate(-110.745711, -205.659568) "></path>
                        <path d="M207.04218,168.398974 C207.068788,168.508791 207.118662,168.731134 207.184127,169.051858 C207.29491,169.594606 207.406073,170.207859 207.509981,170.877338 C207.90952,173.451574 208.088435,176.07212 207.925364,178.490299 C207.490981,184.931764 204.913307,188.20633 199.168919,187.5553 C198.345761,187.462008 197.602833,188.053682 197.509542,188.876839 C197.41625,189.699997 198.007924,190.442925 198.831081,190.536217 C206.615301,191.418428 210.383143,186.631923 210.918566,178.692148 C211.098532,176.023426 210.905273,173.192787 210.474487,170.417226 C210.363042,169.69919 210.243471,169.039546 210.123519,168.451882 C210.050543,168.09436 209.992741,167.836673 209.95782,167.692542 C209.762744,166.88741 208.951915,166.392862 208.146784,166.587938 C207.341652,166.783014 206.847104,167.593843 207.04218,168.398974 Z" id="Shadow" fill="#482D1F" transform="translate(204.242776, 178.592909) scale(-1, 1) rotate(-21.000000) translate(-204.242776, -178.592909) "></path>
                    </g>
                </g>
            </g>
        </g>
        <g id="UI-/-Content-/-Article-/-1" transform="translate(653.000000, 215.000000)">
            <g id="Article" stroke-width="1" fill-rule="evenodd">
                <g id="Browser">
                    <g id="Background"></g>
                    <g id="Browser-Header" transform="translate(24.652133, 14.000000)">
                        <g id="Group-4"></g>
                    </g>
                </g>
                <g id="Content" fill-rule="nonzero">
                    <path d="M20,0 L375,0 C386.045695,-5.58177493e-15 395,8.954305 395,20 L395,297 C395,300.313708 392.313708,303 389,303 L6,303 C2.6862915,303 4.05812251e-16,300.313708 0,297 L0,20 C-1.3527075e-15,8.954305 8.954305,2.02906125e-15 20,0 Z" id="Background" fill="#F2F6FB"></path>
                    <rect id="Placeholder" fill="#A339FF" x="22.9432922" y="66.7627119" width="342.384515" height="88.0832049" rx="4"></rect>
                    <ellipse id="Oval-2" fill="#F2F6FB" cx="206.236855" cy="99.0899679" rx="4.10391369" ry="4.14063049"></ellipse>
                    <path d="M170.138929,100.529094 C170.138929,100.529094 171.031297,100.529094 172.148722,100.529094 L206.515909,100.529094 C207.625887,100.529094 208.049682,101.293664 207.470447,102.224017 L190.705809,129.150945 C190.123008,130.087025 189.151748,130.090415 188.543908,129.16909 L173.939751,106.839798" id="Rectangle-2" fill="#F2F6FB" transform="translate(188.308625, 114.416601) rotate(180.000000) translate(-188.308625, -114.416601) "></path>
                    <path d="M197.221029,115.07385 C197.221029,115.07385 198.108573,115.040595 199.226891,114.998693 L217.162507,114.326668 C218.270314,114.285159 218.842392,115.080775 218.438808,116.107465 L211.837117,132.901745 C211.434191,133.92676 210.587787,134.036344 209.942926,133.14138 L204.982395,126.256957" id="Rectangle-2" fill="#F2F6FB" transform="translate(208.194699, 124.504605) rotate(304.000000) translate(-208.194699, -124.504605) "></path>
                    <path d="M24.9432922,170.700894 L144.484097,170.700894 C145.588666,170.700894 146.484097,171.596324 146.484097,172.700894 L146.484097,182.794206 C146.484097,183.898776 145.588666,184.794206 144.484097,184.794206 L24.9432922,184.794206 C23.8387227,184.794206 22.9432922,183.898776 22.9432922,182.794206 L22.9432922,172.700894 C22.9432922,171.596324 23.8387227,170.700894 24.9432922,170.700894 Z M24.9432922,193.602527 L109.186724,193.602527 C110.291293,193.602527 111.186724,194.497957 111.186724,195.602527 L111.186724,205.69584 C111.186724,206.800409 110.291293,207.69584 109.186724,207.69584 L24.9432922,207.69584 C23.8387227,207.69584 22.9432922,206.800409 22.9432922,205.69584 L22.9432922,195.602527 C22.9432922,194.497957 23.8387227,193.602527 24.9432922,193.602527 Z M24.9432922,216.50416 L126.83541,216.50416 C127.93998,216.50416 128.83541,217.399591 128.83541,218.50416 L128.83541,228.597473 C128.83541,229.702043 127.93998,230.597473 126.83541,230.597473 L24.9432922,230.597473 C23.8387227,230.597473 22.9432922,229.702043 22.9432922,228.597473 L22.9432922,218.50416 C22.9432922,217.399591 23.8387227,216.50416 24.9432922,216.50416 Z M24.9432922,239.405794 L91.5380376,239.405794 C92.6426071,239.405794 93.5380376,240.301224 93.5380376,241.405794 L93.5380376,251.499106 C93.5380376,252.603676 92.6426071,253.499106 91.5380376,253.499106 L24.9432922,253.499106 C23.8387227,253.499106 22.9432922,252.603676 22.9432922,251.499106 L22.9432922,241.405794 C22.9432922,240.301224 23.8387227,239.405794 24.9432922,239.405794 Z M183.781469,193.602527 L306.852011,193.602527 C307.95658,193.602527 308.852011,194.497957 308.852011,195.602527 L308.852011,205.69584 C308.852011,206.800409 307.95658,207.69584 306.852011,207.69584 L183.781469,207.69584 C182.6769,207.69584 181.781469,206.800409 181.781469,205.69584 L181.781469,195.602527 C181.781469,194.497957 182.6769,193.602527 183.781469,193.602527 Z M183.781469,216.50416 L322.735829,216.50416 C323.840398,216.50416 324.735829,217.399591 324.735829,218.50416 L324.735829,228.597473 C324.735829,229.702043 323.840398,230.597473 322.735829,230.597473 L183.781469,230.597473 C182.6769,230.597473 181.781469,229.702043 181.781469,228.597473 L181.781469,218.50416 C181.781469,217.399591 182.6769,216.50416 183.781469,216.50416 Z M183.781469,239.405794 L338.619646,239.405794 C339.724216,239.405794 340.619646,240.301224 340.619646,241.405794 L340.619646,251.499106 C340.619646,252.603676 339.724216,253.499106 338.619646,253.499106 L183.781469,253.499106 C182.6769,253.499106 181.781469,252.603676 181.781469,251.499106 L181.781469,241.405794 C181.781469,240.301224 182.6769,239.405794 183.781469,239.405794 Z M183.781469,262.307427 L290.968193,262.307427 C292.072763,262.307427 292.968193,263.202857 292.968193,264.307427 L292.968193,274.40074 C292.968193,275.505309 292.072763,276.40074 290.968193,276.40074 L183.781469,276.40074 C182.6769,276.40074 181.781469,275.505309 181.781469,274.40074 L181.781469,264.307427 C181.781469,263.202857 182.6769,262.307427 183.781469,262.307427 Z M183.781469,170.700894 L338.619646,170.700894 C339.724216,170.700894 340.619646,171.596324 340.619646,172.700894 L340.619646,182.794206 C340.619646,183.898776 339.724216,184.794206 338.619646,184.794206 L183.781469,184.794206 C182.6769,184.794206 181.781469,183.898776 181.781469,182.794206 L181.781469,172.700894 C181.781469,171.596324 182.6769,170.700894 183.781469,170.700894 Z" id="Combined-Shape" fill="#E1E5F0"></path>
                </g>
            </g>
            <path d="M0,17.1362468 C0,7.67215902 7.66917888,0 17.1312017,0 L377.868798,0 C387.3301,0 395,7.67007812 395,17.1362468 L395,34.2724936 L0,34.2724936 L0,17.1362468 Z" id="Top-bar-Copy" fill="#E1E5F0" fill-rule="nonzero"></path>
            <ellipse id="Burron-Copy" fill="#FF5645" fill-rule="nonzero" cx="22.9832347" cy="17.5257069" rx="7.40138067" ry="7.39974293"></ellipse>
            <ellipse id="Burron-Copy-2" fill="#FFCB3D" fill-rule="nonzero" cx="47.1351085" cy="17.5257069" rx="7.40138067" ry="7.39974293"></ellipse>
            <ellipse id="Burron-Copy-3" fill="#3ABF7C" fill-rule="nonzero" cx="72.066075" cy="17.5257069" rx="7.40138067" ry="7.39974293"></ellipse>
        </g>
    </g>
</svg>